M48
; DRILL file {KiCad (5.1.2)-1} date 11/24/19 21:58:15
; FORMAT={-:-/ absolute / metric / decimal}
; #@! TF.CreationDate,2019-11-24T21:58:15+01:00
; #@! TF.GenerationSoftware,Kicad,Pcbnew,(5.1.2)-1
; #@! TF.FileFunction,Plated,1,4,PTH
FMAT,2
METRIC
T1C0.350
T2C0.500
T3C0.800
T4C1.000
T5C1.100
T6C1.200
T7C2.500
%
G90
G05
T1
X122.2Y-53.8
X122.2Y-58.0
X122.2Y-62.2
X122.2Y-66.4
X122.2Y-88.8
X122.2Y-95.6
X122.5Y-82.3
X122.7Y-78.1
X123.7Y-78.0
X123.7Y-80.0
X125.0Y-76.4
X125.7Y-87.0
X126.5Y-83.5
X126.8Y-100.8
X126.8Y-105.0
X127.0Y-90.4
X127.0Y-94.6
X127.1Y-73.2
X128.0Y-70.5
X129.6Y-52.2
X129.6Y-56.4
X129.6Y-60.6
X129.6Y-64.8
X130.2Y-70.6
X130.2Y-74.8
X131.3Y-98.9
X131.8Y-80.2
X131.8Y-99.4
X133.1Y-86.1
X133.2Y-89.6
X133.2Y-95.5
X133.4Y-110.4
X133.5Y-60.8
X133.6Y-71.6
X133.6Y-79.5
X133.8Y-105.6
X134.2Y-96.1
X134.5Y-63.7
X134.6Y-56.0
X134.6Y-102.6
X135.108Y-81.05
X135.25Y-78.925
X135.4Y-89.6
X135.9Y-78.45
X136.0Y-98.3
X136.0Y-102.2
X136.1Y-104.7
X136.4Y-114.7
X136.5Y-77.9
X136.5Y-97.0
X136.9Y-81.4
X136.9Y-86.8
X137.2Y-128.0
X137.6Y-99.7
X137.6Y-118.7
X138.2Y-70.8
X138.88Y-81.26
X139.5Y-64.6
X139.5Y-112.3
X139.8Y-72.4
X139.8Y-73.2
X139.8Y-74.0
X140.0Y-87.9
X140.5Y-99.8
X141.3Y-89.8
X142.3Y-60.6
X142.7Y-114.5
X142.9Y-95.5
X142.975Y-112.1
X143.075Y-54.6
X143.1Y-117.7
X143.2Y-62.9
X143.2Y-101.7
X143.219Y-99.581
X143.8Y-84.47
X143.825Y-76.5
X144.025Y-110.8
X144.245Y-78.945
X144.3Y-57.925
X144.388Y-90.264
X144.4Y-91.2
X144.5Y-92.15
X144.7Y-81.6
X145.1Y-93.6
X145.1Y-96.4
X145.3Y-88.8
X145.306Y-94.45
X145.4Y-76.2
X145.4Y-78.3
X145.45Y-110.8
X145.5Y-70.2
X145.5Y-71.8
X146.4Y-70.2
X146.4Y-71.8
X146.6Y-53.6
X147.0Y-109.2
X147.045Y-51.2
X147.09Y-54.58
X147.4Y-79.2
X147.6Y-56.6
X147.6Y-57.4
X147.775Y-82.79
X147.775Y-92.95
X147.775Y-95.49
X147.775Y-98.03
X148.0Y-81.6
X148.51Y-57.25
X149.5Y-92.025
X149.56Y-57.09
X149.6Y-79.1
X149.7Y-114.4
X149.9Y-95.1
X150.2Y-66.1
X150.4Y-57.1
X150.4Y-77.7
X150.5Y-60.5
X150.7Y-53.6
X150.918Y-94.686
X151.4Y-105.8
X152.8Y-96.4
X152.825Y-82.79
X152.825Y-92.95
X152.825Y-98.03
X152.9Y-77.7
X153.0Y-66.9
X153.0Y-104.2
X153.2Y-86.6
X153.3Y-128.5
X153.4Y-111.5
X153.5Y-50.9
X153.9Y-114.5
X154.4Y-115.4
X154.6Y-108.6
X154.9Y-75.2
X155.0Y-60.4
X155.0Y-66.2
X155.2Y-90.2
X155.4Y-93.175
X155.5Y-61.7
X155.5Y-79.9
X155.5Y-91.7
X155.748Y-80.625
X156.0Y-72.8
X156.0Y-117.6
X156.8Y-86.6
X157.1Y-91.1
X157.2Y-73.0
X157.2Y-90.1
X157.3Y-55.7
X157.3Y-57.7
X157.3Y-99.825
X157.7Y-119.8
X157.9Y-115.2
X158.1Y-86.4
X158.3Y-73.3
X158.45Y-119.8
X159.075Y-72.9
X159.175Y-75.525
X159.2Y-55.7
X159.4Y-90.6
X159.6Y-88.225
X159.7Y-76.5
X159.7Y-86.675
X159.8Y-55.1
X159.8Y-105.8
X160.227Y-119.742
X160.3Y-90.6
X160.4Y-55.7
X160.9Y-81.6
X161.0Y-55.1
X161.4Y-104.125
X161.6Y-55.7
X162.0Y-116.35
X162.125Y-62.1
X162.125Y-67.7
X162.2Y-55.1
X162.3Y-108.3
X162.5Y-98.9
X162.8Y-98.05
X162.844Y-114.275
X163.4Y-98.7
X163.45Y-58.6
X163.9Y-62.2
X164.121Y-61.321
X164.2Y-80.6
X164.5Y-54.5
X164.616Y-79.976
X164.625Y-97.0
X164.7Y-85.7
X164.7Y-86.8
X164.7Y-89.2
X164.7Y-90.2
X164.797Y-87.685
X165.1Y-98.775
X165.2Y-61.3
X165.3Y-59.6
X165.675Y-98.2
X165.8Y-79.8
X165.9Y-63.6
X165.9Y-65.8
X166.1Y-61.7
X166.4Y-59.6
X166.6Y-76.9
X166.6Y-80.0
X166.7Y-118.4
X166.725Y-98.4
X166.8Y-101.7
X166.83Y-62.035
X166.9Y-57.3
X167.0Y-115.725
X167.2Y-65.8
X167.2Y-104.125
X167.4Y-71.1
X167.5Y-100.1
X167.6Y-77.8
X167.7Y-94.95
X167.714Y-115.956
X167.807Y-59.556
X168.046Y-61.296
X168.1Y-58.0
X168.1Y-63.6
X168.175Y-98.7
X168.5Y-101.3
X168.5Y-119.8
X168.6Y-72.375
X168.7Y-76.3
X168.7Y-109.2
X168.7Y-111.7
X168.8Y-105.7
X169.2Y-82.7
X169.2Y-88.8
X169.6Y-57.9
X169.6Y-79.2
X169.6Y-114.7
X169.675Y-78.0
X169.7Y-72.1
X169.7Y-74.2
X169.746Y-101.654
X169.9Y-60.7
X170.0Y-104.125
X170.2Y-94.9
X170.2Y-102.85
X170.225Y-100.1
X170.4Y-72.1
X170.5Y-101.8
X170.9Y-67.7
X171.0Y-70.8
X171.1Y-72.1
X171.175Y-98.4
X171.3Y-78.3
X171.4Y-61.5
X171.4Y-115.025
X171.5Y-82.9
X171.5Y-91.0
X171.8Y-79.0
X171.9Y-92.1
X172.0Y-57.6
X172.0Y-59.6
X172.075Y-114.5
X172.225Y-99.7
X172.3Y-80.1
X172.5Y-83.0
X172.6Y-115.3
X172.7Y-79.3
X172.8Y-116.3
X172.9Y-123.2
X173.2Y-63.4
X173.2Y-64.5
X173.2Y-82.7
X173.5Y-77.5
X173.503Y-90.799
X173.55Y-92.2
X173.6Y-116.9
X173.821Y-104.421
X174.0Y-57.6
X174.0Y-59.6
X174.0Y-63.4
X174.0Y-64.5
X174.072Y-95.093
X174.2Y-98.4
X174.346Y-99.44
X174.376Y-103.9
X174.7Y-82.7
X174.8Y-63.4
X174.8Y-64.5
X174.8Y-95.275
X174.8Y-106.125
X175.035Y-83.371
X175.2Y-101.8
X175.4Y-89.3
X175.6Y-123.2
X175.683Y-83.749
X176.0Y-57.6
X176.0Y-59.6
X176.0Y-62.2
X176.1Y-84.5
X176.1Y-85.3
X176.225Y-82.9
X176.821Y-85.525
X176.9Y-121.0
X177.401Y-86.001
X177.5Y-93.2
X177.6Y-98.0
X177.602Y-91.999
X177.7Y-83.225
X177.7Y-89.2
X177.7Y-94.2
X177.9Y-121.0
X178.0Y-57.6
X178.0Y-59.6
X178.1Y-123.2
X178.4Y-104.2
X178.6Y-114.6
X178.6Y-116.6
X179.1Y-108.3
X179.2Y-103.7
X179.3Y-66.4
X179.6Y-115.6
X179.7Y-110.1
X179.8Y-117.0
X179.9Y-113.7
X180.0Y-57.6
X180.0Y-59.6
X180.0Y-66.4
X180.11Y-98.57
X180.5Y-86.625
X180.7Y-73.8
X180.7Y-75.6
X180.75Y-66.55
X180.8Y-69.8
X180.8Y-92.6
X181.275Y-102.77
X181.7Y-83.225
X182.0Y-57.6
X182.0Y-59.6
X182.1Y-73.8
X182.1Y-75.6
X182.5Y-90.5
X182.5Y-104.8
X183.1Y-81.8
X183.174Y-94.95
X183.2Y-56.5
X183.2Y-57.6
X183.2Y-58.6
X183.212Y-110.195
X183.4Y-107.6
X183.4Y-122.2
X184.2Y-107.6
X184.8Y-89.6
X184.8Y-94.4
X184.8Y-95.6
X184.9Y-56.5
X184.9Y-57.6
X184.9Y-58.6
X185.0Y-81.8
X185.6Y-85.8
X186.4Y-83.225
X186.5Y-92.6
X186.6Y-56.5
X186.6Y-57.6
X186.6Y-58.6
X186.991Y-78.693
X187.3Y-92.3
X187.57Y-79.17
X187.8Y-71.9
X187.8Y-91.6
X187.8Y-106.825
X188.1Y-79.7
X188.1Y-89.3
X188.1Y-90.05
X188.1Y-90.8
X188.2Y-116.7
X188.35Y-114.3
X188.5Y-107.2
X188.8Y-119.1
X189.3Y-108.0
X190.025Y-121.7
X190.2Y-54.6
X190.2Y-108.6
X190.5Y-55.8
X190.7Y-109.4
X191.295Y-118.7
X191.4Y-58.4
X191.4Y-110.0
X191.5Y-52.9
X191.8Y-110.8
X191.9Y-111.6
X192.4Y-58.902
X192.6Y-120.9
X192.9Y-52.9
X193.1Y-80.8
X193.3Y-82.725
X193.4Y-76.7
X193.8Y-120.6
X194.3Y-52.9
X195.1Y-118.6
X196.4Y-106.3
X196.4Y-118.2
X197.2Y-70.2
X198.71Y-68.87
X200.5Y-51.0
X200.621Y-89.7
X200.621Y-87.121
X201.0Y-88.6
X201.0Y-123.0
X201.4Y-96.775
X201.7Y-72.0
X201.7Y-80.5
X202.1Y-97.875
X202.2Y-117.6
X202.3Y-89.7
X202.3Y-118.9
X202.3Y-120.2
X202.4Y-83.9
X202.9Y-99.075
X203.3Y-76.4
X203.3Y-110.2
X203.5Y-90.5
X203.8Y-100.3
X203.9Y-76.0
X204.5Y-75.6
X204.6Y-104.1
X204.6Y-81.7
X205.2Y-92.4
X205.5Y-121.5
X205.9Y-94.9
X206.2Y-54.6
X206.4Y-110.2
X206.6Y-97.4
X206.6Y-112.7
X206.7Y-79.7
X206.7Y-82.2
X206.7Y-84.8
X206.7Y-87.4
X207.2Y-83.3
X207.5Y-52.9
X208.07Y-126.525
X208.1Y-121.5
X208.9Y-52.9
X208.9Y-77.1
X209.4Y-74.6
X210.3Y-52.9
X210.6Y-121.5
X210.61Y-126.525
X211.7Y-77.2
X211.7Y-79.7
X211.7Y-82.2
X211.7Y-87.3
X211.7Y-110.2
X211.725Y-84.77
X211.8Y-74.6
X211.8Y-107.7
X211.8Y-112.7
X212.4Y-89.8
X213.075Y-92.475
X213.1Y-126.4
X213.2Y-121.5
X213.6Y-95.0
X214.2Y-97.5
X214.4Y-128.4
X214.62Y-69.61
X214.9Y-100.0
X215.4Y-102.5
X215.7Y-121.5
X215.7Y-125.3
X216.0Y-105.1
X216.5Y-51.0
X216.7Y-123.9
X218.3Y-121.4
X218.3Y-125.5
X220.8Y-121.5
X220.8Y-127.1
X221.98Y-74.8
X222.0Y-54.6
X222.0Y-95.8
X222.4Y-117.1
X222.8Y-83.4
X223.2Y-118.5
X223.3Y-52.9
X223.3Y-76.5
X223.3Y-97.5
X223.3Y-121.5
X223.4Y-126.8
X223.5Y-78.3
X223.7Y-99.1
X223.8Y-117.8
X224.3Y-77.6
X224.35Y-94.2
X224.5Y-122.625
X224.7Y-52.9
X224.7Y-76.5
X224.7Y-97.5
X224.7Y-120.9
X224.9Y-123.4
X225.2Y-115.1
X225.8Y-121.5
X225.8Y-126.5
X226.1Y-52.9
X226.1Y-76.5
X226.1Y-97.5
X226.3Y-117.3
X226.9Y-112.1
X227.3Y-91.2
X227.3Y-94.3
X227.4Y-125.4
X228.1Y-69.6
X228.3Y-97.5
X228.4Y-127.0
X229.3Y-94.3
X229.4Y-125.4
X229.8Y-97.5
X230.33Y-68.87
X230.37Y-110.99
X230.41Y-90.13
X230.9Y-126.5
X231.1Y-97.5
X231.4Y-71.2
X231.4Y-92.2
X232.0Y-125.4
X232.2Y-128.3
X232.3Y-51.0
X232.52Y-121.4
X234.2Y-123.9
T3
X133.25Y-51.4
X133.25Y-59.02
X135.79Y-51.4
X135.79Y-59.02
X139.5Y-51.4
X139.5Y-59.02
X142.04Y-51.4
X142.04Y-59.02
X138.7Y-96.9
X140.7Y-96.9
X142.7Y-96.9
T4
X220.45Y-73.31
X220.45Y-75.85
X220.45Y-78.39
X220.45Y-80.93
X220.45Y-83.47
X220.45Y-86.01
X220.45Y-88.55
X220.45Y-91.09
X233.15Y-73.31
X233.15Y-75.85
X233.15Y-78.39
X233.15Y-80.93
X233.15Y-83.47
X233.15Y-86.01
X233.15Y-88.55
X233.15Y-91.09
X204.65Y-52.31
X204.65Y-54.85
X204.65Y-57.39
X204.65Y-59.93
X204.65Y-62.47
X204.65Y-65.01
X204.65Y-67.55
X204.65Y-70.09
X217.35Y-52.31
X217.35Y-54.85
X217.35Y-57.39
X217.35Y-59.93
X217.35Y-62.47
X217.35Y-65.01
X217.35Y-67.55
X217.35Y-70.09
X174.95Y-54.8
X178.45Y-54.8
X181.95Y-54.8
X185.45Y-54.8
X220.45Y-52.31
X220.45Y-54.85
X220.45Y-57.39
X220.45Y-59.93
X220.45Y-62.47
X220.45Y-65.01
X220.45Y-67.55
X220.45Y-70.09
X233.15Y-52.31
X233.15Y-54.85
X233.15Y-57.39
X233.15Y-59.93
X233.15Y-62.47
X233.15Y-65.01
X233.15Y-67.55
X233.15Y-70.09
X156.91Y-110.62
X156.91Y-120.78
X159.45Y-110.62
X159.45Y-120.78
X161.99Y-110.62
X161.99Y-120.78
X164.53Y-110.62
X164.53Y-120.78
X167.07Y-110.62
X167.07Y-120.78
X169.61Y-110.62
X169.61Y-120.78
X172.15Y-110.62
X172.15Y-120.78
X174.69Y-110.62
X174.69Y-120.78
X195.7Y-85.92
X195.7Y-88.46
X195.7Y-91.0
X198.24Y-85.92
X198.24Y-88.46
X198.24Y-91.0
X119.8Y-51.75
X119.8Y-55.25
X119.8Y-58.75
X119.8Y-62.25
X119.8Y-65.75
X119.8Y-69.25
X119.8Y-72.75
X119.8Y-76.25
X119.8Y-79.75
X119.8Y-83.25
X119.8Y-86.75
X119.8Y-90.25
X119.8Y-93.75
X119.8Y-97.25
X119.8Y-100.75
X119.8Y-104.25
X191.06Y-78.6
X193.6Y-78.6
X196.14Y-78.6
X119.7Y-123.25
X119.7Y-126.75
X220.45Y-94.31
X220.45Y-96.85
X220.45Y-99.39
X220.45Y-101.93
X220.45Y-104.47
X220.45Y-107.01
X220.45Y-109.55
X220.45Y-112.09
X233.15Y-94.31
X233.15Y-96.85
X233.15Y-99.39
X233.15Y-101.93
X233.15Y-104.47
X233.15Y-107.01
X233.15Y-109.55
X233.15Y-112.09
X194.76Y-73.3
X197.3Y-73.3
X188.65Y-52.31
X188.65Y-54.85
X188.65Y-57.39
X188.65Y-59.93
X188.65Y-62.47
X188.65Y-65.01
X188.65Y-67.55
X188.65Y-70.09
X201.35Y-52.31
X201.35Y-54.85
X201.35Y-57.39
X201.35Y-59.93
X201.35Y-62.47
X201.35Y-65.01
X201.35Y-67.55
X201.35Y-70.09
T5
X116.42Y-117.6
X124.04Y-117.6
X131.66Y-117.6
X134.2Y-117.6
T6
X212.0Y-60.1
X212.0Y-62.6
X212.0Y-65.1
X212.0Y-67.6
X227.74Y-102.1
X227.74Y-104.6
X227.74Y-107.1
X227.74Y-109.6
X227.8Y-81.1
X227.8Y-83.6
X227.8Y-86.1
X227.8Y-88.6
X196.0Y-60.1
X196.0Y-62.6
X196.0Y-65.1
X196.0Y-67.6
X227.8Y-60.1
X227.8Y-62.6
X227.8Y-65.1
X227.8Y-67.6
T7
X165.0Y-126.1
T2
G00X162.11Y-52.9
M15
G01X162.11Y-52.3
M16
G05
G00X162.47Y-58.85
M15
G01X162.47Y-58.25
M16
G05
G00X170.73Y-58.85
M15
G01X170.73Y-58.25
M16
G05
G00X171.09Y-52.9
M15
G01X171.09Y-52.3
M16
G05
T0
M30
