G04 #@! TF.GenerationSoftware,KiCad,Pcbnew,(5.1.2)-1*
G04 #@! TF.CreationDate,2019-10-17T16:55:22+02:00*
G04 #@! TF.ProjectId,ovc,6f76632e-6b69-4636-9164-5f7063625858,rev?*
G04 #@! TF.SameCoordinates,Original*
G04 #@! TF.FileFunction,Legend,Bot*
G04 #@! TF.FilePolarity,Positive*
%FSLAX46Y46*%
G04 Gerber Fmt 4.6, Leading zero omitted, Abs format (unit mm)*
G04 Created by KiCad (PCBNEW (5.1.2)-1) date 2019-10-17 16:55:22*
%MOMM*%
%LPD*%
G04 APERTURE LIST*
%ADD10C,0.120000*%
%ADD11C,0.100000*%
%ADD12C,0.150000*%
G04 APERTURE END LIST*
D10*
X213620857Y-75147619D02*
X213858952Y-74147619D01*
X214049428Y-74861904D01*
X214239904Y-74147619D01*
X214478000Y-75147619D01*
X215430380Y-74147619D02*
X215097047Y-74623809D01*
X214858952Y-74147619D02*
X214858952Y-75147619D01*
X215239904Y-75147619D01*
X215335142Y-75100000D01*
X215382761Y-75052380D01*
X215430380Y-74957142D01*
X215430380Y-74814285D01*
X215382761Y-74719047D01*
X215335142Y-74671428D01*
X215239904Y-74623809D01*
X214858952Y-74623809D01*
X215763714Y-75147619D02*
X216430380Y-74147619D01*
X216430380Y-75147619D02*
X215763714Y-74147619D01*
X217001809Y-75147619D02*
X217097047Y-75147619D01*
X217192285Y-75100000D01*
X217239904Y-75052380D01*
X217287523Y-74957142D01*
X217335142Y-74766666D01*
X217335142Y-74528571D01*
X217287523Y-74338095D01*
X217239904Y-74242857D01*
X217192285Y-74195238D01*
X217097047Y-74147619D01*
X217001809Y-74147619D01*
X216906571Y-74195238D01*
X216858952Y-74242857D01*
X216811333Y-74338095D01*
X216763714Y-74528571D01*
X216763714Y-74766666D01*
X216811333Y-74957142D01*
X216858952Y-75052380D01*
X216906571Y-75100000D01*
X217001809Y-75147619D01*
X213620857Y-77647619D02*
X213858952Y-76647619D01*
X214049428Y-77361904D01*
X214239904Y-76647619D01*
X214478000Y-77647619D01*
X214716095Y-77647619D02*
X215287523Y-77647619D01*
X215001809Y-76647619D02*
X215001809Y-77647619D01*
X215525619Y-77647619D02*
X216192285Y-76647619D01*
X216192285Y-77647619D02*
X215525619Y-76647619D01*
X216763714Y-77647619D02*
X216858952Y-77647619D01*
X216954190Y-77600000D01*
X217001809Y-77552380D01*
X217049428Y-77457142D01*
X217097047Y-77266666D01*
X217097047Y-77028571D01*
X217049428Y-76838095D01*
X217001809Y-76742857D01*
X216954190Y-76695238D01*
X216858952Y-76647619D01*
X216763714Y-76647619D01*
X216668476Y-76695238D01*
X216620857Y-76742857D01*
X216573238Y-76838095D01*
X216525619Y-77028571D01*
X216525619Y-77266666D01*
X216573238Y-77457142D01*
X216620857Y-77552380D01*
X216668476Y-77600000D01*
X216763714Y-77647619D01*
X213620857Y-80247619D02*
X213858952Y-79247619D01*
X214049428Y-79961904D01*
X214239904Y-79247619D01*
X214478000Y-80247619D01*
X215430380Y-79247619D02*
X215097047Y-79723809D01*
X214858952Y-79247619D02*
X214858952Y-80247619D01*
X215239904Y-80247619D01*
X215335142Y-80200000D01*
X215382761Y-80152380D01*
X215430380Y-80057142D01*
X215430380Y-79914285D01*
X215382761Y-79819047D01*
X215335142Y-79771428D01*
X215239904Y-79723809D01*
X214858952Y-79723809D01*
X215716095Y-80247619D02*
X216287523Y-80247619D01*
X216001809Y-79247619D02*
X216001809Y-80247619D01*
X216573238Y-79295238D02*
X216716095Y-79247619D01*
X216954190Y-79247619D01*
X217049428Y-79295238D01*
X217097047Y-79342857D01*
X217144666Y-79438095D01*
X217144666Y-79533333D01*
X217097047Y-79628571D01*
X217049428Y-79676190D01*
X216954190Y-79723809D01*
X216763714Y-79771428D01*
X216668476Y-79819047D01*
X216620857Y-79866666D01*
X216573238Y-79961904D01*
X216573238Y-80057142D01*
X216620857Y-80152380D01*
X216668476Y-80200000D01*
X216763714Y-80247619D01*
X217001809Y-80247619D01*
X217144666Y-80200000D01*
X213620857Y-82747619D02*
X213858952Y-81747619D01*
X214049428Y-82461904D01*
X214239904Y-81747619D01*
X214478000Y-82747619D01*
X214858952Y-81747619D02*
X214858952Y-82747619D01*
X215525619Y-82747619D02*
X215716095Y-82747619D01*
X215811333Y-82700000D01*
X215906571Y-82604761D01*
X215954190Y-82414285D01*
X215954190Y-82080952D01*
X215906571Y-81890476D01*
X215811333Y-81795238D01*
X215716095Y-81747619D01*
X215525619Y-81747619D01*
X215430380Y-81795238D01*
X215335142Y-81890476D01*
X215287523Y-82080952D01*
X215287523Y-82414285D01*
X215335142Y-82604761D01*
X215430380Y-82700000D01*
X215525619Y-82747619D01*
X216335142Y-82652380D02*
X216382761Y-82700000D01*
X216478000Y-82747619D01*
X216716095Y-82747619D01*
X216811333Y-82700000D01*
X216858952Y-82652380D01*
X216906571Y-82557142D01*
X216906571Y-82461904D01*
X216858952Y-82319047D01*
X216287523Y-81747619D01*
X216906571Y-81747619D01*
X217239904Y-82747619D02*
X217906571Y-82747619D01*
X217478000Y-81747619D01*
X213620857Y-85347619D02*
X213858952Y-84347619D01*
X214049428Y-85061904D01*
X214239904Y-84347619D01*
X214478000Y-85347619D01*
X214858952Y-84347619D02*
X214858952Y-85347619D01*
X215525619Y-85347619D02*
X215716095Y-85347619D01*
X215811333Y-85300000D01*
X215906571Y-85204761D01*
X215954190Y-85014285D01*
X215954190Y-84680952D01*
X215906571Y-84490476D01*
X215811333Y-84395238D01*
X215716095Y-84347619D01*
X215525619Y-84347619D01*
X215430380Y-84395238D01*
X215335142Y-84490476D01*
X215287523Y-84680952D01*
X215287523Y-85014285D01*
X215335142Y-85204761D01*
X215430380Y-85300000D01*
X215525619Y-85347619D01*
X216335142Y-85252380D02*
X216382761Y-85300000D01*
X216478000Y-85347619D01*
X216716095Y-85347619D01*
X216811333Y-85300000D01*
X216858952Y-85252380D01*
X216906571Y-85157142D01*
X216906571Y-85061904D01*
X216858952Y-84919047D01*
X216287523Y-84347619D01*
X216906571Y-84347619D01*
X217763714Y-85347619D02*
X217573238Y-85347619D01*
X217478000Y-85300000D01*
X217430380Y-85252380D01*
X217335142Y-85109523D01*
X217287523Y-84919047D01*
X217287523Y-84538095D01*
X217335142Y-84442857D01*
X217382761Y-84395238D01*
X217478000Y-84347619D01*
X217668476Y-84347619D01*
X217763714Y-84395238D01*
X217811333Y-84442857D01*
X217858952Y-84538095D01*
X217858952Y-84776190D01*
X217811333Y-84871428D01*
X217763714Y-84919047D01*
X217668476Y-84966666D01*
X217478000Y-84966666D01*
X217382761Y-84919047D01*
X217335142Y-84871428D01*
X217287523Y-84776190D01*
X213620857Y-87847619D02*
X213858952Y-86847619D01*
X214049428Y-87561904D01*
X214239904Y-86847619D01*
X214478000Y-87847619D01*
X214858952Y-86847619D02*
X214858952Y-87847619D01*
X215525619Y-87847619D02*
X215716095Y-87847619D01*
X215811333Y-87800000D01*
X215906571Y-87704761D01*
X215954190Y-87514285D01*
X215954190Y-87180952D01*
X215906571Y-86990476D01*
X215811333Y-86895238D01*
X215716095Y-86847619D01*
X215525619Y-86847619D01*
X215430380Y-86895238D01*
X215335142Y-86990476D01*
X215287523Y-87180952D01*
X215287523Y-87514285D01*
X215335142Y-87704761D01*
X215430380Y-87800000D01*
X215525619Y-87847619D01*
X216335142Y-87752380D02*
X216382761Y-87800000D01*
X216478000Y-87847619D01*
X216716095Y-87847619D01*
X216811333Y-87800000D01*
X216858952Y-87752380D01*
X216906571Y-87657142D01*
X216906571Y-87561904D01*
X216858952Y-87419047D01*
X216287523Y-86847619D01*
X216906571Y-86847619D01*
X217811333Y-87847619D02*
X217335142Y-87847619D01*
X217287523Y-87371428D01*
X217335142Y-87419047D01*
X217430380Y-87466666D01*
X217668476Y-87466666D01*
X217763714Y-87419047D01*
X217811333Y-87371428D01*
X217858952Y-87276190D01*
X217858952Y-87038095D01*
X217811333Y-86942857D01*
X217763714Y-86895238D01*
X217668476Y-86847619D01*
X217430380Y-86847619D01*
X217335142Y-86895238D01*
X217287523Y-86942857D01*
X213620857Y-90347619D02*
X213858952Y-89347619D01*
X214049428Y-90061904D01*
X214239904Y-89347619D01*
X214478000Y-90347619D01*
X214858952Y-89347619D02*
X214858952Y-90347619D01*
X215525619Y-90347619D02*
X215716095Y-90347619D01*
X215811333Y-90300000D01*
X215906571Y-90204761D01*
X215954190Y-90014285D01*
X215954190Y-89680952D01*
X215906571Y-89490476D01*
X215811333Y-89395238D01*
X215716095Y-89347619D01*
X215525619Y-89347619D01*
X215430380Y-89395238D01*
X215335142Y-89490476D01*
X215287523Y-89680952D01*
X215287523Y-90014285D01*
X215335142Y-90204761D01*
X215430380Y-90300000D01*
X215525619Y-90347619D01*
X216287523Y-90347619D02*
X216906571Y-90347619D01*
X216573238Y-89966666D01*
X216716095Y-89966666D01*
X216811333Y-89919047D01*
X216858952Y-89871428D01*
X216906571Y-89776190D01*
X216906571Y-89538095D01*
X216858952Y-89442857D01*
X216811333Y-89395238D01*
X216716095Y-89347619D01*
X216430380Y-89347619D01*
X216335142Y-89395238D01*
X216287523Y-89442857D01*
X217239904Y-90347619D02*
X217858952Y-90347619D01*
X217525619Y-89966666D01*
X217668476Y-89966666D01*
X217763714Y-89919047D01*
X217811333Y-89871428D01*
X217858952Y-89776190D01*
X217858952Y-89538095D01*
X217811333Y-89442857D01*
X217763714Y-89395238D01*
X217668476Y-89347619D01*
X217382761Y-89347619D01*
X217287523Y-89395238D01*
X217239904Y-89442857D01*
X213620857Y-92947619D02*
X213858952Y-91947619D01*
X214049428Y-92661904D01*
X214239904Y-91947619D01*
X214478000Y-92947619D01*
X214858952Y-91947619D02*
X214858952Y-92947619D01*
X215525619Y-92947619D02*
X215716095Y-92947619D01*
X215811333Y-92900000D01*
X215906571Y-92804761D01*
X215954190Y-92614285D01*
X215954190Y-92280952D01*
X215906571Y-92090476D01*
X215811333Y-91995238D01*
X215716095Y-91947619D01*
X215525619Y-91947619D01*
X215430380Y-91995238D01*
X215335142Y-92090476D01*
X215287523Y-92280952D01*
X215287523Y-92614285D01*
X215335142Y-92804761D01*
X215430380Y-92900000D01*
X215525619Y-92947619D01*
X216287523Y-92947619D02*
X216906571Y-92947619D01*
X216573238Y-92566666D01*
X216716095Y-92566666D01*
X216811333Y-92519047D01*
X216858952Y-92471428D01*
X216906571Y-92376190D01*
X216906571Y-92138095D01*
X216858952Y-92042857D01*
X216811333Y-91995238D01*
X216716095Y-91947619D01*
X216430380Y-91947619D01*
X216335142Y-91995238D01*
X216287523Y-92042857D01*
X217287523Y-92852380D02*
X217335142Y-92900000D01*
X217430380Y-92947619D01*
X217668476Y-92947619D01*
X217763714Y-92900000D01*
X217811333Y-92852380D01*
X217858952Y-92757142D01*
X217858952Y-92661904D01*
X217811333Y-92519047D01*
X217239904Y-91947619D01*
X217858952Y-91947619D01*
X213620857Y-95447619D02*
X213858952Y-94447619D01*
X214049428Y-95161904D01*
X214239904Y-94447619D01*
X214478000Y-95447619D01*
X214858952Y-94447619D02*
X214858952Y-95447619D01*
X215525619Y-95447619D02*
X215716095Y-95447619D01*
X215811333Y-95400000D01*
X215906571Y-95304761D01*
X215954190Y-95114285D01*
X215954190Y-94780952D01*
X215906571Y-94590476D01*
X215811333Y-94495238D01*
X215716095Y-94447619D01*
X215525619Y-94447619D01*
X215430380Y-94495238D01*
X215335142Y-94590476D01*
X215287523Y-94780952D01*
X215287523Y-95114285D01*
X215335142Y-95304761D01*
X215430380Y-95400000D01*
X215525619Y-95447619D01*
X216287523Y-95447619D02*
X216906571Y-95447619D01*
X216573238Y-95066666D01*
X216716095Y-95066666D01*
X216811333Y-95019047D01*
X216858952Y-94971428D01*
X216906571Y-94876190D01*
X216906571Y-94638095D01*
X216858952Y-94542857D01*
X216811333Y-94495238D01*
X216716095Y-94447619D01*
X216430380Y-94447619D01*
X216335142Y-94495238D01*
X216287523Y-94542857D01*
X217811333Y-95447619D02*
X217335142Y-95447619D01*
X217287523Y-94971428D01*
X217335142Y-95019047D01*
X217430380Y-95066666D01*
X217668476Y-95066666D01*
X217763714Y-95019047D01*
X217811333Y-94971428D01*
X217858952Y-94876190D01*
X217858952Y-94638095D01*
X217811333Y-94542857D01*
X217763714Y-94495238D01*
X217668476Y-94447619D01*
X217430380Y-94447619D01*
X217335142Y-94495238D01*
X217287523Y-94542857D01*
X213620857Y-97947619D02*
X213858952Y-96947619D01*
X214049428Y-97661904D01*
X214239904Y-96947619D01*
X214478000Y-97947619D01*
X214858952Y-96947619D02*
X214858952Y-97947619D01*
X215525619Y-97947619D02*
X215716095Y-97947619D01*
X215811333Y-97900000D01*
X215906571Y-97804761D01*
X215954190Y-97614285D01*
X215954190Y-97280952D01*
X215906571Y-97090476D01*
X215811333Y-96995238D01*
X215716095Y-96947619D01*
X215525619Y-96947619D01*
X215430380Y-96995238D01*
X215335142Y-97090476D01*
X215287523Y-97280952D01*
X215287523Y-97614285D01*
X215335142Y-97804761D01*
X215430380Y-97900000D01*
X215525619Y-97947619D01*
X216287523Y-97947619D02*
X216906571Y-97947619D01*
X216573238Y-97566666D01*
X216716095Y-97566666D01*
X216811333Y-97519047D01*
X216858952Y-97471428D01*
X216906571Y-97376190D01*
X216906571Y-97138095D01*
X216858952Y-97042857D01*
X216811333Y-96995238D01*
X216716095Y-96947619D01*
X216430380Y-96947619D01*
X216335142Y-96995238D01*
X216287523Y-97042857D01*
X217763714Y-97614285D02*
X217763714Y-96947619D01*
X217525619Y-97995238D02*
X217287523Y-97280952D01*
X217906571Y-97280952D01*
X213620857Y-100547619D02*
X213858952Y-99547619D01*
X214049428Y-100261904D01*
X214239904Y-99547619D01*
X214478000Y-100547619D01*
X214811333Y-99595238D02*
X214954190Y-99547619D01*
X215192285Y-99547619D01*
X215287523Y-99595238D01*
X215335142Y-99642857D01*
X215382761Y-99738095D01*
X215382761Y-99833333D01*
X215335142Y-99928571D01*
X215287523Y-99976190D01*
X215192285Y-100023809D01*
X215001809Y-100071428D01*
X214906571Y-100119047D01*
X214858952Y-100166666D01*
X214811333Y-100261904D01*
X214811333Y-100357142D01*
X214858952Y-100452380D01*
X214906571Y-100500000D01*
X215001809Y-100547619D01*
X215239904Y-100547619D01*
X215382761Y-100500000D01*
X215668476Y-100547619D02*
X216001809Y-99547619D01*
X216335142Y-100547619D01*
X216668476Y-99547619D02*
X216668476Y-100547619D01*
X217239904Y-99547619D01*
X217239904Y-100547619D01*
X213620857Y-103047619D02*
X213858952Y-102047619D01*
X214049428Y-102761904D01*
X214239904Y-102047619D01*
X214478000Y-103047619D01*
X214811333Y-102095238D02*
X214954190Y-102047619D01*
X215192285Y-102047619D01*
X215287523Y-102095238D01*
X215335142Y-102142857D01*
X215382761Y-102238095D01*
X215382761Y-102333333D01*
X215335142Y-102428571D01*
X215287523Y-102476190D01*
X215192285Y-102523809D01*
X215001809Y-102571428D01*
X214906571Y-102619047D01*
X214858952Y-102666666D01*
X214811333Y-102761904D01*
X214811333Y-102857142D01*
X214858952Y-102952380D01*
X214906571Y-103000000D01*
X215001809Y-103047619D01*
X215239904Y-103047619D01*
X215382761Y-103000000D01*
X215668476Y-103047619D02*
X216001809Y-102047619D01*
X216335142Y-103047619D01*
X216668476Y-102047619D02*
X216668476Y-103047619D01*
X217049428Y-103047619D01*
X217144666Y-103000000D01*
X217192285Y-102952380D01*
X217239904Y-102857142D01*
X217239904Y-102714285D01*
X217192285Y-102619047D01*
X217144666Y-102571428D01*
X217049428Y-102523809D01*
X216668476Y-102523809D01*
X213620857Y-105647619D02*
X213858952Y-104647619D01*
X214049428Y-105361904D01*
X214239904Y-104647619D01*
X214478000Y-105647619D01*
X214858952Y-105171428D02*
X215192285Y-105171428D01*
X215335142Y-104647619D02*
X214858952Y-104647619D01*
X214858952Y-105647619D01*
X215335142Y-105647619D01*
X215763714Y-104647619D02*
X215763714Y-105647619D01*
X216335142Y-104647619D01*
X216335142Y-105647619D01*
X214239904Y-108100000D02*
X214144666Y-108147619D01*
X214001809Y-108147619D01*
X213858952Y-108100000D01*
X213763714Y-108004761D01*
X213716095Y-107909523D01*
X213668476Y-107719047D01*
X213668476Y-107576190D01*
X213716095Y-107385714D01*
X213763714Y-107290476D01*
X213858952Y-107195238D01*
X214001809Y-107147619D01*
X214097047Y-107147619D01*
X214239904Y-107195238D01*
X214287523Y-107242857D01*
X214287523Y-107576190D01*
X214097047Y-107576190D01*
X214716095Y-107147619D02*
X214716095Y-108147619D01*
X215287523Y-107147619D01*
X215287523Y-108147619D01*
X215763714Y-107147619D02*
X215763714Y-108147619D01*
X216001809Y-108147619D01*
X216144666Y-108100000D01*
X216239904Y-108004761D01*
X216287523Y-107909523D01*
X216335142Y-107719047D01*
X216335142Y-107576190D01*
X216287523Y-107385714D01*
X216239904Y-107290476D01*
X216144666Y-107195238D01*
X216001809Y-107147619D01*
X215763714Y-107147619D01*
X214239904Y-110700000D02*
X214144666Y-110747619D01*
X214001809Y-110747619D01*
X213858952Y-110700000D01*
X213763714Y-110604761D01*
X213716095Y-110509523D01*
X213668476Y-110319047D01*
X213668476Y-110176190D01*
X213716095Y-109985714D01*
X213763714Y-109890476D01*
X213858952Y-109795238D01*
X214001809Y-109747619D01*
X214097047Y-109747619D01*
X214239904Y-109795238D01*
X214287523Y-109842857D01*
X214287523Y-110176190D01*
X214097047Y-110176190D01*
X214716095Y-109747619D02*
X214716095Y-110747619D01*
X215287523Y-109747619D01*
X215287523Y-110747619D01*
X215763714Y-109747619D02*
X215763714Y-110747619D01*
X216001809Y-110747619D01*
X216144666Y-110700000D01*
X216239904Y-110604761D01*
X216287523Y-110509523D01*
X216335142Y-110319047D01*
X216335142Y-110176190D01*
X216287523Y-109985714D01*
X216239904Y-109890476D01*
X216144666Y-109795238D01*
X216001809Y-109747619D01*
X215763714Y-109747619D01*
X214239904Y-113200000D02*
X214144666Y-113247619D01*
X214001809Y-113247619D01*
X213858952Y-113200000D01*
X213763714Y-113104761D01*
X213716095Y-113009523D01*
X213668476Y-112819047D01*
X213668476Y-112676190D01*
X213716095Y-112485714D01*
X213763714Y-112390476D01*
X213858952Y-112295238D01*
X214001809Y-112247619D01*
X214097047Y-112247619D01*
X214239904Y-112295238D01*
X214287523Y-112342857D01*
X214287523Y-112676190D01*
X214097047Y-112676190D01*
X214716095Y-112247619D02*
X214716095Y-113247619D01*
X215287523Y-112247619D01*
X215287523Y-113247619D01*
X215763714Y-112247619D02*
X215763714Y-113247619D01*
X216001809Y-113247619D01*
X216144666Y-113200000D01*
X216239904Y-113104761D01*
X216287523Y-113009523D01*
X216335142Y-112819047D01*
X216335142Y-112676190D01*
X216287523Y-112485714D01*
X216239904Y-112390476D01*
X216144666Y-112295238D01*
X216001809Y-112247619D01*
X215763714Y-112247619D01*
X213716095Y-115128571D02*
X214478000Y-115128571D01*
X214097047Y-114747619D02*
X214097047Y-115509523D01*
X214858952Y-115747619D02*
X215478000Y-115747619D01*
X215144666Y-115366666D01*
X215287523Y-115366666D01*
X215382761Y-115319047D01*
X215430380Y-115271428D01*
X215478000Y-115176190D01*
X215478000Y-114938095D01*
X215430380Y-114842857D01*
X215382761Y-114795238D01*
X215287523Y-114747619D01*
X215001809Y-114747619D01*
X214906571Y-114795238D01*
X214858952Y-114842857D01*
X215763714Y-115747619D02*
X216097047Y-114747619D01*
X216430380Y-115747619D01*
X216668476Y-115747619D02*
X217287523Y-115747619D01*
X216954190Y-115366666D01*
X217097047Y-115366666D01*
X217192285Y-115319047D01*
X217239904Y-115271428D01*
X217287523Y-115176190D01*
X217287523Y-114938095D01*
X217239904Y-114842857D01*
X217192285Y-114795238D01*
X217097047Y-114747619D01*
X216811333Y-114747619D01*
X216716095Y-114795238D01*
X216668476Y-114842857D01*
X213716095Y-117728571D02*
X214478000Y-117728571D01*
X214097047Y-117347619D02*
X214097047Y-118109523D01*
X214858952Y-118347619D02*
X215478000Y-118347619D01*
X215144666Y-117966666D01*
X215287523Y-117966666D01*
X215382761Y-117919047D01*
X215430380Y-117871428D01*
X215478000Y-117776190D01*
X215478000Y-117538095D01*
X215430380Y-117442857D01*
X215382761Y-117395238D01*
X215287523Y-117347619D01*
X215001809Y-117347619D01*
X214906571Y-117395238D01*
X214858952Y-117442857D01*
X215763714Y-118347619D02*
X216097047Y-117347619D01*
X216430380Y-118347619D01*
X216668476Y-118347619D02*
X217287523Y-118347619D01*
X216954190Y-117966666D01*
X217097047Y-117966666D01*
X217192285Y-117919047D01*
X217239904Y-117871428D01*
X217287523Y-117776190D01*
X217287523Y-117538095D01*
X217239904Y-117442857D01*
X217192285Y-117395238D01*
X217097047Y-117347619D01*
X216811333Y-117347619D01*
X216716095Y-117395238D01*
X216668476Y-117442857D01*
X201160095Y-117728571D02*
X201922000Y-117728571D01*
X201541047Y-117347619D02*
X201541047Y-118109523D01*
X202302952Y-118347619D02*
X202922000Y-118347619D01*
X202588666Y-117966666D01*
X202731523Y-117966666D01*
X202826761Y-117919047D01*
X202874380Y-117871428D01*
X202922000Y-117776190D01*
X202922000Y-117538095D01*
X202874380Y-117442857D01*
X202826761Y-117395238D01*
X202731523Y-117347619D01*
X202445809Y-117347619D01*
X202350571Y-117395238D01*
X202302952Y-117442857D01*
X203207714Y-118347619D02*
X203541047Y-117347619D01*
X203874380Y-118347619D01*
X204112476Y-118347619D02*
X204731523Y-118347619D01*
X204398190Y-117966666D01*
X204541047Y-117966666D01*
X204636285Y-117919047D01*
X204683904Y-117871428D01*
X204731523Y-117776190D01*
X204731523Y-117538095D01*
X204683904Y-117442857D01*
X204636285Y-117395238D01*
X204541047Y-117347619D01*
X204255333Y-117347619D01*
X204160095Y-117395238D01*
X204112476Y-117442857D01*
X201160095Y-115228571D02*
X201922000Y-115228571D01*
X201541047Y-114847619D02*
X201541047Y-115609523D01*
X202302952Y-115847619D02*
X202922000Y-115847619D01*
X202588666Y-115466666D01*
X202731523Y-115466666D01*
X202826761Y-115419047D01*
X202874380Y-115371428D01*
X202922000Y-115276190D01*
X202922000Y-115038095D01*
X202874380Y-114942857D01*
X202826761Y-114895238D01*
X202731523Y-114847619D01*
X202445809Y-114847619D01*
X202350571Y-114895238D01*
X202302952Y-114942857D01*
X203207714Y-115847619D02*
X203541047Y-114847619D01*
X203874380Y-115847619D01*
X204112476Y-115847619D02*
X204731523Y-115847619D01*
X204398190Y-115466666D01*
X204541047Y-115466666D01*
X204636285Y-115419047D01*
X204683904Y-115371428D01*
X204731523Y-115276190D01*
X204731523Y-115038095D01*
X204683904Y-114942857D01*
X204636285Y-114895238D01*
X204541047Y-114847619D01*
X204255333Y-114847619D01*
X204160095Y-114895238D01*
X204112476Y-114942857D01*
X202636285Y-113200000D02*
X202541047Y-113247619D01*
X202398190Y-113247619D01*
X202255333Y-113200000D01*
X202160095Y-113104761D01*
X202112476Y-113009523D01*
X202064857Y-112819047D01*
X202064857Y-112676190D01*
X202112476Y-112485714D01*
X202160095Y-112390476D01*
X202255333Y-112295238D01*
X202398190Y-112247619D01*
X202493428Y-112247619D01*
X202636285Y-112295238D01*
X202683904Y-112342857D01*
X202683904Y-112676190D01*
X202493428Y-112676190D01*
X203112476Y-112247619D02*
X203112476Y-113247619D01*
X203683904Y-112247619D01*
X203683904Y-113247619D01*
X204160095Y-112247619D02*
X204160095Y-113247619D01*
X204398190Y-113247619D01*
X204541047Y-113200000D01*
X204636285Y-113104761D01*
X204683904Y-113009523D01*
X204731523Y-112819047D01*
X204731523Y-112676190D01*
X204683904Y-112485714D01*
X204636285Y-112390476D01*
X204541047Y-112295238D01*
X204398190Y-112247619D01*
X204160095Y-112247619D01*
X202636285Y-110700000D02*
X202541047Y-110747619D01*
X202398190Y-110747619D01*
X202255333Y-110700000D01*
X202160095Y-110604761D01*
X202112476Y-110509523D01*
X202064857Y-110319047D01*
X202064857Y-110176190D01*
X202112476Y-109985714D01*
X202160095Y-109890476D01*
X202255333Y-109795238D01*
X202398190Y-109747619D01*
X202493428Y-109747619D01*
X202636285Y-109795238D01*
X202683904Y-109842857D01*
X202683904Y-110176190D01*
X202493428Y-110176190D01*
X203112476Y-109747619D02*
X203112476Y-110747619D01*
X203683904Y-109747619D01*
X203683904Y-110747619D01*
X204160095Y-109747619D02*
X204160095Y-110747619D01*
X204398190Y-110747619D01*
X204541047Y-110700000D01*
X204636285Y-110604761D01*
X204683904Y-110509523D01*
X204731523Y-110319047D01*
X204731523Y-110176190D01*
X204683904Y-109985714D01*
X204636285Y-109890476D01*
X204541047Y-109795238D01*
X204398190Y-109747619D01*
X204160095Y-109747619D01*
X200493428Y-108147619D02*
X200731523Y-107147619D01*
X200922000Y-107861904D01*
X201112476Y-107147619D01*
X201350571Y-108147619D01*
X201731523Y-107147619D02*
X201731523Y-108147619D01*
X202398190Y-108147619D02*
X202588666Y-108147619D01*
X202683904Y-108100000D01*
X202779142Y-108004761D01*
X202826761Y-107814285D01*
X202826761Y-107480952D01*
X202779142Y-107290476D01*
X202683904Y-107195238D01*
X202588666Y-107147619D01*
X202398190Y-107147619D01*
X202302952Y-107195238D01*
X202207714Y-107290476D01*
X202160095Y-107480952D01*
X202160095Y-107814285D01*
X202207714Y-108004761D01*
X202302952Y-108100000D01*
X202398190Y-108147619D01*
X203207714Y-108052380D02*
X203255333Y-108100000D01*
X203350571Y-108147619D01*
X203588666Y-108147619D01*
X203683904Y-108100000D01*
X203731523Y-108052380D01*
X203779142Y-107957142D01*
X203779142Y-107861904D01*
X203731523Y-107719047D01*
X203160095Y-107147619D01*
X203779142Y-107147619D01*
X204112476Y-108147619D02*
X204731523Y-108147619D01*
X204398190Y-107766666D01*
X204541047Y-107766666D01*
X204636285Y-107719047D01*
X204683904Y-107671428D01*
X204731523Y-107576190D01*
X204731523Y-107338095D01*
X204683904Y-107242857D01*
X204636285Y-107195238D01*
X204541047Y-107147619D01*
X204255333Y-107147619D01*
X204160095Y-107195238D01*
X204112476Y-107242857D01*
X200493428Y-105647619D02*
X200731523Y-104647619D01*
X200922000Y-105361904D01*
X201112476Y-104647619D01*
X201350571Y-105647619D01*
X201731523Y-104647619D02*
X201731523Y-105647619D01*
X202398190Y-105647619D02*
X202588666Y-105647619D01*
X202683904Y-105600000D01*
X202779142Y-105504761D01*
X202826761Y-105314285D01*
X202826761Y-104980952D01*
X202779142Y-104790476D01*
X202683904Y-104695238D01*
X202588666Y-104647619D01*
X202398190Y-104647619D01*
X202302952Y-104695238D01*
X202207714Y-104790476D01*
X202160095Y-104980952D01*
X202160095Y-105314285D01*
X202207714Y-105504761D01*
X202302952Y-105600000D01*
X202398190Y-105647619D01*
X203207714Y-105552380D02*
X203255333Y-105600000D01*
X203350571Y-105647619D01*
X203588666Y-105647619D01*
X203683904Y-105600000D01*
X203731523Y-105552380D01*
X203779142Y-105457142D01*
X203779142Y-105361904D01*
X203731523Y-105219047D01*
X203160095Y-104647619D01*
X203779142Y-104647619D01*
X204160095Y-105552380D02*
X204207714Y-105600000D01*
X204302952Y-105647619D01*
X204541047Y-105647619D01*
X204636285Y-105600000D01*
X204683904Y-105552380D01*
X204731523Y-105457142D01*
X204731523Y-105361904D01*
X204683904Y-105219047D01*
X204112476Y-104647619D01*
X204731523Y-104647619D01*
X201445809Y-103147619D02*
X201683904Y-102147619D01*
X201874380Y-102861904D01*
X202064857Y-102147619D01*
X202302952Y-103147619D01*
X202683904Y-102147619D02*
X202683904Y-103147619D01*
X203350571Y-103147619D02*
X203541047Y-103147619D01*
X203636285Y-103100000D01*
X203731523Y-103004761D01*
X203779142Y-102814285D01*
X203779142Y-102480952D01*
X203731523Y-102290476D01*
X203636285Y-102195238D01*
X203541047Y-102147619D01*
X203350571Y-102147619D01*
X203255333Y-102195238D01*
X203160095Y-102290476D01*
X203112476Y-102480952D01*
X203112476Y-102814285D01*
X203160095Y-103004761D01*
X203255333Y-103100000D01*
X203350571Y-103147619D01*
X204731523Y-102147619D02*
X204160095Y-102147619D01*
X204445809Y-102147619D02*
X204445809Y-103147619D01*
X204350571Y-103004761D01*
X204255333Y-102909523D01*
X204160095Y-102861904D01*
X201445809Y-100547619D02*
X201683904Y-99547619D01*
X201874380Y-100261904D01*
X202064857Y-99547619D01*
X202302952Y-100547619D01*
X202683904Y-99547619D02*
X202683904Y-100547619D01*
X203350571Y-100547619D02*
X203541047Y-100547619D01*
X203636285Y-100500000D01*
X203731523Y-100404761D01*
X203779142Y-100214285D01*
X203779142Y-99880952D01*
X203731523Y-99690476D01*
X203636285Y-99595238D01*
X203541047Y-99547619D01*
X203350571Y-99547619D01*
X203255333Y-99595238D01*
X203160095Y-99690476D01*
X203112476Y-99880952D01*
X203112476Y-100214285D01*
X203160095Y-100404761D01*
X203255333Y-100500000D01*
X203350571Y-100547619D01*
X204112476Y-100547619D02*
X204731523Y-100547619D01*
X204398190Y-100166666D01*
X204541047Y-100166666D01*
X204636285Y-100119047D01*
X204683904Y-100071428D01*
X204731523Y-99976190D01*
X204731523Y-99738095D01*
X204683904Y-99642857D01*
X204636285Y-99595238D01*
X204541047Y-99547619D01*
X204255333Y-99547619D01*
X204160095Y-99595238D01*
X204112476Y-99642857D01*
X200493428Y-98047619D02*
X200731523Y-97047619D01*
X200922000Y-97761904D01*
X201112476Y-97047619D01*
X201350571Y-98047619D01*
X201731523Y-97047619D02*
X201731523Y-98047619D01*
X202398190Y-98047619D02*
X202588666Y-98047619D01*
X202683904Y-98000000D01*
X202779142Y-97904761D01*
X202826761Y-97714285D01*
X202826761Y-97380952D01*
X202779142Y-97190476D01*
X202683904Y-97095238D01*
X202588666Y-97047619D01*
X202398190Y-97047619D01*
X202302952Y-97095238D01*
X202207714Y-97190476D01*
X202160095Y-97380952D01*
X202160095Y-97714285D01*
X202207714Y-97904761D01*
X202302952Y-98000000D01*
X202398190Y-98047619D01*
X203207714Y-97952380D02*
X203255333Y-98000000D01*
X203350571Y-98047619D01*
X203588666Y-98047619D01*
X203683904Y-98000000D01*
X203731523Y-97952380D01*
X203779142Y-97857142D01*
X203779142Y-97761904D01*
X203731523Y-97619047D01*
X203160095Y-97047619D01*
X203779142Y-97047619D01*
X204731523Y-97047619D02*
X204160095Y-97047619D01*
X204445809Y-97047619D02*
X204445809Y-98047619D01*
X204350571Y-97904761D01*
X204255333Y-97809523D01*
X204160095Y-97761904D01*
X200493428Y-95547619D02*
X200731523Y-94547619D01*
X200922000Y-95261904D01*
X201112476Y-94547619D01*
X201350571Y-95547619D01*
X201731523Y-94547619D02*
X201731523Y-95547619D01*
X202398190Y-95547619D02*
X202588666Y-95547619D01*
X202683904Y-95500000D01*
X202779142Y-95404761D01*
X202826761Y-95214285D01*
X202826761Y-94880952D01*
X202779142Y-94690476D01*
X202683904Y-94595238D01*
X202588666Y-94547619D01*
X202398190Y-94547619D01*
X202302952Y-94595238D01*
X202207714Y-94690476D01*
X202160095Y-94880952D01*
X202160095Y-95214285D01*
X202207714Y-95404761D01*
X202302952Y-95500000D01*
X202398190Y-95547619D01*
X203779142Y-94547619D02*
X203207714Y-94547619D01*
X203493428Y-94547619D02*
X203493428Y-95547619D01*
X203398190Y-95404761D01*
X203302952Y-95309523D01*
X203207714Y-95261904D01*
X204255333Y-94547619D02*
X204445809Y-94547619D01*
X204541047Y-94595238D01*
X204588666Y-94642857D01*
X204683904Y-94785714D01*
X204731523Y-94976190D01*
X204731523Y-95357142D01*
X204683904Y-95452380D01*
X204636285Y-95500000D01*
X204541047Y-95547619D01*
X204350571Y-95547619D01*
X204255333Y-95500000D01*
X204207714Y-95452380D01*
X204160095Y-95357142D01*
X204160095Y-95119047D01*
X204207714Y-95023809D01*
X204255333Y-94976190D01*
X204350571Y-94928571D01*
X204541047Y-94928571D01*
X204636285Y-94976190D01*
X204683904Y-95023809D01*
X204731523Y-95119047D01*
X200493428Y-92947619D02*
X200731523Y-91947619D01*
X200922000Y-92661904D01*
X201112476Y-91947619D01*
X201350571Y-92947619D01*
X201731523Y-91947619D02*
X201731523Y-92947619D01*
X202398190Y-92947619D02*
X202588666Y-92947619D01*
X202683904Y-92900000D01*
X202779142Y-92804761D01*
X202826761Y-92614285D01*
X202826761Y-92280952D01*
X202779142Y-92090476D01*
X202683904Y-91995238D01*
X202588666Y-91947619D01*
X202398190Y-91947619D01*
X202302952Y-91995238D01*
X202207714Y-92090476D01*
X202160095Y-92280952D01*
X202160095Y-92614285D01*
X202207714Y-92804761D01*
X202302952Y-92900000D01*
X202398190Y-92947619D01*
X203779142Y-91947619D02*
X203207714Y-91947619D01*
X203493428Y-91947619D02*
X203493428Y-92947619D01*
X203398190Y-92804761D01*
X203302952Y-92709523D01*
X203207714Y-92661904D01*
X204350571Y-92519047D02*
X204255333Y-92566666D01*
X204207714Y-92614285D01*
X204160095Y-92709523D01*
X204160095Y-92757142D01*
X204207714Y-92852380D01*
X204255333Y-92900000D01*
X204350571Y-92947619D01*
X204541047Y-92947619D01*
X204636285Y-92900000D01*
X204683904Y-92852380D01*
X204731523Y-92757142D01*
X204731523Y-92709523D01*
X204683904Y-92614285D01*
X204636285Y-92566666D01*
X204541047Y-92519047D01*
X204350571Y-92519047D01*
X204255333Y-92471428D01*
X204207714Y-92423809D01*
X204160095Y-92328571D01*
X204160095Y-92138095D01*
X204207714Y-92042857D01*
X204255333Y-91995238D01*
X204350571Y-91947619D01*
X204541047Y-91947619D01*
X204636285Y-91995238D01*
X204683904Y-92042857D01*
X204731523Y-92138095D01*
X204731523Y-92328571D01*
X204683904Y-92423809D01*
X204636285Y-92471428D01*
X204541047Y-92519047D01*
X201445809Y-90447619D02*
X201683904Y-89447619D01*
X201874380Y-90161904D01*
X202064857Y-89447619D01*
X202302952Y-90447619D01*
X202683904Y-89447619D02*
X202683904Y-90447619D01*
X203350571Y-90447619D02*
X203541047Y-90447619D01*
X203636285Y-90400000D01*
X203731523Y-90304761D01*
X203779142Y-90114285D01*
X203779142Y-89780952D01*
X203731523Y-89590476D01*
X203636285Y-89495238D01*
X203541047Y-89447619D01*
X203350571Y-89447619D01*
X203255333Y-89495238D01*
X203160095Y-89590476D01*
X203112476Y-89780952D01*
X203112476Y-90114285D01*
X203160095Y-90304761D01*
X203255333Y-90400000D01*
X203350571Y-90447619D01*
X204683904Y-90447619D02*
X204207714Y-90447619D01*
X204160095Y-89971428D01*
X204207714Y-90019047D01*
X204302952Y-90066666D01*
X204541047Y-90066666D01*
X204636285Y-90019047D01*
X204683904Y-89971428D01*
X204731523Y-89876190D01*
X204731523Y-89638095D01*
X204683904Y-89542857D01*
X204636285Y-89495238D01*
X204541047Y-89447619D01*
X204302952Y-89447619D01*
X204207714Y-89495238D01*
X204160095Y-89542857D01*
X202207714Y-87847619D02*
X202445809Y-86847619D01*
X202636285Y-87561904D01*
X202826761Y-86847619D01*
X203064857Y-87847619D01*
X203302952Y-87847619D02*
X203874380Y-87847619D01*
X203588666Y-86847619D02*
X203588666Y-87847619D01*
X204112476Y-87847619D02*
X204779142Y-86847619D01*
X204779142Y-87847619D02*
X204112476Y-86847619D01*
X201969619Y-85347619D02*
X202207714Y-84347619D01*
X202398190Y-85061904D01*
X202588666Y-84347619D01*
X202826761Y-85347619D01*
X203779142Y-84347619D02*
X203445809Y-84823809D01*
X203207714Y-84347619D02*
X203207714Y-85347619D01*
X203588666Y-85347619D01*
X203683904Y-85300000D01*
X203731523Y-85252380D01*
X203779142Y-85157142D01*
X203779142Y-85014285D01*
X203731523Y-84919047D01*
X203683904Y-84871428D01*
X203588666Y-84823809D01*
X203207714Y-84823809D01*
X204112476Y-85347619D02*
X204779142Y-84347619D01*
X204779142Y-85347619D02*
X204112476Y-84347619D01*
X201445809Y-82847619D02*
X201683904Y-81847619D01*
X201874380Y-82561904D01*
X202064857Y-81847619D01*
X202302952Y-82847619D01*
X202683904Y-81847619D02*
X202683904Y-82847619D01*
X203350571Y-82847619D02*
X203541047Y-82847619D01*
X203636285Y-82800000D01*
X203731523Y-82704761D01*
X203779142Y-82514285D01*
X203779142Y-82180952D01*
X203731523Y-81990476D01*
X203636285Y-81895238D01*
X203541047Y-81847619D01*
X203350571Y-81847619D01*
X203255333Y-81895238D01*
X203160095Y-81990476D01*
X203112476Y-82180952D01*
X203112476Y-82514285D01*
X203160095Y-82704761D01*
X203255333Y-82800000D01*
X203350571Y-82847619D01*
X204636285Y-82514285D02*
X204636285Y-81847619D01*
X204398190Y-82895238D02*
X204160095Y-82180952D01*
X204779142Y-82180952D01*
X202922000Y-80247619D02*
X203160095Y-79247619D01*
X203350571Y-79961904D01*
X203541047Y-79247619D01*
X203779142Y-80247619D01*
X204493428Y-79771428D02*
X204636285Y-79723809D01*
X204683904Y-79676190D01*
X204731523Y-79580952D01*
X204731523Y-79438095D01*
X204683904Y-79342857D01*
X204636285Y-79295238D01*
X204541047Y-79247619D01*
X204160095Y-79247619D01*
X204160095Y-80247619D01*
X204493428Y-80247619D01*
X204588666Y-80200000D01*
X204636285Y-80152380D01*
X204683904Y-80057142D01*
X204683904Y-79961904D01*
X204636285Y-79866666D01*
X204588666Y-79819047D01*
X204493428Y-79771428D01*
X204160095Y-79771428D01*
X201445809Y-77747619D02*
X201683904Y-76747619D01*
X201874380Y-77461904D01*
X202064857Y-76747619D01*
X202302952Y-77747619D01*
X202683904Y-76747619D02*
X202683904Y-77747619D01*
X203350571Y-77747619D02*
X203541047Y-77747619D01*
X203636285Y-77700000D01*
X203731523Y-77604761D01*
X203779142Y-77414285D01*
X203779142Y-77080952D01*
X203731523Y-76890476D01*
X203636285Y-76795238D01*
X203541047Y-76747619D01*
X203350571Y-76747619D01*
X203255333Y-76795238D01*
X203160095Y-76890476D01*
X203112476Y-77080952D01*
X203112476Y-77414285D01*
X203160095Y-77604761D01*
X203255333Y-77700000D01*
X203350571Y-77747619D01*
X204160095Y-77652380D02*
X204207714Y-77700000D01*
X204302952Y-77747619D01*
X204541047Y-77747619D01*
X204636285Y-77700000D01*
X204683904Y-77652380D01*
X204731523Y-77557142D01*
X204731523Y-77461904D01*
X204683904Y-77319047D01*
X204112476Y-76747619D01*
X204731523Y-76747619D01*
X201207714Y-75147619D02*
X201445809Y-74147619D01*
X201636285Y-74861904D01*
X201826761Y-74147619D01*
X202064857Y-75147619D01*
X203017238Y-74242857D02*
X202969619Y-74195238D01*
X202826761Y-74147619D01*
X202731523Y-74147619D01*
X202588666Y-74195238D01*
X202493428Y-74290476D01*
X202445809Y-74385714D01*
X202398190Y-74576190D01*
X202398190Y-74719047D01*
X202445809Y-74909523D01*
X202493428Y-75004761D01*
X202588666Y-75100000D01*
X202731523Y-75147619D01*
X202826761Y-75147619D01*
X202969619Y-75100000D01*
X203017238Y-75052380D01*
X203302952Y-75147619D02*
X203874380Y-75147619D01*
X203588666Y-74147619D02*
X203588666Y-75147619D01*
X204160095Y-74195238D02*
X204302952Y-74147619D01*
X204541047Y-74147619D01*
X204636285Y-74195238D01*
X204683904Y-74242857D01*
X204731523Y-74338095D01*
X204731523Y-74433333D01*
X204683904Y-74528571D01*
X204636285Y-74576190D01*
X204541047Y-74623809D01*
X204350571Y-74671428D01*
X204255333Y-74719047D01*
X204207714Y-74766666D01*
X204160095Y-74861904D01*
X204160095Y-74957142D01*
X204207714Y-75052380D01*
X204255333Y-75100000D01*
X204350571Y-75147619D01*
X204588666Y-75147619D01*
X204731523Y-75100000D01*
X198800000Y-94661904D02*
X198847619Y-94757142D01*
X198847619Y-94900000D01*
X198800000Y-95042857D01*
X198704761Y-95138095D01*
X198609523Y-95185714D01*
X198419047Y-95233333D01*
X198276190Y-95233333D01*
X198085714Y-95185714D01*
X197990476Y-95138095D01*
X197895238Y-95042857D01*
X197847619Y-94900000D01*
X197847619Y-94804761D01*
X197895238Y-94661904D01*
X197942857Y-94614285D01*
X198276190Y-94614285D01*
X198276190Y-94804761D01*
X197847619Y-94185714D02*
X198847619Y-94185714D01*
X197847619Y-93614285D01*
X198847619Y-93614285D01*
X197847619Y-93138095D02*
X198847619Y-93138095D01*
X198847619Y-92900000D01*
X198800000Y-92757142D01*
X198704761Y-92661904D01*
X198609523Y-92614285D01*
X198419047Y-92566666D01*
X198276190Y-92566666D01*
X198085714Y-92614285D01*
X197990476Y-92661904D01*
X197895238Y-92757142D01*
X197847619Y-92900000D01*
X197847619Y-93138095D01*
X159000000Y-83600000D02*
X159000000Y-92200000D01*
X158238095Y-98600000D02*
X158142857Y-98647619D01*
X158000000Y-98647619D01*
X157857142Y-98600000D01*
X157761904Y-98504761D01*
X157714285Y-98409523D01*
X157666666Y-98219047D01*
X157666666Y-98076190D01*
X157714285Y-97885714D01*
X157761904Y-97790476D01*
X157857142Y-97695238D01*
X158000000Y-97647619D01*
X158095238Y-97647619D01*
X158238095Y-97695238D01*
X158285714Y-97742857D01*
X158285714Y-98076190D01*
X158095238Y-98076190D01*
X158714285Y-97647619D02*
X158714285Y-98647619D01*
X159285714Y-97647619D01*
X159285714Y-98647619D01*
X159761904Y-97647619D02*
X159761904Y-98647619D01*
X160000000Y-98647619D01*
X160142857Y-98600000D01*
X160238095Y-98504761D01*
X160285714Y-98409523D01*
X160333333Y-98219047D01*
X160333333Y-98076190D01*
X160285714Y-97885714D01*
X160238095Y-97790476D01*
X160142857Y-97695238D01*
X160000000Y-97647619D01*
X159761904Y-97647619D01*
X157238095Y-95328571D02*
X158000000Y-95328571D01*
X157619047Y-94947619D02*
X157619047Y-95709523D01*
X158380952Y-95947619D02*
X159000000Y-95947619D01*
X158666666Y-95566666D01*
X158809523Y-95566666D01*
X158904761Y-95519047D01*
X158952380Y-95471428D01*
X159000000Y-95376190D01*
X159000000Y-95138095D01*
X158952380Y-95042857D01*
X158904761Y-94995238D01*
X158809523Y-94947619D01*
X158523809Y-94947619D01*
X158428571Y-94995238D01*
X158380952Y-95042857D01*
X159285714Y-95947619D02*
X159619047Y-94947619D01*
X159952380Y-95947619D01*
X160190476Y-95947619D02*
X160809523Y-95947619D01*
X160476190Y-95566666D01*
X160619047Y-95566666D01*
X160714285Y-95519047D01*
X160761904Y-95471428D01*
X160809523Y-95376190D01*
X160809523Y-95138095D01*
X160761904Y-95042857D01*
X160714285Y-94995238D01*
X160619047Y-94947619D01*
X160333333Y-94947619D01*
X160238095Y-94995238D01*
X160190476Y-95042857D01*
X157714285Y-92928571D02*
X158476190Y-92928571D01*
X158095238Y-92547619D02*
X158095238Y-93309523D01*
X159428571Y-93547619D02*
X158952380Y-93547619D01*
X158904761Y-93071428D01*
X158952380Y-93119047D01*
X159047619Y-93166666D01*
X159285714Y-93166666D01*
X159380952Y-93119047D01*
X159428571Y-93071428D01*
X159476190Y-92976190D01*
X159476190Y-92738095D01*
X159428571Y-92642857D01*
X159380952Y-92595238D01*
X159285714Y-92547619D01*
X159047619Y-92547619D01*
X158952380Y-92595238D01*
X158904761Y-92642857D01*
X159761904Y-93547619D02*
X160095238Y-92547619D01*
X160428571Y-93547619D01*
X159368476Y-89995238D02*
X159511333Y-89947619D01*
X159749428Y-89947619D01*
X159844666Y-89995238D01*
X159892285Y-90042857D01*
X159939904Y-90138095D01*
X159939904Y-90233333D01*
X159892285Y-90328571D01*
X159844666Y-90376190D01*
X159749428Y-90423809D01*
X159558952Y-90471428D01*
X159463714Y-90519047D01*
X159416095Y-90566666D01*
X159368476Y-90661904D01*
X159368476Y-90757142D01*
X159416095Y-90852380D01*
X159463714Y-90900000D01*
X159558952Y-90947619D01*
X159797047Y-90947619D01*
X159939904Y-90900000D01*
X160368476Y-89947619D02*
X160368476Y-90947619D01*
X160606571Y-90947619D01*
X160749428Y-90900000D01*
X160844666Y-90804761D01*
X160892285Y-90709523D01*
X160939904Y-90519047D01*
X160939904Y-90376190D01*
X160892285Y-90185714D01*
X160844666Y-90090476D01*
X160749428Y-89995238D01*
X160606571Y-89947619D01*
X160368476Y-89947619D01*
X161320857Y-90233333D02*
X161797047Y-90233333D01*
X161225619Y-89947619D02*
X161558952Y-90947619D01*
X161892285Y-89947619D01*
X162178000Y-90852380D02*
X162225619Y-90900000D01*
X162320857Y-90947619D01*
X162558952Y-90947619D01*
X162654190Y-90900000D01*
X162701809Y-90852380D01*
X162749428Y-90757142D01*
X162749428Y-90661904D01*
X162701809Y-90519047D01*
X162130380Y-89947619D01*
X162749428Y-89947619D01*
X155687523Y-89947619D02*
X155354190Y-90423809D01*
X155116095Y-89947619D02*
X155116095Y-90947619D01*
X155497047Y-90947619D01*
X155592285Y-90900000D01*
X155639904Y-90852380D01*
X155687523Y-90757142D01*
X155687523Y-90614285D01*
X155639904Y-90519047D01*
X155592285Y-90471428D01*
X155497047Y-90423809D01*
X155116095Y-90423809D01*
X156068476Y-90233333D02*
X156544666Y-90233333D01*
X155973238Y-89947619D02*
X156306571Y-90947619D01*
X156639904Y-89947619D01*
X157401809Y-90614285D02*
X157401809Y-89947619D01*
X157163714Y-90995238D02*
X156925619Y-90280952D01*
X157544666Y-90280952D01*
X159368476Y-87495238D02*
X159511333Y-87447619D01*
X159749428Y-87447619D01*
X159844666Y-87495238D01*
X159892285Y-87542857D01*
X159939904Y-87638095D01*
X159939904Y-87733333D01*
X159892285Y-87828571D01*
X159844666Y-87876190D01*
X159749428Y-87923809D01*
X159558952Y-87971428D01*
X159463714Y-88019047D01*
X159416095Y-88066666D01*
X159368476Y-88161904D01*
X159368476Y-88257142D01*
X159416095Y-88352380D01*
X159463714Y-88400000D01*
X159558952Y-88447619D01*
X159797047Y-88447619D01*
X159939904Y-88400000D01*
X160939904Y-87542857D02*
X160892285Y-87495238D01*
X160749428Y-87447619D01*
X160654190Y-87447619D01*
X160511333Y-87495238D01*
X160416095Y-87590476D01*
X160368476Y-87685714D01*
X160320857Y-87876190D01*
X160320857Y-88019047D01*
X160368476Y-88209523D01*
X160416095Y-88304761D01*
X160511333Y-88400000D01*
X160654190Y-88447619D01*
X160749428Y-88447619D01*
X160892285Y-88400000D01*
X160939904Y-88352380D01*
X161844666Y-87447619D02*
X161368476Y-87447619D01*
X161368476Y-88447619D01*
X162130380Y-88352380D02*
X162178000Y-88400000D01*
X162273238Y-88447619D01*
X162511333Y-88447619D01*
X162606571Y-88400000D01*
X162654190Y-88352380D01*
X162701809Y-88257142D01*
X162701809Y-88161904D01*
X162654190Y-88019047D01*
X162082761Y-87447619D01*
X162701809Y-87447619D01*
X155168476Y-87495238D02*
X155311333Y-87447619D01*
X155549428Y-87447619D01*
X155644666Y-87495238D01*
X155692285Y-87542857D01*
X155739904Y-87638095D01*
X155739904Y-87733333D01*
X155692285Y-87828571D01*
X155644666Y-87876190D01*
X155549428Y-87923809D01*
X155358952Y-87971428D01*
X155263714Y-88019047D01*
X155216095Y-88066666D01*
X155168476Y-88161904D01*
X155168476Y-88257142D01*
X155216095Y-88352380D01*
X155263714Y-88400000D01*
X155358952Y-88447619D01*
X155597047Y-88447619D01*
X155739904Y-88400000D01*
X156739904Y-87542857D02*
X156692285Y-87495238D01*
X156549428Y-87447619D01*
X156454190Y-87447619D01*
X156311333Y-87495238D01*
X156216095Y-87590476D01*
X156168476Y-87685714D01*
X156120857Y-87876190D01*
X156120857Y-88019047D01*
X156168476Y-88209523D01*
X156216095Y-88304761D01*
X156311333Y-88400000D01*
X156454190Y-88447619D01*
X156549428Y-88447619D01*
X156692285Y-88400000D01*
X156739904Y-88352380D01*
X157644666Y-87447619D02*
X157168476Y-87447619D01*
X157168476Y-88447619D01*
X157882761Y-88447619D02*
X158501809Y-88447619D01*
X158168476Y-88066666D01*
X158311333Y-88066666D01*
X158406571Y-88019047D01*
X158454190Y-87971428D01*
X158501809Y-87876190D01*
X158501809Y-87638095D01*
X158454190Y-87542857D01*
X158406571Y-87495238D01*
X158311333Y-87447619D01*
X158025619Y-87447619D01*
X157930380Y-87495238D01*
X157882761Y-87542857D01*
X159987523Y-84847619D02*
X159654190Y-85323809D01*
X159416095Y-84847619D02*
X159416095Y-85847619D01*
X159797047Y-85847619D01*
X159892285Y-85800000D01*
X159939904Y-85752380D01*
X159987523Y-85657142D01*
X159987523Y-85514285D01*
X159939904Y-85419047D01*
X159892285Y-85371428D01*
X159797047Y-85323809D01*
X159416095Y-85323809D01*
X160749428Y-85371428D02*
X160416095Y-85371428D01*
X160416095Y-84847619D02*
X160416095Y-85847619D01*
X160892285Y-85847619D01*
X161178000Y-85847619D02*
X161797047Y-85847619D01*
X161463714Y-85466666D01*
X161606571Y-85466666D01*
X161701809Y-85419047D01*
X161749428Y-85371428D01*
X161797047Y-85276190D01*
X161797047Y-85038095D01*
X161749428Y-84942857D01*
X161701809Y-84895238D01*
X161606571Y-84847619D01*
X161320857Y-84847619D01*
X161225619Y-84895238D01*
X161178000Y-84942857D01*
X155168476Y-84895238D02*
X155311333Y-84847619D01*
X155549428Y-84847619D01*
X155644666Y-84895238D01*
X155692285Y-84942857D01*
X155739904Y-85038095D01*
X155739904Y-85133333D01*
X155692285Y-85228571D01*
X155644666Y-85276190D01*
X155549428Y-85323809D01*
X155358952Y-85371428D01*
X155263714Y-85419047D01*
X155216095Y-85466666D01*
X155168476Y-85561904D01*
X155168476Y-85657142D01*
X155216095Y-85752380D01*
X155263714Y-85800000D01*
X155358952Y-85847619D01*
X155597047Y-85847619D01*
X155739904Y-85800000D01*
X156168476Y-84847619D02*
X156168476Y-85847619D01*
X156406571Y-85847619D01*
X156549428Y-85800000D01*
X156644666Y-85704761D01*
X156692285Y-85609523D01*
X156739904Y-85419047D01*
X156739904Y-85276190D01*
X156692285Y-85085714D01*
X156644666Y-84990476D01*
X156549428Y-84895238D01*
X156406571Y-84847619D01*
X156168476Y-84847619D01*
X157120857Y-85133333D02*
X157597047Y-85133333D01*
X157025619Y-84847619D02*
X157358952Y-85847619D01*
X157692285Y-84847619D01*
X157930380Y-85847619D02*
X158549428Y-85847619D01*
X158216095Y-85466666D01*
X158358952Y-85466666D01*
X158454190Y-85419047D01*
X158501809Y-85371428D01*
X158549428Y-85276190D01*
X158549428Y-85038095D01*
X158501809Y-84942857D01*
X158454190Y-84895238D01*
X158358952Y-84847619D01*
X158073238Y-84847619D01*
X157978000Y-84895238D01*
X157930380Y-84942857D01*
X159000000Y-76000000D02*
X159000000Y-82000000D01*
X158238095Y-83200000D02*
X158142857Y-83247619D01*
X158000000Y-83247619D01*
X157857142Y-83200000D01*
X157761904Y-83104761D01*
X157714285Y-83009523D01*
X157666666Y-82819047D01*
X157666666Y-82676190D01*
X157714285Y-82485714D01*
X157761904Y-82390476D01*
X157857142Y-82295238D01*
X158000000Y-82247619D01*
X158095238Y-82247619D01*
X158238095Y-82295238D01*
X158285714Y-82342857D01*
X158285714Y-82676190D01*
X158095238Y-82676190D01*
X158714285Y-82247619D02*
X158714285Y-83247619D01*
X159285714Y-82247619D01*
X159285714Y-83247619D01*
X159761904Y-82247619D02*
X159761904Y-83247619D01*
X160000000Y-83247619D01*
X160142857Y-83200000D01*
X160238095Y-83104761D01*
X160285714Y-83009523D01*
X160333333Y-82819047D01*
X160333333Y-82676190D01*
X160285714Y-82485714D01*
X160238095Y-82390476D01*
X160142857Y-82295238D01*
X160000000Y-82247619D01*
X159761904Y-82247619D01*
X159987523Y-79847619D02*
X159654190Y-80323809D01*
X159416095Y-79847619D02*
X159416095Y-80847619D01*
X159797047Y-80847619D01*
X159892285Y-80800000D01*
X159939904Y-80752380D01*
X159987523Y-80657142D01*
X159987523Y-80514285D01*
X159939904Y-80419047D01*
X159892285Y-80371428D01*
X159797047Y-80323809D01*
X159416095Y-80323809D01*
X160749428Y-80371428D02*
X160416095Y-80371428D01*
X160416095Y-79847619D02*
X160416095Y-80847619D01*
X160892285Y-80847619D01*
X161797047Y-79847619D02*
X161225619Y-79847619D01*
X161511333Y-79847619D02*
X161511333Y-80847619D01*
X161416095Y-80704761D01*
X161320857Y-80609523D01*
X161225619Y-80561904D01*
X162178000Y-80752380D02*
X162225619Y-80800000D01*
X162320857Y-80847619D01*
X162558952Y-80847619D01*
X162654190Y-80800000D01*
X162701809Y-80752380D01*
X162749428Y-80657142D01*
X162749428Y-80561904D01*
X162701809Y-80419047D01*
X162130380Y-79847619D01*
X162749428Y-79847619D01*
X155787523Y-79847619D02*
X155454190Y-80323809D01*
X155216095Y-79847619D02*
X155216095Y-80847619D01*
X155597047Y-80847619D01*
X155692285Y-80800000D01*
X155739904Y-80752380D01*
X155787523Y-80657142D01*
X155787523Y-80514285D01*
X155739904Y-80419047D01*
X155692285Y-80371428D01*
X155597047Y-80323809D01*
X155216095Y-80323809D01*
X156549428Y-80371428D02*
X156692285Y-80323809D01*
X156739904Y-80276190D01*
X156787523Y-80180952D01*
X156787523Y-80038095D01*
X156739904Y-79942857D01*
X156692285Y-79895238D01*
X156597047Y-79847619D01*
X156216095Y-79847619D01*
X156216095Y-80847619D01*
X156549428Y-80847619D01*
X156644666Y-80800000D01*
X156692285Y-80752380D01*
X156739904Y-80657142D01*
X156739904Y-80561904D01*
X156692285Y-80466666D01*
X156644666Y-80419047D01*
X156549428Y-80371428D01*
X156216095Y-80371428D01*
X157739904Y-79847619D02*
X157168476Y-79847619D01*
X157454190Y-79847619D02*
X157454190Y-80847619D01*
X157358952Y-80704761D01*
X157263714Y-80609523D01*
X157168476Y-80561904D01*
X158644666Y-80847619D02*
X158168476Y-80847619D01*
X158120857Y-80371428D01*
X158168476Y-80419047D01*
X158263714Y-80466666D01*
X158501809Y-80466666D01*
X158597047Y-80419047D01*
X158644666Y-80371428D01*
X158692285Y-80276190D01*
X158692285Y-80038095D01*
X158644666Y-79942857D01*
X158597047Y-79895238D01*
X158501809Y-79847619D01*
X158263714Y-79847619D01*
X158168476Y-79895238D01*
X158120857Y-79942857D01*
X157238095Y-75028571D02*
X158000000Y-75028571D01*
X157619047Y-74647619D02*
X157619047Y-75409523D01*
X158380952Y-75647619D02*
X159000000Y-75647619D01*
X158666666Y-75266666D01*
X158809523Y-75266666D01*
X158904761Y-75219047D01*
X158952380Y-75171428D01*
X159000000Y-75076190D01*
X159000000Y-74838095D01*
X158952380Y-74742857D01*
X158904761Y-74695238D01*
X158809523Y-74647619D01*
X158523809Y-74647619D01*
X158428571Y-74695238D01*
X158380952Y-74742857D01*
X159285714Y-75647619D02*
X159619047Y-74647619D01*
X159952380Y-75647619D01*
X160190476Y-75647619D02*
X160809523Y-75647619D01*
X160476190Y-75266666D01*
X160619047Y-75266666D01*
X160714285Y-75219047D01*
X160761904Y-75171428D01*
X160809523Y-75076190D01*
X160809523Y-74838095D01*
X160761904Y-74742857D01*
X160714285Y-74695238D01*
X160619047Y-74647619D01*
X160333333Y-74647619D01*
X160238095Y-74695238D01*
X160190476Y-74742857D01*
X159416095Y-77147619D02*
X159416095Y-78147619D01*
X159797047Y-78147619D01*
X159892285Y-78100000D01*
X159939904Y-78052380D01*
X159987523Y-77957142D01*
X159987523Y-77814285D01*
X159939904Y-77719047D01*
X159892285Y-77671428D01*
X159797047Y-77623809D01*
X159416095Y-77623809D01*
X160939904Y-78100000D02*
X160844666Y-78147619D01*
X160701809Y-78147619D01*
X160558952Y-78100000D01*
X160463714Y-78004761D01*
X160416095Y-77909523D01*
X160368476Y-77719047D01*
X160368476Y-77576190D01*
X160416095Y-77385714D01*
X160463714Y-77290476D01*
X160558952Y-77195238D01*
X160701809Y-77147619D01*
X160797047Y-77147619D01*
X160939904Y-77195238D01*
X160987523Y-77242857D01*
X160987523Y-77576190D01*
X160797047Y-77576190D01*
X161416095Y-77671428D02*
X161749428Y-77671428D01*
X161892285Y-77147619D02*
X161416095Y-77147619D01*
X161416095Y-78147619D01*
X161892285Y-78147619D01*
X162892285Y-77242857D02*
X162844666Y-77195238D01*
X162701809Y-77147619D01*
X162606571Y-77147619D01*
X162463714Y-77195238D01*
X162368476Y-77290476D01*
X162320857Y-77385714D01*
X162273238Y-77576190D01*
X162273238Y-77719047D01*
X162320857Y-77909523D01*
X162368476Y-78004761D01*
X162463714Y-78100000D01*
X162606571Y-78147619D01*
X162701809Y-78147619D01*
X162844666Y-78100000D01*
X162892285Y-78052380D01*
X155216095Y-77147619D02*
X155216095Y-78147619D01*
X155597047Y-78147619D01*
X155692285Y-78100000D01*
X155739904Y-78052380D01*
X155787523Y-77957142D01*
X155787523Y-77814285D01*
X155739904Y-77719047D01*
X155692285Y-77671428D01*
X155597047Y-77623809D01*
X155216095Y-77623809D01*
X156739904Y-78100000D02*
X156644666Y-78147619D01*
X156501809Y-78147619D01*
X156358952Y-78100000D01*
X156263714Y-78004761D01*
X156216095Y-77909523D01*
X156168476Y-77719047D01*
X156168476Y-77576190D01*
X156216095Y-77385714D01*
X156263714Y-77290476D01*
X156358952Y-77195238D01*
X156501809Y-77147619D01*
X156597047Y-77147619D01*
X156739904Y-77195238D01*
X156787523Y-77242857D01*
X156787523Y-77576190D01*
X156597047Y-77576190D01*
X157216095Y-77671428D02*
X157549428Y-77671428D01*
X157692285Y-77147619D02*
X157216095Y-77147619D01*
X157216095Y-78147619D01*
X157692285Y-78147619D01*
X158120857Y-77147619D02*
X158120857Y-78147619D01*
X158358952Y-78147619D01*
X158501809Y-78100000D01*
X158597047Y-78004761D01*
X158644666Y-77909523D01*
X158692285Y-77719047D01*
X158692285Y-77576190D01*
X158644666Y-77385714D01*
X158597047Y-77290476D01*
X158501809Y-77195238D01*
X158358952Y-77147619D01*
X158120857Y-77147619D01*
X190538095Y-90928571D02*
X191300000Y-90928571D01*
X190919047Y-90547619D02*
X190919047Y-91309523D01*
X191680952Y-91547619D02*
X192300000Y-91547619D01*
X191966666Y-91166666D01*
X192109523Y-91166666D01*
X192204761Y-91119047D01*
X192252380Y-91071428D01*
X192300000Y-90976190D01*
X192300000Y-90738095D01*
X192252380Y-90642857D01*
X192204761Y-90595238D01*
X192109523Y-90547619D01*
X191823809Y-90547619D01*
X191728571Y-90595238D01*
X191680952Y-90642857D01*
X192585714Y-91547619D02*
X192919047Y-90547619D01*
X193252380Y-91547619D01*
X193490476Y-91547619D02*
X194109523Y-91547619D01*
X193776190Y-91166666D01*
X193919047Y-91166666D01*
X194014285Y-91119047D01*
X194061904Y-91071428D01*
X194109523Y-90976190D01*
X194109523Y-90738095D01*
X194061904Y-90642857D01*
X194014285Y-90595238D01*
X193919047Y-90547619D01*
X193633333Y-90547619D01*
X193538095Y-90595238D01*
X193490476Y-90642857D01*
X190538095Y-88328571D02*
X191300000Y-88328571D01*
X190919047Y-87947619D02*
X190919047Y-88709523D01*
X191680952Y-88947619D02*
X192300000Y-88947619D01*
X191966666Y-88566666D01*
X192109523Y-88566666D01*
X192204761Y-88519047D01*
X192252380Y-88471428D01*
X192300000Y-88376190D01*
X192300000Y-88138095D01*
X192252380Y-88042857D01*
X192204761Y-87995238D01*
X192109523Y-87947619D01*
X191823809Y-87947619D01*
X191728571Y-87995238D01*
X191680952Y-88042857D01*
X192585714Y-88947619D02*
X192919047Y-87947619D01*
X193252380Y-88947619D01*
X193490476Y-88947619D02*
X194109523Y-88947619D01*
X193776190Y-88566666D01*
X193919047Y-88566666D01*
X194014285Y-88519047D01*
X194061904Y-88471428D01*
X194109523Y-88376190D01*
X194109523Y-88138095D01*
X194061904Y-88042857D01*
X194014285Y-87995238D01*
X193919047Y-87947619D01*
X193633333Y-87947619D01*
X193538095Y-87995238D01*
X193490476Y-88042857D01*
X190516095Y-85928571D02*
X191278000Y-85928571D01*
X190897047Y-85547619D02*
X190897047Y-86309523D01*
X192230380Y-86547619D02*
X191754190Y-86547619D01*
X191706571Y-86071428D01*
X191754190Y-86119047D01*
X191849428Y-86166666D01*
X192087523Y-86166666D01*
X192182761Y-86119047D01*
X192230380Y-86071428D01*
X192278000Y-85976190D01*
X192278000Y-85738095D01*
X192230380Y-85642857D01*
X192182761Y-85595238D01*
X192087523Y-85547619D01*
X191849428Y-85547619D01*
X191754190Y-85595238D01*
X191706571Y-85642857D01*
X192563714Y-86547619D02*
X192897047Y-85547619D01*
X193230380Y-86547619D01*
X163268476Y-56202380D02*
X163316095Y-56250000D01*
X163411333Y-56297619D01*
X163649428Y-56297619D01*
X163744666Y-56250000D01*
X163792285Y-56202380D01*
X163839904Y-56107142D01*
X163839904Y-56011904D01*
X163792285Y-55869047D01*
X163220857Y-55297619D01*
X163839904Y-55297619D01*
X164697047Y-55964285D02*
X164697047Y-55297619D01*
X164458952Y-56345238D02*
X164220857Y-55630952D01*
X164839904Y-55630952D01*
X165078000Y-56297619D02*
X165411333Y-55297619D01*
X165744666Y-56297619D01*
X166078000Y-55297619D02*
X166078000Y-56297619D01*
X166316095Y-56297619D01*
X166458952Y-56250000D01*
X166554190Y-56154761D01*
X166601809Y-56059523D01*
X166649428Y-55869047D01*
X166649428Y-55726190D01*
X166601809Y-55535714D01*
X166554190Y-55440476D01*
X166458952Y-55345238D01*
X166316095Y-55297619D01*
X166078000Y-55297619D01*
X167649428Y-55392857D02*
X167601809Y-55345238D01*
X167458952Y-55297619D01*
X167363714Y-55297619D01*
X167220857Y-55345238D01*
X167125619Y-55440476D01*
X167078000Y-55535714D01*
X167030380Y-55726190D01*
X167030380Y-55869047D01*
X167078000Y-56059523D01*
X167125619Y-56154761D01*
X167220857Y-56250000D01*
X167363714Y-56297619D01*
X167458952Y-56297619D01*
X167601809Y-56250000D01*
X167649428Y-56202380D01*
X168839904Y-55297619D02*
X168839904Y-55964285D01*
X168839904Y-55869047D02*
X168887523Y-55916666D01*
X168982761Y-55964285D01*
X169125619Y-55964285D01*
X169220857Y-55916666D01*
X169268476Y-55821428D01*
X169268476Y-55297619D01*
X169268476Y-55821428D02*
X169316095Y-55916666D01*
X169411333Y-55964285D01*
X169554190Y-55964285D01*
X169649428Y-55916666D01*
X169697047Y-55821428D01*
X169697047Y-55297619D01*
X170601809Y-55297619D02*
X170601809Y-55821428D01*
X170554190Y-55916666D01*
X170458952Y-55964285D01*
X170268476Y-55964285D01*
X170173238Y-55916666D01*
X170601809Y-55345238D02*
X170506571Y-55297619D01*
X170268476Y-55297619D01*
X170173238Y-55345238D01*
X170125619Y-55440476D01*
X170125619Y-55535714D01*
X170173238Y-55630952D01*
X170268476Y-55678571D01*
X170506571Y-55678571D01*
X170601809Y-55726190D01*
X170982761Y-55297619D02*
X171506571Y-55964285D01*
X170982761Y-55964285D02*
X171506571Y-55297619D01*
D11*
G36*
X171250000Y-54000000D02*
G01*
X170500000Y-54500000D01*
X170500000Y-53500000D01*
X171250000Y-54000000D01*
G37*
X171250000Y-54000000D02*
X170500000Y-54500000D01*
X170500000Y-53500000D01*
X171250000Y-54000000D01*
D10*
X170000000Y-54000000D02*
X171000000Y-54000000D01*
X166500000Y-51500000D02*
X166500000Y-55000000D01*
X164250000Y-54000000D02*
X165750000Y-54000000D01*
X165000000Y-53250000D02*
X165000000Y-54750000D01*
X167250000Y-54000000D02*
X168750000Y-54000000D01*
X169309017Y-52500000D02*
G75*
G03X169309017Y-52500000I-559017J0D01*
G01*
X167809017Y-52500000D02*
G75*
G03X167809017Y-52500000I-559017J0D01*
G01*
X166309017Y-52500000D02*
G75*
G03X166309017Y-52500000I-559017J0D01*
G01*
X164809017Y-52500000D02*
G75*
G03X164809017Y-52500000I-559017J0D01*
G01*
X163250000Y-51500000D02*
X163500000Y-51500000D01*
X163250000Y-55000000D02*
X163250000Y-51500000D01*
X169750000Y-55000000D02*
X163250000Y-55000000D01*
X169750000Y-51500000D02*
X169750000Y-55000000D01*
X163500000Y-51500000D02*
X169750000Y-51500000D01*
X128387523Y-54797619D02*
X128054190Y-55273809D01*
X127816095Y-54797619D02*
X127816095Y-55797619D01*
X128197047Y-55797619D01*
X128292285Y-55750000D01*
X128339904Y-55702380D01*
X128387523Y-55607142D01*
X128387523Y-55464285D01*
X128339904Y-55369047D01*
X128292285Y-55321428D01*
X128197047Y-55273809D01*
X127816095Y-55273809D01*
X128768476Y-54845238D02*
X128911333Y-54797619D01*
X129149428Y-54797619D01*
X129244666Y-54845238D01*
X129292285Y-54892857D01*
X129339904Y-54988095D01*
X129339904Y-55083333D01*
X129292285Y-55178571D01*
X129244666Y-55226190D01*
X129149428Y-55273809D01*
X128958952Y-55321428D01*
X128863714Y-55369047D01*
X128816095Y-55416666D01*
X128768476Y-55511904D01*
X128768476Y-55607142D01*
X128816095Y-55702380D01*
X128863714Y-55750000D01*
X128958952Y-55797619D01*
X129197047Y-55797619D01*
X129339904Y-55750000D01*
X129768476Y-55178571D02*
X130530380Y-55178571D01*
X128387523Y-51297619D02*
X128054190Y-51773809D01*
X127816095Y-51297619D02*
X127816095Y-52297619D01*
X128197047Y-52297619D01*
X128292285Y-52250000D01*
X128339904Y-52202380D01*
X128387523Y-52107142D01*
X128387523Y-51964285D01*
X128339904Y-51869047D01*
X128292285Y-51821428D01*
X128197047Y-51773809D01*
X127816095Y-51773809D01*
X128673238Y-52297619D02*
X129244666Y-52297619D01*
X128958952Y-51297619D02*
X128958952Y-52297619D01*
X129578000Y-51297619D02*
X129578000Y-52297619D01*
X129816095Y-52297619D01*
X129958952Y-52250000D01*
X130054190Y-52154761D01*
X130101809Y-52059523D01*
X130149428Y-51869047D01*
X130149428Y-51726190D01*
X130101809Y-51535714D01*
X130054190Y-51440476D01*
X129958952Y-51345238D01*
X129816095Y-51297619D01*
X129578000Y-51297619D01*
X130578000Y-51678571D02*
X131339904Y-51678571D01*
X128387523Y-58297619D02*
X128054190Y-58773809D01*
X127816095Y-58297619D02*
X127816095Y-59297619D01*
X128197047Y-59297619D01*
X128292285Y-59250000D01*
X128339904Y-59202380D01*
X128387523Y-59107142D01*
X128387523Y-58964285D01*
X128339904Y-58869047D01*
X128292285Y-58821428D01*
X128197047Y-58773809D01*
X127816095Y-58773809D01*
X128768476Y-58345238D02*
X128911333Y-58297619D01*
X129149428Y-58297619D01*
X129244666Y-58345238D01*
X129292285Y-58392857D01*
X129339904Y-58488095D01*
X129339904Y-58583333D01*
X129292285Y-58678571D01*
X129244666Y-58726190D01*
X129149428Y-58773809D01*
X128958952Y-58821428D01*
X128863714Y-58869047D01*
X128816095Y-58916666D01*
X128768476Y-59011904D01*
X128768476Y-59107142D01*
X128816095Y-59202380D01*
X128863714Y-59250000D01*
X128958952Y-59297619D01*
X129197047Y-59297619D01*
X129339904Y-59250000D01*
X129768476Y-58678571D02*
X130530380Y-58678571D01*
X130149428Y-58297619D02*
X130149428Y-59059523D01*
X128387523Y-61797619D02*
X128054190Y-62273809D01*
X127816095Y-61797619D02*
X127816095Y-62797619D01*
X128197047Y-62797619D01*
X128292285Y-62750000D01*
X128339904Y-62702380D01*
X128387523Y-62607142D01*
X128387523Y-62464285D01*
X128339904Y-62369047D01*
X128292285Y-62321428D01*
X128197047Y-62273809D01*
X127816095Y-62273809D01*
X128673238Y-62797619D02*
X129244666Y-62797619D01*
X128958952Y-61797619D02*
X128958952Y-62797619D01*
X129578000Y-61797619D02*
X129578000Y-62797619D01*
X129816095Y-62797619D01*
X129958952Y-62750000D01*
X130054190Y-62654761D01*
X130101809Y-62559523D01*
X130149428Y-62369047D01*
X130149428Y-62226190D01*
X130101809Y-62035714D01*
X130054190Y-61940476D01*
X129958952Y-61845238D01*
X129816095Y-61797619D01*
X129578000Y-61797619D01*
X130578000Y-62178571D02*
X131339904Y-62178571D01*
X130958952Y-61797619D02*
X130958952Y-62559523D01*
X127816095Y-65678571D02*
X128578000Y-65678571D01*
X128197047Y-65297619D02*
X128197047Y-66059523D01*
X129006571Y-66202380D02*
X129054190Y-66250000D01*
X129149428Y-66297619D01*
X129387523Y-66297619D01*
X129482761Y-66250000D01*
X129530380Y-66202380D01*
X129578000Y-66107142D01*
X129578000Y-66011904D01*
X129530380Y-65869047D01*
X128958952Y-65297619D01*
X129578000Y-65297619D01*
X130435142Y-65964285D02*
X130435142Y-65297619D01*
X130197047Y-66345238D02*
X129958952Y-65630952D01*
X130578000Y-65630952D01*
X128387523Y-68892857D02*
X128339904Y-68845238D01*
X128197047Y-68797619D01*
X128101809Y-68797619D01*
X127958952Y-68845238D01*
X127863714Y-68940476D01*
X127816095Y-69035714D01*
X127768476Y-69226190D01*
X127768476Y-69369047D01*
X127816095Y-69559523D01*
X127863714Y-69654761D01*
X127958952Y-69750000D01*
X128101809Y-69797619D01*
X128197047Y-69797619D01*
X128339904Y-69750000D01*
X128387523Y-69702380D01*
X128816095Y-68797619D02*
X128816095Y-69797619D01*
X129292285Y-68797619D02*
X129292285Y-69797619D01*
X129863714Y-68797619D01*
X129863714Y-69797619D01*
X130292285Y-69702380D02*
X130339904Y-69750000D01*
X130435142Y-69797619D01*
X130673238Y-69797619D01*
X130768476Y-69750000D01*
X130816095Y-69702380D01*
X130863714Y-69607142D01*
X130863714Y-69511904D01*
X130816095Y-69369047D01*
X130244666Y-68797619D01*
X130863714Y-68797619D01*
X127928571Y-74083333D02*
X127928571Y-73321428D01*
X127547619Y-73702380D02*
X128309523Y-73702380D01*
X128452380Y-72892857D02*
X128500000Y-72845238D01*
X128547619Y-72750000D01*
X128547619Y-72511904D01*
X128500000Y-72416666D01*
X128452380Y-72369047D01*
X128357142Y-72321428D01*
X128261904Y-72321428D01*
X128119047Y-72369047D01*
X127547619Y-72940476D01*
X127547619Y-72321428D01*
X128214285Y-71464285D02*
X127547619Y-71464285D01*
X128595238Y-71702380D02*
X127880952Y-71940476D01*
X127880952Y-71321428D01*
X128387523Y-75892857D02*
X128339904Y-75845238D01*
X128197047Y-75797619D01*
X128101809Y-75797619D01*
X127958952Y-75845238D01*
X127863714Y-75940476D01*
X127816095Y-76035714D01*
X127768476Y-76226190D01*
X127768476Y-76369047D01*
X127816095Y-76559523D01*
X127863714Y-76654761D01*
X127958952Y-76750000D01*
X128101809Y-76797619D01*
X128197047Y-76797619D01*
X128339904Y-76750000D01*
X128387523Y-76702380D01*
X128816095Y-75797619D02*
X128816095Y-76797619D01*
X129292285Y-75797619D02*
X129292285Y-76797619D01*
X129863714Y-75797619D01*
X129863714Y-76797619D01*
X130863714Y-75797619D02*
X130292285Y-75797619D01*
X130578000Y-75797619D02*
X130578000Y-76797619D01*
X130482761Y-76654761D01*
X130387523Y-76559523D01*
X130292285Y-76511904D01*
X128339904Y-80250000D02*
X128244666Y-80297619D01*
X128101809Y-80297619D01*
X127958952Y-80250000D01*
X127863714Y-80154761D01*
X127816095Y-80059523D01*
X127768476Y-79869047D01*
X127768476Y-79726190D01*
X127816095Y-79535714D01*
X127863714Y-79440476D01*
X127958952Y-79345238D01*
X128101809Y-79297619D01*
X128197047Y-79297619D01*
X128339904Y-79345238D01*
X128387523Y-79392857D01*
X128387523Y-79726190D01*
X128197047Y-79726190D01*
X128816095Y-79297619D02*
X128816095Y-80297619D01*
X129387523Y-79297619D01*
X129387523Y-80297619D01*
X129863714Y-79297619D02*
X129863714Y-80297619D01*
X130101809Y-80297619D01*
X130244666Y-80250000D01*
X130339904Y-80154761D01*
X130387523Y-80059523D01*
X130435142Y-79869047D01*
X130435142Y-79726190D01*
X130387523Y-79535714D01*
X130339904Y-79440476D01*
X130244666Y-79345238D01*
X130101809Y-79297619D01*
X129863714Y-79297619D01*
X127673238Y-83797619D02*
X128244666Y-83797619D01*
X127958952Y-82797619D02*
X127958952Y-83797619D01*
X129149428Y-82892857D02*
X129101809Y-82845238D01*
X128958952Y-82797619D01*
X128863714Y-82797619D01*
X128720857Y-82845238D01*
X128625619Y-82940476D01*
X128578000Y-83035714D01*
X128530380Y-83226190D01*
X128530380Y-83369047D01*
X128578000Y-83559523D01*
X128625619Y-83654761D01*
X128720857Y-83750000D01*
X128863714Y-83797619D01*
X128958952Y-83797619D01*
X129101809Y-83750000D01*
X129149428Y-83702380D01*
X130101809Y-82797619D02*
X129530380Y-82797619D01*
X129816095Y-82797619D02*
X129816095Y-83797619D01*
X129720857Y-83654761D01*
X129625619Y-83559523D01*
X129530380Y-83511904D01*
X130530380Y-83178571D02*
X131292285Y-83178571D01*
X127673238Y-87547619D02*
X128244666Y-87547619D01*
X127958952Y-86547619D02*
X127958952Y-87547619D01*
X129149428Y-86642857D02*
X129101809Y-86595238D01*
X128958952Y-86547619D01*
X128863714Y-86547619D01*
X128720857Y-86595238D01*
X128625619Y-86690476D01*
X128578000Y-86785714D01*
X128530380Y-86976190D01*
X128530380Y-87119047D01*
X128578000Y-87309523D01*
X128625619Y-87404761D01*
X128720857Y-87500000D01*
X128863714Y-87547619D01*
X128958952Y-87547619D01*
X129101809Y-87500000D01*
X129149428Y-87452380D01*
X130101809Y-86547619D02*
X129530380Y-86547619D01*
X129816095Y-86547619D02*
X129816095Y-87547619D01*
X129720857Y-87404761D01*
X129625619Y-87309523D01*
X129530380Y-87261904D01*
X130530380Y-86928571D02*
X131292285Y-86928571D01*
X130911333Y-86547619D02*
X130911333Y-87309523D01*
X127673238Y-90797619D02*
X128244666Y-90797619D01*
X127958952Y-89797619D02*
X127958952Y-90797619D01*
X129149428Y-89892857D02*
X129101809Y-89845238D01*
X128958952Y-89797619D01*
X128863714Y-89797619D01*
X128720857Y-89845238D01*
X128625619Y-89940476D01*
X128578000Y-90035714D01*
X128530380Y-90226190D01*
X128530380Y-90369047D01*
X128578000Y-90559523D01*
X128625619Y-90654761D01*
X128720857Y-90750000D01*
X128863714Y-90797619D01*
X128958952Y-90797619D01*
X129101809Y-90750000D01*
X129149428Y-90702380D01*
X129530380Y-90702380D02*
X129578000Y-90750000D01*
X129673238Y-90797619D01*
X129911333Y-90797619D01*
X130006571Y-90750000D01*
X130054190Y-90702380D01*
X130101809Y-90607142D01*
X130101809Y-90511904D01*
X130054190Y-90369047D01*
X129482761Y-89797619D01*
X130101809Y-89797619D01*
X130530380Y-90178571D02*
X131292285Y-90178571D01*
X127673238Y-94297619D02*
X128244666Y-94297619D01*
X127958952Y-93297619D02*
X127958952Y-94297619D01*
X129149428Y-93392857D02*
X129101809Y-93345238D01*
X128958952Y-93297619D01*
X128863714Y-93297619D01*
X128720857Y-93345238D01*
X128625619Y-93440476D01*
X128578000Y-93535714D01*
X128530380Y-93726190D01*
X128530380Y-93869047D01*
X128578000Y-94059523D01*
X128625619Y-94154761D01*
X128720857Y-94250000D01*
X128863714Y-94297619D01*
X128958952Y-94297619D01*
X129101809Y-94250000D01*
X129149428Y-94202380D01*
X129530380Y-94202380D02*
X129578000Y-94250000D01*
X129673238Y-94297619D01*
X129911333Y-94297619D01*
X130006571Y-94250000D01*
X130054190Y-94202380D01*
X130101809Y-94107142D01*
X130101809Y-94011904D01*
X130054190Y-93869047D01*
X129482761Y-93297619D01*
X130101809Y-93297619D01*
X130530380Y-93678571D02*
X131292285Y-93678571D01*
X130911333Y-93297619D02*
X130911333Y-94059523D01*
X128339904Y-97750000D02*
X128244666Y-97797619D01*
X128101809Y-97797619D01*
X127958952Y-97750000D01*
X127863714Y-97654761D01*
X127816095Y-97559523D01*
X127768476Y-97369047D01*
X127768476Y-97226190D01*
X127816095Y-97035714D01*
X127863714Y-96940476D01*
X127958952Y-96845238D01*
X128101809Y-96797619D01*
X128197047Y-96797619D01*
X128339904Y-96845238D01*
X128387523Y-96892857D01*
X128387523Y-97226190D01*
X128197047Y-97226190D01*
X128816095Y-96797619D02*
X128816095Y-97797619D01*
X129387523Y-96797619D01*
X129387523Y-97797619D01*
X129863714Y-96797619D02*
X129863714Y-97797619D01*
X130101809Y-97797619D01*
X130244666Y-97750000D01*
X130339904Y-97654761D01*
X130387523Y-97559523D01*
X130435142Y-97369047D01*
X130435142Y-97226190D01*
X130387523Y-97035714D01*
X130339904Y-96940476D01*
X130244666Y-96845238D01*
X130101809Y-96797619D01*
X129863714Y-96797619D01*
X128190476Y-101297619D02*
X127714285Y-101297619D01*
X127666666Y-100821428D01*
X127714285Y-100869047D01*
X127809523Y-100916666D01*
X128047619Y-100916666D01*
X128142857Y-100869047D01*
X128190476Y-100821428D01*
X128238095Y-100726190D01*
X128238095Y-100488095D01*
X128190476Y-100392857D01*
X128142857Y-100345238D01*
X128047619Y-100297619D01*
X127809523Y-100297619D01*
X127714285Y-100345238D01*
X127666666Y-100392857D01*
X128523809Y-101297619D02*
X128857142Y-100297619D01*
X129190476Y-101297619D01*
X129714285Y-101297619D02*
X129904761Y-101297619D01*
X130000000Y-101250000D01*
X130095238Y-101154761D01*
X130142857Y-100964285D01*
X130142857Y-100630952D01*
X130095238Y-100440476D01*
X130000000Y-100345238D01*
X129904761Y-100297619D01*
X129714285Y-100297619D01*
X129619047Y-100345238D01*
X129523809Y-100440476D01*
X129476190Y-100630952D01*
X129476190Y-100964285D01*
X129523809Y-101154761D01*
X129619047Y-101250000D01*
X129714285Y-101297619D01*
X130571428Y-100678571D02*
X131333333Y-100678571D01*
X131761904Y-101202380D02*
X131809523Y-101250000D01*
X131904761Y-101297619D01*
X132142857Y-101297619D01*
X132238095Y-101250000D01*
X132285714Y-101202380D01*
X132333333Y-101107142D01*
X132333333Y-101011904D01*
X132285714Y-100869047D01*
X131714285Y-100297619D01*
X132333333Y-100297619D01*
X128190476Y-104797619D02*
X127714285Y-104797619D01*
X127666666Y-104321428D01*
X127714285Y-104369047D01*
X127809523Y-104416666D01*
X128047619Y-104416666D01*
X128142857Y-104369047D01*
X128190476Y-104321428D01*
X128238095Y-104226190D01*
X128238095Y-103988095D01*
X128190476Y-103892857D01*
X128142857Y-103845238D01*
X128047619Y-103797619D01*
X127809523Y-103797619D01*
X127714285Y-103845238D01*
X127666666Y-103892857D01*
X128523809Y-104797619D02*
X128857142Y-103797619D01*
X129190476Y-104797619D01*
X129714285Y-104797619D02*
X129904761Y-104797619D01*
X130000000Y-104750000D01*
X130095238Y-104654761D01*
X130142857Y-104464285D01*
X130142857Y-104130952D01*
X130095238Y-103940476D01*
X130000000Y-103845238D01*
X129904761Y-103797619D01*
X129714285Y-103797619D01*
X129619047Y-103845238D01*
X129523809Y-103940476D01*
X129476190Y-104130952D01*
X129476190Y-104464285D01*
X129523809Y-104654761D01*
X129619047Y-104750000D01*
X129714285Y-104797619D01*
X130571428Y-104178571D02*
X131333333Y-104178571D01*
X132333333Y-103797619D02*
X131761904Y-103797619D01*
X132047619Y-103797619D02*
X132047619Y-104797619D01*
X131952380Y-104654761D01*
X131857142Y-104559523D01*
X131761904Y-104511904D01*
X166400000Y-108700000D02*
X166400000Y-105900000D01*
X127200000Y-129800000D02*
X127600000Y-129400000D01*
X127200000Y-128600000D02*
X127600000Y-128200000D01*
X127200000Y-127000000D02*
X127600000Y-126600000D01*
X127200000Y-125400000D02*
X127600000Y-125000000D01*
X127200000Y-123800000D02*
X127600000Y-123400000D01*
X127200000Y-122200000D02*
X127600000Y-121800000D01*
X127000000Y-120400000D02*
X127600000Y-119800000D01*
X127000000Y-118800000D02*
X127600000Y-118200000D01*
X127000000Y-117200000D02*
X127600000Y-116600000D01*
X127000000Y-115200000D02*
X127600000Y-114600000D01*
X126200000Y-114400000D02*
X126800000Y-113800000D01*
X124600000Y-114400000D02*
X125200000Y-113800000D01*
X121400000Y-114400000D02*
X122000000Y-113800000D01*
X118200000Y-114400000D02*
X118800000Y-113800000D01*
X119800000Y-114400000D02*
X120400000Y-113800000D01*
X116800000Y-114400000D02*
X117400000Y-113800000D01*
X123000000Y-114400000D02*
X123600000Y-113800000D01*
X115200000Y-114400000D02*
X115800000Y-113800000D01*
X128000000Y-122000000D02*
X128000000Y-130000000D01*
X128000000Y-117000000D02*
X128000000Y-121000000D01*
X128000000Y-113500000D02*
X128000000Y-116000000D01*
X115000000Y-113500000D02*
X128000000Y-113500000D01*
D11*
G36*
X145700000Y-109300000D02*
G01*
X148800000Y-109300000D01*
X145700000Y-112400000D01*
X145700000Y-109300000D01*
G37*
X145700000Y-109300000D02*
X148800000Y-109300000D01*
X145700000Y-112400000D01*
X145700000Y-109300000D01*
D10*
X145700000Y-109300000D02*
X145700000Y-122100000D01*
X185900000Y-109300000D02*
X145700000Y-109300000D01*
X185900000Y-122100000D02*
X185900000Y-109300000D01*
X145700000Y-122100000D02*
X185900000Y-122100000D01*
X167500000Y-126100000D02*
G75*
G03X167500000Y-126100000I-2500000J0D01*
G01*
X135300000Y-121300000D02*
X135300000Y-116300000D01*
X115100000Y-121300000D02*
X135300000Y-121300000D01*
X115100000Y-116300000D02*
X115100000Y-121300000D01*
X135300000Y-116300000D02*
X115100000Y-116300000D01*
X115000000Y-130000000D02*
X127000000Y-130000000D01*
X115000000Y-121500000D02*
X115000000Y-130000000D01*
X127000000Y-121500000D02*
X115000000Y-121500000D01*
X127000000Y-130000000D02*
X127000000Y-121500000D01*
X171700000Y-50100000D02*
X171700000Y-62100000D01*
X187200000Y-50100000D02*
X171700000Y-50100000D01*
X187200000Y-62100000D02*
X187200000Y-50100000D01*
X171700000Y-62100000D02*
X187200000Y-62100000D01*
X142060000Y-67940000D02*
X142060000Y-71890000D01*
X142060000Y-78460000D02*
X142060000Y-74510000D01*
X132604437Y-78460000D02*
X142060000Y-78460000D01*
X132604437Y-67940000D02*
X142060000Y-67940000D01*
X131540000Y-69004437D02*
X131540000Y-71890000D01*
X131540000Y-77395563D02*
X131540000Y-74510000D01*
X131540000Y-77395563D02*
X132604437Y-78460000D01*
X131540000Y-69004437D02*
X132604437Y-67940000D01*
X166400000Y-88800000D02*
X166400000Y-89200000D01*
X166600000Y-89400000D02*
X166200000Y-89400000D01*
X166600000Y-88600000D02*
X166200000Y-88600000D01*
X231600000Y-93800000D02*
X231200000Y-93800000D01*
X231000000Y-94000000D02*
X231000000Y-93600000D01*
X231800000Y-94000000D02*
X231800000Y-93600000D01*
X223790000Y-99610000D02*
X223790000Y-97260000D01*
X223790000Y-92790000D02*
X223790000Y-95140000D01*
X229545563Y-92790000D02*
X223790000Y-92790000D01*
X229545563Y-99610000D02*
X223790000Y-99610000D01*
X230610000Y-98545563D02*
X230610000Y-97260000D01*
X230610000Y-93854437D02*
X230610000Y-95140000D01*
X230610000Y-93854437D02*
X229545563Y-92790000D01*
X230610000Y-98545563D02*
X229545563Y-99610000D01*
X175660000Y-74460000D02*
X171710000Y-74460000D01*
X165140000Y-74460000D02*
X169090000Y-74460000D01*
X165140000Y-65004437D02*
X165140000Y-74460000D01*
X175660000Y-65004437D02*
X175660000Y-74460000D01*
X174595563Y-63940000D02*
X171710000Y-63940000D01*
X166204437Y-63940000D02*
X169090000Y-63940000D01*
X166204437Y-63940000D02*
X165140000Y-65004437D01*
X174595563Y-63940000D02*
X175660000Y-65004437D01*
X185595563Y-63940000D02*
X186660000Y-65004437D01*
X177204437Y-63940000D02*
X176140000Y-65004437D01*
X177204437Y-63940000D02*
X180090000Y-63940000D01*
X185595563Y-63940000D02*
X182710000Y-63940000D01*
X186660000Y-65004437D02*
X186660000Y-74460000D01*
X176140000Y-65004437D02*
X176140000Y-74460000D01*
X176140000Y-74460000D02*
X180090000Y-74460000D01*
X186660000Y-74460000D02*
X182710000Y-74460000D01*
X231600000Y-72800000D02*
X231200000Y-72800000D01*
X231000000Y-73000000D02*
X231000000Y-72600000D01*
X231800000Y-73000000D02*
X231800000Y-72600000D01*
X230610000Y-77545563D02*
X229545563Y-78610000D01*
X230610000Y-72854437D02*
X229545563Y-71790000D01*
X230610000Y-72854437D02*
X230610000Y-74140000D01*
X230610000Y-77545563D02*
X230610000Y-76260000D01*
X229545563Y-78610000D02*
X223790000Y-78610000D01*
X229545563Y-71790000D02*
X223790000Y-71790000D01*
X223790000Y-71790000D02*
X223790000Y-74140000D01*
X223790000Y-78610000D02*
X223790000Y-76260000D01*
X231600000Y-51800000D02*
X231200000Y-51800000D01*
X231000000Y-52000000D02*
X231000000Y-51600000D01*
X231800000Y-52000000D02*
X231800000Y-51600000D01*
X223790000Y-57610000D02*
X223790000Y-55260000D01*
X223790000Y-50790000D02*
X223790000Y-53140000D01*
X229545563Y-50790000D02*
X223790000Y-50790000D01*
X229545563Y-57610000D02*
X223790000Y-57610000D01*
X230610000Y-56545563D02*
X230610000Y-55260000D01*
X230610000Y-51854437D02*
X230610000Y-53140000D01*
X230610000Y-51854437D02*
X229545563Y-50790000D01*
X230610000Y-56545563D02*
X229545563Y-57610000D01*
D11*
X144100000Y-75700000D02*
X144100000Y-76700000D01*
X145500000Y-75700000D02*
X145500000Y-76700000D01*
X144400000Y-76200000D02*
X145200000Y-76200000D01*
X144300000Y-94100000D02*
X144300000Y-95100000D01*
X145700000Y-94100000D02*
X145700000Y-95100000D01*
X144600000Y-94600000D02*
X145400000Y-94600000D01*
D10*
X215800000Y-51800000D02*
X215400000Y-51800000D01*
X215200000Y-52000000D02*
X215200000Y-51600000D01*
X216000000Y-52000000D02*
X216000000Y-51600000D01*
X214810000Y-56545563D02*
X213745563Y-57610000D01*
X214810000Y-51854437D02*
X213745563Y-50790000D01*
X214810000Y-51854437D02*
X214810000Y-53140000D01*
X214810000Y-56545563D02*
X214810000Y-55260000D01*
X213745563Y-57610000D02*
X207990000Y-57610000D01*
X213745563Y-50790000D02*
X207990000Y-50790000D01*
X207990000Y-50790000D02*
X207990000Y-53140000D01*
X207990000Y-57610000D02*
X207990000Y-55260000D01*
X199800000Y-51800000D02*
X199400000Y-51800000D01*
X199200000Y-52000000D02*
X199200000Y-51600000D01*
X200000000Y-52000000D02*
X200000000Y-51600000D01*
X191990000Y-57610000D02*
X191990000Y-55260000D01*
X191990000Y-50790000D02*
X191990000Y-53140000D01*
X197745563Y-50790000D02*
X191990000Y-50790000D01*
X197745563Y-57610000D02*
X191990000Y-57610000D01*
X198810000Y-56545563D02*
X198810000Y-55260000D01*
X198810000Y-51854437D02*
X198810000Y-53140000D01*
X198810000Y-51854437D02*
X197745563Y-50790000D01*
X198810000Y-56545563D02*
X197745563Y-57610000D01*
D11*
X177100000Y-115600000D02*
X177900000Y-115600000D01*
X178200000Y-115100000D02*
X178200000Y-116100000D01*
X176800000Y-115100000D02*
X176800000Y-116100000D01*
D10*
X142700000Y-113500000D02*
X144200000Y-113500000D01*
X142700000Y-113500000D02*
X142600000Y-113500000D01*
X142600000Y-113500000D02*
X142500000Y-113500000D01*
X142500000Y-113500000D02*
X142500000Y-113300000D01*
X142500000Y-113300000D02*
X142500000Y-112500000D01*
X142500000Y-112500000D02*
X144200000Y-112500000D01*
X142500000Y-118100000D02*
X144200000Y-118100000D01*
X142500000Y-118900000D02*
X142500000Y-118100000D01*
X142500000Y-119100000D02*
X142500000Y-118900000D01*
X142600000Y-119100000D02*
X142500000Y-119100000D01*
X142700000Y-119100000D02*
X142600000Y-119100000D01*
X142700000Y-119100000D02*
X144200000Y-119100000D01*
X189000000Y-117700000D02*
X187500000Y-117700000D01*
X189000000Y-117700000D02*
X189100000Y-117700000D01*
X189100000Y-117700000D02*
X189200000Y-117700000D01*
X189200000Y-117700000D02*
X189200000Y-117900000D01*
X189200000Y-117900000D02*
X189200000Y-118700000D01*
X189200000Y-118700000D02*
X187500000Y-118700000D01*
X189350000Y-116200000D02*
X187650000Y-116200000D01*
X189350000Y-115400000D02*
X189350000Y-116200000D01*
X189350000Y-115200000D02*
X189350000Y-115400000D01*
X189250000Y-115200000D02*
X189350000Y-115200000D01*
X189150000Y-115200000D02*
X189250000Y-115200000D01*
X189150000Y-115200000D02*
X187650000Y-115200000D01*
X189150000Y-112700000D02*
X187650000Y-112700000D01*
X189150000Y-112700000D02*
X189250000Y-112700000D01*
X189250000Y-112700000D02*
X189350000Y-112700000D01*
X189350000Y-112700000D02*
X189350000Y-112900000D01*
X189350000Y-112900000D02*
X189350000Y-113700000D01*
X189350000Y-113700000D02*
X187650000Y-113700000D01*
X229590000Y-105850000D02*
X229590000Y-111430000D01*
X229590000Y-111430000D02*
X225890000Y-111430000D01*
X225890000Y-111430000D02*
X225890000Y-108560000D01*
X225890000Y-108560000D02*
X223030000Y-108560000D01*
X223030000Y-108560000D02*
X223030000Y-105850000D01*
X229590000Y-105850000D02*
X229590000Y-100270000D01*
X229590000Y-100270000D02*
X225890000Y-100270000D01*
X225890000Y-100270000D02*
X225890000Y-103140000D01*
X225890000Y-103140000D02*
X223030000Y-103140000D01*
X223030000Y-103140000D02*
X223030000Y-105850000D01*
X227740000Y-111730000D02*
X225590000Y-111730000D01*
X225590000Y-111730000D02*
X225590000Y-109600000D01*
X193430000Y-74630000D02*
X193430000Y-71970000D01*
X196030000Y-74630000D02*
X193430000Y-74630000D01*
X196030000Y-71970000D02*
X193430000Y-71970000D01*
X196030000Y-74630000D02*
X196030000Y-71970000D01*
X197300000Y-74630000D02*
X198630000Y-74630000D01*
X198630000Y-74630000D02*
X198630000Y-73300000D01*
X225650000Y-90730000D02*
X225650000Y-88600000D01*
X227800000Y-90730000D02*
X225650000Y-90730000D01*
X223090000Y-82140000D02*
X223090000Y-84850000D01*
X225950000Y-82140000D02*
X223090000Y-82140000D01*
X225950000Y-79270000D02*
X225950000Y-82140000D01*
X229650000Y-79270000D02*
X225950000Y-79270000D01*
X229650000Y-84850000D02*
X229650000Y-79270000D01*
X223090000Y-87560000D02*
X223090000Y-84850000D01*
X225950000Y-87560000D02*
X223090000Y-87560000D01*
X225950000Y-90430000D02*
X225950000Y-87560000D01*
X229650000Y-90430000D02*
X225950000Y-90430000D01*
X229650000Y-84850000D02*
X229650000Y-90430000D01*
X229650000Y-63850000D02*
X229650000Y-69430000D01*
X229650000Y-69430000D02*
X225950000Y-69430000D01*
X225950000Y-69430000D02*
X225950000Y-66560000D01*
X225950000Y-66560000D02*
X223090000Y-66560000D01*
X223090000Y-66560000D02*
X223090000Y-63850000D01*
X229650000Y-63850000D02*
X229650000Y-58270000D01*
X229650000Y-58270000D02*
X225950000Y-58270000D01*
X225950000Y-58270000D02*
X225950000Y-61140000D01*
X225950000Y-61140000D02*
X223090000Y-61140000D01*
X223090000Y-61140000D02*
X223090000Y-63850000D01*
X227800000Y-69730000D02*
X225650000Y-69730000D01*
X225650000Y-69730000D02*
X225650000Y-67600000D01*
X213850000Y-63850000D02*
X213850000Y-69430000D01*
X213850000Y-69430000D02*
X210150000Y-69430000D01*
X210150000Y-69430000D02*
X210150000Y-66560000D01*
X210150000Y-66560000D02*
X207290000Y-66560000D01*
X207290000Y-66560000D02*
X207290000Y-63850000D01*
X213850000Y-63850000D02*
X213850000Y-58270000D01*
X213850000Y-58270000D02*
X210150000Y-58270000D01*
X210150000Y-58270000D02*
X210150000Y-61140000D01*
X210150000Y-61140000D02*
X207290000Y-61140000D01*
X207290000Y-61140000D02*
X207290000Y-63850000D01*
X212000000Y-69730000D02*
X209850000Y-69730000D01*
X209850000Y-69730000D02*
X209850000Y-67600000D01*
X193850000Y-69730000D02*
X193850000Y-67600000D01*
X196000000Y-69730000D02*
X193850000Y-69730000D01*
X191290000Y-61140000D02*
X191290000Y-63850000D01*
X194150000Y-61140000D02*
X191290000Y-61140000D01*
X194150000Y-58270000D02*
X194150000Y-61140000D01*
X197850000Y-58270000D02*
X194150000Y-58270000D01*
X197850000Y-63850000D02*
X197850000Y-58270000D01*
X191290000Y-66560000D02*
X191290000Y-63850000D01*
X194150000Y-66560000D02*
X191290000Y-66560000D01*
X194150000Y-69430000D02*
X194150000Y-66560000D01*
X197850000Y-69430000D02*
X194150000Y-69430000D01*
X197850000Y-63850000D02*
X197850000Y-69430000D01*
X152900000Y-73840000D02*
X147700000Y-73840000D01*
X152900000Y-99360000D02*
X147700000Y-99360000D01*
X154340000Y-74410000D02*
X152900000Y-74410000D01*
X152900000Y-73840000D02*
X152900000Y-74410000D01*
X147700000Y-73840000D02*
X147700000Y-74410000D01*
X152900000Y-98790000D02*
X152900000Y-99360000D01*
X147700000Y-98790000D02*
X147700000Y-99360000D01*
X152900000Y-75930000D02*
X152900000Y-76950000D01*
X147700000Y-75930000D02*
X147700000Y-76950000D01*
X152900000Y-78470000D02*
X152900000Y-79490000D01*
X147700000Y-78470000D02*
X147700000Y-79490000D01*
X152900000Y-81010000D02*
X152900000Y-82030000D01*
X147700000Y-81010000D02*
X147700000Y-82030000D01*
X152900000Y-83550000D02*
X152900000Y-84570000D01*
X147700000Y-83550000D02*
X147700000Y-84570000D01*
X152900000Y-86090000D02*
X152900000Y-87110000D01*
X147700000Y-86090000D02*
X147700000Y-87110000D01*
X152900000Y-88630000D02*
X152900000Y-89650000D01*
X147700000Y-88630000D02*
X147700000Y-89650000D01*
X152900000Y-91170000D02*
X152900000Y-92190000D01*
X147700000Y-91170000D02*
X147700000Y-92190000D01*
X152900000Y-93710000D02*
X152900000Y-94730000D01*
X147700000Y-93710000D02*
X147700000Y-94730000D01*
X152900000Y-96250000D02*
X152900000Y-97270000D01*
X147700000Y-96250000D02*
X147700000Y-97270000D01*
X143760000Y-95840000D02*
X143760000Y-97960000D01*
X139700000Y-95840000D02*
X143760000Y-95840000D01*
X139700000Y-97960000D02*
X143760000Y-97960000D01*
X139700000Y-95840000D02*
X139700000Y-97960000D01*
X138700000Y-95840000D02*
X137640000Y-95840000D01*
X137640000Y-95840000D02*
X137640000Y-96900000D01*
X154420000Y-112740000D02*
X155350000Y-112740000D01*
X157580000Y-112740000D02*
X156650000Y-112740000D01*
X157580000Y-112740000D02*
X157580000Y-114900000D01*
X154420000Y-112740000D02*
X154420000Y-114200000D01*
X163020000Y-112540000D02*
X163020000Y-114000000D01*
X166180000Y-112540000D02*
X166180000Y-114700000D01*
X166180000Y-112540000D02*
X165250000Y-112540000D01*
X163020000Y-112540000D02*
X163950000Y-112540000D01*
X173220000Y-112540000D02*
X173220000Y-114000000D01*
X176380000Y-112540000D02*
X176380000Y-114700000D01*
X176380000Y-112540000D02*
X175450000Y-112540000D01*
X173220000Y-112540000D02*
X174150000Y-112540000D01*
X158020000Y-112740000D02*
X158950000Y-112740000D01*
X161180000Y-112740000D02*
X160250000Y-112740000D01*
X161180000Y-112740000D02*
X161180000Y-114900000D01*
X158020000Y-112740000D02*
X158020000Y-114200000D01*
X168020000Y-112540000D02*
X168950000Y-112540000D01*
X171180000Y-112540000D02*
X170250000Y-112540000D01*
X171180000Y-112540000D02*
X171180000Y-114700000D01*
X168020000Y-112540000D02*
X168020000Y-114000000D01*
X167900000Y-89400000D02*
X167900000Y-89800000D01*
X168700000Y-89400000D02*
X168700000Y-89800000D01*
X168300000Y-89400000D02*
X168300000Y-89800000D01*
X166200000Y-90200000D02*
X166600000Y-90200000D01*
X166200000Y-89800000D02*
X166600000Y-89800000D01*
X166200000Y-90600000D02*
X166600000Y-90600000D01*
X173300000Y-91400000D02*
X173700000Y-91400000D01*
X173300000Y-91000000D02*
X173700000Y-91000000D01*
X173300000Y-91800000D02*
X173700000Y-91800000D01*
X173300000Y-90600000D02*
X173700000Y-90600000D01*
X173300000Y-89800000D02*
X173700000Y-89800000D01*
X173300000Y-90200000D02*
X173700000Y-90200000D01*
X173300000Y-93800000D02*
X173700000Y-93800000D01*
X173300000Y-93400000D02*
X173700000Y-93400000D01*
X173300000Y-94200000D02*
X173700000Y-94200000D01*
X173300000Y-93000000D02*
X173700000Y-93000000D01*
X173300000Y-92200000D02*
X173700000Y-92200000D01*
X173300000Y-92600000D02*
X173700000Y-92600000D01*
X175900000Y-91400000D02*
X176300000Y-91400000D01*
X175900000Y-91000000D02*
X176300000Y-91000000D01*
X175900000Y-91800000D02*
X176300000Y-91800000D01*
X175900000Y-90600000D02*
X176300000Y-90600000D01*
X175900000Y-89800000D02*
X176300000Y-89800000D01*
X175900000Y-90200000D02*
X176300000Y-90200000D01*
X175900000Y-92600000D02*
X176300000Y-92600000D01*
X175900000Y-92200000D02*
X176300000Y-92200000D01*
X175900000Y-93000000D02*
X176300000Y-93000000D01*
X175900000Y-94200000D02*
X176300000Y-94200000D01*
X175900000Y-93400000D02*
X176300000Y-93400000D01*
X175900000Y-93800000D02*
X176300000Y-93800000D01*
X183200000Y-109600000D02*
X183600000Y-109600000D01*
X183200000Y-109200000D02*
X183600000Y-109200000D01*
X183200000Y-110000000D02*
X183600000Y-110000000D01*
X183200000Y-108800000D02*
X183600000Y-108800000D01*
X183200000Y-108000000D02*
X183600000Y-108000000D01*
X183200000Y-108400000D02*
X183600000Y-108400000D01*
X152000000Y-107200000D02*
X152400000Y-107200000D01*
X152000000Y-106400000D02*
X152400000Y-106400000D01*
X152000000Y-106800000D02*
X152400000Y-106800000D01*
X156200000Y-115500000D02*
X155800000Y-115500000D01*
X156200000Y-116300000D02*
X155800000Y-116300000D01*
X156200000Y-115900000D02*
X155800000Y-115900000D01*
X147400000Y-112600000D02*
X147000000Y-112600000D01*
X147400000Y-113400000D02*
X147000000Y-113400000D01*
X147400000Y-113000000D02*
X147000000Y-113000000D01*
X154600000Y-107200000D02*
X155000000Y-107200000D01*
X154600000Y-106400000D02*
X155000000Y-106400000D01*
X154600000Y-106800000D02*
X155000000Y-106800000D01*
X159800000Y-115900000D02*
X159400000Y-115900000D01*
X159800000Y-116300000D02*
X159400000Y-116300000D01*
X159800000Y-115500000D02*
X159400000Y-115500000D01*
X147400000Y-118200000D02*
X147000000Y-118200000D01*
X147400000Y-119000000D02*
X147000000Y-119000000D01*
X147400000Y-118600000D02*
X147000000Y-118600000D01*
X165500000Y-56900000D02*
X165100000Y-56900000D01*
X165500000Y-57700000D02*
X165100000Y-57700000D01*
X165500000Y-57300000D02*
X165100000Y-57300000D01*
X160400000Y-106700000D02*
X160800000Y-106700000D01*
X160400000Y-106300000D02*
X160800000Y-106300000D01*
X160400000Y-107100000D02*
X160800000Y-107100000D01*
X164800000Y-115300000D02*
X164400000Y-115300000D01*
X164800000Y-116100000D02*
X164400000Y-116100000D01*
X164800000Y-115700000D02*
X164400000Y-115700000D01*
X163000000Y-107100000D02*
X163400000Y-107100000D01*
X163000000Y-106300000D02*
X163400000Y-106300000D01*
X163000000Y-106700000D02*
X163400000Y-106700000D01*
X183300000Y-117400000D02*
X183700000Y-117400000D01*
X183300000Y-117000000D02*
X183700000Y-117000000D01*
X183300000Y-117800000D02*
X183700000Y-117800000D01*
X169800000Y-115700000D02*
X169400000Y-115700000D01*
X169800000Y-116100000D02*
X169400000Y-116100000D01*
X169800000Y-115300000D02*
X169400000Y-115300000D01*
X183300000Y-116200000D02*
X183700000Y-116200000D01*
X183300000Y-115400000D02*
X183700000Y-115400000D01*
X183300000Y-115800000D02*
X183700000Y-115800000D01*
X169400000Y-107000000D02*
X169800000Y-107000000D01*
X169400000Y-106200000D02*
X169800000Y-106200000D01*
X169400000Y-106600000D02*
X169800000Y-106600000D01*
X175000000Y-115300000D02*
X174600000Y-115300000D01*
X175000000Y-116100000D02*
X174600000Y-116100000D01*
X175000000Y-115700000D02*
X174600000Y-115700000D01*
X172000000Y-106600000D02*
X172400000Y-106600000D01*
X172000000Y-106200000D02*
X172400000Y-106200000D01*
X172000000Y-107000000D02*
X172400000Y-107000000D01*
X183300000Y-114200000D02*
X183700000Y-114200000D01*
X183300000Y-113800000D02*
X183700000Y-113800000D01*
X183300000Y-114600000D02*
X183700000Y-114600000D01*
X156800000Y-118700000D02*
X156800000Y-118300000D01*
X156400000Y-118700000D02*
X156400000Y-118300000D01*
X157200000Y-118700000D02*
X157200000Y-118300000D01*
X159800000Y-118700000D02*
X159800000Y-118300000D01*
X159000000Y-118700000D02*
X159000000Y-118300000D01*
X159400000Y-118700000D02*
X159400000Y-118300000D01*
X178000000Y-106600000D02*
X178400000Y-106600000D01*
X178000000Y-106200000D02*
X178400000Y-106200000D01*
X178000000Y-107000000D02*
X178400000Y-107000000D01*
X180600000Y-107000000D02*
X181000000Y-107000000D01*
X180600000Y-106200000D02*
X181000000Y-106200000D01*
X180600000Y-106600000D02*
X181000000Y-106600000D01*
X162400000Y-118700000D02*
X162400000Y-118300000D01*
X161600000Y-118700000D02*
X161600000Y-118300000D01*
X162000000Y-118700000D02*
X162000000Y-118300000D01*
X164400000Y-118700000D02*
X164400000Y-118300000D01*
X164000000Y-118700000D02*
X164000000Y-118300000D01*
X164800000Y-118700000D02*
X164800000Y-118300000D01*
X170000000Y-118700000D02*
X170000000Y-118300000D01*
X169200000Y-118700000D02*
X169200000Y-118300000D01*
X169600000Y-118700000D02*
X169600000Y-118300000D01*
X162000000Y-112900000D02*
X162000000Y-113300000D01*
X162400000Y-112900000D02*
X162400000Y-113300000D01*
X161600000Y-112900000D02*
X161600000Y-113300000D01*
X166600000Y-112700000D02*
X166600000Y-113100000D01*
X167400000Y-112700000D02*
X167400000Y-113100000D01*
X167000000Y-112700000D02*
X167000000Y-113100000D01*
X172200000Y-112700000D02*
X172200000Y-113100000D01*
X172600000Y-112700000D02*
X172600000Y-113100000D01*
X171800000Y-112700000D02*
X171800000Y-113100000D01*
D11*
X137910000Y-58600000D02*
X137910000Y-58300000D01*
X138210000Y-58600000D02*
X137910000Y-58600000D01*
X137910000Y-51800000D02*
X137910000Y-52100000D01*
X138210000Y-51800000D02*
X137910000Y-51800000D01*
X143670000Y-58570000D02*
X143670000Y-58070000D01*
X143670000Y-58570000D02*
X143270000Y-58570000D01*
X143680000Y-51830000D02*
X143680000Y-52430000D01*
X143280000Y-51830000D02*
X143680000Y-51830000D01*
X131660000Y-58600000D02*
X131660000Y-58300000D01*
X131960000Y-58600000D02*
X131660000Y-58600000D01*
X131660000Y-51800000D02*
X131660000Y-52100000D01*
X131960000Y-51800000D02*
X131660000Y-51800000D01*
X137420000Y-58570000D02*
X137420000Y-58070000D01*
X137420000Y-58570000D02*
X137020000Y-58570000D01*
X137430000Y-51830000D02*
X137430000Y-52430000D01*
X137030000Y-51830000D02*
X137430000Y-51830000D01*
X152200000Y-105800000D02*
X152700000Y-105800000D01*
X152200000Y-105300000D02*
X151800000Y-105300000D01*
X152200000Y-105800000D02*
X152200000Y-105300000D01*
X155400000Y-105800000D02*
X154900000Y-105800000D01*
X155400000Y-105800000D02*
X155400000Y-105300000D01*
X155400000Y-102600000D02*
X155400000Y-103100000D01*
X155400000Y-102600000D02*
X155000000Y-102600000D01*
X152200000Y-102600000D02*
X152700000Y-102600000D01*
X152200000Y-102600000D02*
X152200000Y-103100000D01*
X160600000Y-102500000D02*
X160600000Y-103000000D01*
X160600000Y-102500000D02*
X161100000Y-102500000D01*
X163800000Y-102500000D02*
X163400000Y-102500000D01*
X163800000Y-102500000D02*
X163800000Y-103000000D01*
X163800000Y-105700000D02*
X163800000Y-105200000D01*
X163800000Y-105700000D02*
X163300000Y-105700000D01*
X160600000Y-105700000D02*
X160600000Y-105200000D01*
X160600000Y-105200000D02*
X160200000Y-105200000D01*
X160600000Y-105700000D02*
X161100000Y-105700000D01*
X169200000Y-102400000D02*
X169200000Y-102900000D01*
X169200000Y-102400000D02*
X169700000Y-102400000D01*
X172400000Y-102400000D02*
X172000000Y-102400000D01*
X172400000Y-102400000D02*
X172400000Y-102900000D01*
X172400000Y-105600000D02*
X172400000Y-105100000D01*
X172400000Y-105600000D02*
X171900000Y-105600000D01*
X169200000Y-105600000D02*
X169200000Y-105100000D01*
X169200000Y-105100000D02*
X168800000Y-105100000D01*
X169200000Y-105600000D02*
X169700000Y-105600000D01*
X177600000Y-105800000D02*
X178100000Y-105800000D01*
X177600000Y-105300000D02*
X177200000Y-105300000D01*
X177600000Y-105800000D02*
X177600000Y-105300000D01*
X180800000Y-105800000D02*
X180300000Y-105800000D01*
X180800000Y-105800000D02*
X180800000Y-105300000D01*
X180800000Y-102600000D02*
X180800000Y-103100000D01*
X180800000Y-102600000D02*
X180400000Y-102600000D01*
X177600000Y-102600000D02*
X178100000Y-102600000D01*
X177600000Y-102600000D02*
X177600000Y-103100000D01*
X188500000Y-79890000D02*
X198600000Y-79890000D01*
X198700000Y-76200000D02*
X198700000Y-76600000D01*
X198700000Y-76200000D02*
X198300000Y-76200000D01*
X188500000Y-76200000D02*
X188500000Y-80600000D01*
X188500000Y-76200000D02*
X188900000Y-76200000D01*
X188500000Y-81000000D02*
X188500000Y-80600000D01*
X188500000Y-81000000D02*
X188900000Y-81000000D01*
X198300000Y-81000000D02*
X198700000Y-81000000D01*
X198700000Y-81000000D02*
X198700000Y-80600000D01*
D10*
X206600000Y-119120000D02*
X211800000Y-119120000D01*
X206600000Y-73280000D02*
X211800000Y-73280000D01*
X205160000Y-118550000D02*
X206600000Y-118550000D01*
X206600000Y-119120000D02*
X206600000Y-118550000D01*
X211800000Y-119120000D02*
X211800000Y-118550000D01*
X206600000Y-73850000D02*
X206600000Y-73280000D01*
X211800000Y-73850000D02*
X211800000Y-73280000D01*
X206600000Y-117030000D02*
X206600000Y-116010000D01*
X211800000Y-117030000D02*
X211800000Y-116010000D01*
X206600000Y-114490000D02*
X206600000Y-113470000D01*
X211800000Y-114490000D02*
X211800000Y-113470000D01*
X206600000Y-111950000D02*
X206600000Y-110930000D01*
X211800000Y-111950000D02*
X211800000Y-110930000D01*
X206600000Y-109410000D02*
X206600000Y-108390000D01*
X211800000Y-109410000D02*
X211800000Y-108390000D01*
X206600000Y-106870000D02*
X206600000Y-105850000D01*
X211800000Y-106870000D02*
X211800000Y-105850000D01*
X206600000Y-104330000D02*
X206600000Y-103310000D01*
X211800000Y-104330000D02*
X211800000Y-103310000D01*
X206600000Y-101790000D02*
X206600000Y-100770000D01*
X211800000Y-101790000D02*
X211800000Y-100770000D01*
X206600000Y-99250000D02*
X206600000Y-98230000D01*
X211800000Y-99250000D02*
X211800000Y-98230000D01*
X206600000Y-96710000D02*
X206600000Y-95690000D01*
X211800000Y-96710000D02*
X211800000Y-95690000D01*
X206600000Y-94170000D02*
X206600000Y-93150000D01*
X211800000Y-94170000D02*
X211800000Y-93150000D01*
X206600000Y-91630000D02*
X206600000Y-90610000D01*
X211800000Y-91630000D02*
X211800000Y-90610000D01*
X206600000Y-89090000D02*
X206600000Y-88070000D01*
X211800000Y-89090000D02*
X211800000Y-88070000D01*
X206600000Y-86550000D02*
X206600000Y-85530000D01*
X211800000Y-86550000D02*
X211800000Y-85530000D01*
X206600000Y-84010000D02*
X206600000Y-82990000D01*
X211800000Y-84010000D02*
X211800000Y-82990000D01*
X206600000Y-81470000D02*
X206600000Y-80450000D01*
X211800000Y-81470000D02*
X211800000Y-80450000D01*
X206600000Y-78930000D02*
X206600000Y-77910000D01*
X211800000Y-78930000D02*
X211800000Y-77910000D01*
X206600000Y-76390000D02*
X206600000Y-75370000D01*
X211800000Y-76390000D02*
X211800000Y-75370000D01*
X204200000Y-121400000D02*
X204200000Y-126600000D01*
X234800000Y-121400000D02*
X234800000Y-126600000D01*
X204770000Y-119960000D02*
X204770000Y-121400000D01*
X204200000Y-121400000D02*
X204770000Y-121400000D01*
X204200000Y-126600000D02*
X204770000Y-126600000D01*
X234230000Y-121400000D02*
X234800000Y-121400000D01*
X234230000Y-126600000D02*
X234800000Y-126600000D01*
X206290000Y-121400000D02*
X207310000Y-121400000D01*
X206290000Y-126600000D02*
X207310000Y-126600000D01*
X208830000Y-121400000D02*
X209850000Y-121400000D01*
X208830000Y-126600000D02*
X209850000Y-126600000D01*
X211370000Y-121400000D02*
X212390000Y-121400000D01*
X211370000Y-126600000D02*
X212390000Y-126600000D01*
X213910000Y-121400000D02*
X214930000Y-121400000D01*
X213910000Y-126600000D02*
X214930000Y-126600000D01*
X216450000Y-121400000D02*
X217470000Y-121400000D01*
X216450000Y-126600000D02*
X217470000Y-126600000D01*
X218990000Y-121400000D02*
X220010000Y-121400000D01*
X218990000Y-126600000D02*
X220010000Y-126600000D01*
X221530000Y-121400000D02*
X222550000Y-121400000D01*
X221530000Y-126600000D02*
X222550000Y-126600000D01*
X224070000Y-121400000D02*
X225090000Y-121400000D01*
X224070000Y-126600000D02*
X225090000Y-126600000D01*
X226610000Y-121400000D02*
X227630000Y-121400000D01*
X226610000Y-126600000D02*
X227630000Y-126600000D01*
X229150000Y-121400000D02*
X230170000Y-121400000D01*
X229150000Y-126600000D02*
X230170000Y-126600000D01*
X231690000Y-121400000D02*
X232710000Y-121400000D01*
X231690000Y-126600000D02*
X232710000Y-126600000D01*
X128400000Y-123900000D02*
X128400000Y-125400000D01*
X128400000Y-123900000D02*
X128400000Y-123800000D01*
X128400000Y-123800000D02*
X128400000Y-123700000D01*
X128400000Y-123700000D02*
X128600000Y-123700000D01*
X128600000Y-123700000D02*
X129400000Y-123700000D01*
X129400000Y-123700000D02*
X129400000Y-125400000D01*
X129900000Y-124800000D02*
X129900000Y-125200000D01*
X130700000Y-124800000D02*
X130700000Y-125200000D01*
X130300000Y-124800000D02*
X130300000Y-125200000D01*
X194370000Y-84590000D02*
X199570000Y-84590000D01*
X194370000Y-89730000D02*
X194370000Y-84590000D01*
X199570000Y-92330000D02*
X199570000Y-84590000D01*
X194370000Y-89730000D02*
X196970000Y-89730000D01*
X196970000Y-89730000D02*
X196970000Y-92330000D01*
X196970000Y-92330000D02*
X199570000Y-92330000D01*
X194370000Y-91000000D02*
X194370000Y-92330000D01*
X194370000Y-92330000D02*
X195700000Y-92330000D01*
X127100000Y-107500000D02*
X127100000Y-50000000D01*
X127100000Y-50000000D02*
X115100000Y-50000000D01*
X115100000Y-50000000D02*
X115100000Y-107500000D01*
X115100000Y-107500000D02*
X127100000Y-107500000D01*
X189330000Y-119090000D02*
X189330000Y-121310000D01*
X197070000Y-119090000D02*
X197070000Y-121310000D01*
X190610000Y-121310000D02*
X191980000Y-121310000D01*
X193150000Y-121310000D02*
X194520000Y-121310000D01*
X195690000Y-121310000D02*
X197060000Y-121310000D01*
X189340000Y-119090000D02*
X190710000Y-119090000D01*
X189440000Y-121310000D02*
X189440000Y-123140000D01*
X189330000Y-121310000D02*
X189440000Y-121310000D01*
X196960000Y-119090000D02*
X197070000Y-119090000D01*
X191880000Y-119090000D02*
X193250000Y-119090000D01*
X194420000Y-119090000D02*
X195790000Y-119090000D01*
D12*
X145685714Y-107647619D02*
X145685714Y-108647619D01*
X145923809Y-108647619D01*
X146066666Y-108600000D01*
X146161904Y-108504761D01*
X146209523Y-108409523D01*
X146257142Y-108219047D01*
X146257142Y-108076190D01*
X146209523Y-107885714D01*
X146161904Y-107790476D01*
X146066666Y-107695238D01*
X145923809Y-107647619D01*
X145685714Y-107647619D01*
X146638095Y-107695238D02*
X146780952Y-107647619D01*
X147019047Y-107647619D01*
X147114285Y-107695238D01*
X147161904Y-107742857D01*
X147209523Y-107838095D01*
X147209523Y-107933333D01*
X147161904Y-108028571D01*
X147114285Y-108076190D01*
X147019047Y-108123809D01*
X146828571Y-108171428D01*
X146733333Y-108219047D01*
X146685714Y-108266666D01*
X146638095Y-108361904D01*
X146638095Y-108457142D01*
X146685714Y-108552380D01*
X146733333Y-108600000D01*
X146828571Y-108647619D01*
X147066666Y-108647619D01*
X147209523Y-108600000D01*
X148161904Y-107647619D02*
X147590476Y-107647619D01*
X147876190Y-107647619D02*
X147876190Y-108647619D01*
X147780952Y-108504761D01*
X147685714Y-108409523D01*
X147590476Y-108361904D01*
X134400000Y-115852380D02*
X134733333Y-115376190D01*
X134971428Y-115852380D02*
X134971428Y-114852380D01*
X134590476Y-114852380D01*
X134495238Y-114900000D01*
X134447619Y-114947619D01*
X134400000Y-115042857D01*
X134400000Y-115185714D01*
X134447619Y-115280952D01*
X134495238Y-115328571D01*
X134590476Y-115376190D01*
X134971428Y-115376190D01*
X133495238Y-115852380D02*
X133971428Y-115852380D01*
X133971428Y-114852380D01*
X132971428Y-115376190D02*
X132971428Y-115852380D01*
X133304761Y-114852380D02*
X132971428Y-115376190D01*
X132638095Y-114852380D01*
X132400000Y-114852380D02*
X131780952Y-114852380D01*
X132114285Y-115233333D01*
X131971428Y-115233333D01*
X131876190Y-115280952D01*
X131828571Y-115328571D01*
X131780952Y-115423809D01*
X131780952Y-115661904D01*
X131828571Y-115757142D01*
X131876190Y-115804761D01*
X131971428Y-115852380D01*
X132257142Y-115852380D01*
X132352380Y-115804761D01*
X132400000Y-115757142D01*
X128452380Y-127490476D02*
X129166666Y-127490476D01*
X129309523Y-127442857D01*
X129404761Y-127347619D01*
X129452380Y-127204761D01*
X129452380Y-127109523D01*
X129452380Y-128490476D02*
X129452380Y-127919047D01*
X129452380Y-128204761D02*
X128452380Y-128204761D01*
X128595238Y-128109523D01*
X128690476Y-128014285D01*
X128738095Y-127919047D01*
X128452380Y-129395238D02*
X128452380Y-128919047D01*
X128928571Y-128871428D01*
X128880952Y-128919047D01*
X128833333Y-129014285D01*
X128833333Y-129252380D01*
X128880952Y-129347619D01*
X128928571Y-129395238D01*
X129023809Y-129442857D01*
X129261904Y-129442857D01*
X129357142Y-129395238D01*
X129404761Y-129347619D01*
X129452380Y-129252380D01*
X129452380Y-129014285D01*
X129404761Y-128919047D01*
X129357142Y-128871428D01*
X180533333Y-62252380D02*
X180533333Y-62966666D01*
X180580952Y-63109523D01*
X180676190Y-63204761D01*
X180819047Y-63252380D01*
X180914285Y-63252380D01*
X180009523Y-63252380D02*
X179819047Y-63252380D01*
X179723809Y-63204761D01*
X179676190Y-63157142D01*
X179580952Y-63014285D01*
X179533333Y-62823809D01*
X179533333Y-62442857D01*
X179580952Y-62347619D01*
X179628571Y-62300000D01*
X179723809Y-62252380D01*
X179914285Y-62252380D01*
X180009523Y-62300000D01*
X180057142Y-62347619D01*
X180104761Y-62442857D01*
X180104761Y-62680952D01*
X180057142Y-62776190D01*
X180009523Y-62823809D01*
X179914285Y-62871428D01*
X179723809Y-62871428D01*
X179628571Y-62823809D01*
X179580952Y-62776190D01*
X179533333Y-62680952D01*
X137442857Y-79757142D02*
X137490476Y-79804761D01*
X137633333Y-79852380D01*
X137728571Y-79852380D01*
X137871428Y-79804761D01*
X137966666Y-79709523D01*
X138014285Y-79614285D01*
X138061904Y-79423809D01*
X138061904Y-79280952D01*
X138014285Y-79090476D01*
X137966666Y-78995238D01*
X137871428Y-78900000D01*
X137728571Y-78852380D01*
X137633333Y-78852380D01*
X137490476Y-78900000D01*
X137442857Y-78947619D01*
X137109523Y-78852380D02*
X136442857Y-78852380D01*
X136871428Y-79852380D01*
X135919047Y-79280952D02*
X136014285Y-79233333D01*
X136061904Y-79185714D01*
X136109523Y-79090476D01*
X136109523Y-79042857D01*
X136061904Y-78947619D01*
X136014285Y-78900000D01*
X135919047Y-78852380D01*
X135728571Y-78852380D01*
X135633333Y-78900000D01*
X135585714Y-78947619D01*
X135538095Y-79042857D01*
X135538095Y-79090476D01*
X135585714Y-79185714D01*
X135633333Y-79233333D01*
X135728571Y-79280952D01*
X135919047Y-79280952D01*
X136014285Y-79328571D01*
X136061904Y-79376190D01*
X136109523Y-79471428D01*
X136109523Y-79661904D01*
X136061904Y-79757142D01*
X136014285Y-79804761D01*
X135919047Y-79852380D01*
X135728571Y-79852380D01*
X135633333Y-79804761D01*
X135585714Y-79757142D01*
X135538095Y-79661904D01*
X135538095Y-79471428D01*
X135585714Y-79376190D01*
X135633333Y-79328571D01*
X135728571Y-79280952D01*
X167042857Y-88157142D02*
X167090476Y-88204761D01*
X167233333Y-88252380D01*
X167328571Y-88252380D01*
X167471428Y-88204761D01*
X167566666Y-88109523D01*
X167614285Y-88014285D01*
X167661904Y-87823809D01*
X167661904Y-87680952D01*
X167614285Y-87490476D01*
X167566666Y-87395238D01*
X167471428Y-87300000D01*
X167328571Y-87252380D01*
X167233333Y-87252380D01*
X167090476Y-87300000D01*
X167042857Y-87347619D01*
X166661904Y-87347619D02*
X166614285Y-87300000D01*
X166519047Y-87252380D01*
X166280952Y-87252380D01*
X166185714Y-87300000D01*
X166138095Y-87347619D01*
X166090476Y-87442857D01*
X166090476Y-87538095D01*
X166138095Y-87680952D01*
X166709523Y-88252380D01*
X166090476Y-88252380D01*
X165138095Y-88252380D02*
X165709523Y-88252380D01*
X165423809Y-88252380D02*
X165423809Y-87252380D01*
X165519047Y-87395238D01*
X165614285Y-87490476D01*
X165709523Y-87538095D01*
X231042857Y-91742857D02*
X230995238Y-91790476D01*
X230947619Y-91933333D01*
X230947619Y-92028571D01*
X230995238Y-92171428D01*
X231090476Y-92266666D01*
X231185714Y-92314285D01*
X231376190Y-92361904D01*
X231519047Y-92361904D01*
X231709523Y-92314285D01*
X231804761Y-92266666D01*
X231900000Y-92171428D01*
X231947619Y-92028571D01*
X231947619Y-91933333D01*
X231900000Y-91790476D01*
X231852380Y-91742857D01*
X231614285Y-90885714D02*
X230947619Y-90885714D01*
X231995238Y-91123809D02*
X231280952Y-91361904D01*
X231280952Y-90742857D01*
X230947619Y-89838095D02*
X230947619Y-90409523D01*
X230947619Y-90123809D02*
X231947619Y-90123809D01*
X231804761Y-90219047D01*
X231709523Y-90314285D01*
X231661904Y-90409523D01*
X225742857Y-92457142D02*
X225790476Y-92504761D01*
X225933333Y-92552380D01*
X226028571Y-92552380D01*
X226171428Y-92504761D01*
X226266666Y-92409523D01*
X226314285Y-92314285D01*
X226361904Y-92123809D01*
X226361904Y-91980952D01*
X226314285Y-91790476D01*
X226266666Y-91695238D01*
X226171428Y-91600000D01*
X226028571Y-91552380D01*
X225933333Y-91552380D01*
X225790476Y-91600000D01*
X225742857Y-91647619D01*
X224885714Y-91885714D02*
X224885714Y-92552380D01*
X225123809Y-91504761D02*
X225361904Y-92219047D01*
X224742857Y-92219047D01*
X224409523Y-91647619D02*
X224361904Y-91600000D01*
X224266666Y-91552380D01*
X224028571Y-91552380D01*
X223933333Y-91600000D01*
X223885714Y-91647619D01*
X223838095Y-91742857D01*
X223838095Y-91838095D01*
X223885714Y-91980952D01*
X224457142Y-92552380D01*
X223838095Y-92552380D01*
X175042857Y-75657142D02*
X175090476Y-75704761D01*
X175233333Y-75752380D01*
X175328571Y-75752380D01*
X175471428Y-75704761D01*
X175566666Y-75609523D01*
X175614285Y-75514285D01*
X175661904Y-75323809D01*
X175661904Y-75180952D01*
X175614285Y-74990476D01*
X175566666Y-74895238D01*
X175471428Y-74800000D01*
X175328571Y-74752380D01*
X175233333Y-74752380D01*
X175090476Y-74800000D01*
X175042857Y-74847619D01*
X174138095Y-74752380D02*
X174614285Y-74752380D01*
X174661904Y-75228571D01*
X174614285Y-75180952D01*
X174519047Y-75133333D01*
X174280952Y-75133333D01*
X174185714Y-75180952D01*
X174138095Y-75228571D01*
X174090476Y-75323809D01*
X174090476Y-75561904D01*
X174138095Y-75657142D01*
X174185714Y-75704761D01*
X174280952Y-75752380D01*
X174519047Y-75752380D01*
X174614285Y-75704761D01*
X174661904Y-75657142D01*
X173757142Y-74752380D02*
X173138095Y-74752380D01*
X173471428Y-75133333D01*
X173328571Y-75133333D01*
X173233333Y-75180952D01*
X173185714Y-75228571D01*
X173138095Y-75323809D01*
X173138095Y-75561904D01*
X173185714Y-75657142D01*
X173233333Y-75704761D01*
X173328571Y-75752380D01*
X173614285Y-75752380D01*
X173709523Y-75704761D01*
X173757142Y-75657142D01*
X186042857Y-75657142D02*
X186090476Y-75704761D01*
X186233333Y-75752380D01*
X186328571Y-75752380D01*
X186471428Y-75704761D01*
X186566666Y-75609523D01*
X186614285Y-75514285D01*
X186661904Y-75323809D01*
X186661904Y-75180952D01*
X186614285Y-74990476D01*
X186566666Y-74895238D01*
X186471428Y-74800000D01*
X186328571Y-74752380D01*
X186233333Y-74752380D01*
X186090476Y-74800000D01*
X186042857Y-74847619D01*
X185138095Y-74752380D02*
X185614285Y-74752380D01*
X185661904Y-75228571D01*
X185614285Y-75180952D01*
X185519047Y-75133333D01*
X185280952Y-75133333D01*
X185185714Y-75180952D01*
X185138095Y-75228571D01*
X185090476Y-75323809D01*
X185090476Y-75561904D01*
X185138095Y-75657142D01*
X185185714Y-75704761D01*
X185280952Y-75752380D01*
X185519047Y-75752380D01*
X185614285Y-75704761D01*
X185661904Y-75657142D01*
X184233333Y-75085714D02*
X184233333Y-75752380D01*
X184471428Y-74704761D02*
X184709523Y-75419047D01*
X184090476Y-75419047D01*
X231757142Y-69457142D02*
X231804761Y-69409523D01*
X231852380Y-69266666D01*
X231852380Y-69171428D01*
X231804761Y-69028571D01*
X231709523Y-68933333D01*
X231614285Y-68885714D01*
X231423809Y-68838095D01*
X231280952Y-68838095D01*
X231090476Y-68885714D01*
X230995238Y-68933333D01*
X230900000Y-69028571D01*
X230852380Y-69171428D01*
X230852380Y-69266666D01*
X230900000Y-69409523D01*
X230947619Y-69457142D01*
X230852380Y-70314285D02*
X230852380Y-70123809D01*
X230900000Y-70028571D01*
X230947619Y-69980952D01*
X231090476Y-69885714D01*
X231280952Y-69838095D01*
X231661904Y-69838095D01*
X231757142Y-69885714D01*
X231804761Y-69933333D01*
X231852380Y-70028571D01*
X231852380Y-70219047D01*
X231804761Y-70314285D01*
X231757142Y-70361904D01*
X231661904Y-70409523D01*
X231423809Y-70409523D01*
X231328571Y-70361904D01*
X231280952Y-70314285D01*
X231233333Y-70219047D01*
X231233333Y-70028571D01*
X231280952Y-69933333D01*
X231328571Y-69885714D01*
X231423809Y-69838095D01*
X230852380Y-71028571D02*
X230852380Y-71123809D01*
X230900000Y-71219047D01*
X230947619Y-71266666D01*
X231042857Y-71314285D01*
X231233333Y-71361904D01*
X231471428Y-71361904D01*
X231661904Y-71314285D01*
X231757142Y-71266666D01*
X231804761Y-71219047D01*
X231852380Y-71123809D01*
X231852380Y-71028571D01*
X231804761Y-70933333D01*
X231757142Y-70885714D01*
X231661904Y-70838095D01*
X231471428Y-70790476D01*
X231233333Y-70790476D01*
X231042857Y-70838095D01*
X230947619Y-70885714D01*
X230900000Y-70933333D01*
X230852380Y-71028571D01*
X225742857Y-71357142D02*
X225790476Y-71404761D01*
X225933333Y-71452380D01*
X226028571Y-71452380D01*
X226171428Y-71404761D01*
X226266666Y-71309523D01*
X226314285Y-71214285D01*
X226361904Y-71023809D01*
X226361904Y-70880952D01*
X226314285Y-70690476D01*
X226266666Y-70595238D01*
X226171428Y-70500000D01*
X226028571Y-70452380D01*
X225933333Y-70452380D01*
X225790476Y-70500000D01*
X225742857Y-70547619D01*
X224885714Y-70452380D02*
X225076190Y-70452380D01*
X225171428Y-70500000D01*
X225219047Y-70547619D01*
X225314285Y-70690476D01*
X225361904Y-70880952D01*
X225361904Y-71261904D01*
X225314285Y-71357142D01*
X225266666Y-71404761D01*
X225171428Y-71452380D01*
X224980952Y-71452380D01*
X224885714Y-71404761D01*
X224838095Y-71357142D01*
X224790476Y-71261904D01*
X224790476Y-71023809D01*
X224838095Y-70928571D01*
X224885714Y-70880952D01*
X224980952Y-70833333D01*
X225171428Y-70833333D01*
X225266666Y-70880952D01*
X225314285Y-70928571D01*
X225361904Y-71023809D01*
X223838095Y-71452380D02*
X224409523Y-71452380D01*
X224123809Y-71452380D02*
X224123809Y-70452380D01*
X224219047Y-70595238D01*
X224314285Y-70690476D01*
X224409523Y-70738095D01*
X234042857Y-51257142D02*
X234090476Y-51304761D01*
X234233333Y-51352380D01*
X234328571Y-51352380D01*
X234471428Y-51304761D01*
X234566666Y-51209523D01*
X234614285Y-51114285D01*
X234661904Y-50923809D01*
X234661904Y-50780952D01*
X234614285Y-50590476D01*
X234566666Y-50495238D01*
X234471428Y-50400000D01*
X234328571Y-50352380D01*
X234233333Y-50352380D01*
X234090476Y-50400000D01*
X234042857Y-50447619D01*
X233185714Y-50352380D02*
X233376190Y-50352380D01*
X233471428Y-50400000D01*
X233519047Y-50447619D01*
X233614285Y-50590476D01*
X233661904Y-50780952D01*
X233661904Y-51161904D01*
X233614285Y-51257142D01*
X233566666Y-51304761D01*
X233471428Y-51352380D01*
X233280952Y-51352380D01*
X233185714Y-51304761D01*
X233138095Y-51257142D01*
X233090476Y-51161904D01*
X233090476Y-50923809D01*
X233138095Y-50828571D01*
X233185714Y-50780952D01*
X233280952Y-50733333D01*
X233471428Y-50733333D01*
X233566666Y-50780952D01*
X233614285Y-50828571D01*
X233661904Y-50923809D01*
X232757142Y-50352380D02*
X232138095Y-50352380D01*
X232471428Y-50733333D01*
X232328571Y-50733333D01*
X232233333Y-50780952D01*
X232185714Y-50828571D01*
X232138095Y-50923809D01*
X232138095Y-51161904D01*
X232185714Y-51257142D01*
X232233333Y-51304761D01*
X232328571Y-51352380D01*
X232614285Y-51352380D01*
X232709523Y-51304761D01*
X232757142Y-51257142D01*
X223457142Y-56057142D02*
X223504761Y-56009523D01*
X223552380Y-55866666D01*
X223552380Y-55771428D01*
X223504761Y-55628571D01*
X223409523Y-55533333D01*
X223314285Y-55485714D01*
X223123809Y-55438095D01*
X222980952Y-55438095D01*
X222790476Y-55485714D01*
X222695238Y-55533333D01*
X222600000Y-55628571D01*
X222552380Y-55771428D01*
X222552380Y-55866666D01*
X222600000Y-56009523D01*
X222647619Y-56057142D01*
X222552380Y-56914285D02*
X222552380Y-56723809D01*
X222600000Y-56628571D01*
X222647619Y-56580952D01*
X222790476Y-56485714D01*
X222980952Y-56438095D01*
X223361904Y-56438095D01*
X223457142Y-56485714D01*
X223504761Y-56533333D01*
X223552380Y-56628571D01*
X223552380Y-56819047D01*
X223504761Y-56914285D01*
X223457142Y-56961904D01*
X223361904Y-57009523D01*
X223123809Y-57009523D01*
X223028571Y-56961904D01*
X222980952Y-56914285D01*
X222933333Y-56819047D01*
X222933333Y-56628571D01*
X222980952Y-56533333D01*
X223028571Y-56485714D01*
X223123809Y-56438095D01*
X222885714Y-57866666D02*
X223552380Y-57866666D01*
X222504761Y-57628571D02*
X223219047Y-57390476D01*
X223219047Y-58009523D01*
X143657142Y-75557142D02*
X143704761Y-75509523D01*
X143752380Y-75366666D01*
X143752380Y-75271428D01*
X143704761Y-75128571D01*
X143609523Y-75033333D01*
X143514285Y-74985714D01*
X143323809Y-74938095D01*
X143180952Y-74938095D01*
X142990476Y-74985714D01*
X142895238Y-75033333D01*
X142800000Y-75128571D01*
X142752380Y-75271428D01*
X142752380Y-75366666D01*
X142800000Y-75509523D01*
X142847619Y-75557142D01*
X142752380Y-76414285D02*
X142752380Y-76223809D01*
X142800000Y-76128571D01*
X142847619Y-76080952D01*
X142990476Y-75985714D01*
X143180952Y-75938095D01*
X143561904Y-75938095D01*
X143657142Y-75985714D01*
X143704761Y-76033333D01*
X143752380Y-76128571D01*
X143752380Y-76319047D01*
X143704761Y-76414285D01*
X143657142Y-76461904D01*
X143561904Y-76509523D01*
X143323809Y-76509523D01*
X143228571Y-76461904D01*
X143180952Y-76414285D01*
X143133333Y-76319047D01*
X143133333Y-76128571D01*
X143180952Y-76033333D01*
X143228571Y-75985714D01*
X143323809Y-75938095D01*
X142752380Y-77366666D02*
X142752380Y-77176190D01*
X142800000Y-77080952D01*
X142847619Y-77033333D01*
X142990476Y-76938095D01*
X143180952Y-76890476D01*
X143561904Y-76890476D01*
X143657142Y-76938095D01*
X143704761Y-76985714D01*
X143752380Y-77080952D01*
X143752380Y-77271428D01*
X143704761Y-77366666D01*
X143657142Y-77414285D01*
X143561904Y-77461904D01*
X143323809Y-77461904D01*
X143228571Y-77414285D01*
X143180952Y-77366666D01*
X143133333Y-77271428D01*
X143133333Y-77080952D01*
X143180952Y-76985714D01*
X143228571Y-76938095D01*
X143323809Y-76890476D01*
X143757142Y-93757142D02*
X143804761Y-93709523D01*
X143852380Y-93566666D01*
X143852380Y-93471428D01*
X143804761Y-93328571D01*
X143709523Y-93233333D01*
X143614285Y-93185714D01*
X143423809Y-93138095D01*
X143280952Y-93138095D01*
X143090476Y-93185714D01*
X142995238Y-93233333D01*
X142900000Y-93328571D01*
X142852380Y-93471428D01*
X142852380Y-93566666D01*
X142900000Y-93709523D01*
X142947619Y-93757142D01*
X142852380Y-94614285D02*
X142852380Y-94423809D01*
X142900000Y-94328571D01*
X142947619Y-94280952D01*
X143090476Y-94185714D01*
X143280952Y-94138095D01*
X143661904Y-94138095D01*
X143757142Y-94185714D01*
X143804761Y-94233333D01*
X143852380Y-94328571D01*
X143852380Y-94519047D01*
X143804761Y-94614285D01*
X143757142Y-94661904D01*
X143661904Y-94709523D01*
X143423809Y-94709523D01*
X143328571Y-94661904D01*
X143280952Y-94614285D01*
X143233333Y-94519047D01*
X143233333Y-94328571D01*
X143280952Y-94233333D01*
X143328571Y-94185714D01*
X143423809Y-94138095D01*
X142852380Y-95042857D02*
X142852380Y-95709523D01*
X143852380Y-95280952D01*
X218242857Y-51257142D02*
X218290476Y-51304761D01*
X218433333Y-51352380D01*
X218528571Y-51352380D01*
X218671428Y-51304761D01*
X218766666Y-51209523D01*
X218814285Y-51114285D01*
X218861904Y-50923809D01*
X218861904Y-50780952D01*
X218814285Y-50590476D01*
X218766666Y-50495238D01*
X218671428Y-50400000D01*
X218528571Y-50352380D01*
X218433333Y-50352380D01*
X218290476Y-50400000D01*
X218242857Y-50447619D01*
X217909523Y-50352380D02*
X217242857Y-50352380D01*
X217671428Y-51352380D01*
X216338095Y-51352380D02*
X216909523Y-51352380D01*
X216623809Y-51352380D02*
X216623809Y-50352380D01*
X216719047Y-50495238D01*
X216814285Y-50590476D01*
X216909523Y-50638095D01*
X207557142Y-56157142D02*
X207604761Y-56109523D01*
X207652380Y-55966666D01*
X207652380Y-55871428D01*
X207604761Y-55728571D01*
X207509523Y-55633333D01*
X207414285Y-55585714D01*
X207223809Y-55538095D01*
X207080952Y-55538095D01*
X206890476Y-55585714D01*
X206795238Y-55633333D01*
X206700000Y-55728571D01*
X206652380Y-55871428D01*
X206652380Y-55966666D01*
X206700000Y-56109523D01*
X206747619Y-56157142D01*
X206652380Y-56490476D02*
X206652380Y-57157142D01*
X207652380Y-56728571D01*
X206747619Y-57490476D02*
X206700000Y-57538095D01*
X206652380Y-57633333D01*
X206652380Y-57871428D01*
X206700000Y-57966666D01*
X206747619Y-58014285D01*
X206842857Y-58061904D01*
X206938095Y-58061904D01*
X207080952Y-58014285D01*
X207652380Y-57442857D01*
X207652380Y-58061904D01*
X202242857Y-51357142D02*
X202290476Y-51404761D01*
X202433333Y-51452380D01*
X202528571Y-51452380D01*
X202671428Y-51404761D01*
X202766666Y-51309523D01*
X202814285Y-51214285D01*
X202861904Y-51023809D01*
X202861904Y-50880952D01*
X202814285Y-50690476D01*
X202766666Y-50595238D01*
X202671428Y-50500000D01*
X202528571Y-50452380D01*
X202433333Y-50452380D01*
X202290476Y-50500000D01*
X202242857Y-50547619D01*
X201909523Y-50452380D02*
X201242857Y-50452380D01*
X201671428Y-51452380D01*
X200433333Y-50785714D02*
X200433333Y-51452380D01*
X200671428Y-50404761D02*
X200909523Y-51119047D01*
X200290476Y-51119047D01*
X191557142Y-56157142D02*
X191604761Y-56109523D01*
X191652380Y-55966666D01*
X191652380Y-55871428D01*
X191604761Y-55728571D01*
X191509523Y-55633333D01*
X191414285Y-55585714D01*
X191223809Y-55538095D01*
X191080952Y-55538095D01*
X190890476Y-55585714D01*
X190795238Y-55633333D01*
X190700000Y-55728571D01*
X190652380Y-55871428D01*
X190652380Y-55966666D01*
X190700000Y-56109523D01*
X190747619Y-56157142D01*
X190652380Y-56490476D02*
X190652380Y-57157142D01*
X191652380Y-56728571D01*
X190652380Y-58014285D02*
X190652380Y-57538095D01*
X191128571Y-57490476D01*
X191080952Y-57538095D01*
X191033333Y-57633333D01*
X191033333Y-57871428D01*
X191080952Y-57966666D01*
X191128571Y-58014285D01*
X191223809Y-58061904D01*
X191461904Y-58061904D01*
X191557142Y-58014285D01*
X191604761Y-57966666D01*
X191652380Y-57871428D01*
X191652380Y-57633333D01*
X191604761Y-57538095D01*
X191557142Y-57490476D01*
X142585714Y-114157619D02*
X142585714Y-115157619D01*
X142823809Y-115157619D01*
X142966666Y-115110000D01*
X143061904Y-115014761D01*
X143109523Y-114919523D01*
X143157142Y-114729047D01*
X143157142Y-114586190D01*
X143109523Y-114395714D01*
X143061904Y-114300476D01*
X142966666Y-114205238D01*
X142823809Y-114157619D01*
X142585714Y-114157619D01*
X143538095Y-115062380D02*
X143585714Y-115110000D01*
X143680952Y-115157619D01*
X143919047Y-115157619D01*
X144014285Y-115110000D01*
X144061904Y-115062380D01*
X144109523Y-114967142D01*
X144109523Y-114871904D01*
X144061904Y-114729047D01*
X143490476Y-114157619D01*
X144109523Y-114157619D01*
X144442857Y-115157619D02*
X145061904Y-115157619D01*
X144728571Y-114776666D01*
X144871428Y-114776666D01*
X144966666Y-114729047D01*
X145014285Y-114681428D01*
X145061904Y-114586190D01*
X145061904Y-114348095D01*
X145014285Y-114252857D01*
X144966666Y-114205238D01*
X144871428Y-114157619D01*
X144585714Y-114157619D01*
X144490476Y-114205238D01*
X144442857Y-114252857D01*
X142585714Y-119757619D02*
X142585714Y-120757619D01*
X142823809Y-120757619D01*
X142966666Y-120710000D01*
X143061904Y-120614761D01*
X143109523Y-120519523D01*
X143157142Y-120329047D01*
X143157142Y-120186190D01*
X143109523Y-119995714D01*
X143061904Y-119900476D01*
X142966666Y-119805238D01*
X142823809Y-119757619D01*
X142585714Y-119757619D01*
X143538095Y-120662380D02*
X143585714Y-120710000D01*
X143680952Y-120757619D01*
X143919047Y-120757619D01*
X144014285Y-120710000D01*
X144061904Y-120662380D01*
X144109523Y-120567142D01*
X144109523Y-120471904D01*
X144061904Y-120329047D01*
X143490476Y-119757619D01*
X144109523Y-119757619D01*
X144966666Y-120424285D02*
X144966666Y-119757619D01*
X144728571Y-120805238D02*
X144490476Y-120090952D01*
X145109523Y-120090952D01*
X189785714Y-115547619D02*
X189785714Y-116547619D01*
X190023809Y-116547619D01*
X190166666Y-116500000D01*
X190261904Y-116404761D01*
X190309523Y-116309523D01*
X190357142Y-116119047D01*
X190357142Y-115976190D01*
X190309523Y-115785714D01*
X190261904Y-115690476D01*
X190166666Y-115595238D01*
X190023809Y-115547619D01*
X189785714Y-115547619D01*
X190738095Y-116452380D02*
X190785714Y-116500000D01*
X190880952Y-116547619D01*
X191119047Y-116547619D01*
X191214285Y-116500000D01*
X191261904Y-116452380D01*
X191309523Y-116357142D01*
X191309523Y-116261904D01*
X191261904Y-116119047D01*
X190690476Y-115547619D01*
X191309523Y-115547619D01*
X192214285Y-116547619D02*
X191738095Y-116547619D01*
X191690476Y-116071428D01*
X191738095Y-116119047D01*
X191833333Y-116166666D01*
X192071428Y-116166666D01*
X192166666Y-116119047D01*
X192214285Y-116071428D01*
X192261904Y-115976190D01*
X192261904Y-115738095D01*
X192214285Y-115642857D01*
X192166666Y-115595238D01*
X192071428Y-115547619D01*
X191833333Y-115547619D01*
X191738095Y-115595238D01*
X191690476Y-115642857D01*
X189785714Y-114147619D02*
X189785714Y-115147619D01*
X190023809Y-115147619D01*
X190166666Y-115100000D01*
X190261904Y-115004761D01*
X190309523Y-114909523D01*
X190357142Y-114719047D01*
X190357142Y-114576190D01*
X190309523Y-114385714D01*
X190261904Y-114290476D01*
X190166666Y-114195238D01*
X190023809Y-114147619D01*
X189785714Y-114147619D01*
X190738095Y-115052380D02*
X190785714Y-115100000D01*
X190880952Y-115147619D01*
X191119047Y-115147619D01*
X191214285Y-115100000D01*
X191261904Y-115052380D01*
X191309523Y-114957142D01*
X191309523Y-114861904D01*
X191261904Y-114719047D01*
X190690476Y-114147619D01*
X191309523Y-114147619D01*
X192166666Y-115147619D02*
X191976190Y-115147619D01*
X191880952Y-115100000D01*
X191833333Y-115052380D01*
X191738095Y-114909523D01*
X191690476Y-114719047D01*
X191690476Y-114338095D01*
X191738095Y-114242857D01*
X191785714Y-114195238D01*
X191880952Y-114147619D01*
X192071428Y-114147619D01*
X192166666Y-114195238D01*
X192214285Y-114242857D01*
X192261904Y-114338095D01*
X192261904Y-114576190D01*
X192214285Y-114671428D01*
X192166666Y-114719047D01*
X192071428Y-114766666D01*
X191880952Y-114766666D01*
X191785714Y-114719047D01*
X191738095Y-114671428D01*
X191690476Y-114576190D01*
X189785714Y-112747619D02*
X189785714Y-113747619D01*
X190023809Y-113747619D01*
X190166666Y-113700000D01*
X190261904Y-113604761D01*
X190309523Y-113509523D01*
X190357142Y-113319047D01*
X190357142Y-113176190D01*
X190309523Y-112985714D01*
X190261904Y-112890476D01*
X190166666Y-112795238D01*
X190023809Y-112747619D01*
X189785714Y-112747619D01*
X190738095Y-113652380D02*
X190785714Y-113700000D01*
X190880952Y-113747619D01*
X191119047Y-113747619D01*
X191214285Y-113700000D01*
X191261904Y-113652380D01*
X191309523Y-113557142D01*
X191309523Y-113461904D01*
X191261904Y-113319047D01*
X190690476Y-112747619D01*
X191309523Y-112747619D01*
X191642857Y-113747619D02*
X192309523Y-113747619D01*
X191880952Y-112747619D01*
X230052380Y-105366666D02*
X230766666Y-105366666D01*
X230909523Y-105319047D01*
X231004761Y-105223809D01*
X231052380Y-105080952D01*
X231052380Y-104985714D01*
X230052380Y-106319047D02*
X230052380Y-105842857D01*
X230528571Y-105795238D01*
X230480952Y-105842857D01*
X230433333Y-105938095D01*
X230433333Y-106176190D01*
X230480952Y-106271428D01*
X230528571Y-106319047D01*
X230623809Y-106366666D01*
X230861904Y-106366666D01*
X230957142Y-106319047D01*
X231004761Y-106271428D01*
X231052380Y-106176190D01*
X231052380Y-105938095D01*
X231004761Y-105842857D01*
X230957142Y-105795238D01*
X199082380Y-72966666D02*
X199796666Y-72966666D01*
X199939523Y-72919047D01*
X200034761Y-72823809D01*
X200082380Y-72680952D01*
X200082380Y-72585714D01*
X199082380Y-73871428D02*
X199082380Y-73680952D01*
X199130000Y-73585714D01*
X199177619Y-73538095D01*
X199320476Y-73442857D01*
X199510952Y-73395238D01*
X199891904Y-73395238D01*
X199987142Y-73442857D01*
X200034761Y-73490476D01*
X200082380Y-73585714D01*
X200082380Y-73776190D01*
X200034761Y-73871428D01*
X199987142Y-73919047D01*
X199891904Y-73966666D01*
X199653809Y-73966666D01*
X199558571Y-73919047D01*
X199510952Y-73871428D01*
X199463333Y-73776190D01*
X199463333Y-73585714D01*
X199510952Y-73490476D01*
X199558571Y-73442857D01*
X199653809Y-73395238D01*
X230052380Y-84666666D02*
X230766666Y-84666666D01*
X230909523Y-84619047D01*
X231004761Y-84523809D01*
X231052380Y-84380952D01*
X231052380Y-84285714D01*
X230052380Y-85047619D02*
X230052380Y-85714285D01*
X231052380Y-85285714D01*
X230052380Y-63366666D02*
X230766666Y-63366666D01*
X230909523Y-63319047D01*
X231004761Y-63223809D01*
X231052380Y-63080952D01*
X231052380Y-62985714D01*
X230480952Y-63985714D02*
X230433333Y-63890476D01*
X230385714Y-63842857D01*
X230290476Y-63795238D01*
X230242857Y-63795238D01*
X230147619Y-63842857D01*
X230100000Y-63890476D01*
X230052380Y-63985714D01*
X230052380Y-64176190D01*
X230100000Y-64271428D01*
X230147619Y-64319047D01*
X230242857Y-64366666D01*
X230290476Y-64366666D01*
X230385714Y-64319047D01*
X230433333Y-64271428D01*
X230480952Y-64176190D01*
X230480952Y-63985714D01*
X230528571Y-63890476D01*
X230576190Y-63842857D01*
X230671428Y-63795238D01*
X230861904Y-63795238D01*
X230957142Y-63842857D01*
X231004761Y-63890476D01*
X231052380Y-63985714D01*
X231052380Y-64176190D01*
X231004761Y-64271428D01*
X230957142Y-64319047D01*
X230861904Y-64366666D01*
X230671428Y-64366666D01*
X230576190Y-64319047D01*
X230528571Y-64271428D01*
X230480952Y-64176190D01*
X214452380Y-62990476D02*
X215166666Y-62990476D01*
X215309523Y-62942857D01*
X215404761Y-62847619D01*
X215452380Y-62704761D01*
X215452380Y-62609523D01*
X215452380Y-63990476D02*
X215452380Y-63419047D01*
X215452380Y-63704761D02*
X214452380Y-63704761D01*
X214595238Y-63609523D01*
X214690476Y-63514285D01*
X214738095Y-63419047D01*
X214452380Y-64609523D02*
X214452380Y-64704761D01*
X214500000Y-64800000D01*
X214547619Y-64847619D01*
X214642857Y-64895238D01*
X214833333Y-64942857D01*
X215071428Y-64942857D01*
X215261904Y-64895238D01*
X215357142Y-64847619D01*
X215404761Y-64800000D01*
X215452380Y-64704761D01*
X215452380Y-64609523D01*
X215404761Y-64514285D01*
X215357142Y-64466666D01*
X215261904Y-64419047D01*
X215071428Y-64371428D01*
X214833333Y-64371428D01*
X214642857Y-64419047D01*
X214547619Y-64466666D01*
X214500000Y-64514285D01*
X214452380Y-64609523D01*
X198552380Y-63090476D02*
X199266666Y-63090476D01*
X199409523Y-63042857D01*
X199504761Y-62947619D01*
X199552380Y-62804761D01*
X199552380Y-62709523D01*
X199552380Y-64090476D02*
X199552380Y-63519047D01*
X199552380Y-63804761D02*
X198552380Y-63804761D01*
X198695238Y-63709523D01*
X198790476Y-63614285D01*
X198838095Y-63519047D01*
X199552380Y-65042857D02*
X199552380Y-64471428D01*
X199552380Y-64757142D02*
X198552380Y-64757142D01*
X198695238Y-64661904D01*
X198790476Y-64566666D01*
X198838095Y-64471428D01*
X151109523Y-72292380D02*
X151109523Y-73006666D01*
X151157142Y-73149523D01*
X151252380Y-73244761D01*
X151395238Y-73292380D01*
X151490476Y-73292380D01*
X150109523Y-73292380D02*
X150680952Y-73292380D01*
X150395238Y-73292380D02*
X150395238Y-72292380D01*
X150490476Y-72435238D01*
X150585714Y-72530476D01*
X150680952Y-72578095D01*
X149728571Y-72387619D02*
X149680952Y-72340000D01*
X149585714Y-72292380D01*
X149347619Y-72292380D01*
X149252380Y-72340000D01*
X149204761Y-72387619D01*
X149157142Y-72482857D01*
X149157142Y-72578095D01*
X149204761Y-72720952D01*
X149776190Y-73292380D01*
X149157142Y-73292380D01*
X137033333Y-96352380D02*
X137033333Y-97066666D01*
X137080952Y-97209523D01*
X137176190Y-97304761D01*
X137319047Y-97352380D01*
X137414285Y-97352380D01*
X136557142Y-97352380D02*
X136557142Y-96352380D01*
X136176190Y-96352380D01*
X136080952Y-96400000D01*
X136033333Y-96447619D01*
X135985714Y-96542857D01*
X135985714Y-96685714D01*
X136033333Y-96780952D01*
X136080952Y-96828571D01*
X136176190Y-96876190D01*
X136557142Y-96876190D01*
X135033333Y-97352380D02*
X135604761Y-97352380D01*
X135319047Y-97352380D02*
X135319047Y-96352380D01*
X135414285Y-96495238D01*
X135509523Y-96590476D01*
X135604761Y-96638095D01*
X169952380Y-89433333D02*
X169476190Y-89100000D01*
X169952380Y-88861904D02*
X168952380Y-88861904D01*
X168952380Y-89242857D01*
X169000000Y-89338095D01*
X169047619Y-89385714D01*
X169142857Y-89433333D01*
X169285714Y-89433333D01*
X169380952Y-89385714D01*
X169428571Y-89338095D01*
X169476190Y-89242857D01*
X169476190Y-88861904D01*
X169952380Y-89909523D02*
X169952380Y-90100000D01*
X169904761Y-90195238D01*
X169857142Y-90242857D01*
X169714285Y-90338095D01*
X169523809Y-90385714D01*
X169142857Y-90385714D01*
X169047619Y-90338095D01*
X169000000Y-90290476D01*
X168952380Y-90195238D01*
X168952380Y-90004761D01*
X169000000Y-89909523D01*
X169047619Y-89861904D01*
X169142857Y-89814285D01*
X169380952Y-89814285D01*
X169476190Y-89861904D01*
X169523809Y-89909523D01*
X169571428Y-90004761D01*
X169571428Y-90195238D01*
X169523809Y-90290476D01*
X169476190Y-90338095D01*
X169380952Y-90385714D01*
X167042857Y-91952380D02*
X167376190Y-91476190D01*
X167614285Y-91952380D02*
X167614285Y-90952380D01*
X167233333Y-90952380D01*
X167138095Y-91000000D01*
X167090476Y-91047619D01*
X167042857Y-91142857D01*
X167042857Y-91285714D01*
X167090476Y-91380952D01*
X167138095Y-91428571D01*
X167233333Y-91476190D01*
X167614285Y-91476190D01*
X166090476Y-91952380D02*
X166661904Y-91952380D01*
X166376190Y-91952380D02*
X166376190Y-90952380D01*
X166471428Y-91095238D01*
X166566666Y-91190476D01*
X166661904Y-91238095D01*
X165471428Y-90952380D02*
X165376190Y-90952380D01*
X165280952Y-91000000D01*
X165233333Y-91047619D01*
X165185714Y-91142857D01*
X165138095Y-91333333D01*
X165138095Y-91571428D01*
X165185714Y-91761904D01*
X165233333Y-91857142D01*
X165280952Y-91904761D01*
X165376190Y-91952380D01*
X165471428Y-91952380D01*
X165566666Y-91904761D01*
X165614285Y-91857142D01*
X165661904Y-91761904D01*
X165709523Y-91571428D01*
X165709523Y-91333333D01*
X165661904Y-91142857D01*
X165614285Y-91047619D01*
X165566666Y-91000000D01*
X165471428Y-90952380D01*
X174142857Y-85552380D02*
X174476190Y-85076190D01*
X174714285Y-85552380D02*
X174714285Y-84552380D01*
X174333333Y-84552380D01*
X174238095Y-84600000D01*
X174190476Y-84647619D01*
X174142857Y-84742857D01*
X174142857Y-84885714D01*
X174190476Y-84980952D01*
X174238095Y-85028571D01*
X174333333Y-85076190D01*
X174714285Y-85076190D01*
X173190476Y-85552380D02*
X173761904Y-85552380D01*
X173476190Y-85552380D02*
X173476190Y-84552380D01*
X173571428Y-84695238D01*
X173666666Y-84790476D01*
X173761904Y-84838095D01*
X172714285Y-85552380D02*
X172523809Y-85552380D01*
X172428571Y-85504761D01*
X172380952Y-85457142D01*
X172285714Y-85314285D01*
X172238095Y-85123809D01*
X172238095Y-84742857D01*
X172285714Y-84647619D01*
X172333333Y-84600000D01*
X172428571Y-84552380D01*
X172619047Y-84552380D01*
X172714285Y-84600000D01*
X172761904Y-84647619D01*
X172809523Y-84742857D01*
X172809523Y-84980952D01*
X172761904Y-85076190D01*
X172714285Y-85123809D01*
X172619047Y-85171428D01*
X172428571Y-85171428D01*
X172333333Y-85123809D01*
X172285714Y-85076190D01*
X172238095Y-84980952D01*
X174142857Y-86852380D02*
X174476190Y-86376190D01*
X174714285Y-86852380D02*
X174714285Y-85852380D01*
X174333333Y-85852380D01*
X174238095Y-85900000D01*
X174190476Y-85947619D01*
X174142857Y-86042857D01*
X174142857Y-86185714D01*
X174190476Y-86280952D01*
X174238095Y-86328571D01*
X174333333Y-86376190D01*
X174714285Y-86376190D01*
X173761904Y-85947619D02*
X173714285Y-85900000D01*
X173619047Y-85852380D01*
X173380952Y-85852380D01*
X173285714Y-85900000D01*
X173238095Y-85947619D01*
X173190476Y-86042857D01*
X173190476Y-86138095D01*
X173238095Y-86280952D01*
X173809523Y-86852380D01*
X173190476Y-86852380D01*
X172571428Y-85852380D02*
X172476190Y-85852380D01*
X172380952Y-85900000D01*
X172333333Y-85947619D01*
X172285714Y-86042857D01*
X172238095Y-86233333D01*
X172238095Y-86471428D01*
X172285714Y-86661904D01*
X172333333Y-86757142D01*
X172380952Y-86804761D01*
X172476190Y-86852380D01*
X172571428Y-86852380D01*
X172666666Y-86804761D01*
X172714285Y-86757142D01*
X172761904Y-86661904D01*
X172809523Y-86471428D01*
X172809523Y-86233333D01*
X172761904Y-86042857D01*
X172714285Y-85947619D01*
X172666666Y-85900000D01*
X172571428Y-85852380D01*
X174142857Y-89452380D02*
X174476190Y-88976190D01*
X174714285Y-89452380D02*
X174714285Y-88452380D01*
X174333333Y-88452380D01*
X174238095Y-88500000D01*
X174190476Y-88547619D01*
X174142857Y-88642857D01*
X174142857Y-88785714D01*
X174190476Y-88880952D01*
X174238095Y-88928571D01*
X174333333Y-88976190D01*
X174714285Y-88976190D01*
X173761904Y-88547619D02*
X173714285Y-88500000D01*
X173619047Y-88452380D01*
X173380952Y-88452380D01*
X173285714Y-88500000D01*
X173238095Y-88547619D01*
X173190476Y-88642857D01*
X173190476Y-88738095D01*
X173238095Y-88880952D01*
X173809523Y-89452380D01*
X173190476Y-89452380D01*
X172238095Y-89452380D02*
X172809523Y-89452380D01*
X172523809Y-89452380D02*
X172523809Y-88452380D01*
X172619047Y-88595238D01*
X172714285Y-88690476D01*
X172809523Y-88738095D01*
X174142857Y-88152380D02*
X174476190Y-87676190D01*
X174714285Y-88152380D02*
X174714285Y-87152380D01*
X174333333Y-87152380D01*
X174238095Y-87200000D01*
X174190476Y-87247619D01*
X174142857Y-87342857D01*
X174142857Y-87485714D01*
X174190476Y-87580952D01*
X174238095Y-87628571D01*
X174333333Y-87676190D01*
X174714285Y-87676190D01*
X173761904Y-87247619D02*
X173714285Y-87200000D01*
X173619047Y-87152380D01*
X173380952Y-87152380D01*
X173285714Y-87200000D01*
X173238095Y-87247619D01*
X173190476Y-87342857D01*
X173190476Y-87438095D01*
X173238095Y-87580952D01*
X173809523Y-88152380D01*
X173190476Y-88152380D01*
X172809523Y-87247619D02*
X172761904Y-87200000D01*
X172666666Y-87152380D01*
X172428571Y-87152380D01*
X172333333Y-87200000D01*
X172285714Y-87247619D01*
X172238095Y-87342857D01*
X172238095Y-87438095D01*
X172285714Y-87580952D01*
X172857142Y-88152380D01*
X172238095Y-88152380D01*
X176942857Y-86852380D02*
X177276190Y-86376190D01*
X177514285Y-86852380D02*
X177514285Y-85852380D01*
X177133333Y-85852380D01*
X177038095Y-85900000D01*
X176990476Y-85947619D01*
X176942857Y-86042857D01*
X176942857Y-86185714D01*
X176990476Y-86280952D01*
X177038095Y-86328571D01*
X177133333Y-86376190D01*
X177514285Y-86376190D01*
X176561904Y-85947619D02*
X176514285Y-85900000D01*
X176419047Y-85852380D01*
X176180952Y-85852380D01*
X176085714Y-85900000D01*
X176038095Y-85947619D01*
X175990476Y-86042857D01*
X175990476Y-86138095D01*
X176038095Y-86280952D01*
X176609523Y-86852380D01*
X175990476Y-86852380D01*
X175657142Y-85852380D02*
X175038095Y-85852380D01*
X175371428Y-86233333D01*
X175228571Y-86233333D01*
X175133333Y-86280952D01*
X175085714Y-86328571D01*
X175038095Y-86423809D01*
X175038095Y-86661904D01*
X175085714Y-86757142D01*
X175133333Y-86804761D01*
X175228571Y-86852380D01*
X175514285Y-86852380D01*
X175609523Y-86804761D01*
X175657142Y-86757142D01*
X176942857Y-85452380D02*
X177276190Y-84976190D01*
X177514285Y-85452380D02*
X177514285Y-84452380D01*
X177133333Y-84452380D01*
X177038095Y-84500000D01*
X176990476Y-84547619D01*
X176942857Y-84642857D01*
X176942857Y-84785714D01*
X176990476Y-84880952D01*
X177038095Y-84928571D01*
X177133333Y-84976190D01*
X177514285Y-84976190D01*
X176561904Y-84547619D02*
X176514285Y-84500000D01*
X176419047Y-84452380D01*
X176180952Y-84452380D01*
X176085714Y-84500000D01*
X176038095Y-84547619D01*
X175990476Y-84642857D01*
X175990476Y-84738095D01*
X176038095Y-84880952D01*
X176609523Y-85452380D01*
X175990476Y-85452380D01*
X175133333Y-84785714D02*
X175133333Y-85452380D01*
X175371428Y-84404761D02*
X175609523Y-85119047D01*
X174990476Y-85119047D01*
X176942857Y-88152380D02*
X177276190Y-87676190D01*
X177514285Y-88152380D02*
X177514285Y-87152380D01*
X177133333Y-87152380D01*
X177038095Y-87200000D01*
X176990476Y-87247619D01*
X176942857Y-87342857D01*
X176942857Y-87485714D01*
X176990476Y-87580952D01*
X177038095Y-87628571D01*
X177133333Y-87676190D01*
X177514285Y-87676190D01*
X176561904Y-87247619D02*
X176514285Y-87200000D01*
X176419047Y-87152380D01*
X176180952Y-87152380D01*
X176085714Y-87200000D01*
X176038095Y-87247619D01*
X175990476Y-87342857D01*
X175990476Y-87438095D01*
X176038095Y-87580952D01*
X176609523Y-88152380D01*
X175990476Y-88152380D01*
X175085714Y-87152380D02*
X175561904Y-87152380D01*
X175609523Y-87628571D01*
X175561904Y-87580952D01*
X175466666Y-87533333D01*
X175228571Y-87533333D01*
X175133333Y-87580952D01*
X175085714Y-87628571D01*
X175038095Y-87723809D01*
X175038095Y-87961904D01*
X175085714Y-88057142D01*
X175133333Y-88104761D01*
X175228571Y-88152380D01*
X175466666Y-88152380D01*
X175561904Y-88104761D01*
X175609523Y-88057142D01*
X176942857Y-89452380D02*
X177276190Y-88976190D01*
X177514285Y-89452380D02*
X177514285Y-88452380D01*
X177133333Y-88452380D01*
X177038095Y-88500000D01*
X176990476Y-88547619D01*
X176942857Y-88642857D01*
X176942857Y-88785714D01*
X176990476Y-88880952D01*
X177038095Y-88928571D01*
X177133333Y-88976190D01*
X177514285Y-88976190D01*
X176561904Y-88547619D02*
X176514285Y-88500000D01*
X176419047Y-88452380D01*
X176180952Y-88452380D01*
X176085714Y-88500000D01*
X176038095Y-88547619D01*
X175990476Y-88642857D01*
X175990476Y-88738095D01*
X176038095Y-88880952D01*
X176609523Y-89452380D01*
X175990476Y-89452380D01*
X175133333Y-88452380D02*
X175323809Y-88452380D01*
X175419047Y-88500000D01*
X175466666Y-88547619D01*
X175561904Y-88690476D01*
X175609523Y-88880952D01*
X175609523Y-89261904D01*
X175561904Y-89357142D01*
X175514285Y-89404761D01*
X175419047Y-89452380D01*
X175228571Y-89452380D01*
X175133333Y-89404761D01*
X175085714Y-89357142D01*
X175038095Y-89261904D01*
X175038095Y-89023809D01*
X175085714Y-88928571D01*
X175133333Y-88880952D01*
X175228571Y-88833333D01*
X175419047Y-88833333D01*
X175514285Y-88880952D01*
X175561904Y-88928571D01*
X175609523Y-89023809D01*
X185457142Y-107947619D02*
X185123809Y-108423809D01*
X184885714Y-107947619D02*
X184885714Y-108947619D01*
X185266666Y-108947619D01*
X185361904Y-108900000D01*
X185409523Y-108852380D01*
X185457142Y-108757142D01*
X185457142Y-108614285D01*
X185409523Y-108519047D01*
X185361904Y-108471428D01*
X185266666Y-108423809D01*
X184885714Y-108423809D01*
X186361904Y-108947619D02*
X185885714Y-108947619D01*
X185838095Y-108471428D01*
X185885714Y-108519047D01*
X185980952Y-108566666D01*
X186219047Y-108566666D01*
X186314285Y-108519047D01*
X186361904Y-108471428D01*
X186409523Y-108376190D01*
X186409523Y-108138095D01*
X186361904Y-108042857D01*
X186314285Y-107995238D01*
X186219047Y-107947619D01*
X185980952Y-107947619D01*
X185885714Y-107995238D01*
X185838095Y-108042857D01*
X186885714Y-107947619D02*
X187076190Y-107947619D01*
X187171428Y-107995238D01*
X187219047Y-108042857D01*
X187314285Y-108185714D01*
X187361904Y-108376190D01*
X187361904Y-108757142D01*
X187314285Y-108852380D01*
X187266666Y-108900000D01*
X187171428Y-108947619D01*
X186980952Y-108947619D01*
X186885714Y-108900000D01*
X186838095Y-108852380D01*
X186790476Y-108757142D01*
X186790476Y-108519047D01*
X186838095Y-108423809D01*
X186885714Y-108376190D01*
X186980952Y-108328571D01*
X187171428Y-108328571D01*
X187266666Y-108376190D01*
X187314285Y-108423809D01*
X187361904Y-108519047D01*
X185457142Y-106647619D02*
X185123809Y-107123809D01*
X184885714Y-106647619D02*
X184885714Y-107647619D01*
X185266666Y-107647619D01*
X185361904Y-107600000D01*
X185409523Y-107552380D01*
X185457142Y-107457142D01*
X185457142Y-107314285D01*
X185409523Y-107219047D01*
X185361904Y-107171428D01*
X185266666Y-107123809D01*
X184885714Y-107123809D01*
X186314285Y-107647619D02*
X186123809Y-107647619D01*
X186028571Y-107600000D01*
X185980952Y-107552380D01*
X185885714Y-107409523D01*
X185838095Y-107219047D01*
X185838095Y-106838095D01*
X185885714Y-106742857D01*
X185933333Y-106695238D01*
X186028571Y-106647619D01*
X186219047Y-106647619D01*
X186314285Y-106695238D01*
X186361904Y-106742857D01*
X186409523Y-106838095D01*
X186409523Y-107076190D01*
X186361904Y-107171428D01*
X186314285Y-107219047D01*
X186219047Y-107266666D01*
X186028571Y-107266666D01*
X185933333Y-107219047D01*
X185885714Y-107171428D01*
X185838095Y-107076190D01*
X187028571Y-107647619D02*
X187123809Y-107647619D01*
X187219047Y-107600000D01*
X187266666Y-107552380D01*
X187314285Y-107457142D01*
X187361904Y-107266666D01*
X187361904Y-107028571D01*
X187314285Y-106838095D01*
X187266666Y-106742857D01*
X187219047Y-106695238D01*
X187123809Y-106647619D01*
X187028571Y-106647619D01*
X186933333Y-106695238D01*
X186885714Y-106742857D01*
X186838095Y-106838095D01*
X186790476Y-107028571D01*
X186790476Y-107266666D01*
X186838095Y-107457142D01*
X186885714Y-107552380D01*
X186933333Y-107600000D01*
X187028571Y-107647619D01*
X151457142Y-107647619D02*
X151123809Y-108123809D01*
X150885714Y-107647619D02*
X150885714Y-108647619D01*
X151266666Y-108647619D01*
X151361904Y-108600000D01*
X151409523Y-108552380D01*
X151457142Y-108457142D01*
X151457142Y-108314285D01*
X151409523Y-108219047D01*
X151361904Y-108171428D01*
X151266666Y-108123809D01*
X150885714Y-108123809D01*
X152314285Y-108647619D02*
X152123809Y-108647619D01*
X152028571Y-108600000D01*
X151980952Y-108552380D01*
X151885714Y-108409523D01*
X151838095Y-108219047D01*
X151838095Y-107838095D01*
X151885714Y-107742857D01*
X151933333Y-107695238D01*
X152028571Y-107647619D01*
X152219047Y-107647619D01*
X152314285Y-107695238D01*
X152361904Y-107742857D01*
X152409523Y-107838095D01*
X152409523Y-108076190D01*
X152361904Y-108171428D01*
X152314285Y-108219047D01*
X152219047Y-108266666D01*
X152028571Y-108266666D01*
X151933333Y-108219047D01*
X151885714Y-108171428D01*
X151838095Y-108076190D01*
X152790476Y-108552380D02*
X152838095Y-108600000D01*
X152933333Y-108647619D01*
X153171428Y-108647619D01*
X153266666Y-108600000D01*
X153314285Y-108552380D01*
X153361904Y-108457142D01*
X153361904Y-108361904D01*
X153314285Y-108219047D01*
X152742857Y-107647619D01*
X153361904Y-107647619D01*
X146557142Y-114147619D02*
X146223809Y-114623809D01*
X145985714Y-114147619D02*
X145985714Y-115147619D01*
X146366666Y-115147619D01*
X146461904Y-115100000D01*
X146509523Y-115052380D01*
X146557142Y-114957142D01*
X146557142Y-114814285D01*
X146509523Y-114719047D01*
X146461904Y-114671428D01*
X146366666Y-114623809D01*
X145985714Y-114623809D01*
X147414285Y-115147619D02*
X147223809Y-115147619D01*
X147128571Y-115100000D01*
X147080952Y-115052380D01*
X146985714Y-114909523D01*
X146938095Y-114719047D01*
X146938095Y-114338095D01*
X146985714Y-114242857D01*
X147033333Y-114195238D01*
X147128571Y-114147619D01*
X147319047Y-114147619D01*
X147414285Y-114195238D01*
X147461904Y-114242857D01*
X147509523Y-114338095D01*
X147509523Y-114576190D01*
X147461904Y-114671428D01*
X147414285Y-114719047D01*
X147319047Y-114766666D01*
X147128571Y-114766666D01*
X147033333Y-114719047D01*
X146985714Y-114671428D01*
X146938095Y-114576190D01*
X148366666Y-114814285D02*
X148366666Y-114147619D01*
X148128571Y-115195238D02*
X147890476Y-114480952D01*
X148509523Y-114480952D01*
X154357142Y-107647619D02*
X154023809Y-108123809D01*
X153785714Y-107647619D02*
X153785714Y-108647619D01*
X154166666Y-108647619D01*
X154261904Y-108600000D01*
X154309523Y-108552380D01*
X154357142Y-108457142D01*
X154357142Y-108314285D01*
X154309523Y-108219047D01*
X154261904Y-108171428D01*
X154166666Y-108123809D01*
X153785714Y-108123809D01*
X155214285Y-108647619D02*
X155023809Y-108647619D01*
X154928571Y-108600000D01*
X154880952Y-108552380D01*
X154785714Y-108409523D01*
X154738095Y-108219047D01*
X154738095Y-107838095D01*
X154785714Y-107742857D01*
X154833333Y-107695238D01*
X154928571Y-107647619D01*
X155119047Y-107647619D01*
X155214285Y-107695238D01*
X155261904Y-107742857D01*
X155309523Y-107838095D01*
X155309523Y-108076190D01*
X155261904Y-108171428D01*
X155214285Y-108219047D01*
X155119047Y-108266666D01*
X154928571Y-108266666D01*
X154833333Y-108219047D01*
X154785714Y-108171428D01*
X154738095Y-108076190D01*
X156166666Y-108647619D02*
X155976190Y-108647619D01*
X155880952Y-108600000D01*
X155833333Y-108552380D01*
X155738095Y-108409523D01*
X155690476Y-108219047D01*
X155690476Y-107838095D01*
X155738095Y-107742857D01*
X155785714Y-107695238D01*
X155880952Y-107647619D01*
X156071428Y-107647619D01*
X156166666Y-107695238D01*
X156214285Y-107742857D01*
X156261904Y-107838095D01*
X156261904Y-108076190D01*
X156214285Y-108171428D01*
X156166666Y-108219047D01*
X156071428Y-108266666D01*
X155880952Y-108266666D01*
X155785714Y-108219047D01*
X155738095Y-108171428D01*
X155690476Y-108076190D01*
X146557142Y-119747619D02*
X146223809Y-120223809D01*
X145985714Y-119747619D02*
X145985714Y-120747619D01*
X146366666Y-120747619D01*
X146461904Y-120700000D01*
X146509523Y-120652380D01*
X146557142Y-120557142D01*
X146557142Y-120414285D01*
X146509523Y-120319047D01*
X146461904Y-120271428D01*
X146366666Y-120223809D01*
X145985714Y-120223809D01*
X147414285Y-120747619D02*
X147223809Y-120747619D01*
X147128571Y-120700000D01*
X147080952Y-120652380D01*
X146985714Y-120509523D01*
X146938095Y-120319047D01*
X146938095Y-119938095D01*
X146985714Y-119842857D01*
X147033333Y-119795238D01*
X147128571Y-119747619D01*
X147319047Y-119747619D01*
X147414285Y-119795238D01*
X147461904Y-119842857D01*
X147509523Y-119938095D01*
X147509523Y-120176190D01*
X147461904Y-120271428D01*
X147414285Y-120319047D01*
X147319047Y-120366666D01*
X147128571Y-120366666D01*
X147033333Y-120319047D01*
X146985714Y-120271428D01*
X146938095Y-120176190D01*
X148080952Y-120319047D02*
X147985714Y-120366666D01*
X147938095Y-120414285D01*
X147890476Y-120509523D01*
X147890476Y-120557142D01*
X147938095Y-120652380D01*
X147985714Y-120700000D01*
X148080952Y-120747619D01*
X148271428Y-120747619D01*
X148366666Y-120700000D01*
X148414285Y-120652380D01*
X148461904Y-120557142D01*
X148461904Y-120509523D01*
X148414285Y-120414285D01*
X148366666Y-120366666D01*
X148271428Y-120319047D01*
X148080952Y-120319047D01*
X147985714Y-120271428D01*
X147938095Y-120223809D01*
X147890476Y-120128571D01*
X147890476Y-119938095D01*
X147938095Y-119842857D01*
X147985714Y-119795238D01*
X148080952Y-119747619D01*
X148271428Y-119747619D01*
X148366666Y-119795238D01*
X148414285Y-119842857D01*
X148461904Y-119938095D01*
X148461904Y-120128571D01*
X148414285Y-120223809D01*
X148366666Y-120271428D01*
X148271428Y-120319047D01*
X163142857Y-57702380D02*
X163476190Y-57226190D01*
X163714285Y-57702380D02*
X163714285Y-56702380D01*
X163333333Y-56702380D01*
X163238095Y-56750000D01*
X163190476Y-56797619D01*
X163142857Y-56892857D01*
X163142857Y-57035714D01*
X163190476Y-57130952D01*
X163238095Y-57178571D01*
X163333333Y-57226190D01*
X163714285Y-57226190D01*
X162809523Y-56702380D02*
X162142857Y-56702380D01*
X162571428Y-57702380D01*
X161809523Y-56797619D02*
X161761904Y-56750000D01*
X161666666Y-56702380D01*
X161428571Y-56702380D01*
X161333333Y-56750000D01*
X161285714Y-56797619D01*
X161238095Y-56892857D01*
X161238095Y-56988095D01*
X161285714Y-57130952D01*
X161857142Y-57702380D01*
X161238095Y-57702380D01*
X159857142Y-107547619D02*
X159523809Y-108023809D01*
X159285714Y-107547619D02*
X159285714Y-108547619D01*
X159666666Y-108547619D01*
X159761904Y-108500000D01*
X159809523Y-108452380D01*
X159857142Y-108357142D01*
X159857142Y-108214285D01*
X159809523Y-108119047D01*
X159761904Y-108071428D01*
X159666666Y-108023809D01*
X159285714Y-108023809D01*
X160190476Y-108547619D02*
X160857142Y-108547619D01*
X160428571Y-107547619D01*
X161666666Y-108214285D02*
X161666666Y-107547619D01*
X161428571Y-108595238D02*
X161190476Y-107880952D01*
X161809523Y-107880952D01*
X162657142Y-107547619D02*
X162323809Y-108023809D01*
X162085714Y-107547619D02*
X162085714Y-108547619D01*
X162466666Y-108547619D01*
X162561904Y-108500000D01*
X162609523Y-108452380D01*
X162657142Y-108357142D01*
X162657142Y-108214285D01*
X162609523Y-108119047D01*
X162561904Y-108071428D01*
X162466666Y-108023809D01*
X162085714Y-108023809D01*
X162990476Y-108547619D02*
X163657142Y-108547619D01*
X163228571Y-107547619D01*
X164466666Y-108547619D02*
X164276190Y-108547619D01*
X164180952Y-108500000D01*
X164133333Y-108452380D01*
X164038095Y-108309523D01*
X163990476Y-108119047D01*
X163990476Y-107738095D01*
X164038095Y-107642857D01*
X164085714Y-107595238D01*
X164180952Y-107547619D01*
X164371428Y-107547619D01*
X164466666Y-107595238D01*
X164514285Y-107642857D01*
X164561904Y-107738095D01*
X164561904Y-107976190D01*
X164514285Y-108071428D01*
X164466666Y-108119047D01*
X164371428Y-108166666D01*
X164180952Y-108166666D01*
X164085714Y-108119047D01*
X164038095Y-108071428D01*
X163990476Y-107976190D01*
X181442857Y-117852380D02*
X181776190Y-117376190D01*
X182014285Y-117852380D02*
X182014285Y-116852380D01*
X181633333Y-116852380D01*
X181538095Y-116900000D01*
X181490476Y-116947619D01*
X181442857Y-117042857D01*
X181442857Y-117185714D01*
X181490476Y-117280952D01*
X181538095Y-117328571D01*
X181633333Y-117376190D01*
X182014285Y-117376190D01*
X181109523Y-116852380D02*
X180442857Y-116852380D01*
X180871428Y-117852380D01*
X180157142Y-116852380D02*
X179490476Y-116852380D01*
X179919047Y-117852380D01*
X181442857Y-116252380D02*
X181776190Y-115776190D01*
X182014285Y-116252380D02*
X182014285Y-115252380D01*
X181633333Y-115252380D01*
X181538095Y-115300000D01*
X181490476Y-115347619D01*
X181442857Y-115442857D01*
X181442857Y-115585714D01*
X181490476Y-115680952D01*
X181538095Y-115728571D01*
X181633333Y-115776190D01*
X182014285Y-115776190D01*
X181109523Y-115252380D02*
X180442857Y-115252380D01*
X180871428Y-116252380D01*
X180014285Y-116252380D02*
X179823809Y-116252380D01*
X179728571Y-116204761D01*
X179680952Y-116157142D01*
X179585714Y-116014285D01*
X179538095Y-115823809D01*
X179538095Y-115442857D01*
X179585714Y-115347619D01*
X179633333Y-115300000D01*
X179728571Y-115252380D01*
X179919047Y-115252380D01*
X180014285Y-115300000D01*
X180061904Y-115347619D01*
X180109523Y-115442857D01*
X180109523Y-115680952D01*
X180061904Y-115776190D01*
X180014285Y-115823809D01*
X179919047Y-115871428D01*
X179728571Y-115871428D01*
X179633333Y-115823809D01*
X179585714Y-115776190D01*
X179538095Y-115680952D01*
X168857142Y-107447619D02*
X168523809Y-107923809D01*
X168285714Y-107447619D02*
X168285714Y-108447619D01*
X168666666Y-108447619D01*
X168761904Y-108400000D01*
X168809523Y-108352380D01*
X168857142Y-108257142D01*
X168857142Y-108114285D01*
X168809523Y-108019047D01*
X168761904Y-107971428D01*
X168666666Y-107923809D01*
X168285714Y-107923809D01*
X169428571Y-108019047D02*
X169333333Y-108066666D01*
X169285714Y-108114285D01*
X169238095Y-108209523D01*
X169238095Y-108257142D01*
X169285714Y-108352380D01*
X169333333Y-108400000D01*
X169428571Y-108447619D01*
X169619047Y-108447619D01*
X169714285Y-108400000D01*
X169761904Y-108352380D01*
X169809523Y-108257142D01*
X169809523Y-108209523D01*
X169761904Y-108114285D01*
X169714285Y-108066666D01*
X169619047Y-108019047D01*
X169428571Y-108019047D01*
X169333333Y-107971428D01*
X169285714Y-107923809D01*
X169238095Y-107828571D01*
X169238095Y-107638095D01*
X169285714Y-107542857D01*
X169333333Y-107495238D01*
X169428571Y-107447619D01*
X169619047Y-107447619D01*
X169714285Y-107495238D01*
X169761904Y-107542857D01*
X169809523Y-107638095D01*
X169809523Y-107828571D01*
X169761904Y-107923809D01*
X169714285Y-107971428D01*
X169619047Y-108019047D01*
X170428571Y-108447619D02*
X170523809Y-108447619D01*
X170619047Y-108400000D01*
X170666666Y-108352380D01*
X170714285Y-108257142D01*
X170761904Y-108066666D01*
X170761904Y-107828571D01*
X170714285Y-107638095D01*
X170666666Y-107542857D01*
X170619047Y-107495238D01*
X170523809Y-107447619D01*
X170428571Y-107447619D01*
X170333333Y-107495238D01*
X170285714Y-107542857D01*
X170238095Y-107638095D01*
X170190476Y-107828571D01*
X170190476Y-108066666D01*
X170238095Y-108257142D01*
X170285714Y-108352380D01*
X170333333Y-108400000D01*
X170428571Y-108447619D01*
X171657142Y-107447619D02*
X171323809Y-107923809D01*
X171085714Y-107447619D02*
X171085714Y-108447619D01*
X171466666Y-108447619D01*
X171561904Y-108400000D01*
X171609523Y-108352380D01*
X171657142Y-108257142D01*
X171657142Y-108114285D01*
X171609523Y-108019047D01*
X171561904Y-107971428D01*
X171466666Y-107923809D01*
X171085714Y-107923809D01*
X172228571Y-108019047D02*
X172133333Y-108066666D01*
X172085714Y-108114285D01*
X172038095Y-108209523D01*
X172038095Y-108257142D01*
X172085714Y-108352380D01*
X172133333Y-108400000D01*
X172228571Y-108447619D01*
X172419047Y-108447619D01*
X172514285Y-108400000D01*
X172561904Y-108352380D01*
X172609523Y-108257142D01*
X172609523Y-108209523D01*
X172561904Y-108114285D01*
X172514285Y-108066666D01*
X172419047Y-108019047D01*
X172228571Y-108019047D01*
X172133333Y-107971428D01*
X172085714Y-107923809D01*
X172038095Y-107828571D01*
X172038095Y-107638095D01*
X172085714Y-107542857D01*
X172133333Y-107495238D01*
X172228571Y-107447619D01*
X172419047Y-107447619D01*
X172514285Y-107495238D01*
X172561904Y-107542857D01*
X172609523Y-107638095D01*
X172609523Y-107828571D01*
X172561904Y-107923809D01*
X172514285Y-107971428D01*
X172419047Y-108019047D01*
X172990476Y-108352380D02*
X173038095Y-108400000D01*
X173133333Y-108447619D01*
X173371428Y-108447619D01*
X173466666Y-108400000D01*
X173514285Y-108352380D01*
X173561904Y-108257142D01*
X173561904Y-108161904D01*
X173514285Y-108019047D01*
X172942857Y-107447619D01*
X173561904Y-107447619D01*
X181442857Y-114652380D02*
X181776190Y-114176190D01*
X182014285Y-114652380D02*
X182014285Y-113652380D01*
X181633333Y-113652380D01*
X181538095Y-113700000D01*
X181490476Y-113747619D01*
X181442857Y-113842857D01*
X181442857Y-113985714D01*
X181490476Y-114080952D01*
X181538095Y-114128571D01*
X181633333Y-114176190D01*
X182014285Y-114176190D01*
X180871428Y-114080952D02*
X180966666Y-114033333D01*
X181014285Y-113985714D01*
X181061904Y-113890476D01*
X181061904Y-113842857D01*
X181014285Y-113747619D01*
X180966666Y-113700000D01*
X180871428Y-113652380D01*
X180680952Y-113652380D01*
X180585714Y-113700000D01*
X180538095Y-113747619D01*
X180490476Y-113842857D01*
X180490476Y-113890476D01*
X180538095Y-113985714D01*
X180585714Y-114033333D01*
X180680952Y-114080952D01*
X180871428Y-114080952D01*
X180966666Y-114128571D01*
X181014285Y-114176190D01*
X181061904Y-114271428D01*
X181061904Y-114461904D01*
X181014285Y-114557142D01*
X180966666Y-114604761D01*
X180871428Y-114652380D01*
X180680952Y-114652380D01*
X180585714Y-114604761D01*
X180538095Y-114557142D01*
X180490476Y-114461904D01*
X180490476Y-114271428D01*
X180538095Y-114176190D01*
X180585714Y-114128571D01*
X180680952Y-114080952D01*
X180157142Y-113652380D02*
X179538095Y-113652380D01*
X179871428Y-114033333D01*
X179728571Y-114033333D01*
X179633333Y-114080952D01*
X179585714Y-114128571D01*
X179538095Y-114223809D01*
X179538095Y-114461904D01*
X179585714Y-114557142D01*
X179633333Y-114604761D01*
X179728571Y-114652380D01*
X180014285Y-114652380D01*
X180109523Y-114604761D01*
X180157142Y-114557142D01*
X177457142Y-107447619D02*
X177123809Y-107923809D01*
X176885714Y-107447619D02*
X176885714Y-108447619D01*
X177266666Y-108447619D01*
X177361904Y-108400000D01*
X177409523Y-108352380D01*
X177457142Y-108257142D01*
X177457142Y-108114285D01*
X177409523Y-108019047D01*
X177361904Y-107971428D01*
X177266666Y-107923809D01*
X176885714Y-107923809D01*
X178028571Y-108019047D02*
X177933333Y-108066666D01*
X177885714Y-108114285D01*
X177838095Y-108209523D01*
X177838095Y-108257142D01*
X177885714Y-108352380D01*
X177933333Y-108400000D01*
X178028571Y-108447619D01*
X178219047Y-108447619D01*
X178314285Y-108400000D01*
X178361904Y-108352380D01*
X178409523Y-108257142D01*
X178409523Y-108209523D01*
X178361904Y-108114285D01*
X178314285Y-108066666D01*
X178219047Y-108019047D01*
X178028571Y-108019047D01*
X177933333Y-107971428D01*
X177885714Y-107923809D01*
X177838095Y-107828571D01*
X177838095Y-107638095D01*
X177885714Y-107542857D01*
X177933333Y-107495238D01*
X178028571Y-107447619D01*
X178219047Y-107447619D01*
X178314285Y-107495238D01*
X178361904Y-107542857D01*
X178409523Y-107638095D01*
X178409523Y-107828571D01*
X178361904Y-107923809D01*
X178314285Y-107971428D01*
X178219047Y-108019047D01*
X179266666Y-108447619D02*
X179076190Y-108447619D01*
X178980952Y-108400000D01*
X178933333Y-108352380D01*
X178838095Y-108209523D01*
X178790476Y-108019047D01*
X178790476Y-107638095D01*
X178838095Y-107542857D01*
X178885714Y-107495238D01*
X178980952Y-107447619D01*
X179171428Y-107447619D01*
X179266666Y-107495238D01*
X179314285Y-107542857D01*
X179361904Y-107638095D01*
X179361904Y-107876190D01*
X179314285Y-107971428D01*
X179266666Y-108019047D01*
X179171428Y-108066666D01*
X178980952Y-108066666D01*
X178885714Y-108019047D01*
X178838095Y-107971428D01*
X178790476Y-107876190D01*
X180357142Y-107447619D02*
X180023809Y-107923809D01*
X179785714Y-107447619D02*
X179785714Y-108447619D01*
X180166666Y-108447619D01*
X180261904Y-108400000D01*
X180309523Y-108352380D01*
X180357142Y-108257142D01*
X180357142Y-108114285D01*
X180309523Y-108019047D01*
X180261904Y-107971428D01*
X180166666Y-107923809D01*
X179785714Y-107923809D01*
X180928571Y-108019047D02*
X180833333Y-108066666D01*
X180785714Y-108114285D01*
X180738095Y-108209523D01*
X180738095Y-108257142D01*
X180785714Y-108352380D01*
X180833333Y-108400000D01*
X180928571Y-108447619D01*
X181119047Y-108447619D01*
X181214285Y-108400000D01*
X181261904Y-108352380D01*
X181309523Y-108257142D01*
X181309523Y-108209523D01*
X181261904Y-108114285D01*
X181214285Y-108066666D01*
X181119047Y-108019047D01*
X180928571Y-108019047D01*
X180833333Y-107971428D01*
X180785714Y-107923809D01*
X180738095Y-107828571D01*
X180738095Y-107638095D01*
X180785714Y-107542857D01*
X180833333Y-107495238D01*
X180928571Y-107447619D01*
X181119047Y-107447619D01*
X181214285Y-107495238D01*
X181261904Y-107542857D01*
X181309523Y-107638095D01*
X181309523Y-107828571D01*
X181261904Y-107923809D01*
X181214285Y-107971428D01*
X181119047Y-108019047D01*
X181642857Y-108447619D02*
X182309523Y-108447619D01*
X181880952Y-107447619D01*
X141900000Y-61452380D02*
X142233333Y-60976190D01*
X142471428Y-61452380D02*
X142471428Y-60452380D01*
X142090476Y-60452380D01*
X141995238Y-60500000D01*
X141947619Y-60547619D01*
X141900000Y-60642857D01*
X141900000Y-60785714D01*
X141947619Y-60880952D01*
X141995238Y-60928571D01*
X142090476Y-60976190D01*
X142471428Y-60976190D01*
X140995238Y-61452380D02*
X141471428Y-61452380D01*
X141471428Y-60452380D01*
X140471428Y-60976190D02*
X140471428Y-61452380D01*
X140804761Y-60452380D02*
X140471428Y-60976190D01*
X140138095Y-60452380D01*
X139280952Y-61452380D02*
X139852380Y-61452380D01*
X139566666Y-61452380D02*
X139566666Y-60452380D01*
X139661904Y-60595238D01*
X139757142Y-60690476D01*
X139852380Y-60738095D01*
X135450000Y-61452380D02*
X135783333Y-60976190D01*
X136021428Y-61452380D02*
X136021428Y-60452380D01*
X135640476Y-60452380D01*
X135545238Y-60500000D01*
X135497619Y-60547619D01*
X135450000Y-60642857D01*
X135450000Y-60785714D01*
X135497619Y-60880952D01*
X135545238Y-60928571D01*
X135640476Y-60976190D01*
X136021428Y-60976190D01*
X134545238Y-61452380D02*
X135021428Y-61452380D01*
X135021428Y-60452380D01*
X134021428Y-60976190D02*
X134021428Y-61452380D01*
X134354761Y-60452380D02*
X134021428Y-60976190D01*
X133688095Y-60452380D01*
X133402380Y-60547619D02*
X133354761Y-60500000D01*
X133259523Y-60452380D01*
X133021428Y-60452380D01*
X132926190Y-60500000D01*
X132878571Y-60547619D01*
X132830952Y-60642857D01*
X132830952Y-60738095D01*
X132878571Y-60880952D01*
X133450000Y-61452380D01*
X132830952Y-61452380D01*
X153038095Y-101295238D02*
X153180952Y-101247619D01*
X153419047Y-101247619D01*
X153514285Y-101295238D01*
X153561904Y-101342857D01*
X153609523Y-101438095D01*
X153609523Y-101533333D01*
X153561904Y-101628571D01*
X153514285Y-101676190D01*
X153419047Y-101723809D01*
X153228571Y-101771428D01*
X153133333Y-101819047D01*
X153085714Y-101866666D01*
X153038095Y-101961904D01*
X153038095Y-102057142D01*
X153085714Y-102152380D01*
X153133333Y-102200000D01*
X153228571Y-102247619D01*
X153466666Y-102247619D01*
X153609523Y-102200000D01*
X154561904Y-101247619D02*
X153990476Y-101247619D01*
X154276190Y-101247619D02*
X154276190Y-102247619D01*
X154180952Y-102104761D01*
X154085714Y-102009523D01*
X153990476Y-101961904D01*
X161438095Y-101195238D02*
X161580952Y-101147619D01*
X161819047Y-101147619D01*
X161914285Y-101195238D01*
X161961904Y-101242857D01*
X162009523Y-101338095D01*
X162009523Y-101433333D01*
X161961904Y-101528571D01*
X161914285Y-101576190D01*
X161819047Y-101623809D01*
X161628571Y-101671428D01*
X161533333Y-101719047D01*
X161485714Y-101766666D01*
X161438095Y-101861904D01*
X161438095Y-101957142D01*
X161485714Y-102052380D01*
X161533333Y-102100000D01*
X161628571Y-102147619D01*
X161866666Y-102147619D01*
X162009523Y-102100000D01*
X162390476Y-102052380D02*
X162438095Y-102100000D01*
X162533333Y-102147619D01*
X162771428Y-102147619D01*
X162866666Y-102100000D01*
X162914285Y-102052380D01*
X162961904Y-101957142D01*
X162961904Y-101861904D01*
X162914285Y-101719047D01*
X162342857Y-101147619D01*
X162961904Y-101147619D01*
X170038095Y-101195238D02*
X170180952Y-101147619D01*
X170419047Y-101147619D01*
X170514285Y-101195238D01*
X170561904Y-101242857D01*
X170609523Y-101338095D01*
X170609523Y-101433333D01*
X170561904Y-101528571D01*
X170514285Y-101576190D01*
X170419047Y-101623809D01*
X170228571Y-101671428D01*
X170133333Y-101719047D01*
X170085714Y-101766666D01*
X170038095Y-101861904D01*
X170038095Y-101957142D01*
X170085714Y-102052380D01*
X170133333Y-102100000D01*
X170228571Y-102147619D01*
X170466666Y-102147619D01*
X170609523Y-102100000D01*
X170942857Y-102147619D02*
X171561904Y-102147619D01*
X171228571Y-101766666D01*
X171371428Y-101766666D01*
X171466666Y-101719047D01*
X171514285Y-101671428D01*
X171561904Y-101576190D01*
X171561904Y-101338095D01*
X171514285Y-101242857D01*
X171466666Y-101195238D01*
X171371428Y-101147619D01*
X171085714Y-101147619D01*
X170990476Y-101195238D01*
X170942857Y-101242857D01*
X178438095Y-101295238D02*
X178580952Y-101247619D01*
X178819047Y-101247619D01*
X178914285Y-101295238D01*
X178961904Y-101342857D01*
X179009523Y-101438095D01*
X179009523Y-101533333D01*
X178961904Y-101628571D01*
X178914285Y-101676190D01*
X178819047Y-101723809D01*
X178628571Y-101771428D01*
X178533333Y-101819047D01*
X178485714Y-101866666D01*
X178438095Y-101961904D01*
X178438095Y-102057142D01*
X178485714Y-102152380D01*
X178533333Y-102200000D01*
X178628571Y-102247619D01*
X178866666Y-102247619D01*
X179009523Y-102200000D01*
X179866666Y-101914285D02*
X179866666Y-101247619D01*
X179628571Y-102295238D02*
X179390476Y-101580952D01*
X180009523Y-101580952D01*
X194918095Y-81272380D02*
X194918095Y-82081904D01*
X194870476Y-82177142D01*
X194822857Y-82224761D01*
X194727619Y-82272380D01*
X194537142Y-82272380D01*
X194441904Y-82224761D01*
X194394285Y-82177142D01*
X194346666Y-82081904D01*
X194346666Y-81272380D01*
X193346666Y-82272380D02*
X193918095Y-82272380D01*
X193632380Y-82272380D02*
X193632380Y-81272380D01*
X193727619Y-81415238D01*
X193822857Y-81510476D01*
X193918095Y-81558095D01*
X192394285Y-82272380D02*
X192965714Y-82272380D01*
X192680000Y-82272380D02*
X192680000Y-81272380D01*
X192775238Y-81415238D01*
X192870476Y-81510476D01*
X192965714Y-81558095D01*
X208390476Y-73047619D02*
X208390476Y-72333333D01*
X208342857Y-72190476D01*
X208247619Y-72095238D01*
X208104761Y-72047619D01*
X208009523Y-72047619D01*
X209390476Y-72047619D02*
X208819047Y-72047619D01*
X209104761Y-72047619D02*
X209104761Y-73047619D01*
X209009523Y-72904761D01*
X208914285Y-72809523D01*
X208819047Y-72761904D01*
X210247619Y-72714285D02*
X210247619Y-72047619D01*
X210009523Y-73095238D02*
X209771428Y-72380952D01*
X210390476Y-72380952D01*
X202652380Y-123190476D02*
X203366666Y-123190476D01*
X203509523Y-123142857D01*
X203604761Y-123047619D01*
X203652380Y-122904761D01*
X203652380Y-122809523D01*
X203652380Y-124190476D02*
X203652380Y-123619047D01*
X203652380Y-123904761D02*
X202652380Y-123904761D01*
X202795238Y-123809523D01*
X202890476Y-123714285D01*
X202938095Y-123619047D01*
X202652380Y-124523809D02*
X202652380Y-125142857D01*
X203033333Y-124809523D01*
X203033333Y-124952380D01*
X203080952Y-125047619D01*
X203128571Y-125095238D01*
X203223809Y-125142857D01*
X203461904Y-125142857D01*
X203557142Y-125095238D01*
X203604761Y-125047619D01*
X203652380Y-124952380D01*
X203652380Y-124666666D01*
X203604761Y-124571428D01*
X203557142Y-124523809D01*
X132052380Y-123785714D02*
X131052380Y-123785714D01*
X131052380Y-124023809D01*
X131100000Y-124166666D01*
X131195238Y-124261904D01*
X131290476Y-124309523D01*
X131480952Y-124357142D01*
X131623809Y-124357142D01*
X131814285Y-124309523D01*
X131909523Y-124261904D01*
X132004761Y-124166666D01*
X132052380Y-124023809D01*
X132052380Y-123785714D01*
X131147619Y-124738095D02*
X131100000Y-124785714D01*
X131052380Y-124880952D01*
X131052380Y-125119047D01*
X131100000Y-125214285D01*
X131147619Y-125261904D01*
X131242857Y-125309523D01*
X131338095Y-125309523D01*
X131480952Y-125261904D01*
X132052380Y-124690476D01*
X132052380Y-125309523D01*
X132052380Y-125785714D02*
X132052380Y-125976190D01*
X132004761Y-126071428D01*
X131957142Y-126119047D01*
X131814285Y-126214285D01*
X131623809Y-126261904D01*
X131242857Y-126261904D01*
X131147619Y-126214285D01*
X131100000Y-126166666D01*
X131052380Y-126071428D01*
X131052380Y-125880952D01*
X131100000Y-125785714D01*
X131147619Y-125738095D01*
X131242857Y-125690476D01*
X131480952Y-125690476D01*
X131576190Y-125738095D01*
X131623809Y-125785714D01*
X131671428Y-125880952D01*
X131671428Y-126071428D01*
X131623809Y-126166666D01*
X131576190Y-126214285D01*
X131480952Y-126261904D01*
X133352380Y-124357142D02*
X132876190Y-124023809D01*
X133352380Y-123785714D02*
X132352380Y-123785714D01*
X132352380Y-124166666D01*
X132400000Y-124261904D01*
X132447619Y-124309523D01*
X132542857Y-124357142D01*
X132685714Y-124357142D01*
X132780952Y-124309523D01*
X132828571Y-124261904D01*
X132876190Y-124166666D01*
X132876190Y-123785714D01*
X133352380Y-124833333D02*
X133352380Y-125023809D01*
X133304761Y-125119047D01*
X133257142Y-125166666D01*
X133114285Y-125261904D01*
X132923809Y-125309523D01*
X132542857Y-125309523D01*
X132447619Y-125261904D01*
X132400000Y-125214285D01*
X132352380Y-125119047D01*
X132352380Y-124928571D01*
X132400000Y-124833333D01*
X132447619Y-124785714D01*
X132542857Y-124738095D01*
X132780952Y-124738095D01*
X132876190Y-124785714D01*
X132923809Y-124833333D01*
X132971428Y-124928571D01*
X132971428Y-125119047D01*
X132923809Y-125214285D01*
X132876190Y-125261904D01*
X132780952Y-125309523D01*
X132352380Y-125642857D02*
X132352380Y-126309523D01*
X133352380Y-125880952D01*
X196190476Y-84347619D02*
X196190476Y-83633333D01*
X196142857Y-83490476D01*
X196047619Y-83395238D01*
X195904761Y-83347619D01*
X195809523Y-83347619D01*
X197190476Y-83347619D02*
X196619047Y-83347619D01*
X196904761Y-83347619D02*
X196904761Y-84347619D01*
X196809523Y-84204761D01*
X196714285Y-84109523D01*
X196619047Y-84061904D01*
X197761904Y-83919047D02*
X197666666Y-83966666D01*
X197619047Y-84014285D01*
X197571428Y-84109523D01*
X197571428Y-84157142D01*
X197619047Y-84252380D01*
X197666666Y-84300000D01*
X197761904Y-84347619D01*
X197952380Y-84347619D01*
X198047619Y-84300000D01*
X198095238Y-84252380D01*
X198142857Y-84157142D01*
X198142857Y-84109523D01*
X198095238Y-84014285D01*
X198047619Y-83966666D01*
X197952380Y-83919047D01*
X197761904Y-83919047D01*
X197666666Y-83871428D01*
X197619047Y-83823809D01*
X197571428Y-83728571D01*
X197571428Y-83538095D01*
X197619047Y-83442857D01*
X197666666Y-83395238D01*
X197761904Y-83347619D01*
X197952380Y-83347619D01*
X198047619Y-83395238D01*
X198095238Y-83442857D01*
X198142857Y-83538095D01*
X198142857Y-83728571D01*
X198095238Y-83823809D01*
X198047619Y-83871428D01*
X197952380Y-83919047D01*
X120916666Y-109047619D02*
X120916666Y-108333333D01*
X120869047Y-108190476D01*
X120773809Y-108095238D01*
X120630952Y-108047619D01*
X120535714Y-108047619D01*
X121916666Y-108047619D02*
X121345238Y-108047619D01*
X121630952Y-108047619D02*
X121630952Y-109047619D01*
X121535714Y-108904761D01*
X121440476Y-108809523D01*
X121345238Y-108761904D01*
X187782380Y-119390476D02*
X188496666Y-119390476D01*
X188639523Y-119342857D01*
X188734761Y-119247619D01*
X188782380Y-119104761D01*
X188782380Y-119009523D01*
X187877619Y-119819047D02*
X187830000Y-119866666D01*
X187782380Y-119961904D01*
X187782380Y-120200000D01*
X187830000Y-120295238D01*
X187877619Y-120342857D01*
X187972857Y-120390476D01*
X188068095Y-120390476D01*
X188210952Y-120342857D01*
X188782380Y-119771428D01*
X188782380Y-120390476D01*
X187782380Y-121009523D02*
X187782380Y-121104761D01*
X187830000Y-121200000D01*
X187877619Y-121247619D01*
X187972857Y-121295238D01*
X188163333Y-121342857D01*
X188401428Y-121342857D01*
X188591904Y-121295238D01*
X188687142Y-121247619D01*
X188734761Y-121200000D01*
X188782380Y-121104761D01*
X188782380Y-121009523D01*
X188734761Y-120914285D01*
X188687142Y-120866666D01*
X188591904Y-120819047D01*
X188401428Y-120771428D01*
X188163333Y-120771428D01*
X187972857Y-120819047D01*
X187877619Y-120866666D01*
X187830000Y-120914285D01*
X187782380Y-121009523D01*
M02*
