G04 #@! TF.GenerationSoftware,KiCad,Pcbnew,(5.1.2)-1*
G04 #@! TF.CreationDate,2019-10-17T16:55:22+02:00*
G04 #@! TF.ProjectId,ovc,6f76632e-6b69-4636-9164-5f7063625858,rev?*
G04 #@! TF.SameCoordinates,Original*
G04 #@! TF.FileFunction,Copper,L4,Bot*
G04 #@! TF.FilePolarity,Positive*
%FSLAX46Y46*%
G04 Gerber Fmt 4.6, Leading zero omitted, Abs format (unit mm)*
G04 Created by KiCad (PCBNEW (5.1.2)-1) date 2019-10-17 16:55:22*
%MOMM*%
%LPD*%
G04 APERTURE LIST*
%ADD10O,1.000000X1.600000*%
%ADD11C,1.500000*%
%ADD12C,0.600000*%
%ADD13C,3.000000*%
%ADD14C,1.524000*%
%ADD15R,1.524000X1.524000*%
%ADD16C,1.800000*%
%ADD17C,2.200000*%
%ADD18C,0.100000*%
%ADD19C,2.100000*%
%ADD20R,0.700000X0.800000*%
%ADD21R,0.800000X0.700000*%
%ADD22C,1.600000*%
%ADD23R,1.400000X0.800000*%
%ADD24R,0.800000X0.800000*%
%ADD25O,0.800000X1.500000*%
%ADD26C,1.700000*%
%ADD27O,2.200000X1.700000*%
%ADD28R,1.700000X1.700000*%
%ADD29O,1.700000X1.700000*%
%ADD30R,3.150000X1.000000*%
%ADD31R,1.350000X1.350000*%
%ADD32O,1.350000X1.350000*%
%ADD33R,0.800000X0.900000*%
%ADD34R,1.600000X1.600000*%
%ADD35R,0.800000X1.700000*%
%ADD36R,2.000000X2.000000*%
%ADD37C,2.000000*%
%ADD38R,1.000000X3.150000*%
%ADD39R,0.650000X3.000000*%
%ADD40C,0.150000*%
%ADD41C,1.500000*%
%ADD42C,0.500000*%
%ADD43C,0.300000*%
%ADD44C,2.000000*%
%ADD45C,0.254000*%
G04 APERTURE END LIST*
D10*
X171090000Y-52600000D03*
X170730000Y-58550000D03*
X162470000Y-58550000D03*
X162110000Y-52600000D03*
D11*
X156910000Y-120780000D03*
X159450000Y-120780000D03*
X161990000Y-120780000D03*
X164530000Y-120780000D03*
X167070000Y-120780000D03*
X169610000Y-120780000D03*
X172150000Y-120780000D03*
X174690000Y-120780000D03*
X174690000Y-110620000D03*
X172150000Y-110620000D03*
X169610000Y-110620000D03*
X167070000Y-110620000D03*
X164530000Y-110620000D03*
X161990000Y-110620000D03*
X159450000Y-110620000D03*
X156910000Y-110620000D03*
D12*
X166414214Y-127514214D03*
X167000000Y-126100000D03*
X166414214Y-124685786D03*
X165000000Y-124100000D03*
X163585786Y-124685786D03*
X163000000Y-126100000D03*
X163585786Y-127514214D03*
X165000000Y-128100000D03*
D13*
X165000000Y-126100000D03*
D14*
X220450000Y-112090000D03*
X220450000Y-109550000D03*
X220450000Y-107010000D03*
X220450000Y-104470000D03*
X220450000Y-101930000D03*
X220450000Y-99390000D03*
X220450000Y-96850000D03*
X220450000Y-94310000D03*
X233150000Y-94310000D03*
X233150000Y-96850000D03*
X233150000Y-99390000D03*
X233150000Y-101930000D03*
X233150000Y-104470000D03*
X233150000Y-107010000D03*
X233150000Y-109550000D03*
D15*
X233150000Y-112090000D03*
D14*
X220450000Y-91090000D03*
X220450000Y-88550000D03*
X220450000Y-86010000D03*
X220450000Y-83470000D03*
X220450000Y-80930000D03*
X220450000Y-78390000D03*
X220450000Y-75850000D03*
X220450000Y-73310000D03*
X233150000Y-73310000D03*
X233150000Y-75850000D03*
X233150000Y-78390000D03*
X233150000Y-80930000D03*
X233150000Y-83470000D03*
X233150000Y-86010000D03*
X233150000Y-88550000D03*
D15*
X233150000Y-91090000D03*
D14*
X220450000Y-70090000D03*
X220450000Y-67550000D03*
X220450000Y-65010000D03*
X220450000Y-62470000D03*
X220450000Y-59930000D03*
X220450000Y-57390000D03*
X220450000Y-54850000D03*
X220450000Y-52310000D03*
X233150000Y-52310000D03*
X233150000Y-54850000D03*
X233150000Y-57390000D03*
X233150000Y-59930000D03*
X233150000Y-62470000D03*
X233150000Y-65010000D03*
X233150000Y-67550000D03*
D15*
X233150000Y-70090000D03*
D14*
X204650000Y-70090000D03*
X204650000Y-67550000D03*
X204650000Y-65010000D03*
X204650000Y-62470000D03*
X204650000Y-59930000D03*
X204650000Y-57390000D03*
X204650000Y-54850000D03*
X204650000Y-52310000D03*
X217350000Y-52310000D03*
X217350000Y-54850000D03*
X217350000Y-57390000D03*
X217350000Y-59930000D03*
X217350000Y-62470000D03*
X217350000Y-65010000D03*
X217350000Y-67550000D03*
D15*
X217350000Y-70090000D03*
D14*
X188650000Y-70090000D03*
X188650000Y-67550000D03*
X188650000Y-65010000D03*
X188650000Y-62470000D03*
X188650000Y-59930000D03*
X188650000Y-57390000D03*
X188650000Y-54850000D03*
X188650000Y-52310000D03*
X201350000Y-52310000D03*
X201350000Y-54850000D03*
X201350000Y-57390000D03*
X201350000Y-59930000D03*
X201350000Y-62470000D03*
X201350000Y-65010000D03*
X201350000Y-67550000D03*
D15*
X201350000Y-70090000D03*
D16*
X116420000Y-117600000D03*
X124040000Y-117600000D03*
X131660000Y-117600000D03*
X134200000Y-117600000D03*
D17*
X119700000Y-123250000D03*
X119700000Y-126750000D03*
X185450000Y-54800000D03*
X181950000Y-54800000D03*
X178450000Y-54800000D03*
X174950000Y-54800000D03*
D18*
G36*
X134474504Y-72151204D02*
G01*
X134498773Y-72154804D01*
X134522571Y-72160765D01*
X134545671Y-72169030D01*
X134567849Y-72179520D01*
X134588893Y-72192133D01*
X134608598Y-72206747D01*
X134626777Y-72223223D01*
X134643253Y-72241402D01*
X134657867Y-72261107D01*
X134670480Y-72282151D01*
X134680970Y-72304329D01*
X134689235Y-72327429D01*
X134695196Y-72351227D01*
X134698796Y-72375496D01*
X134700000Y-72400000D01*
X134700000Y-74000000D01*
X134698796Y-74024504D01*
X134695196Y-74048773D01*
X134689235Y-74072571D01*
X134680970Y-74095671D01*
X134670480Y-74117849D01*
X134657867Y-74138893D01*
X134643253Y-74158598D01*
X134626777Y-74176777D01*
X134608598Y-74193253D01*
X134588893Y-74207867D01*
X134567849Y-74220480D01*
X134545671Y-74230970D01*
X134522571Y-74239235D01*
X134498773Y-74245196D01*
X134474504Y-74248796D01*
X134450000Y-74250000D01*
X130350000Y-74250000D01*
X130325496Y-74248796D01*
X130301227Y-74245196D01*
X130277429Y-74239235D01*
X130254329Y-74230970D01*
X130232151Y-74220480D01*
X130211107Y-74207867D01*
X130191402Y-74193253D01*
X130173223Y-74176777D01*
X130156747Y-74158598D01*
X130142133Y-74138893D01*
X130129520Y-74117849D01*
X130119030Y-74095671D01*
X130110765Y-74072571D01*
X130104804Y-74048773D01*
X130101204Y-74024504D01*
X130100000Y-74000000D01*
X130100000Y-72400000D01*
X130101204Y-72375496D01*
X130104804Y-72351227D01*
X130110765Y-72327429D01*
X130119030Y-72304329D01*
X130129520Y-72282151D01*
X130142133Y-72261107D01*
X130156747Y-72241402D01*
X130173223Y-72223223D01*
X130191402Y-72206747D01*
X130211107Y-72192133D01*
X130232151Y-72179520D01*
X130254329Y-72169030D01*
X130277429Y-72160765D01*
X130301227Y-72154804D01*
X130325496Y-72151204D01*
X130350000Y-72150000D01*
X134450000Y-72150000D01*
X134474504Y-72151204D01*
X134474504Y-72151204D01*
G37*
D19*
X132400000Y-73200000D03*
D18*
G36*
X143274504Y-72151204D02*
G01*
X143298773Y-72154804D01*
X143322571Y-72160765D01*
X143345671Y-72169030D01*
X143367849Y-72179520D01*
X143388893Y-72192133D01*
X143408598Y-72206747D01*
X143426777Y-72223223D01*
X143443253Y-72241402D01*
X143457867Y-72261107D01*
X143470480Y-72282151D01*
X143480970Y-72304329D01*
X143489235Y-72327429D01*
X143495196Y-72351227D01*
X143498796Y-72375496D01*
X143500000Y-72400000D01*
X143500000Y-74000000D01*
X143498796Y-74024504D01*
X143495196Y-74048773D01*
X143489235Y-74072571D01*
X143480970Y-74095671D01*
X143470480Y-74117849D01*
X143457867Y-74138893D01*
X143443253Y-74158598D01*
X143426777Y-74176777D01*
X143408598Y-74193253D01*
X143388893Y-74207867D01*
X143367849Y-74220480D01*
X143345671Y-74230970D01*
X143322571Y-74239235D01*
X143298773Y-74245196D01*
X143274504Y-74248796D01*
X143250000Y-74250000D01*
X139150000Y-74250000D01*
X139125496Y-74248796D01*
X139101227Y-74245196D01*
X139077429Y-74239235D01*
X139054329Y-74230970D01*
X139032151Y-74220480D01*
X139011107Y-74207867D01*
X138991402Y-74193253D01*
X138973223Y-74176777D01*
X138956747Y-74158598D01*
X138942133Y-74138893D01*
X138929520Y-74117849D01*
X138919030Y-74095671D01*
X138910765Y-74072571D01*
X138904804Y-74048773D01*
X138901204Y-74024504D01*
X138900000Y-74000000D01*
X138900000Y-72400000D01*
X138901204Y-72375496D01*
X138904804Y-72351227D01*
X138910765Y-72327429D01*
X138919030Y-72304329D01*
X138929520Y-72282151D01*
X138942133Y-72261107D01*
X138956747Y-72241402D01*
X138973223Y-72223223D01*
X138991402Y-72206747D01*
X139011107Y-72192133D01*
X139032151Y-72179520D01*
X139054329Y-72169030D01*
X139077429Y-72160765D01*
X139101227Y-72154804D01*
X139125496Y-72151204D01*
X139150000Y-72150000D01*
X143250000Y-72150000D01*
X143274504Y-72151204D01*
X143274504Y-72151204D01*
G37*
D19*
X141200000Y-73200000D03*
D20*
X165650000Y-89000000D03*
X167150000Y-89000000D03*
D21*
X231400000Y-93050000D03*
X231400000Y-94550000D03*
D18*
G36*
X231174504Y-95401204D02*
G01*
X231198773Y-95404804D01*
X231222571Y-95410765D01*
X231245671Y-95419030D01*
X231267849Y-95429520D01*
X231288893Y-95442133D01*
X231308598Y-95456747D01*
X231326777Y-95473223D01*
X231343253Y-95491402D01*
X231357867Y-95511107D01*
X231370480Y-95532151D01*
X231380970Y-95554329D01*
X231389235Y-95577429D01*
X231395196Y-95601227D01*
X231398796Y-95625496D01*
X231400000Y-95650000D01*
X231400000Y-96750000D01*
X231398796Y-96774504D01*
X231395196Y-96798773D01*
X231389235Y-96822571D01*
X231380970Y-96845671D01*
X231370480Y-96867849D01*
X231357867Y-96888893D01*
X231343253Y-96908598D01*
X231326777Y-96926777D01*
X231308598Y-96943253D01*
X231288893Y-96957867D01*
X231267849Y-96970480D01*
X231245671Y-96980970D01*
X231222571Y-96989235D01*
X231198773Y-96995196D01*
X231174504Y-96998796D01*
X231150000Y-97000000D01*
X228325000Y-97000000D01*
X228300496Y-96998796D01*
X228276227Y-96995196D01*
X228252429Y-96989235D01*
X228229329Y-96980970D01*
X228207151Y-96970480D01*
X228186107Y-96957867D01*
X228166402Y-96943253D01*
X228148223Y-96926777D01*
X228131747Y-96908598D01*
X228117133Y-96888893D01*
X228104520Y-96867849D01*
X228094030Y-96845671D01*
X228085765Y-96822571D01*
X228079804Y-96798773D01*
X228076204Y-96774504D01*
X228075000Y-96750000D01*
X228075000Y-95650000D01*
X228076204Y-95625496D01*
X228079804Y-95601227D01*
X228085765Y-95577429D01*
X228094030Y-95554329D01*
X228104520Y-95532151D01*
X228117133Y-95511107D01*
X228131747Y-95491402D01*
X228148223Y-95473223D01*
X228166402Y-95456747D01*
X228186107Y-95442133D01*
X228207151Y-95429520D01*
X228229329Y-95419030D01*
X228252429Y-95410765D01*
X228276227Y-95404804D01*
X228300496Y-95401204D01*
X228325000Y-95400000D01*
X231150000Y-95400000D01*
X231174504Y-95401204D01*
X231174504Y-95401204D01*
G37*
D22*
X229737500Y-96200000D03*
D18*
G36*
X226099504Y-95401204D02*
G01*
X226123773Y-95404804D01*
X226147571Y-95410765D01*
X226170671Y-95419030D01*
X226192849Y-95429520D01*
X226213893Y-95442133D01*
X226233598Y-95456747D01*
X226251777Y-95473223D01*
X226268253Y-95491402D01*
X226282867Y-95511107D01*
X226295480Y-95532151D01*
X226305970Y-95554329D01*
X226314235Y-95577429D01*
X226320196Y-95601227D01*
X226323796Y-95625496D01*
X226325000Y-95650000D01*
X226325000Y-96750000D01*
X226323796Y-96774504D01*
X226320196Y-96798773D01*
X226314235Y-96822571D01*
X226305970Y-96845671D01*
X226295480Y-96867849D01*
X226282867Y-96888893D01*
X226268253Y-96908598D01*
X226251777Y-96926777D01*
X226233598Y-96943253D01*
X226213893Y-96957867D01*
X226192849Y-96970480D01*
X226170671Y-96980970D01*
X226147571Y-96989235D01*
X226123773Y-96995196D01*
X226099504Y-96998796D01*
X226075000Y-97000000D01*
X223250000Y-97000000D01*
X223225496Y-96998796D01*
X223201227Y-96995196D01*
X223177429Y-96989235D01*
X223154329Y-96980970D01*
X223132151Y-96970480D01*
X223111107Y-96957867D01*
X223091402Y-96943253D01*
X223073223Y-96926777D01*
X223056747Y-96908598D01*
X223042133Y-96888893D01*
X223029520Y-96867849D01*
X223019030Y-96845671D01*
X223010765Y-96822571D01*
X223004804Y-96798773D01*
X223001204Y-96774504D01*
X223000000Y-96750000D01*
X223000000Y-95650000D01*
X223001204Y-95625496D01*
X223004804Y-95601227D01*
X223010765Y-95577429D01*
X223019030Y-95554329D01*
X223029520Y-95532151D01*
X223042133Y-95511107D01*
X223056747Y-95491402D01*
X223073223Y-95473223D01*
X223091402Y-95456747D01*
X223111107Y-95442133D01*
X223132151Y-95429520D01*
X223154329Y-95419030D01*
X223177429Y-95410765D01*
X223201227Y-95404804D01*
X223225496Y-95401204D01*
X223250000Y-95400000D01*
X226075000Y-95400000D01*
X226099504Y-95401204D01*
X226099504Y-95401204D01*
G37*
D22*
X224662500Y-96200000D03*
D18*
G36*
X171224504Y-62501204D02*
G01*
X171248773Y-62504804D01*
X171272571Y-62510765D01*
X171295671Y-62519030D01*
X171317849Y-62529520D01*
X171338893Y-62542133D01*
X171358598Y-62556747D01*
X171376777Y-62573223D01*
X171393253Y-62591402D01*
X171407867Y-62611107D01*
X171420480Y-62632151D01*
X171430970Y-62654329D01*
X171439235Y-62677429D01*
X171445196Y-62701227D01*
X171448796Y-62725496D01*
X171450000Y-62750000D01*
X171450000Y-66850000D01*
X171448796Y-66874504D01*
X171445196Y-66898773D01*
X171439235Y-66922571D01*
X171430970Y-66945671D01*
X171420480Y-66967849D01*
X171407867Y-66988893D01*
X171393253Y-67008598D01*
X171376777Y-67026777D01*
X171358598Y-67043253D01*
X171338893Y-67057867D01*
X171317849Y-67070480D01*
X171295671Y-67080970D01*
X171272571Y-67089235D01*
X171248773Y-67095196D01*
X171224504Y-67098796D01*
X171200000Y-67100000D01*
X169600000Y-67100000D01*
X169575496Y-67098796D01*
X169551227Y-67095196D01*
X169527429Y-67089235D01*
X169504329Y-67080970D01*
X169482151Y-67070480D01*
X169461107Y-67057867D01*
X169441402Y-67043253D01*
X169423223Y-67026777D01*
X169406747Y-67008598D01*
X169392133Y-66988893D01*
X169379520Y-66967849D01*
X169369030Y-66945671D01*
X169360765Y-66922571D01*
X169354804Y-66898773D01*
X169351204Y-66874504D01*
X169350000Y-66850000D01*
X169350000Y-62750000D01*
X169351204Y-62725496D01*
X169354804Y-62701227D01*
X169360765Y-62677429D01*
X169369030Y-62654329D01*
X169379520Y-62632151D01*
X169392133Y-62611107D01*
X169406747Y-62591402D01*
X169423223Y-62573223D01*
X169441402Y-62556747D01*
X169461107Y-62542133D01*
X169482151Y-62529520D01*
X169504329Y-62519030D01*
X169527429Y-62510765D01*
X169551227Y-62504804D01*
X169575496Y-62501204D01*
X169600000Y-62500000D01*
X171200000Y-62500000D01*
X171224504Y-62501204D01*
X171224504Y-62501204D01*
G37*
D19*
X170400000Y-64800000D03*
D18*
G36*
X171224504Y-71301204D02*
G01*
X171248773Y-71304804D01*
X171272571Y-71310765D01*
X171295671Y-71319030D01*
X171317849Y-71329520D01*
X171338893Y-71342133D01*
X171358598Y-71356747D01*
X171376777Y-71373223D01*
X171393253Y-71391402D01*
X171407867Y-71411107D01*
X171420480Y-71432151D01*
X171430970Y-71454329D01*
X171439235Y-71477429D01*
X171445196Y-71501227D01*
X171448796Y-71525496D01*
X171450000Y-71550000D01*
X171450000Y-75650000D01*
X171448796Y-75674504D01*
X171445196Y-75698773D01*
X171439235Y-75722571D01*
X171430970Y-75745671D01*
X171420480Y-75767849D01*
X171407867Y-75788893D01*
X171393253Y-75808598D01*
X171376777Y-75826777D01*
X171358598Y-75843253D01*
X171338893Y-75857867D01*
X171317849Y-75870480D01*
X171295671Y-75880970D01*
X171272571Y-75889235D01*
X171248773Y-75895196D01*
X171224504Y-75898796D01*
X171200000Y-75900000D01*
X169600000Y-75900000D01*
X169575496Y-75898796D01*
X169551227Y-75895196D01*
X169527429Y-75889235D01*
X169504329Y-75880970D01*
X169482151Y-75870480D01*
X169461107Y-75857867D01*
X169441402Y-75843253D01*
X169423223Y-75826777D01*
X169406747Y-75808598D01*
X169392133Y-75788893D01*
X169379520Y-75767849D01*
X169369030Y-75745671D01*
X169360765Y-75722571D01*
X169354804Y-75698773D01*
X169351204Y-75674504D01*
X169350000Y-75650000D01*
X169350000Y-71550000D01*
X169351204Y-71525496D01*
X169354804Y-71501227D01*
X169360765Y-71477429D01*
X169369030Y-71454329D01*
X169379520Y-71432151D01*
X169392133Y-71411107D01*
X169406747Y-71391402D01*
X169423223Y-71373223D01*
X169441402Y-71356747D01*
X169461107Y-71342133D01*
X169482151Y-71329520D01*
X169504329Y-71319030D01*
X169527429Y-71310765D01*
X169551227Y-71304804D01*
X169575496Y-71301204D01*
X169600000Y-71300000D01*
X171200000Y-71300000D01*
X171224504Y-71301204D01*
X171224504Y-71301204D01*
G37*
D19*
X170400000Y-73600000D03*
D18*
G36*
X182224504Y-71301204D02*
G01*
X182248773Y-71304804D01*
X182272571Y-71310765D01*
X182295671Y-71319030D01*
X182317849Y-71329520D01*
X182338893Y-71342133D01*
X182358598Y-71356747D01*
X182376777Y-71373223D01*
X182393253Y-71391402D01*
X182407867Y-71411107D01*
X182420480Y-71432151D01*
X182430970Y-71454329D01*
X182439235Y-71477429D01*
X182445196Y-71501227D01*
X182448796Y-71525496D01*
X182450000Y-71550000D01*
X182450000Y-75650000D01*
X182448796Y-75674504D01*
X182445196Y-75698773D01*
X182439235Y-75722571D01*
X182430970Y-75745671D01*
X182420480Y-75767849D01*
X182407867Y-75788893D01*
X182393253Y-75808598D01*
X182376777Y-75826777D01*
X182358598Y-75843253D01*
X182338893Y-75857867D01*
X182317849Y-75870480D01*
X182295671Y-75880970D01*
X182272571Y-75889235D01*
X182248773Y-75895196D01*
X182224504Y-75898796D01*
X182200000Y-75900000D01*
X180600000Y-75900000D01*
X180575496Y-75898796D01*
X180551227Y-75895196D01*
X180527429Y-75889235D01*
X180504329Y-75880970D01*
X180482151Y-75870480D01*
X180461107Y-75857867D01*
X180441402Y-75843253D01*
X180423223Y-75826777D01*
X180406747Y-75808598D01*
X180392133Y-75788893D01*
X180379520Y-75767849D01*
X180369030Y-75745671D01*
X180360765Y-75722571D01*
X180354804Y-75698773D01*
X180351204Y-75674504D01*
X180350000Y-75650000D01*
X180350000Y-71550000D01*
X180351204Y-71525496D01*
X180354804Y-71501227D01*
X180360765Y-71477429D01*
X180369030Y-71454329D01*
X180379520Y-71432151D01*
X180392133Y-71411107D01*
X180406747Y-71391402D01*
X180423223Y-71373223D01*
X180441402Y-71356747D01*
X180461107Y-71342133D01*
X180482151Y-71329520D01*
X180504329Y-71319030D01*
X180527429Y-71310765D01*
X180551227Y-71304804D01*
X180575496Y-71301204D01*
X180600000Y-71300000D01*
X182200000Y-71300000D01*
X182224504Y-71301204D01*
X182224504Y-71301204D01*
G37*
D19*
X181400000Y-73600000D03*
D18*
G36*
X182224504Y-62501204D02*
G01*
X182248773Y-62504804D01*
X182272571Y-62510765D01*
X182295671Y-62519030D01*
X182317849Y-62529520D01*
X182338893Y-62542133D01*
X182358598Y-62556747D01*
X182376777Y-62573223D01*
X182393253Y-62591402D01*
X182407867Y-62611107D01*
X182420480Y-62632151D01*
X182430970Y-62654329D01*
X182439235Y-62677429D01*
X182445196Y-62701227D01*
X182448796Y-62725496D01*
X182450000Y-62750000D01*
X182450000Y-66850000D01*
X182448796Y-66874504D01*
X182445196Y-66898773D01*
X182439235Y-66922571D01*
X182430970Y-66945671D01*
X182420480Y-66967849D01*
X182407867Y-66988893D01*
X182393253Y-67008598D01*
X182376777Y-67026777D01*
X182358598Y-67043253D01*
X182338893Y-67057867D01*
X182317849Y-67070480D01*
X182295671Y-67080970D01*
X182272571Y-67089235D01*
X182248773Y-67095196D01*
X182224504Y-67098796D01*
X182200000Y-67100000D01*
X180600000Y-67100000D01*
X180575496Y-67098796D01*
X180551227Y-67095196D01*
X180527429Y-67089235D01*
X180504329Y-67080970D01*
X180482151Y-67070480D01*
X180461107Y-67057867D01*
X180441402Y-67043253D01*
X180423223Y-67026777D01*
X180406747Y-67008598D01*
X180392133Y-66988893D01*
X180379520Y-66967849D01*
X180369030Y-66945671D01*
X180360765Y-66922571D01*
X180354804Y-66898773D01*
X180351204Y-66874504D01*
X180350000Y-66850000D01*
X180350000Y-62750000D01*
X180351204Y-62725496D01*
X180354804Y-62701227D01*
X180360765Y-62677429D01*
X180369030Y-62654329D01*
X180379520Y-62632151D01*
X180392133Y-62611107D01*
X180406747Y-62591402D01*
X180423223Y-62573223D01*
X180441402Y-62556747D01*
X180461107Y-62542133D01*
X180482151Y-62529520D01*
X180504329Y-62519030D01*
X180527429Y-62510765D01*
X180551227Y-62504804D01*
X180575496Y-62501204D01*
X180600000Y-62500000D01*
X182200000Y-62500000D01*
X182224504Y-62501204D01*
X182224504Y-62501204D01*
G37*
D19*
X181400000Y-64800000D03*
D21*
X231400000Y-72050000D03*
X231400000Y-73550000D03*
D18*
G36*
X226099504Y-74401204D02*
G01*
X226123773Y-74404804D01*
X226147571Y-74410765D01*
X226170671Y-74419030D01*
X226192849Y-74429520D01*
X226213893Y-74442133D01*
X226233598Y-74456747D01*
X226251777Y-74473223D01*
X226268253Y-74491402D01*
X226282867Y-74511107D01*
X226295480Y-74532151D01*
X226305970Y-74554329D01*
X226314235Y-74577429D01*
X226320196Y-74601227D01*
X226323796Y-74625496D01*
X226325000Y-74650000D01*
X226325000Y-75750000D01*
X226323796Y-75774504D01*
X226320196Y-75798773D01*
X226314235Y-75822571D01*
X226305970Y-75845671D01*
X226295480Y-75867849D01*
X226282867Y-75888893D01*
X226268253Y-75908598D01*
X226251777Y-75926777D01*
X226233598Y-75943253D01*
X226213893Y-75957867D01*
X226192849Y-75970480D01*
X226170671Y-75980970D01*
X226147571Y-75989235D01*
X226123773Y-75995196D01*
X226099504Y-75998796D01*
X226075000Y-76000000D01*
X223250000Y-76000000D01*
X223225496Y-75998796D01*
X223201227Y-75995196D01*
X223177429Y-75989235D01*
X223154329Y-75980970D01*
X223132151Y-75970480D01*
X223111107Y-75957867D01*
X223091402Y-75943253D01*
X223073223Y-75926777D01*
X223056747Y-75908598D01*
X223042133Y-75888893D01*
X223029520Y-75867849D01*
X223019030Y-75845671D01*
X223010765Y-75822571D01*
X223004804Y-75798773D01*
X223001204Y-75774504D01*
X223000000Y-75750000D01*
X223000000Y-74650000D01*
X223001204Y-74625496D01*
X223004804Y-74601227D01*
X223010765Y-74577429D01*
X223019030Y-74554329D01*
X223029520Y-74532151D01*
X223042133Y-74511107D01*
X223056747Y-74491402D01*
X223073223Y-74473223D01*
X223091402Y-74456747D01*
X223111107Y-74442133D01*
X223132151Y-74429520D01*
X223154329Y-74419030D01*
X223177429Y-74410765D01*
X223201227Y-74404804D01*
X223225496Y-74401204D01*
X223250000Y-74400000D01*
X226075000Y-74400000D01*
X226099504Y-74401204D01*
X226099504Y-74401204D01*
G37*
D22*
X224662500Y-75200000D03*
D18*
G36*
X231174504Y-74401204D02*
G01*
X231198773Y-74404804D01*
X231222571Y-74410765D01*
X231245671Y-74419030D01*
X231267849Y-74429520D01*
X231288893Y-74442133D01*
X231308598Y-74456747D01*
X231326777Y-74473223D01*
X231343253Y-74491402D01*
X231357867Y-74511107D01*
X231370480Y-74532151D01*
X231380970Y-74554329D01*
X231389235Y-74577429D01*
X231395196Y-74601227D01*
X231398796Y-74625496D01*
X231400000Y-74650000D01*
X231400000Y-75750000D01*
X231398796Y-75774504D01*
X231395196Y-75798773D01*
X231389235Y-75822571D01*
X231380970Y-75845671D01*
X231370480Y-75867849D01*
X231357867Y-75888893D01*
X231343253Y-75908598D01*
X231326777Y-75926777D01*
X231308598Y-75943253D01*
X231288893Y-75957867D01*
X231267849Y-75970480D01*
X231245671Y-75980970D01*
X231222571Y-75989235D01*
X231198773Y-75995196D01*
X231174504Y-75998796D01*
X231150000Y-76000000D01*
X228325000Y-76000000D01*
X228300496Y-75998796D01*
X228276227Y-75995196D01*
X228252429Y-75989235D01*
X228229329Y-75980970D01*
X228207151Y-75970480D01*
X228186107Y-75957867D01*
X228166402Y-75943253D01*
X228148223Y-75926777D01*
X228131747Y-75908598D01*
X228117133Y-75888893D01*
X228104520Y-75867849D01*
X228094030Y-75845671D01*
X228085765Y-75822571D01*
X228079804Y-75798773D01*
X228076204Y-75774504D01*
X228075000Y-75750000D01*
X228075000Y-74650000D01*
X228076204Y-74625496D01*
X228079804Y-74601227D01*
X228085765Y-74577429D01*
X228094030Y-74554329D01*
X228104520Y-74532151D01*
X228117133Y-74511107D01*
X228131747Y-74491402D01*
X228148223Y-74473223D01*
X228166402Y-74456747D01*
X228186107Y-74442133D01*
X228207151Y-74429520D01*
X228229329Y-74419030D01*
X228252429Y-74410765D01*
X228276227Y-74404804D01*
X228300496Y-74401204D01*
X228325000Y-74400000D01*
X231150000Y-74400000D01*
X231174504Y-74401204D01*
X231174504Y-74401204D01*
G37*
D22*
X229737500Y-75200000D03*
D21*
X231400000Y-51050000D03*
X231400000Y-52550000D03*
D18*
G36*
X231174504Y-53401204D02*
G01*
X231198773Y-53404804D01*
X231222571Y-53410765D01*
X231245671Y-53419030D01*
X231267849Y-53429520D01*
X231288893Y-53442133D01*
X231308598Y-53456747D01*
X231326777Y-53473223D01*
X231343253Y-53491402D01*
X231357867Y-53511107D01*
X231370480Y-53532151D01*
X231380970Y-53554329D01*
X231389235Y-53577429D01*
X231395196Y-53601227D01*
X231398796Y-53625496D01*
X231400000Y-53650000D01*
X231400000Y-54750000D01*
X231398796Y-54774504D01*
X231395196Y-54798773D01*
X231389235Y-54822571D01*
X231380970Y-54845671D01*
X231370480Y-54867849D01*
X231357867Y-54888893D01*
X231343253Y-54908598D01*
X231326777Y-54926777D01*
X231308598Y-54943253D01*
X231288893Y-54957867D01*
X231267849Y-54970480D01*
X231245671Y-54980970D01*
X231222571Y-54989235D01*
X231198773Y-54995196D01*
X231174504Y-54998796D01*
X231150000Y-55000000D01*
X228325000Y-55000000D01*
X228300496Y-54998796D01*
X228276227Y-54995196D01*
X228252429Y-54989235D01*
X228229329Y-54980970D01*
X228207151Y-54970480D01*
X228186107Y-54957867D01*
X228166402Y-54943253D01*
X228148223Y-54926777D01*
X228131747Y-54908598D01*
X228117133Y-54888893D01*
X228104520Y-54867849D01*
X228094030Y-54845671D01*
X228085765Y-54822571D01*
X228079804Y-54798773D01*
X228076204Y-54774504D01*
X228075000Y-54750000D01*
X228075000Y-53650000D01*
X228076204Y-53625496D01*
X228079804Y-53601227D01*
X228085765Y-53577429D01*
X228094030Y-53554329D01*
X228104520Y-53532151D01*
X228117133Y-53511107D01*
X228131747Y-53491402D01*
X228148223Y-53473223D01*
X228166402Y-53456747D01*
X228186107Y-53442133D01*
X228207151Y-53429520D01*
X228229329Y-53419030D01*
X228252429Y-53410765D01*
X228276227Y-53404804D01*
X228300496Y-53401204D01*
X228325000Y-53400000D01*
X231150000Y-53400000D01*
X231174504Y-53401204D01*
X231174504Y-53401204D01*
G37*
D22*
X229737500Y-54200000D03*
D18*
G36*
X226099504Y-53401204D02*
G01*
X226123773Y-53404804D01*
X226147571Y-53410765D01*
X226170671Y-53419030D01*
X226192849Y-53429520D01*
X226213893Y-53442133D01*
X226233598Y-53456747D01*
X226251777Y-53473223D01*
X226268253Y-53491402D01*
X226282867Y-53511107D01*
X226295480Y-53532151D01*
X226305970Y-53554329D01*
X226314235Y-53577429D01*
X226320196Y-53601227D01*
X226323796Y-53625496D01*
X226325000Y-53650000D01*
X226325000Y-54750000D01*
X226323796Y-54774504D01*
X226320196Y-54798773D01*
X226314235Y-54822571D01*
X226305970Y-54845671D01*
X226295480Y-54867849D01*
X226282867Y-54888893D01*
X226268253Y-54908598D01*
X226251777Y-54926777D01*
X226233598Y-54943253D01*
X226213893Y-54957867D01*
X226192849Y-54970480D01*
X226170671Y-54980970D01*
X226147571Y-54989235D01*
X226123773Y-54995196D01*
X226099504Y-54998796D01*
X226075000Y-55000000D01*
X223250000Y-55000000D01*
X223225496Y-54998796D01*
X223201227Y-54995196D01*
X223177429Y-54989235D01*
X223154329Y-54980970D01*
X223132151Y-54970480D01*
X223111107Y-54957867D01*
X223091402Y-54943253D01*
X223073223Y-54926777D01*
X223056747Y-54908598D01*
X223042133Y-54888893D01*
X223029520Y-54867849D01*
X223019030Y-54845671D01*
X223010765Y-54822571D01*
X223004804Y-54798773D01*
X223001204Y-54774504D01*
X223000000Y-54750000D01*
X223000000Y-53650000D01*
X223001204Y-53625496D01*
X223004804Y-53601227D01*
X223010765Y-53577429D01*
X223019030Y-53554329D01*
X223029520Y-53532151D01*
X223042133Y-53511107D01*
X223056747Y-53491402D01*
X223073223Y-53473223D01*
X223091402Y-53456747D01*
X223111107Y-53442133D01*
X223132151Y-53429520D01*
X223154329Y-53419030D01*
X223177429Y-53410765D01*
X223201227Y-53404804D01*
X223225496Y-53401204D01*
X223250000Y-53400000D01*
X226075000Y-53400000D01*
X226099504Y-53401204D01*
X226099504Y-53401204D01*
G37*
D22*
X224662500Y-54200000D03*
D23*
X144800000Y-75200000D03*
X144800000Y-77200000D03*
X145000000Y-93600000D03*
X145000000Y-95600000D03*
D21*
X215600000Y-51050000D03*
X215600000Y-52550000D03*
D18*
G36*
X210299504Y-53401204D02*
G01*
X210323773Y-53404804D01*
X210347571Y-53410765D01*
X210370671Y-53419030D01*
X210392849Y-53429520D01*
X210413893Y-53442133D01*
X210433598Y-53456747D01*
X210451777Y-53473223D01*
X210468253Y-53491402D01*
X210482867Y-53511107D01*
X210495480Y-53532151D01*
X210505970Y-53554329D01*
X210514235Y-53577429D01*
X210520196Y-53601227D01*
X210523796Y-53625496D01*
X210525000Y-53650000D01*
X210525000Y-54750000D01*
X210523796Y-54774504D01*
X210520196Y-54798773D01*
X210514235Y-54822571D01*
X210505970Y-54845671D01*
X210495480Y-54867849D01*
X210482867Y-54888893D01*
X210468253Y-54908598D01*
X210451777Y-54926777D01*
X210433598Y-54943253D01*
X210413893Y-54957867D01*
X210392849Y-54970480D01*
X210370671Y-54980970D01*
X210347571Y-54989235D01*
X210323773Y-54995196D01*
X210299504Y-54998796D01*
X210275000Y-55000000D01*
X207450000Y-55000000D01*
X207425496Y-54998796D01*
X207401227Y-54995196D01*
X207377429Y-54989235D01*
X207354329Y-54980970D01*
X207332151Y-54970480D01*
X207311107Y-54957867D01*
X207291402Y-54943253D01*
X207273223Y-54926777D01*
X207256747Y-54908598D01*
X207242133Y-54888893D01*
X207229520Y-54867849D01*
X207219030Y-54845671D01*
X207210765Y-54822571D01*
X207204804Y-54798773D01*
X207201204Y-54774504D01*
X207200000Y-54750000D01*
X207200000Y-53650000D01*
X207201204Y-53625496D01*
X207204804Y-53601227D01*
X207210765Y-53577429D01*
X207219030Y-53554329D01*
X207229520Y-53532151D01*
X207242133Y-53511107D01*
X207256747Y-53491402D01*
X207273223Y-53473223D01*
X207291402Y-53456747D01*
X207311107Y-53442133D01*
X207332151Y-53429520D01*
X207354329Y-53419030D01*
X207377429Y-53410765D01*
X207401227Y-53404804D01*
X207425496Y-53401204D01*
X207450000Y-53400000D01*
X210275000Y-53400000D01*
X210299504Y-53401204D01*
X210299504Y-53401204D01*
G37*
D22*
X208862500Y-54200000D03*
D18*
G36*
X215374504Y-53401204D02*
G01*
X215398773Y-53404804D01*
X215422571Y-53410765D01*
X215445671Y-53419030D01*
X215467849Y-53429520D01*
X215488893Y-53442133D01*
X215508598Y-53456747D01*
X215526777Y-53473223D01*
X215543253Y-53491402D01*
X215557867Y-53511107D01*
X215570480Y-53532151D01*
X215580970Y-53554329D01*
X215589235Y-53577429D01*
X215595196Y-53601227D01*
X215598796Y-53625496D01*
X215600000Y-53650000D01*
X215600000Y-54750000D01*
X215598796Y-54774504D01*
X215595196Y-54798773D01*
X215589235Y-54822571D01*
X215580970Y-54845671D01*
X215570480Y-54867849D01*
X215557867Y-54888893D01*
X215543253Y-54908598D01*
X215526777Y-54926777D01*
X215508598Y-54943253D01*
X215488893Y-54957867D01*
X215467849Y-54970480D01*
X215445671Y-54980970D01*
X215422571Y-54989235D01*
X215398773Y-54995196D01*
X215374504Y-54998796D01*
X215350000Y-55000000D01*
X212525000Y-55000000D01*
X212500496Y-54998796D01*
X212476227Y-54995196D01*
X212452429Y-54989235D01*
X212429329Y-54980970D01*
X212407151Y-54970480D01*
X212386107Y-54957867D01*
X212366402Y-54943253D01*
X212348223Y-54926777D01*
X212331747Y-54908598D01*
X212317133Y-54888893D01*
X212304520Y-54867849D01*
X212294030Y-54845671D01*
X212285765Y-54822571D01*
X212279804Y-54798773D01*
X212276204Y-54774504D01*
X212275000Y-54750000D01*
X212275000Y-53650000D01*
X212276204Y-53625496D01*
X212279804Y-53601227D01*
X212285765Y-53577429D01*
X212294030Y-53554329D01*
X212304520Y-53532151D01*
X212317133Y-53511107D01*
X212331747Y-53491402D01*
X212348223Y-53473223D01*
X212366402Y-53456747D01*
X212386107Y-53442133D01*
X212407151Y-53429520D01*
X212429329Y-53419030D01*
X212452429Y-53410765D01*
X212476227Y-53404804D01*
X212500496Y-53401204D01*
X212525000Y-53400000D01*
X215350000Y-53400000D01*
X215374504Y-53401204D01*
X215374504Y-53401204D01*
G37*
D22*
X213937500Y-54200000D03*
D21*
X199600000Y-51050000D03*
X199600000Y-52550000D03*
D18*
G36*
X199374504Y-53401204D02*
G01*
X199398773Y-53404804D01*
X199422571Y-53410765D01*
X199445671Y-53419030D01*
X199467849Y-53429520D01*
X199488893Y-53442133D01*
X199508598Y-53456747D01*
X199526777Y-53473223D01*
X199543253Y-53491402D01*
X199557867Y-53511107D01*
X199570480Y-53532151D01*
X199580970Y-53554329D01*
X199589235Y-53577429D01*
X199595196Y-53601227D01*
X199598796Y-53625496D01*
X199600000Y-53650000D01*
X199600000Y-54750000D01*
X199598796Y-54774504D01*
X199595196Y-54798773D01*
X199589235Y-54822571D01*
X199580970Y-54845671D01*
X199570480Y-54867849D01*
X199557867Y-54888893D01*
X199543253Y-54908598D01*
X199526777Y-54926777D01*
X199508598Y-54943253D01*
X199488893Y-54957867D01*
X199467849Y-54970480D01*
X199445671Y-54980970D01*
X199422571Y-54989235D01*
X199398773Y-54995196D01*
X199374504Y-54998796D01*
X199350000Y-55000000D01*
X196525000Y-55000000D01*
X196500496Y-54998796D01*
X196476227Y-54995196D01*
X196452429Y-54989235D01*
X196429329Y-54980970D01*
X196407151Y-54970480D01*
X196386107Y-54957867D01*
X196366402Y-54943253D01*
X196348223Y-54926777D01*
X196331747Y-54908598D01*
X196317133Y-54888893D01*
X196304520Y-54867849D01*
X196294030Y-54845671D01*
X196285765Y-54822571D01*
X196279804Y-54798773D01*
X196276204Y-54774504D01*
X196275000Y-54750000D01*
X196275000Y-53650000D01*
X196276204Y-53625496D01*
X196279804Y-53601227D01*
X196285765Y-53577429D01*
X196294030Y-53554329D01*
X196304520Y-53532151D01*
X196317133Y-53511107D01*
X196331747Y-53491402D01*
X196348223Y-53473223D01*
X196366402Y-53456747D01*
X196386107Y-53442133D01*
X196407151Y-53429520D01*
X196429329Y-53419030D01*
X196452429Y-53410765D01*
X196476227Y-53404804D01*
X196500496Y-53401204D01*
X196525000Y-53400000D01*
X199350000Y-53400000D01*
X199374504Y-53401204D01*
X199374504Y-53401204D01*
G37*
D22*
X197937500Y-54200000D03*
D18*
G36*
X194299504Y-53401204D02*
G01*
X194323773Y-53404804D01*
X194347571Y-53410765D01*
X194370671Y-53419030D01*
X194392849Y-53429520D01*
X194413893Y-53442133D01*
X194433598Y-53456747D01*
X194451777Y-53473223D01*
X194468253Y-53491402D01*
X194482867Y-53511107D01*
X194495480Y-53532151D01*
X194505970Y-53554329D01*
X194514235Y-53577429D01*
X194520196Y-53601227D01*
X194523796Y-53625496D01*
X194525000Y-53650000D01*
X194525000Y-54750000D01*
X194523796Y-54774504D01*
X194520196Y-54798773D01*
X194514235Y-54822571D01*
X194505970Y-54845671D01*
X194495480Y-54867849D01*
X194482867Y-54888893D01*
X194468253Y-54908598D01*
X194451777Y-54926777D01*
X194433598Y-54943253D01*
X194413893Y-54957867D01*
X194392849Y-54970480D01*
X194370671Y-54980970D01*
X194347571Y-54989235D01*
X194323773Y-54995196D01*
X194299504Y-54998796D01*
X194275000Y-55000000D01*
X191450000Y-55000000D01*
X191425496Y-54998796D01*
X191401227Y-54995196D01*
X191377429Y-54989235D01*
X191354329Y-54980970D01*
X191332151Y-54970480D01*
X191311107Y-54957867D01*
X191291402Y-54943253D01*
X191273223Y-54926777D01*
X191256747Y-54908598D01*
X191242133Y-54888893D01*
X191229520Y-54867849D01*
X191219030Y-54845671D01*
X191210765Y-54822571D01*
X191204804Y-54798773D01*
X191201204Y-54774504D01*
X191200000Y-54750000D01*
X191200000Y-53650000D01*
X191201204Y-53625496D01*
X191204804Y-53601227D01*
X191210765Y-53577429D01*
X191219030Y-53554329D01*
X191229520Y-53532151D01*
X191242133Y-53511107D01*
X191256747Y-53491402D01*
X191273223Y-53473223D01*
X191291402Y-53456747D01*
X191311107Y-53442133D01*
X191332151Y-53429520D01*
X191354329Y-53419030D01*
X191377429Y-53410765D01*
X191401227Y-53404804D01*
X191425496Y-53401204D01*
X191450000Y-53400000D01*
X194275000Y-53400000D01*
X194299504Y-53401204D01*
X194299504Y-53401204D01*
G37*
D22*
X192862500Y-54200000D03*
D23*
X177500000Y-116600000D03*
X177500000Y-114600000D03*
D24*
X143050000Y-113000000D03*
X144550000Y-113000000D03*
X144550000Y-118600000D03*
X143050000Y-118600000D03*
X188650000Y-118200000D03*
X187150000Y-118200000D03*
X187300000Y-115700000D03*
X188800000Y-115700000D03*
X188800000Y-113200000D03*
X187300000Y-113200000D03*
D25*
X147895000Y-51200000D03*
X149165000Y-51200000D03*
X150435000Y-51200000D03*
X151705000Y-51200000D03*
D18*
G36*
X228614504Y-108751204D02*
G01*
X228638773Y-108754804D01*
X228662571Y-108760765D01*
X228685671Y-108769030D01*
X228707849Y-108779520D01*
X228728893Y-108792133D01*
X228748598Y-108806747D01*
X228766777Y-108823223D01*
X228783253Y-108841402D01*
X228797867Y-108861107D01*
X228810480Y-108882151D01*
X228820970Y-108904329D01*
X228829235Y-108927429D01*
X228835196Y-108951227D01*
X228838796Y-108975496D01*
X228840000Y-109000000D01*
X228840000Y-110200000D01*
X228838796Y-110224504D01*
X228835196Y-110248773D01*
X228829235Y-110272571D01*
X228820970Y-110295671D01*
X228810480Y-110317849D01*
X228797867Y-110338893D01*
X228783253Y-110358598D01*
X228766777Y-110376777D01*
X228748598Y-110393253D01*
X228728893Y-110407867D01*
X228707849Y-110420480D01*
X228685671Y-110430970D01*
X228662571Y-110439235D01*
X228638773Y-110445196D01*
X228614504Y-110448796D01*
X228590000Y-110450000D01*
X226890000Y-110450000D01*
X226865496Y-110448796D01*
X226841227Y-110445196D01*
X226817429Y-110439235D01*
X226794329Y-110430970D01*
X226772151Y-110420480D01*
X226751107Y-110407867D01*
X226731402Y-110393253D01*
X226713223Y-110376777D01*
X226696747Y-110358598D01*
X226682133Y-110338893D01*
X226669520Y-110317849D01*
X226659030Y-110295671D01*
X226650765Y-110272571D01*
X226644804Y-110248773D01*
X226641204Y-110224504D01*
X226640000Y-110200000D01*
X226640000Y-109000000D01*
X226641204Y-108975496D01*
X226644804Y-108951227D01*
X226650765Y-108927429D01*
X226659030Y-108904329D01*
X226669520Y-108882151D01*
X226682133Y-108861107D01*
X226696747Y-108841402D01*
X226713223Y-108823223D01*
X226731402Y-108806747D01*
X226751107Y-108792133D01*
X226772151Y-108779520D01*
X226794329Y-108769030D01*
X226817429Y-108760765D01*
X226841227Y-108754804D01*
X226865496Y-108751204D01*
X226890000Y-108750000D01*
X228590000Y-108750000D01*
X228614504Y-108751204D01*
X228614504Y-108751204D01*
G37*
D26*
X227740000Y-109600000D03*
D27*
X227740000Y-107100000D03*
X227740000Y-104600000D03*
X227740000Y-102100000D03*
D28*
X197300000Y-73300000D03*
D29*
X194760000Y-73300000D03*
D27*
X227800000Y-81100000D03*
X227800000Y-83600000D03*
X227800000Y-86100000D03*
D18*
G36*
X228674504Y-87751204D02*
G01*
X228698773Y-87754804D01*
X228722571Y-87760765D01*
X228745671Y-87769030D01*
X228767849Y-87779520D01*
X228788893Y-87792133D01*
X228808598Y-87806747D01*
X228826777Y-87823223D01*
X228843253Y-87841402D01*
X228857867Y-87861107D01*
X228870480Y-87882151D01*
X228880970Y-87904329D01*
X228889235Y-87927429D01*
X228895196Y-87951227D01*
X228898796Y-87975496D01*
X228900000Y-88000000D01*
X228900000Y-89200000D01*
X228898796Y-89224504D01*
X228895196Y-89248773D01*
X228889235Y-89272571D01*
X228880970Y-89295671D01*
X228870480Y-89317849D01*
X228857867Y-89338893D01*
X228843253Y-89358598D01*
X228826777Y-89376777D01*
X228808598Y-89393253D01*
X228788893Y-89407867D01*
X228767849Y-89420480D01*
X228745671Y-89430970D01*
X228722571Y-89439235D01*
X228698773Y-89445196D01*
X228674504Y-89448796D01*
X228650000Y-89450000D01*
X226950000Y-89450000D01*
X226925496Y-89448796D01*
X226901227Y-89445196D01*
X226877429Y-89439235D01*
X226854329Y-89430970D01*
X226832151Y-89420480D01*
X226811107Y-89407867D01*
X226791402Y-89393253D01*
X226773223Y-89376777D01*
X226756747Y-89358598D01*
X226742133Y-89338893D01*
X226729520Y-89317849D01*
X226719030Y-89295671D01*
X226710765Y-89272571D01*
X226704804Y-89248773D01*
X226701204Y-89224504D01*
X226700000Y-89200000D01*
X226700000Y-88000000D01*
X226701204Y-87975496D01*
X226704804Y-87951227D01*
X226710765Y-87927429D01*
X226719030Y-87904329D01*
X226729520Y-87882151D01*
X226742133Y-87861107D01*
X226756747Y-87841402D01*
X226773223Y-87823223D01*
X226791402Y-87806747D01*
X226811107Y-87792133D01*
X226832151Y-87779520D01*
X226854329Y-87769030D01*
X226877429Y-87760765D01*
X226901227Y-87754804D01*
X226925496Y-87751204D01*
X226950000Y-87750000D01*
X228650000Y-87750000D01*
X228674504Y-87751204D01*
X228674504Y-87751204D01*
G37*
D26*
X227800000Y-88600000D03*
D18*
G36*
X228674504Y-66751204D02*
G01*
X228698773Y-66754804D01*
X228722571Y-66760765D01*
X228745671Y-66769030D01*
X228767849Y-66779520D01*
X228788893Y-66792133D01*
X228808598Y-66806747D01*
X228826777Y-66823223D01*
X228843253Y-66841402D01*
X228857867Y-66861107D01*
X228870480Y-66882151D01*
X228880970Y-66904329D01*
X228889235Y-66927429D01*
X228895196Y-66951227D01*
X228898796Y-66975496D01*
X228900000Y-67000000D01*
X228900000Y-68200000D01*
X228898796Y-68224504D01*
X228895196Y-68248773D01*
X228889235Y-68272571D01*
X228880970Y-68295671D01*
X228870480Y-68317849D01*
X228857867Y-68338893D01*
X228843253Y-68358598D01*
X228826777Y-68376777D01*
X228808598Y-68393253D01*
X228788893Y-68407867D01*
X228767849Y-68420480D01*
X228745671Y-68430970D01*
X228722571Y-68439235D01*
X228698773Y-68445196D01*
X228674504Y-68448796D01*
X228650000Y-68450000D01*
X226950000Y-68450000D01*
X226925496Y-68448796D01*
X226901227Y-68445196D01*
X226877429Y-68439235D01*
X226854329Y-68430970D01*
X226832151Y-68420480D01*
X226811107Y-68407867D01*
X226791402Y-68393253D01*
X226773223Y-68376777D01*
X226756747Y-68358598D01*
X226742133Y-68338893D01*
X226729520Y-68317849D01*
X226719030Y-68295671D01*
X226710765Y-68272571D01*
X226704804Y-68248773D01*
X226701204Y-68224504D01*
X226700000Y-68200000D01*
X226700000Y-67000000D01*
X226701204Y-66975496D01*
X226704804Y-66951227D01*
X226710765Y-66927429D01*
X226719030Y-66904329D01*
X226729520Y-66882151D01*
X226742133Y-66861107D01*
X226756747Y-66841402D01*
X226773223Y-66823223D01*
X226791402Y-66806747D01*
X226811107Y-66792133D01*
X226832151Y-66779520D01*
X226854329Y-66769030D01*
X226877429Y-66760765D01*
X226901227Y-66754804D01*
X226925496Y-66751204D01*
X226950000Y-66750000D01*
X228650000Y-66750000D01*
X228674504Y-66751204D01*
X228674504Y-66751204D01*
G37*
D26*
X227800000Y-67600000D03*
D27*
X227800000Y-65100000D03*
X227800000Y-62600000D03*
X227800000Y-60100000D03*
D18*
G36*
X212874504Y-66751204D02*
G01*
X212898773Y-66754804D01*
X212922571Y-66760765D01*
X212945671Y-66769030D01*
X212967849Y-66779520D01*
X212988893Y-66792133D01*
X213008598Y-66806747D01*
X213026777Y-66823223D01*
X213043253Y-66841402D01*
X213057867Y-66861107D01*
X213070480Y-66882151D01*
X213080970Y-66904329D01*
X213089235Y-66927429D01*
X213095196Y-66951227D01*
X213098796Y-66975496D01*
X213100000Y-67000000D01*
X213100000Y-68200000D01*
X213098796Y-68224504D01*
X213095196Y-68248773D01*
X213089235Y-68272571D01*
X213080970Y-68295671D01*
X213070480Y-68317849D01*
X213057867Y-68338893D01*
X213043253Y-68358598D01*
X213026777Y-68376777D01*
X213008598Y-68393253D01*
X212988893Y-68407867D01*
X212967849Y-68420480D01*
X212945671Y-68430970D01*
X212922571Y-68439235D01*
X212898773Y-68445196D01*
X212874504Y-68448796D01*
X212850000Y-68450000D01*
X211150000Y-68450000D01*
X211125496Y-68448796D01*
X211101227Y-68445196D01*
X211077429Y-68439235D01*
X211054329Y-68430970D01*
X211032151Y-68420480D01*
X211011107Y-68407867D01*
X210991402Y-68393253D01*
X210973223Y-68376777D01*
X210956747Y-68358598D01*
X210942133Y-68338893D01*
X210929520Y-68317849D01*
X210919030Y-68295671D01*
X210910765Y-68272571D01*
X210904804Y-68248773D01*
X210901204Y-68224504D01*
X210900000Y-68200000D01*
X210900000Y-67000000D01*
X210901204Y-66975496D01*
X210904804Y-66951227D01*
X210910765Y-66927429D01*
X210919030Y-66904329D01*
X210929520Y-66882151D01*
X210942133Y-66861107D01*
X210956747Y-66841402D01*
X210973223Y-66823223D01*
X210991402Y-66806747D01*
X211011107Y-66792133D01*
X211032151Y-66779520D01*
X211054329Y-66769030D01*
X211077429Y-66760765D01*
X211101227Y-66754804D01*
X211125496Y-66751204D01*
X211150000Y-66750000D01*
X212850000Y-66750000D01*
X212874504Y-66751204D01*
X212874504Y-66751204D01*
G37*
D26*
X212000000Y-67600000D03*
D27*
X212000000Y-65100000D03*
X212000000Y-62600000D03*
X212000000Y-60100000D03*
X196000000Y-60100000D03*
X196000000Y-62600000D03*
X196000000Y-65100000D03*
D18*
G36*
X196874504Y-66751204D02*
G01*
X196898773Y-66754804D01*
X196922571Y-66760765D01*
X196945671Y-66769030D01*
X196967849Y-66779520D01*
X196988893Y-66792133D01*
X197008598Y-66806747D01*
X197026777Y-66823223D01*
X197043253Y-66841402D01*
X197057867Y-66861107D01*
X197070480Y-66882151D01*
X197080970Y-66904329D01*
X197089235Y-66927429D01*
X197095196Y-66951227D01*
X197098796Y-66975496D01*
X197100000Y-67000000D01*
X197100000Y-68200000D01*
X197098796Y-68224504D01*
X197095196Y-68248773D01*
X197089235Y-68272571D01*
X197080970Y-68295671D01*
X197070480Y-68317849D01*
X197057867Y-68338893D01*
X197043253Y-68358598D01*
X197026777Y-68376777D01*
X197008598Y-68393253D01*
X196988893Y-68407867D01*
X196967849Y-68420480D01*
X196945671Y-68430970D01*
X196922571Y-68439235D01*
X196898773Y-68445196D01*
X196874504Y-68448796D01*
X196850000Y-68450000D01*
X195150000Y-68450000D01*
X195125496Y-68448796D01*
X195101227Y-68445196D01*
X195077429Y-68439235D01*
X195054329Y-68430970D01*
X195032151Y-68420480D01*
X195011107Y-68407867D01*
X194991402Y-68393253D01*
X194973223Y-68376777D01*
X194956747Y-68358598D01*
X194942133Y-68338893D01*
X194929520Y-68317849D01*
X194919030Y-68295671D01*
X194910765Y-68272571D01*
X194904804Y-68248773D01*
X194901204Y-68224504D01*
X194900000Y-68200000D01*
X194900000Y-67000000D01*
X194901204Y-66975496D01*
X194904804Y-66951227D01*
X194910765Y-66927429D01*
X194919030Y-66904329D01*
X194929520Y-66882151D01*
X194942133Y-66861107D01*
X194956747Y-66841402D01*
X194973223Y-66823223D01*
X194991402Y-66806747D01*
X195011107Y-66792133D01*
X195032151Y-66779520D01*
X195054329Y-66769030D01*
X195077429Y-66760765D01*
X195101227Y-66754804D01*
X195125496Y-66751204D01*
X195150000Y-66750000D01*
X196850000Y-66750000D01*
X196874504Y-66751204D01*
X196874504Y-66751204D01*
G37*
D26*
X196000000Y-67600000D03*
D30*
X152825000Y-75170000D03*
X147775000Y-75170000D03*
X152825000Y-77710000D03*
X147775000Y-77710000D03*
X152825000Y-80250000D03*
X147775000Y-80250000D03*
X152825000Y-82790000D03*
X147775000Y-82790000D03*
X152825000Y-85330000D03*
X147775000Y-85330000D03*
X152825000Y-87870000D03*
X147775000Y-87870000D03*
X152825000Y-90410000D03*
X147775000Y-90410000D03*
X152825000Y-92950000D03*
X147775000Y-92950000D03*
X152825000Y-95490000D03*
X147775000Y-95490000D03*
X152825000Y-98030000D03*
X147775000Y-98030000D03*
D31*
X138700000Y-96900000D03*
D32*
X140700000Y-96900000D03*
X142700000Y-96900000D03*
D33*
X156950000Y-114500000D03*
X155050000Y-114500000D03*
X156000000Y-112500000D03*
X164600000Y-112300000D03*
X163650000Y-114300000D03*
X165550000Y-114300000D03*
X174800000Y-112300000D03*
X173850000Y-114300000D03*
X175750000Y-114300000D03*
X160550000Y-114500000D03*
X158650000Y-114500000D03*
X159600000Y-112500000D03*
X170550000Y-114300000D03*
X168650000Y-114300000D03*
X169600000Y-112300000D03*
D21*
X168300000Y-88850000D03*
X168300000Y-90350000D03*
D20*
X167150000Y-90200000D03*
X165650000Y-90200000D03*
X174250000Y-91400000D03*
X172750000Y-91400000D03*
X172750000Y-90200000D03*
X174250000Y-90200000D03*
X174250000Y-93800000D03*
X172750000Y-93800000D03*
X172750000Y-92600000D03*
X174250000Y-92600000D03*
X176850000Y-91400000D03*
X175350000Y-91400000D03*
X175350000Y-90200000D03*
X176850000Y-90200000D03*
X176850000Y-92600000D03*
X175350000Y-92600000D03*
X175350000Y-93800000D03*
X176850000Y-93800000D03*
X184150000Y-109600000D03*
X182650000Y-109600000D03*
X182650000Y-108400000D03*
X184150000Y-108400000D03*
X151450000Y-106800000D03*
X152950000Y-106800000D03*
X156750000Y-115900000D03*
X155250000Y-115900000D03*
X147950000Y-113000000D03*
X146450000Y-113000000D03*
X154050000Y-106800000D03*
X155550000Y-106800000D03*
X158850000Y-115900000D03*
X160350000Y-115900000D03*
X147950000Y-118600000D03*
X146450000Y-118600000D03*
X166050000Y-57300000D03*
X164550000Y-57300000D03*
X161350000Y-106700000D03*
X159850000Y-106700000D03*
X165350000Y-115700000D03*
X163850000Y-115700000D03*
X162450000Y-106700000D03*
X163950000Y-106700000D03*
X184250000Y-117400000D03*
X182750000Y-117400000D03*
X168850000Y-115700000D03*
X170350000Y-115700000D03*
X182750000Y-115800000D03*
X184250000Y-115800000D03*
X168850000Y-106600000D03*
X170350000Y-106600000D03*
X175550000Y-115700000D03*
X174050000Y-115700000D03*
X172950000Y-106600000D03*
X171450000Y-106600000D03*
X184250000Y-114200000D03*
X182750000Y-114200000D03*
D21*
X156800000Y-117750000D03*
X156800000Y-119250000D03*
X159400000Y-119250000D03*
X159400000Y-117750000D03*
D20*
X178950000Y-106600000D03*
X177450000Y-106600000D03*
X180050000Y-106600000D03*
X181550000Y-106600000D03*
D21*
X162000000Y-119250000D03*
X162000000Y-117750000D03*
X164400000Y-117750000D03*
X164400000Y-119250000D03*
X169600000Y-119250000D03*
X169600000Y-117750000D03*
X162000000Y-113850000D03*
X162000000Y-112350000D03*
X167000000Y-112150000D03*
X167000000Y-113650000D03*
X172200000Y-113650000D03*
X172200000Y-112150000D03*
D22*
X139500000Y-59020000D03*
X142040000Y-59020000D03*
X142040000Y-51400000D03*
D34*
X139500000Y-51400000D03*
D22*
X133250000Y-59020000D03*
X135790000Y-59020000D03*
X135790000Y-51400000D03*
D34*
X133250000Y-51400000D03*
D35*
X155500000Y-104200000D03*
X152100000Y-104200000D03*
X160500000Y-104100000D03*
X163900000Y-104100000D03*
X169100000Y-104000000D03*
X172500000Y-104000000D03*
X180900000Y-104200000D03*
X177500000Y-104200000D03*
D36*
X191060000Y-78600000D03*
D37*
X193600000Y-78600000D03*
X196140000Y-78600000D03*
D30*
X206675000Y-117790000D03*
X211725000Y-117790000D03*
X206675000Y-115250000D03*
X211725000Y-115250000D03*
X206675000Y-112710000D03*
X211725000Y-112710000D03*
X206675000Y-110170000D03*
X211725000Y-110170000D03*
X206675000Y-107630000D03*
X211725000Y-107630000D03*
X206675000Y-105090000D03*
X211725000Y-105090000D03*
X206675000Y-102550000D03*
X211725000Y-102550000D03*
X206675000Y-100010000D03*
X211725000Y-100010000D03*
X206675000Y-97470000D03*
X211725000Y-97470000D03*
X206675000Y-94930000D03*
X211725000Y-94930000D03*
X206675000Y-92390000D03*
X211725000Y-92390000D03*
X206675000Y-89850000D03*
X211725000Y-89850000D03*
X206675000Y-87310000D03*
X211725000Y-87310000D03*
X206675000Y-84770000D03*
X211725000Y-84770000D03*
X206675000Y-82230000D03*
X211725000Y-82230000D03*
X206675000Y-79690000D03*
X211725000Y-79690000D03*
X206675000Y-77150000D03*
X211725000Y-77150000D03*
X206675000Y-74610000D03*
X211725000Y-74610000D03*
D38*
X205530000Y-121475000D03*
X205530000Y-126525000D03*
X208070000Y-121475000D03*
X208070000Y-126525000D03*
X210610000Y-121475000D03*
X210610000Y-126525000D03*
X213150000Y-121475000D03*
X213150000Y-126525000D03*
X215690000Y-121475000D03*
X215690000Y-126525000D03*
X218230000Y-121475000D03*
X218230000Y-126525000D03*
X220770000Y-121475000D03*
X220770000Y-126525000D03*
X223310000Y-121475000D03*
X223310000Y-126525000D03*
X225850000Y-121475000D03*
X225850000Y-126525000D03*
X228390000Y-121475000D03*
X228390000Y-126525000D03*
X230930000Y-121475000D03*
X230930000Y-126525000D03*
X233470000Y-121475000D03*
X233470000Y-126525000D03*
D24*
X128900000Y-124250000D03*
X128900000Y-125750000D03*
D21*
X130300000Y-124250000D03*
X130300000Y-125750000D03*
D28*
X195700000Y-91000000D03*
D29*
X198240000Y-91000000D03*
X195700000Y-88460000D03*
X198240000Y-88460000D03*
X195700000Y-85920000D03*
X198240000Y-85920000D03*
D17*
X119800000Y-97250000D03*
X119800000Y-93750000D03*
X119800000Y-90250000D03*
X119800000Y-86750000D03*
X119800000Y-83250000D03*
X119800000Y-79750000D03*
X119800000Y-76250000D03*
X119800000Y-72750000D03*
X119800000Y-69250000D03*
X119800000Y-65750000D03*
X119800000Y-62250000D03*
X119800000Y-58750000D03*
X119800000Y-100750000D03*
X119800000Y-104250000D03*
X119800000Y-55250000D03*
X119800000Y-51750000D03*
D39*
X191295000Y-118700000D03*
X193835000Y-118700000D03*
X196375000Y-118700000D03*
X190025000Y-121700000D03*
X192565000Y-121700000D03*
X195105000Y-121700000D03*
D12*
X188100000Y-90800006D03*
X188100000Y-90050003D03*
X188100000Y-79700000D03*
X192400000Y-58902001D03*
X222800000Y-83400000D03*
X188100000Y-89300000D03*
X187569668Y-79169668D03*
X191400000Y-58400000D03*
X223500000Y-78300000D03*
X223700000Y-99100000D03*
X186990983Y-78692566D03*
X190500000Y-55800000D03*
X224300000Y-77600000D03*
X224350001Y-94200000D03*
X180500000Y-86625000D03*
X172000000Y-57600000D03*
X174000000Y-57600000D03*
X176000000Y-57600000D03*
X178000000Y-57600000D03*
X180000000Y-57600000D03*
X182000000Y-57600000D03*
X172000000Y-59600000D03*
X174000000Y-59600000D03*
X176000000Y-59600000D03*
X178000000Y-59600000D03*
X180000000Y-59600000D03*
X182000000Y-59600000D03*
X228300000Y-97500000D03*
X229800000Y-97500000D03*
X231100000Y-97500000D03*
X179300000Y-66400000D03*
X180000000Y-66400000D03*
X180750000Y-66550000D03*
X139800000Y-74000000D03*
X139800000Y-73200000D03*
X139800000Y-72400000D03*
X182100000Y-75600000D03*
X180700000Y-75600000D03*
X182100000Y-73800000D03*
X180700000Y-73800000D03*
X169700000Y-74200000D03*
X171100000Y-72100000D03*
X170400000Y-72100000D03*
X169700000Y-72100000D03*
X206600000Y-112700000D03*
X206400000Y-110200000D03*
X211800000Y-107700000D03*
X211700000Y-110200000D03*
X211800000Y-112700000D03*
X122200000Y-53800000D03*
X122200000Y-58000000D03*
X122200000Y-62200000D03*
X122200000Y-66400000D03*
X134600000Y-56000000D03*
X147600000Y-56600000D03*
X147600000Y-57400000D03*
X129600000Y-52200000D03*
X129600000Y-56400000D03*
X129600000Y-60600000D03*
X129600000Y-64800000D03*
X128000000Y-70500000D03*
X130200000Y-70600000D03*
X169200000Y-82700000D03*
X166600000Y-76900000D03*
X169675000Y-78000000D03*
X171400000Y-61500000D03*
X145500000Y-70200000D03*
X146400000Y-70200000D03*
X146400000Y-71800000D03*
X145500000Y-71800000D03*
X134500000Y-63700000D03*
X133600000Y-71600000D03*
X131800000Y-80200000D03*
X133100000Y-86100000D03*
X126500000Y-83500000D03*
X125700000Y-87000000D03*
X130200000Y-74800000D03*
X127100000Y-73200000D03*
X150200000Y-66100000D03*
X153000000Y-66900000D03*
X143200000Y-62900000D03*
X142300000Y-60600000D03*
X127000000Y-94600000D03*
X127000000Y-90400000D03*
X122200000Y-95600000D03*
X122200000Y-88800000D03*
X133200000Y-89600000D03*
X135400000Y-89600000D03*
X133200000Y-95500000D03*
X122500000Y-82300000D03*
X123700000Y-80000000D03*
X140000000Y-87900000D03*
X141300000Y-89800000D03*
X123700000Y-78000000D03*
X134600000Y-102600000D03*
X136100000Y-104700000D03*
X150700000Y-53600000D03*
X147045000Y-51200000D03*
X167400000Y-71100000D03*
X171000000Y-70800000D03*
X133400000Y-110400000D03*
X136400000Y-114700000D03*
X137600000Y-118700000D03*
X139500000Y-112300000D03*
X142700000Y-114500000D03*
X149700000Y-114400000D03*
X153300000Y-128500000D03*
X137200000Y-128000000D03*
X145450000Y-110800000D03*
X147000000Y-109200000D03*
X166700000Y-118400000D03*
X134200000Y-96100000D03*
X155000000Y-60400000D03*
X154400000Y-115400000D03*
X168700000Y-111700000D03*
X177700000Y-89200000D03*
X167700000Y-94949998D03*
X170200000Y-94900000D03*
X173200000Y-82700000D03*
X177700000Y-94200000D03*
X155200000Y-90200000D03*
X149600000Y-79100000D03*
X148000000Y-81600000D03*
X143825000Y-76500000D03*
X168100000Y-63600000D03*
X165900000Y-63600000D03*
X162125000Y-62100000D03*
X162125000Y-67700000D03*
X152825000Y-82790000D03*
X147775000Y-82790000D03*
X170500000Y-101800000D03*
X135107523Y-81050000D03*
X147775000Y-98030000D03*
X152825000Y-98030000D03*
X145100000Y-96400000D03*
X154600000Y-108600000D03*
X162300000Y-108300000D03*
X150500000Y-60500000D03*
X159400000Y-90600000D03*
X140500000Y-99800000D03*
X136000000Y-98300000D03*
X137600000Y-99700000D03*
X153000000Y-104200000D03*
X161400000Y-104125000D03*
X170000000Y-104125000D03*
X178400000Y-104200000D03*
X179200000Y-103700000D03*
X169900000Y-60700000D03*
X169600000Y-57900000D03*
X164121232Y-61321232D03*
X170900000Y-67700000D03*
X176000000Y-62200000D03*
X176900000Y-121000000D03*
X175600000Y-123200000D03*
X178100000Y-123200000D03*
X178600000Y-116600000D03*
X173500000Y-77500000D03*
X201000000Y-88600000D03*
X193100000Y-80800000D03*
X143100000Y-117700000D03*
X174800000Y-95275000D03*
X185600000Y-85800000D03*
X185000000Y-81800000D03*
X175200000Y-101800000D03*
X184800000Y-95600000D03*
X184800000Y-94400000D03*
X184200000Y-107600000D03*
X201000000Y-123000000D03*
X202200000Y-117600000D03*
X183400000Y-122200000D03*
X184800000Y-89600000D03*
X222000000Y-95800000D03*
X223300000Y-97500000D03*
X226100000Y-97500000D03*
X224700000Y-97500000D03*
X231400000Y-92200000D03*
X231400000Y-71200000D03*
X191500000Y-52900000D03*
X194300000Y-52900000D03*
X192900000Y-52900000D03*
X207500000Y-52900000D03*
X208900000Y-52900000D03*
X210300000Y-52900000D03*
X223300000Y-52900000D03*
X224700000Y-52900000D03*
X226100000Y-52900000D03*
X223300000Y-76500000D03*
X224700000Y-76500000D03*
X226100000Y-76500000D03*
X222000000Y-54600000D03*
X206200000Y-54600000D03*
X190200000Y-54600000D03*
X200500000Y-51000000D03*
X232300000Y-51000000D03*
X216500000Y-51000000D03*
X193300000Y-82725010D03*
X208070000Y-126525000D03*
X210610000Y-126525000D03*
X193400000Y-76700000D03*
X177700000Y-83225010D03*
X181700000Y-83225000D03*
X200621239Y-87121239D03*
X183200000Y-57600000D03*
X184900000Y-57600000D03*
X186600000Y-57600000D03*
X186600000Y-58600000D03*
X184900000Y-58600000D03*
X183200000Y-58600000D03*
X183200000Y-56500000D03*
X184900000Y-56500000D03*
X186600000Y-56500000D03*
X201700000Y-80500000D03*
X202400000Y-83900000D03*
X196400000Y-106299996D03*
X226300000Y-117300000D03*
X224700000Y-120900000D03*
X227400000Y-125400000D03*
X229400000Y-125400000D03*
X232000000Y-125400000D03*
X232200000Y-128300000D03*
X214400000Y-128400000D03*
X216700000Y-123900000D03*
X234200000Y-123900000D03*
X157300000Y-55700000D03*
X143074990Y-54600000D03*
X138880000Y-81260000D03*
X221980000Y-74800000D03*
X230370000Y-110990000D03*
X230410000Y-90130000D03*
X230330000Y-68870000D03*
X214620000Y-69610000D03*
X198710000Y-68870000D03*
X147090000Y-54580000D03*
X180110000Y-98570000D03*
X142974990Y-112100000D03*
X188800000Y-119100000D03*
X188349998Y-114300000D03*
X188200000Y-116700000D03*
X166800000Y-101700000D03*
X143218738Y-99581262D03*
X145306041Y-94450002D03*
X136000000Y-102200000D03*
X201700000Y-72000000D03*
X164700000Y-89200000D03*
X229300000Y-94300000D03*
X163449989Y-58600000D03*
X126800000Y-100800000D03*
X126800000Y-105000000D03*
X164500000Y-54500000D03*
X169600000Y-79200000D03*
X154900000Y-75200000D03*
X172700000Y-79300000D03*
X168600000Y-72375000D03*
X183100000Y-81800000D03*
X186400000Y-83225000D03*
X182500000Y-90500000D03*
X175400000Y-89300000D03*
X170225000Y-100100000D03*
X167500000Y-100100000D03*
X145400000Y-76200000D03*
X202300000Y-120200000D03*
X203300000Y-110200000D03*
X183174424Y-94950384D03*
X202300000Y-89700000D03*
X200621238Y-89700000D03*
X146600000Y-53600000D03*
X174346232Y-99440000D03*
X181275000Y-102770000D03*
X144025000Y-110800000D03*
X151400000Y-105800000D03*
X159800000Y-105800000D03*
X168800000Y-105700000D03*
X174800000Y-106125000D03*
X171900000Y-92100000D03*
X169200000Y-88800000D03*
X160300000Y-90600000D03*
X157200000Y-90100000D03*
X142900000Y-95500000D03*
X147775000Y-95490000D03*
X152800000Y-96400000D03*
X204600000Y-81700000D03*
X207200000Y-83300000D03*
X204599998Y-104100000D03*
X228100000Y-69600000D03*
X227300000Y-91200000D03*
X226900000Y-112100000D03*
X227300000Y-94300000D03*
X177400931Y-86000764D03*
X176821145Y-85525001D03*
X176100000Y-85300000D03*
X176100000Y-84499998D03*
X174700000Y-82700000D03*
X175035411Y-83370822D03*
X175683329Y-83748584D03*
X176225000Y-82900000D03*
X164200000Y-80600000D03*
X164616026Y-79975961D03*
X165800000Y-79800000D03*
X167600000Y-77800000D03*
X171300000Y-78300000D03*
X171800000Y-79000000D03*
X187800000Y-71900000D03*
X172500000Y-83000000D03*
X172300000Y-80100000D03*
X147775000Y-92950000D03*
X152825000Y-92950000D03*
X145100000Y-93600000D03*
X157300000Y-57700000D03*
X232519998Y-121400000D03*
X225200000Y-115100000D03*
X204500000Y-75600000D03*
X203900000Y-76000000D03*
X203300000Y-76400000D03*
X153400000Y-111500000D03*
X178600000Y-114600000D03*
X177900000Y-121000000D03*
X157900000Y-115200000D03*
X162843707Y-114275000D03*
X171400000Y-115025000D03*
X168700000Y-109200000D03*
X172900000Y-123200000D03*
X153900000Y-114500000D03*
X133800000Y-105600000D03*
X143200000Y-101700000D03*
X136900000Y-86800000D03*
X136900000Y-81400000D03*
X133600000Y-79500000D03*
X144700000Y-81600000D03*
X171500000Y-82900000D03*
X180800000Y-69800000D03*
X122700000Y-78100000D03*
X131800000Y-99400000D03*
X131300000Y-98900000D03*
X125000000Y-76400000D03*
X165300000Y-59600000D03*
X168100000Y-58000000D03*
X168046447Y-61296017D03*
X165200000Y-61300000D03*
X165900000Y-65800000D03*
X167200000Y-65800000D03*
X174800000Y-64500000D03*
X174800000Y-63400000D03*
X173200000Y-63400000D03*
X173200000Y-64500000D03*
X174000000Y-64500000D03*
X174000000Y-63400000D03*
X197200000Y-70200000D03*
X155000000Y-66200000D03*
X166400000Y-59600000D03*
X166100000Y-61700000D03*
X167807224Y-59556348D03*
X166830425Y-62034787D03*
X172225000Y-99700000D03*
X171175000Y-98400000D03*
X168500000Y-101300000D03*
X170200000Y-102850001D03*
X164700000Y-90200000D03*
X153500000Y-50900000D03*
X163900000Y-62200000D03*
X150917844Y-94686384D03*
X157200000Y-73000000D03*
X152900000Y-77700000D03*
X149560000Y-57090000D03*
X149900000Y-95100000D03*
X156000000Y-72800000D03*
X150400000Y-77700000D03*
X148510000Y-57250000D03*
X159174999Y-75525001D03*
X159700000Y-76500000D03*
X180800000Y-92600000D03*
X153200000Y-86600000D03*
X156800000Y-86600000D03*
X223200000Y-118500000D03*
X186500000Y-92600000D03*
X177602494Y-91998753D03*
X173550002Y-92200000D03*
X177500000Y-93200000D03*
X223800000Y-117800000D03*
X187300000Y-92300000D03*
X173503489Y-90799244D03*
X171500000Y-91000000D03*
X155400000Y-93174990D03*
X149500000Y-92025000D03*
X222400000Y-117100000D03*
X187800000Y-91600000D03*
X157300000Y-99825000D03*
X174072391Y-95093098D03*
X166900000Y-57300000D03*
X216000000Y-105100000D03*
X179700000Y-110100000D03*
X202300000Y-118900000D03*
X214900000Y-100000000D03*
X213600000Y-95000000D03*
X212400000Y-89800000D03*
X211725000Y-84770000D03*
X211700000Y-79700000D03*
X211800000Y-74600000D03*
X215400000Y-102500000D03*
X214200000Y-97500000D03*
X213074999Y-92474999D03*
X211700000Y-87300000D03*
X211700000Y-82200000D03*
X211700000Y-77200000D03*
X191900000Y-111600000D03*
X191400000Y-110000000D03*
X190200000Y-108600000D03*
X203800000Y-100300000D03*
X206600000Y-97400000D03*
X188500000Y-107200000D03*
X202100000Y-97875000D03*
X205200000Y-92400000D03*
X183212272Y-110194631D03*
X206700000Y-87400000D03*
X206700000Y-82200000D03*
X208900000Y-77100000D03*
X191800000Y-110800000D03*
X190700000Y-109400000D03*
X189300000Y-108000000D03*
X202900000Y-99075000D03*
X205900000Y-94900000D03*
X187800000Y-106825000D03*
X201400000Y-96775000D03*
X203500000Y-90500000D03*
X183400000Y-107600000D03*
X206700000Y-84800000D03*
X206700000Y-79700000D03*
X179100000Y-108300000D03*
X182500000Y-104800000D03*
X209400000Y-74600000D03*
X144300000Y-57925000D03*
X145400000Y-78300000D03*
X158300000Y-73300000D03*
X150400000Y-57100000D03*
X135900000Y-78450001D03*
X144499990Y-92149984D03*
X135250000Y-78925000D03*
X144388130Y-90263865D03*
X136500000Y-77900000D03*
X145300000Y-88800000D03*
X147400000Y-79200000D03*
X138200000Y-70800000D03*
X139500000Y-64600000D03*
X144244976Y-78944976D03*
X164625000Y-97000000D03*
X169746231Y-101653769D03*
X165675000Y-98200000D03*
X177600000Y-98000000D03*
X174375752Y-103900000D03*
X162500000Y-98900000D03*
X179800000Y-117000000D03*
X179600000Y-115600000D03*
X169600000Y-114700000D03*
X162800000Y-98050001D03*
X179900000Y-113700000D03*
X156000000Y-117600000D03*
X157700000Y-119800000D03*
X168175000Y-98700000D03*
X158450003Y-119800000D03*
X160226910Y-119742303D03*
X168500000Y-119800000D03*
X162000000Y-116349960D03*
X167000000Y-115725000D03*
X167713539Y-115956003D03*
X168700000Y-76300000D03*
X166600000Y-80000000D03*
X155747998Y-80625001D03*
X157100000Y-91100000D03*
X144400000Y-91200000D03*
X143800000Y-84470000D03*
X155500000Y-91700000D03*
X155500000Y-79900000D03*
X162200000Y-55100000D03*
X164797039Y-87685195D03*
X161600000Y-55700000D03*
X164700000Y-85700000D03*
X161000000Y-55100000D03*
X164700000Y-86800000D03*
X160400000Y-55700000D03*
X160900000Y-81600000D03*
X159800000Y-55100000D03*
X158100000Y-86400000D03*
X159200000Y-55700000D03*
X159074990Y-72900000D03*
X159600000Y-88225000D03*
X159700000Y-86675000D03*
X167200000Y-104125000D03*
X163400000Y-98700000D03*
X166725000Y-98400000D03*
X165100000Y-98774990D03*
X174200000Y-98400000D03*
X173821232Y-104421232D03*
X155500000Y-61700000D03*
X133500000Y-60800000D03*
X136500000Y-97000000D03*
X205500000Y-121500000D03*
X208100000Y-121500000D03*
X210600000Y-121500000D03*
X213200000Y-121500000D03*
X213100000Y-126400000D03*
X215700000Y-121500000D03*
X215700000Y-125300000D03*
X218300000Y-121400000D03*
X218300000Y-125500000D03*
X220800000Y-121500000D03*
X220800000Y-127100000D03*
X223300000Y-121500000D03*
X223400000Y-126800000D03*
X225800000Y-121500000D03*
X225800000Y-126500000D03*
X224500000Y-122625000D03*
X228400000Y-127000000D03*
X224900000Y-123400000D03*
X230900000Y-126500000D03*
X190025000Y-121700000D03*
X192600000Y-120900000D03*
X195100000Y-118600000D03*
X191295000Y-118700000D03*
X193800000Y-120600000D03*
X196400000Y-118200000D03*
X173600000Y-116900000D03*
X172800000Y-116300000D03*
X172600000Y-115300000D03*
X172075000Y-114500000D03*
D40*
X192199994Y-94900000D02*
X203800000Y-94900000D01*
X218500000Y-99200000D02*
X218500000Y-110140000D01*
X215200000Y-95900000D02*
X218500000Y-99200000D01*
X204800000Y-95900000D02*
X215200000Y-95900000D01*
X203800000Y-94900000D02*
X204800000Y-95900000D01*
X218500000Y-110140000D02*
X220450000Y-112090000D01*
X188100000Y-90800006D02*
X192199994Y-94900000D01*
X219000000Y-108100000D02*
X220450000Y-109550000D01*
X192449997Y-94400000D02*
X202500000Y-94400000D01*
X188100000Y-90050003D02*
X192449997Y-94400000D01*
X202500000Y-94400000D02*
X203100000Y-93800000D01*
X203100000Y-93800000D02*
X214900000Y-93800000D01*
X214900000Y-93800000D02*
X219000000Y-97900000D01*
X219000000Y-97900000D02*
X219000000Y-108100000D01*
X188100000Y-79154998D02*
X192100000Y-75154998D01*
X188100000Y-79700000D02*
X188100000Y-79154998D01*
X192100000Y-75154998D02*
X192100000Y-63100000D01*
X192100000Y-63100000D02*
X192100000Y-59202001D01*
X192100000Y-59202001D02*
X192400000Y-58902001D01*
X220450000Y-83470000D02*
X222630000Y-83470000D01*
X222630000Y-83470000D02*
X222700000Y-83400000D01*
X222700000Y-83400000D02*
X222800000Y-83400000D01*
X219400000Y-100880000D02*
X220450000Y-101930000D01*
X215400000Y-93300000D02*
X219400000Y-97300000D01*
X202700000Y-93300000D02*
X215400000Y-93300000D01*
X188100000Y-89300000D02*
X188100000Y-89400000D01*
X188225002Y-89525002D02*
X188352001Y-89525002D01*
X188100000Y-89400000D02*
X188225002Y-89525002D01*
X192700000Y-93873001D02*
X202126999Y-93873001D01*
X219400000Y-97300000D02*
X219400000Y-100880000D01*
X188352001Y-89525002D02*
X192700000Y-93873001D01*
X202126999Y-93873001D02*
X202700000Y-93300000D01*
X187869667Y-78869669D02*
X187869667Y-78730333D01*
X187569668Y-79169668D02*
X187869667Y-78869669D01*
X187869667Y-78730333D02*
X191400000Y-75200000D01*
X191400000Y-75200000D02*
X191400000Y-58400000D01*
X220540000Y-78300000D02*
X220450000Y-78390000D01*
X223500000Y-78300000D02*
X220540000Y-78300000D01*
X220740000Y-99100000D02*
X220450000Y-99390000D01*
X223700000Y-99100000D02*
X220740000Y-99100000D01*
X187290982Y-78392567D02*
X187307433Y-78392567D01*
X186990983Y-78692566D02*
X187290982Y-78392567D01*
X187307433Y-78392567D02*
X190500000Y-75200000D01*
X190500000Y-75200000D02*
X190500000Y-55900000D01*
X190500000Y-55900000D02*
X190500000Y-55800000D01*
X220450000Y-75850000D02*
X222200000Y-77600000D01*
X222200000Y-77600000D02*
X224300000Y-77600000D01*
X221211999Y-95810999D02*
X222822998Y-94200000D01*
X220450000Y-96850000D02*
X221211999Y-96088001D01*
X221211999Y-96088001D02*
X221211999Y-95810999D01*
X222822998Y-94200000D02*
X224350001Y-94200000D01*
X217600000Y-87700000D02*
X217600000Y-91460000D01*
X202900000Y-85600000D02*
X204600000Y-83900000D01*
X202900000Y-91800000D02*
X202900000Y-85600000D01*
X184025000Y-86625000D02*
X184800000Y-87400000D01*
X180500000Y-86625000D02*
X184025000Y-86625000D01*
X213800000Y-83900000D02*
X217600000Y-87700000D01*
X184800000Y-87400000D02*
X187100000Y-87400000D01*
X217600000Y-91460000D02*
X220450000Y-94310000D01*
X187100000Y-87400000D02*
X192900000Y-93200000D01*
X204600000Y-83900000D02*
X213800000Y-83900000D01*
X192900000Y-93200000D02*
X201500000Y-93200000D01*
X201500000Y-93200000D02*
X202900000Y-91800000D01*
X147895000Y-51200000D02*
X147045000Y-51200000D01*
X165450000Y-89200000D02*
X165650000Y-89000000D01*
X144800000Y-77200000D02*
X144525000Y-77200000D01*
X144525000Y-77200000D02*
X143825000Y-76500000D01*
X145100000Y-95600000D02*
X145100000Y-96400000D01*
X152100000Y-104200000D02*
X153000000Y-104200000D01*
X160500000Y-104100000D02*
X161375000Y-104100000D01*
X161375000Y-104100000D02*
X161400000Y-104125000D01*
X169100000Y-104000000D02*
X169875000Y-104000000D01*
X169875000Y-104000000D02*
X170000000Y-104125000D01*
X177500000Y-104200000D02*
X178400000Y-104200000D01*
X177400000Y-116600000D02*
X178600000Y-116600000D01*
X143050000Y-118600000D02*
X143050000Y-117750000D01*
X143050000Y-117750000D02*
X143100000Y-117700000D01*
X184150000Y-109600000D02*
X184150000Y-108400000D01*
X184150000Y-108400000D02*
X184150000Y-107650000D01*
X184150000Y-107650000D02*
X184200000Y-107600000D01*
X231400000Y-93050000D02*
X231400000Y-92200000D01*
X231400000Y-72050000D02*
X231400000Y-71200000D01*
X199600000Y-51050000D02*
X200450000Y-51050000D01*
X200450000Y-51050000D02*
X200500000Y-51000000D01*
X231400000Y-51050000D02*
X232250000Y-51050000D01*
X232250000Y-51050000D02*
X232300000Y-51000000D01*
X215600000Y-51050000D02*
X216450000Y-51050000D01*
X216450000Y-51050000D02*
X216500000Y-51000000D01*
X143050000Y-113000000D02*
X143050000Y-112175010D01*
X143050000Y-112175010D02*
X142974990Y-112100000D01*
X188800000Y-118200000D02*
X188800000Y-119100000D01*
X188800000Y-113200000D02*
X188800000Y-113849998D01*
X188800000Y-113849998D02*
X188349998Y-114300000D01*
X188800000Y-115700000D02*
X188800000Y-116100000D01*
X188800000Y-116100000D02*
X188200000Y-116700000D01*
X164700000Y-89200000D02*
X165450000Y-89200000D01*
X164550000Y-57300000D02*
X164550000Y-54550000D01*
X164550000Y-54550000D02*
X164500000Y-54500000D01*
D41*
X230440000Y-102100000D02*
X233150000Y-99390000D01*
X227740000Y-102100000D02*
X230440000Y-102100000D01*
X230480000Y-104600000D02*
X233150000Y-101930000D01*
X227740000Y-104600000D02*
X230480000Y-104600000D01*
X230520000Y-107100000D02*
X233150000Y-104470000D01*
X227740000Y-107100000D02*
X230520000Y-107100000D01*
X230560000Y-109600000D02*
X233150000Y-107010000D01*
X227740000Y-109600000D02*
X230560000Y-109600000D01*
D40*
X147745000Y-75200000D02*
X147775000Y-75170000D01*
X144800000Y-75200000D02*
X147745000Y-75200000D01*
X152825000Y-75170000D02*
X154870000Y-75170000D01*
X154870000Y-75170000D02*
X154900000Y-75200000D01*
X172750000Y-93800000D02*
X172750000Y-90200000D01*
X175350000Y-90200000D02*
X175350000Y-93800000D01*
X175350000Y-90200000D02*
X175350000Y-89350000D01*
X175350000Y-89350000D02*
X175400000Y-89300000D01*
X144800000Y-75200000D02*
X144800000Y-76000000D01*
X144800000Y-76000000D02*
X145000000Y-76200000D01*
X145000000Y-76200000D02*
X145400000Y-76200000D01*
D42*
X211725000Y-117790000D02*
X211725000Y-115250000D01*
X206675000Y-117790000D02*
X206675000Y-115250000D01*
X209650000Y-115250000D02*
X206675000Y-115250000D01*
X211725000Y-115250000D02*
X209650000Y-115250000D01*
X202300000Y-120200000D02*
X203300000Y-119200000D01*
X204590000Y-117800000D02*
X203300000Y-117800000D01*
X204600000Y-117790000D02*
X204590000Y-117800000D01*
X206675000Y-117790000D02*
X204600000Y-117790000D01*
X203300000Y-119200000D02*
X203300000Y-117800000D01*
X203300000Y-117800000D02*
X203300000Y-110200000D01*
X202300000Y-120200000D02*
X202300000Y-120900000D01*
X205530000Y-124130000D02*
X205530000Y-126525000D01*
X202300000Y-120900000D02*
X205530000Y-124130000D01*
D40*
X147024264Y-53600000D02*
X146600000Y-53600000D01*
X149655000Y-53600000D02*
X147024264Y-53600000D01*
X151705000Y-51550000D02*
X149655000Y-53600000D01*
X151705000Y-51200000D02*
X151705000Y-51550000D01*
X168850000Y-106600000D02*
X168850000Y-106650000D01*
X151450000Y-106800000D02*
X151450000Y-105850000D01*
X151450000Y-105850000D02*
X151400000Y-105800000D01*
X159850000Y-106700000D02*
X159850000Y-105850000D01*
X159850000Y-105850000D02*
X159800000Y-105800000D01*
X168850000Y-106600000D02*
X168850000Y-105750000D01*
X168850000Y-105750000D02*
X168800000Y-105700000D01*
X177450000Y-106600000D02*
X175275000Y-106600000D01*
X175275000Y-106600000D02*
X174800000Y-106125000D01*
X172250000Y-92600000D02*
X171900000Y-92250000D01*
X171900000Y-92250000D02*
X171900000Y-92100000D01*
X172750000Y-92600000D02*
X172250000Y-92600000D01*
X168300000Y-88850000D02*
X169150000Y-88850000D01*
X169150000Y-88850000D02*
X169200000Y-88800000D01*
D43*
X152825000Y-95490000D02*
X152825000Y-96375000D01*
X152825000Y-96375000D02*
X152800000Y-96400000D01*
D42*
X227100000Y-70600000D02*
X228100000Y-69600000D01*
X227100000Y-78000000D02*
X227100000Y-70600000D01*
X224900000Y-80200000D02*
X227100000Y-78000000D01*
X224900000Y-88800000D02*
X224900000Y-80200000D01*
X227300000Y-91200000D02*
X224900000Y-88800000D01*
X225000000Y-101000000D02*
X227300000Y-98700000D01*
X209700000Y-109000000D02*
X214100000Y-109000000D01*
X209300000Y-108600000D02*
X209700000Y-109000000D01*
X224999999Y-118000001D02*
X224999999Y-116800001D01*
X209300000Y-104600000D02*
X209300000Y-108600000D01*
X208500000Y-103800000D02*
X209300000Y-104600000D01*
X215200000Y-110100000D02*
X215200000Y-117100000D01*
X204599998Y-104100000D02*
X204899997Y-103800001D01*
X204899997Y-103800001D02*
X208500000Y-103800000D01*
X214100000Y-109000000D02*
X215200000Y-110100000D01*
X227000000Y-112200000D02*
X225000000Y-110200000D01*
X215200000Y-117100000D02*
X217400000Y-119300000D01*
X223700000Y-119300000D02*
X224999999Y-118000001D01*
X217400000Y-119300000D02*
X223700000Y-119300000D01*
X225000000Y-110200000D02*
X225000000Y-101000000D01*
X224999999Y-116800001D02*
X227000000Y-114800000D01*
X227000000Y-114800000D02*
X227000000Y-112200000D01*
X227300000Y-98700000D02*
X227300000Y-94300000D01*
X227300000Y-94300000D02*
X227300000Y-91200000D01*
D40*
X219990000Y-91090000D02*
X220450000Y-91090000D01*
X218300000Y-89400000D02*
X219990000Y-91090000D01*
X213100000Y-81000000D02*
X218300000Y-86200000D01*
X204500000Y-81000000D02*
X213100000Y-81000000D01*
X218300000Y-86200000D02*
X218300000Y-89400000D01*
X201700000Y-83800000D02*
X201950000Y-83550000D01*
X201700000Y-91300000D02*
X201700000Y-83800000D01*
X200300000Y-92700000D02*
X201700000Y-91300000D01*
X193400000Y-92700000D02*
X200300000Y-92700000D01*
X201950000Y-83550000D02*
X204500000Y-81000000D01*
X177400931Y-86000764D02*
X184200764Y-86000764D01*
X184200764Y-86000764D02*
X185000000Y-86800000D01*
X185000000Y-86800000D02*
X187500000Y-86800000D01*
X187500000Y-86800000D02*
X193400000Y-92700000D01*
X219935001Y-88035001D02*
X220450000Y-88550000D01*
X219950000Y-88550000D02*
X220450000Y-88550000D01*
X219150000Y-87750000D02*
X219950000Y-88550000D01*
X203784999Y-80415001D02*
X213715001Y-80415001D01*
X200096238Y-84103762D02*
X203784999Y-80415001D01*
X213715001Y-80415001D02*
X219150000Y-85850000D01*
X200096238Y-91403762D02*
X200096238Y-84103762D01*
X199424999Y-92075001D02*
X200096238Y-91403762D01*
X193675001Y-92075001D02*
X199424999Y-92075001D01*
X176821145Y-85525001D02*
X177099692Y-85525001D01*
X177148930Y-85475763D02*
X184498761Y-85475763D01*
X184498761Y-85475763D02*
X185422998Y-86400000D01*
X219150000Y-85850000D02*
X219150000Y-87750000D01*
X177099692Y-85525001D02*
X177148930Y-85475763D01*
X185422998Y-86400000D02*
X188000000Y-86400000D01*
X188000000Y-86400000D02*
X193675001Y-92075001D01*
X220220000Y-80700000D02*
X220450000Y-80930000D01*
X199300000Y-84000000D02*
X199300000Y-85388998D01*
X220280000Y-81100000D02*
X220280000Y-80880000D01*
X199315001Y-86436001D02*
X199300000Y-86451002D01*
X205100000Y-78200000D02*
X199300000Y-84000000D01*
X199300000Y-85388998D02*
X199315001Y-85403999D01*
X217600000Y-78200000D02*
X205100000Y-78200000D01*
X220280000Y-80880000D02*
X217600000Y-78200000D01*
X190495011Y-87295011D02*
X188200001Y-85000001D01*
X220450000Y-80930000D02*
X220280000Y-81100000D01*
X199300000Y-86700000D02*
X198704989Y-87295011D01*
X199315001Y-85403999D02*
X199315001Y-86436001D01*
X199300000Y-86451002D02*
X199300000Y-86700000D01*
X198704989Y-87295011D02*
X190495011Y-87295011D01*
X188200001Y-85000001D02*
X176399999Y-85000001D01*
X176399999Y-85000001D02*
X176100000Y-85300000D01*
X201100000Y-81400000D02*
X197100000Y-85400000D01*
X201100000Y-80200000D02*
X201100000Y-81400000D01*
X197100000Y-86111002D02*
X196216001Y-86995001D01*
X205300000Y-76000000D02*
X201100000Y-80200000D01*
X191395001Y-86995001D02*
X188899998Y-84499998D01*
X212900000Y-76000000D02*
X205300000Y-76000000D01*
X220450000Y-73310000D02*
X215590000Y-73310000D01*
X215590000Y-73310000D02*
X212900000Y-76000000D01*
X197100000Y-85400000D02*
X197100000Y-86111002D01*
X196216001Y-86995001D02*
X191395001Y-86995001D01*
X188899998Y-84499998D02*
X176524264Y-84499998D01*
X176524264Y-84499998D02*
X176100000Y-84499998D01*
D41*
X230440000Y-81100000D02*
X233150000Y-78390000D01*
X227800000Y-81100000D02*
X230440000Y-81100000D01*
X230480000Y-83600000D02*
X233150000Y-80930000D01*
X227800000Y-83600000D02*
X230480000Y-83600000D01*
X230520000Y-86100000D02*
X233150000Y-83470000D01*
X227800000Y-86100000D02*
X230520000Y-86100000D01*
X230560000Y-88600000D02*
X233150000Y-86010000D01*
X227800000Y-88600000D02*
X230560000Y-88600000D01*
X230560000Y-67600000D02*
X233150000Y-65010000D01*
X227800000Y-67600000D02*
X230560000Y-67600000D01*
X230520000Y-65100000D02*
X233150000Y-62470000D01*
X227800000Y-65100000D02*
X230520000Y-65100000D01*
X230480000Y-62600000D02*
X233150000Y-59930000D01*
X227800000Y-62600000D02*
X230480000Y-62600000D01*
X230440000Y-60100000D02*
X233150000Y-57390000D01*
X227800000Y-60100000D02*
X230440000Y-60100000D01*
D40*
X219000000Y-53760000D02*
X220450000Y-52310000D01*
X219000000Y-55200000D02*
X219000000Y-53760000D01*
X213200000Y-56200000D02*
X218000000Y-56200000D01*
X207200000Y-62200000D02*
X213200000Y-56200000D01*
X207200000Y-69700000D02*
X207200000Y-62200000D01*
X176125001Y-81274999D02*
X190174999Y-81274999D01*
X174700000Y-82700000D02*
X176125001Y-81274999D01*
X192150011Y-83250011D02*
X195949989Y-83250011D01*
X195949989Y-83250011D02*
X199100000Y-80100000D01*
X218000000Y-56200000D02*
X219000000Y-55200000D01*
X199100000Y-77800000D02*
X207200000Y-69700000D01*
X190174999Y-81274999D02*
X192150011Y-83250011D01*
X199100000Y-80100000D02*
X199100000Y-77800000D01*
X218700000Y-67900000D02*
X218700000Y-61680000D01*
X217700000Y-68900000D02*
X218700000Y-67900000D01*
X208600000Y-68900000D02*
X217700000Y-68900000D01*
X199700000Y-80200000D02*
X199700000Y-77800000D01*
X175035411Y-83312587D02*
X176022997Y-82325001D01*
X218700000Y-61680000D02*
X220450000Y-59930000D01*
X176022997Y-82325001D02*
X190225001Y-82325001D01*
X199700000Y-77800000D02*
X208600000Y-68900000D01*
X190225001Y-82325001D02*
X191600000Y-83700000D01*
X191600000Y-83700000D02*
X196200000Y-83700000D01*
X175035411Y-83370822D02*
X175035411Y-83312587D01*
X196200000Y-83700000D02*
X199700000Y-80200000D01*
X175683329Y-83748584D02*
X175683329Y-83783329D01*
X221800000Y-68900000D02*
X220450000Y-67550000D01*
X206800000Y-71900000D02*
X220200000Y-71900000D01*
X200600000Y-78100000D02*
X206800000Y-71900000D01*
X200600000Y-81322998D02*
X200600000Y-78100000D01*
X221800000Y-70300000D02*
X221800000Y-68900000D01*
X175683329Y-83748584D02*
X177446572Y-83748584D01*
X177447999Y-83750011D02*
X189749989Y-83750011D01*
X189749989Y-83750011D02*
X190599978Y-84600000D01*
X190599978Y-84600000D02*
X197322998Y-84600000D01*
X220200000Y-71900000D02*
X221800000Y-70300000D01*
X177446572Y-83748584D02*
X177447999Y-83750011D01*
X197322998Y-84600000D02*
X200600000Y-81322998D01*
X219410000Y-70090000D02*
X220450000Y-70090000D01*
X218100000Y-71400000D02*
X219410000Y-70090000D01*
X206700000Y-71400000D02*
X218100000Y-71400000D01*
X200100000Y-78000000D02*
X206700000Y-71400000D01*
X200100000Y-81000000D02*
X200100000Y-78000000D01*
X176300000Y-82900000D02*
X176500000Y-82700000D01*
X176500000Y-82700000D02*
X189600000Y-82700000D01*
X176225000Y-82900000D02*
X176300000Y-82900000D01*
X189600000Y-82700000D02*
X191000010Y-84100010D01*
X191000010Y-84100010D02*
X196999990Y-84100010D01*
X196999990Y-84100010D02*
X200100000Y-81000000D01*
D41*
X214760000Y-67600000D02*
X217350000Y-65010000D01*
X212000000Y-67600000D02*
X214760000Y-67600000D01*
X214720000Y-65100000D02*
X217350000Y-62470000D01*
X212000000Y-65100000D02*
X214720000Y-65100000D01*
X214680000Y-62600000D02*
X217350000Y-59930000D01*
X212000000Y-62600000D02*
X214680000Y-62600000D01*
X214640000Y-60100000D02*
X217350000Y-57390000D01*
X212000000Y-60100000D02*
X214640000Y-60100000D01*
D40*
X163900001Y-80300001D02*
X164200000Y-80600000D01*
X164674999Y-63125001D02*
X163900001Y-63899999D01*
X188650000Y-52310000D02*
X187888001Y-51548001D01*
X168451999Y-51548001D02*
X165300000Y-54700000D01*
X187888001Y-51548001D02*
X168451999Y-51548001D01*
X165300000Y-54700000D02*
X165300000Y-58400000D01*
X165300000Y-58400000D02*
X164674999Y-59025001D01*
X163900001Y-63899999D02*
X163900001Y-80300001D01*
X164674999Y-59025001D02*
X164674999Y-63125001D01*
X188650000Y-59950000D02*
X188650000Y-59930000D01*
X164616026Y-71383974D02*
X167700000Y-68300000D01*
X167700000Y-68300000D02*
X185500000Y-68300000D01*
X185500000Y-68300000D02*
X186600000Y-67200000D01*
X186600000Y-67200000D02*
X186600000Y-62000000D01*
X164616026Y-79975961D02*
X164616026Y-71383974D01*
X186600000Y-62000000D02*
X188650000Y-59950000D01*
X187500000Y-68700000D02*
X188650000Y-67550000D01*
X168700000Y-68700000D02*
X187500000Y-68700000D01*
X165500000Y-71900000D02*
X168700000Y-68700000D01*
X165800000Y-79800000D02*
X165500000Y-79500000D01*
X165500000Y-79500000D02*
X165500000Y-71900000D01*
X187660000Y-69100000D02*
X188650000Y-70090000D01*
X170200000Y-69100000D02*
X187660000Y-69100000D01*
X167600000Y-77800000D02*
X167600000Y-71700000D01*
X167600000Y-71700000D02*
X170200000Y-69100000D01*
D41*
X198760000Y-67600000D02*
X201350000Y-65010000D01*
X196000000Y-67600000D02*
X198760000Y-67600000D01*
X198720000Y-65100000D02*
X201350000Y-62470000D01*
X196000000Y-65100000D02*
X198720000Y-65100000D01*
X198680000Y-62600000D02*
X201350000Y-59930000D01*
X196000000Y-62600000D02*
X198680000Y-62600000D01*
X198640000Y-60100000D02*
X201350000Y-57390000D01*
X196000000Y-60100000D02*
X198640000Y-60100000D01*
D40*
X203888001Y-51548001D02*
X204650000Y-52310000D01*
X189637001Y-53062999D02*
X192225001Y-50474999D01*
X189637001Y-70762999D02*
X189637001Y-53062999D01*
X189322999Y-71077001D02*
X189637001Y-70762999D01*
X202814999Y-50474999D02*
X203888001Y-51548001D01*
X171300000Y-78300000D02*
X178522999Y-71077001D01*
X192225001Y-50474999D02*
X202814999Y-50474999D01*
X178522999Y-71077001D02*
X180401231Y-71077001D01*
X180401231Y-71077001D02*
X180403242Y-71074990D01*
X180403242Y-71074990D02*
X182396758Y-71074990D01*
X182396758Y-71074990D02*
X182398769Y-71077001D01*
X182398769Y-71077001D02*
X189322999Y-71077001D01*
X172700000Y-78100000D02*
X178600000Y-78100000D01*
X171800000Y-79000000D02*
X172700000Y-78100000D01*
X181600000Y-78100000D02*
X186100000Y-73600000D01*
X178600000Y-78100000D02*
X181600000Y-78100000D01*
X186100000Y-73600000D02*
X187500000Y-72200000D01*
X187500000Y-72200000D02*
X187800000Y-71900000D01*
X205900000Y-68800000D02*
X204650000Y-67550000D01*
X205900000Y-70400000D02*
X205900000Y-68800000D01*
X198500000Y-77800000D02*
X205900000Y-70400000D01*
X198500000Y-79500000D02*
X198500000Y-77800000D01*
X172500000Y-82500000D02*
X174300000Y-80700000D01*
X174300000Y-80700000D02*
X190700000Y-80700000D01*
X172500000Y-83000000D02*
X172500000Y-82500000D01*
X190700000Y-80700000D02*
X192100000Y-82100000D01*
X192100000Y-82100000D02*
X195900000Y-82100000D01*
X195900000Y-82100000D02*
X198500000Y-79500000D01*
X204650000Y-70950000D02*
X204650000Y-70090000D01*
X197900000Y-77700000D02*
X204650000Y-70950000D01*
X172500000Y-80300000D02*
X191588501Y-80300000D01*
X172300000Y-80100000D02*
X172500000Y-80300000D01*
X191588501Y-80300000D02*
X192888501Y-81600000D01*
X192888501Y-81600000D02*
X195300000Y-81600000D01*
X195300000Y-81600000D02*
X197900000Y-79000000D01*
X197900000Y-79000000D02*
X197900000Y-77700000D01*
X147725000Y-93000000D02*
X147775000Y-92950000D01*
D43*
X177400000Y-113900000D02*
X177400000Y-114600000D01*
X176800000Y-113300000D02*
X177400000Y-113900000D01*
X174100000Y-113300000D02*
X176800000Y-113300000D01*
X173850000Y-113550000D02*
X174100000Y-113300000D01*
X173850000Y-114300000D02*
X173850000Y-113550000D01*
X177400000Y-114600000D02*
X178600000Y-114600000D01*
X158650000Y-114500000D02*
X158600000Y-114500000D01*
X158600000Y-114500000D02*
X157900000Y-115200000D01*
X163650000Y-114300000D02*
X162868707Y-114300000D01*
X162868707Y-114300000D02*
X162843707Y-114275000D01*
X169350001Y-113549999D02*
X171149999Y-113549999D01*
X168650000Y-114300000D02*
X168650000Y-114250000D01*
X168650000Y-114250000D02*
X169350001Y-113549999D01*
X171149999Y-113549999D02*
X171400000Y-113800000D01*
X171400000Y-113800000D02*
X171400000Y-115025000D01*
X155050000Y-114500000D02*
X153900000Y-114500000D01*
D40*
X134200000Y-119500000D02*
X134200000Y-117600000D01*
X130300000Y-124250000D02*
X130300000Y-123400000D01*
X130300000Y-123400000D02*
X134200000Y-119500000D01*
X171500000Y-82475736D02*
X170500000Y-81475736D01*
X171500000Y-82900000D02*
X171500000Y-82475736D01*
X170500000Y-78322998D02*
X175200000Y-73622998D01*
X170500000Y-81475736D02*
X170500000Y-78322998D01*
X175200000Y-73622998D02*
X179122998Y-69700000D01*
X179122998Y-69700000D02*
X180700000Y-69700000D01*
X180700000Y-69700000D02*
X180800000Y-69800000D01*
X197200000Y-73200000D02*
X197300000Y-73300000D01*
X197200000Y-70200000D02*
X197200000Y-73200000D01*
X153500000Y-66200000D02*
X155000000Y-66200000D01*
X144700000Y-57400000D02*
X153500000Y-66200000D01*
X142800000Y-57400000D02*
X144700000Y-57400000D01*
X141540000Y-59020000D02*
X141540000Y-58660000D01*
X141540000Y-58660000D02*
X142800000Y-57400000D01*
X166399999Y-61400001D02*
X166100000Y-61700000D01*
X166400000Y-59600000D02*
X166399999Y-61400001D01*
X166830425Y-61769575D02*
X166830425Y-62034787D01*
X167807224Y-59556348D02*
X167807224Y-60792776D01*
X167807224Y-60792776D02*
X166830425Y-61769575D01*
X144550000Y-113000000D02*
X146450000Y-113000000D01*
X144550000Y-118600000D02*
X146450000Y-118600000D01*
X187300000Y-117650000D02*
X187300000Y-118200000D01*
X187050000Y-117400000D02*
X187300000Y-117650000D01*
X184250000Y-117400000D02*
X187050000Y-117400000D01*
X171925001Y-99400001D02*
X171925001Y-99325001D01*
X172225000Y-99700000D02*
X171925001Y-99400001D01*
X171925001Y-99325001D02*
X171200000Y-98600000D01*
X171200000Y-98600000D02*
X171200000Y-98425000D01*
X171200000Y-98425000D02*
X171175000Y-98400000D01*
X168500000Y-101600000D02*
X168500000Y-101300000D01*
X170200000Y-102850001D02*
X169750001Y-102850001D01*
X169750001Y-102850001D02*
X168500000Y-101600000D01*
X165650000Y-90200000D02*
X164700000Y-90200000D01*
X153900000Y-51300000D02*
X153500000Y-50900000D01*
X163550000Y-61850000D02*
X163550000Y-61050000D01*
X163900000Y-62200000D02*
X163550000Y-61850000D01*
X163550000Y-61050000D02*
X163974999Y-60625001D01*
X163974999Y-60625001D02*
X163974999Y-52674999D01*
X163974999Y-52674999D02*
X162600000Y-51300000D01*
X162600000Y-51300000D02*
X153900000Y-51300000D01*
X150700010Y-94468550D02*
X150917844Y-94686384D01*
X150700010Y-85699990D02*
X150700010Y-94468550D01*
X150900000Y-85500000D02*
X150700010Y-85699990D01*
X150900000Y-78560000D02*
X150900000Y-85500000D01*
X152825000Y-77710000D02*
X151750000Y-77710000D01*
X151750000Y-77710000D02*
X150900000Y-78560000D01*
X152835000Y-77700000D02*
X152825000Y-77710000D01*
X152900000Y-77700000D02*
X152835000Y-77700000D01*
X157200000Y-59500000D02*
X157200000Y-73000000D01*
X156100000Y-58400000D02*
X157200000Y-59500000D01*
X150922998Y-58400000D02*
X156100000Y-58400000D01*
X149560000Y-57090000D02*
X149612998Y-57090000D01*
X149612998Y-57090000D02*
X150922998Y-58400000D01*
X150390000Y-77710000D02*
X150400000Y-77700000D01*
X147775000Y-77710000D02*
X150390000Y-77710000D01*
X150400000Y-78124264D02*
X150400000Y-77700000D01*
X149900000Y-95100000D02*
X150399999Y-94600001D01*
X150399999Y-94600001D02*
X150400000Y-78124264D01*
X148530000Y-57230000D02*
X148510000Y-57250000D01*
X156000000Y-72800000D02*
X156299999Y-72500001D01*
X156299999Y-72500001D02*
X156299999Y-59599999D01*
X156299999Y-59599999D02*
X155700000Y-59000000D01*
X155700000Y-59000000D02*
X150600000Y-59000000D01*
X150600000Y-59000000D02*
X148830000Y-57230000D01*
X148830000Y-57230000D02*
X148530000Y-57230000D01*
X159149998Y-75500000D02*
X159174999Y-75525001D01*
X157600000Y-75500000D02*
X159149998Y-75500000D01*
X152825000Y-80250000D02*
X152850000Y-80250000D01*
X152850000Y-80250000D02*
X157600000Y-75500000D01*
X159800000Y-76400000D02*
X159700000Y-76500000D01*
X155500000Y-76400000D02*
X157100000Y-74800000D01*
X146604998Y-76400000D02*
X155500000Y-76400000D01*
X145925001Y-77079997D02*
X146604998Y-76400000D01*
X145925001Y-78425001D02*
X145925001Y-77079997D01*
X159800000Y-75373000D02*
X159800000Y-76400000D01*
X159227000Y-74800000D02*
X159800000Y-75373000D01*
X147775000Y-79600000D02*
X147975000Y-79400000D01*
X147775000Y-80250000D02*
X147775000Y-79600000D01*
X147975000Y-79400000D02*
X147975000Y-78875000D01*
X157100000Y-74800000D02*
X159227000Y-74800000D01*
X147975000Y-78875000D02*
X147700000Y-78600000D01*
X147700000Y-78600000D02*
X146100000Y-78600000D01*
X146100000Y-78600000D02*
X145925001Y-78425001D01*
X153200000Y-85705000D02*
X152825000Y-85330000D01*
X153200000Y-86600000D02*
X153200000Y-85705000D01*
X156800000Y-87700000D02*
X156800000Y-86600000D01*
X180800000Y-91000000D02*
X178000000Y-88200000D01*
X180800000Y-92600000D02*
X180800000Y-91000000D01*
X178000000Y-88200000D02*
X164900000Y-88200000D01*
X164900000Y-88200000D02*
X164000000Y-89100000D01*
X164000000Y-89100000D02*
X158200000Y-89100000D01*
X158200000Y-89100000D02*
X156800000Y-87700000D01*
X216525001Y-100725001D02*
X216525001Y-113925001D01*
X214800000Y-99000000D02*
X216525001Y-100725001D01*
X204700000Y-99000000D02*
X214800000Y-99000000D01*
X201949999Y-96249999D02*
X204700000Y-99000000D01*
X186500000Y-92600000D02*
X190149999Y-96249999D01*
X190149999Y-96249999D02*
X201949999Y-96249999D01*
X216525001Y-113925001D02*
X221400000Y-118800000D01*
X221400000Y-118800000D02*
X222900000Y-118800000D01*
X222900000Y-118800000D02*
X223200000Y-118500000D01*
X177448753Y-91998753D02*
X176850000Y-91400000D01*
X177602494Y-91998753D02*
X177448753Y-91998753D01*
X176850000Y-90200000D02*
X176850000Y-91400000D01*
X150099989Y-86579989D02*
X148850000Y-85330000D01*
X149200000Y-94400000D02*
X150099989Y-93500011D01*
X162200000Y-95800000D02*
X157600000Y-100400000D01*
X150099989Y-93500011D02*
X150099989Y-86579989D01*
X175400000Y-95800000D02*
X162200000Y-95800000D01*
X176100000Y-95100000D02*
X175400000Y-95800000D01*
X176100000Y-91650000D02*
X176100000Y-95100000D01*
X176850000Y-91400000D02*
X176350000Y-91400000D01*
X157600000Y-100400000D02*
X146500000Y-100400000D01*
X148850000Y-85330000D02*
X147775000Y-85330000D01*
X176350000Y-91400000D02*
X176100000Y-91650000D01*
X145925001Y-94859997D02*
X145925001Y-99825001D01*
X146384998Y-94400000D02*
X145925001Y-94859997D01*
X145925001Y-99825001D02*
X146300000Y-100200000D01*
X146500000Y-94400000D02*
X146384998Y-94400000D01*
X146500000Y-94400000D02*
X149200000Y-94400000D01*
X146500000Y-100400000D02*
X146300000Y-100200000D01*
X174250000Y-93800000D02*
X174250000Y-92600000D01*
X173850000Y-92200000D02*
X174250000Y-92600000D01*
X173550002Y-92200000D02*
X173850000Y-92200000D01*
X173550002Y-92624264D02*
X173550002Y-92200000D01*
X173550002Y-94155000D02*
X173550002Y-92624264D01*
X172000000Y-94500000D02*
X173205002Y-94500000D01*
X155000000Y-93700000D02*
X171200000Y-93700000D01*
X173205002Y-94500000D02*
X173550002Y-94155000D01*
X154625001Y-93325001D02*
X155000000Y-93700000D01*
X171200000Y-93700000D02*
X172000000Y-94500000D01*
X151750000Y-87870000D02*
X151000021Y-88619979D01*
X154625001Y-92275641D02*
X154625001Y-93325001D01*
X151000021Y-88619979D02*
X151000021Y-91000021D01*
X151000021Y-91000021D02*
X151700000Y-91700000D01*
X151700000Y-91700000D02*
X154049360Y-91700000D01*
X152825000Y-87870000D02*
X151750000Y-87870000D01*
X154049360Y-91700000D02*
X154625001Y-92275641D01*
X176850000Y-93800000D02*
X176850000Y-92600000D01*
X177500000Y-93200000D02*
X177500000Y-92800000D01*
X177500000Y-92800000D02*
X177300000Y-92600000D01*
X177300000Y-92600000D02*
X176850000Y-92600000D01*
X176850000Y-95250000D02*
X176850000Y-93800000D01*
X175774999Y-96325001D02*
X176850000Y-95250000D01*
X162274999Y-96325001D02*
X175774999Y-96325001D01*
X146100000Y-100800000D02*
X157800000Y-100800000D01*
X143700000Y-98400000D02*
X146100000Y-100800000D01*
X143700000Y-93350000D02*
X143700000Y-98400000D01*
X147775000Y-87870000D02*
X146700000Y-87870000D01*
X146700000Y-87870000D02*
X145900000Y-88670000D01*
X145900000Y-88670000D02*
X145900000Y-91600000D01*
X145900000Y-91600000D02*
X144700000Y-92800000D01*
X157800000Y-100800000D02*
X162274999Y-96325001D01*
X144700000Y-92800000D02*
X144250000Y-92800000D01*
X144250000Y-92800000D02*
X143700000Y-93350000D01*
X217200000Y-100400000D02*
X217200000Y-113300000D01*
X215300000Y-98500000D02*
X217200000Y-100400000D01*
X190900000Y-95900000D02*
X202600000Y-95900000D01*
X205200000Y-98500000D02*
X215300000Y-98500000D01*
X202600000Y-95900000D02*
X205200000Y-98500000D01*
X187300000Y-92300000D02*
X190900000Y-95900000D01*
X217200000Y-113300000D02*
X221800000Y-117900000D01*
X221800000Y-117900000D02*
X223700000Y-117900000D01*
X223700000Y-117900000D02*
X223800000Y-117800000D01*
X173679981Y-91400000D02*
X174250000Y-91400000D01*
X173503489Y-90799244D02*
X173503489Y-91223508D01*
X173503489Y-91223508D02*
X173679981Y-91400000D01*
X174250000Y-91400000D02*
X174250000Y-90200000D01*
X153432998Y-90410000D02*
X152825000Y-90410000D01*
X173503489Y-90799244D02*
X173503489Y-89700988D01*
X173102501Y-89300000D02*
X171800000Y-89300000D01*
X171800000Y-89300000D02*
X168600000Y-92500000D01*
X168600000Y-92500000D02*
X155522998Y-92500000D01*
X173503489Y-89700988D02*
X173102501Y-89300000D01*
X155522998Y-92500000D02*
X153432998Y-90410000D01*
X148850000Y-90410000D02*
X147775000Y-90410000D01*
X155674990Y-92900000D02*
X155400000Y-93174990D01*
X171500000Y-91000000D02*
X169600000Y-92900000D01*
X169600000Y-92900000D02*
X155674990Y-92900000D01*
X147885000Y-90410000D02*
X147775000Y-90410000D01*
X149500000Y-92025000D02*
X147885000Y-90410000D01*
X222200000Y-116900000D02*
X222400000Y-117100000D01*
X222100000Y-116900000D02*
X222200000Y-116900000D01*
X217800000Y-112600000D02*
X222100000Y-116900000D01*
X187800000Y-91600000D02*
X187800000Y-92024264D01*
X217800000Y-99400000D02*
X217800000Y-112600000D01*
X187800000Y-92024264D02*
X191275736Y-95500000D01*
X191275736Y-95500000D02*
X203500000Y-95500000D01*
X203500000Y-95500000D02*
X204400000Y-96400000D01*
X204400000Y-96400000D02*
X214800000Y-96400000D01*
X214800000Y-96400000D02*
X217800000Y-99400000D01*
X157599999Y-99525001D02*
X157599999Y-99500001D01*
X157300000Y-99825000D02*
X157599999Y-99525001D01*
X157599999Y-99500001D02*
X161400000Y-95700000D01*
X161400000Y-95700000D02*
X162900000Y-94200000D01*
X170277002Y-94200000D02*
X169300000Y-94200000D01*
X171170100Y-95093098D02*
X170277002Y-94200000D01*
X174072391Y-95093098D02*
X171170100Y-95093098D01*
X162900000Y-94200000D02*
X169300000Y-94200000D01*
X169300000Y-94200000D02*
X169400000Y-94200000D01*
D44*
X119800000Y-72900000D02*
X123600000Y-72900000D01*
X130000000Y-73200000D02*
X132400000Y-73200000D01*
X129653998Y-73200000D02*
X130000000Y-73200000D01*
X128203997Y-74650001D02*
X129653998Y-73200000D01*
X125350001Y-74650001D02*
X128203997Y-74650001D01*
X123600000Y-72900000D02*
X125350001Y-74650001D01*
X117400000Y-68300000D02*
X119800000Y-65900000D01*
X117400000Y-70900000D02*
X117400000Y-68300000D01*
X119800000Y-72900000D02*
X119400000Y-72900000D01*
X119400000Y-72900000D02*
X117400000Y-70900000D01*
D40*
X166900000Y-57300000D02*
X166050000Y-57300000D01*
X211735000Y-105100000D02*
X211725000Y-105090000D01*
X216000000Y-105100000D02*
X211735000Y-105100000D01*
X180900000Y-111300000D02*
X189000000Y-111300000D01*
X179700000Y-110100000D02*
X180900000Y-111300000D01*
X189935002Y-111300000D02*
X193335002Y-114700000D01*
X189000000Y-111300000D02*
X189935002Y-111300000D01*
X193335002Y-114700000D02*
X196700000Y-114700000D01*
X196700000Y-114700000D02*
X200900000Y-118900000D01*
X200900000Y-118900000D02*
X202300000Y-118900000D01*
X214890000Y-100010000D02*
X214900000Y-100000000D01*
X211725000Y-100010000D02*
X214890000Y-100010000D01*
X213530000Y-94930000D02*
X213600000Y-95000000D01*
X211725000Y-94930000D02*
X213530000Y-94930000D01*
X212350000Y-89850000D02*
X212400000Y-89800000D01*
X211725000Y-89850000D02*
X212350000Y-89850000D01*
X211775000Y-102500000D02*
X211725000Y-102550000D01*
X215400000Y-102500000D02*
X211775000Y-102500000D01*
X211755000Y-97500000D02*
X211725000Y-97470000D01*
X214200000Y-97500000D02*
X211755000Y-97500000D01*
X212990000Y-92390000D02*
X213074999Y-92474999D01*
X211725000Y-92390000D02*
X212990000Y-92390000D01*
X202070000Y-107630000D02*
X206675000Y-107630000D01*
X191900000Y-111600000D02*
X198100000Y-111600000D01*
X198100000Y-111600000D02*
X202070000Y-107630000D01*
X204350000Y-102550000D02*
X206675000Y-102550000D01*
X196800000Y-110100000D02*
X204350000Y-102550000D01*
X191400000Y-110000000D02*
X191500000Y-110100000D01*
X191500000Y-110100000D02*
X196800000Y-110100000D01*
X206630000Y-97470000D02*
X206675000Y-97470000D01*
X206605000Y-97400000D02*
X206675000Y-97470000D01*
X206600000Y-97400000D02*
X206605000Y-97400000D01*
X203700000Y-100400000D02*
X203800000Y-100300000D01*
X203700000Y-100500000D02*
X203700000Y-100400000D01*
X190200000Y-108600000D02*
X195600000Y-108600000D01*
X195600000Y-108600000D02*
X203700000Y-100500000D01*
X206675000Y-92425000D02*
X206675000Y-92390000D01*
X206665000Y-92400000D02*
X206675000Y-92390000D01*
X205200000Y-92400000D02*
X206665000Y-92400000D01*
X201825000Y-97875000D02*
X202100000Y-97875000D01*
X188500000Y-107200000D02*
X192500000Y-107200000D01*
X192500000Y-107200000D02*
X201825000Y-97875000D01*
X183212272Y-110162272D02*
X182650000Y-109600000D01*
X183212272Y-110194631D02*
X183212272Y-110162272D01*
X206665000Y-87300000D02*
X206675000Y-87310000D01*
X206700000Y-87335000D02*
X206675000Y-87310000D01*
X206700000Y-87400000D02*
X206700000Y-87335000D01*
X206725000Y-77100000D02*
X206675000Y-77150000D01*
X208900000Y-77100000D02*
X206725000Y-77100000D01*
X203110000Y-105090000D02*
X206675000Y-105090000D01*
X191800000Y-110800000D02*
X197400000Y-110800000D01*
X197400000Y-110800000D02*
X203110000Y-105090000D01*
X205490000Y-100010000D02*
X206675000Y-100010000D01*
X190700000Y-109400000D02*
X196100000Y-109400000D01*
X196100000Y-109400000D02*
X205490000Y-100010000D01*
X206675000Y-94930000D02*
X206675000Y-95025000D01*
X206645000Y-94900000D02*
X206675000Y-94930000D01*
X205900000Y-94900000D02*
X206645000Y-94900000D01*
X202825000Y-99075000D02*
X202900000Y-99075000D01*
X189300000Y-108000000D02*
X193900000Y-108000000D01*
X193900000Y-108000000D02*
X202825000Y-99075000D01*
X206675000Y-89925000D02*
X206675000Y-89850000D01*
X206625000Y-89800000D02*
X206675000Y-89850000D01*
X203800000Y-89800000D02*
X206625000Y-89800000D01*
X203500000Y-90500000D02*
X203500000Y-90100000D01*
X203500000Y-90100000D02*
X203800000Y-89800000D01*
X201400000Y-96800000D02*
X201400000Y-96775000D01*
X191600000Y-106600000D02*
X201400000Y-96800000D01*
X187800000Y-106825000D02*
X188025000Y-106600000D01*
X188025000Y-106600000D02*
X191600000Y-106600000D01*
X182650000Y-108400000D02*
X182650000Y-108350000D01*
X182650000Y-108350000D02*
X183400000Y-107600000D01*
X206700000Y-84795000D02*
X206675000Y-84770000D01*
X206700000Y-84800000D02*
X206700000Y-84795000D01*
X179100000Y-108300000D02*
X181500000Y-108300000D01*
X181500000Y-108300000D02*
X182500000Y-107300000D01*
X182500000Y-107300000D02*
X182500000Y-104800000D01*
X206685000Y-74600000D02*
X206675000Y-74610000D01*
X209400000Y-74600000D02*
X206685000Y-74600000D01*
X156000000Y-112500000D02*
X156000000Y-111530000D01*
X156000000Y-111530000D02*
X156910000Y-110620000D01*
X159450000Y-112350000D02*
X159600000Y-112500000D01*
X159450000Y-110620000D02*
X159450000Y-112350000D01*
X161990000Y-112340000D02*
X162000000Y-112350000D01*
X161990000Y-110620000D02*
X161990000Y-112340000D01*
X164600000Y-110690000D02*
X164530000Y-110620000D01*
X164600000Y-112300000D02*
X164600000Y-110690000D01*
X167000000Y-111650000D02*
X167070000Y-111580000D01*
X167000000Y-112150000D02*
X167000000Y-111650000D01*
X167070000Y-111580000D02*
X167070000Y-110620000D01*
X169610000Y-112290000D02*
X169600000Y-112300000D01*
X169610000Y-110620000D02*
X169610000Y-112290000D01*
X172200000Y-111730660D02*
X172200000Y-112150000D01*
X172150000Y-111680660D02*
X172200000Y-111730660D01*
X172150000Y-110620000D02*
X172150000Y-111680660D01*
X174690000Y-112190000D02*
X174800000Y-112300000D01*
X174690000Y-110620000D02*
X174690000Y-112190000D01*
X156910000Y-119860000D02*
X156910000Y-120780000D01*
X156800000Y-119750000D02*
X156910000Y-119860000D01*
X156800000Y-119250000D02*
X156800000Y-119750000D01*
X159400000Y-120730000D02*
X159450000Y-120780000D01*
X159400000Y-119250000D02*
X159400000Y-120730000D01*
X161990000Y-119760000D02*
X161990000Y-120780000D01*
X162000000Y-119750000D02*
X161990000Y-119760000D01*
X162000000Y-119250000D02*
X162000000Y-119750000D01*
X164530000Y-119880000D02*
X164530000Y-120780000D01*
X164400000Y-119750000D02*
X164530000Y-119880000D01*
X164400000Y-119250000D02*
X164400000Y-119750000D01*
X169600000Y-119709340D02*
X169600000Y-119250000D01*
X169610000Y-119719340D02*
X169600000Y-119709340D01*
X169610000Y-120780000D02*
X169610000Y-119719340D01*
X156750000Y-114700000D02*
X156950000Y-114500000D01*
X156750000Y-115900000D02*
X156750000Y-114700000D01*
X165350000Y-114500000D02*
X165550000Y-114300000D01*
X165350000Y-115700000D02*
X165350000Y-114500000D01*
X175550000Y-114500000D02*
X175750000Y-114300000D01*
X175550000Y-115700000D02*
X175550000Y-114500000D01*
X160350000Y-114700000D02*
X160550000Y-114500000D01*
X160350000Y-115900000D02*
X160350000Y-114700000D01*
X170550000Y-115500000D02*
X170350000Y-115700000D01*
X170550000Y-114300000D02*
X170550000Y-115500000D01*
X144300000Y-57925000D02*
X144300000Y-73900000D01*
X144300000Y-73900000D02*
X143900000Y-74300000D01*
X143900000Y-74300000D02*
X143300000Y-74900000D01*
X143300000Y-74900000D02*
X143300000Y-76700000D01*
X143300000Y-76700000D02*
X143300000Y-77205002D01*
X143300000Y-77205002D02*
X144394998Y-78300000D01*
X144394998Y-78300000D02*
X145400000Y-78300000D01*
X150824264Y-57100000D02*
X150400000Y-57100000D01*
X155700000Y-57100000D02*
X150824264Y-57100000D01*
X158300000Y-73300000D02*
X158300000Y-59700000D01*
X158300000Y-59700000D02*
X155700000Y-57100000D01*
X144600000Y-84400000D02*
X144600000Y-87300000D01*
X135900000Y-78450001D02*
X138650001Y-78450001D01*
X138650001Y-78450001D02*
X144600000Y-84400000D01*
X144799989Y-91849985D02*
X144499990Y-92149984D01*
X145300000Y-91349974D02*
X144799989Y-91849985D01*
X145300000Y-89777002D02*
X145300000Y-91349974D01*
X144600000Y-87300000D02*
X144600000Y-89077002D01*
X144600000Y-89077002D02*
X145300000Y-89777002D01*
X143863865Y-90263865D02*
X144388130Y-90263865D01*
X143000000Y-89400000D02*
X143863865Y-90263865D01*
X135250000Y-78925000D02*
X143000000Y-86675000D01*
X143000000Y-86675000D02*
X143000000Y-89400000D01*
X138790000Y-77900000D02*
X145300000Y-84410000D01*
X145300000Y-84410000D02*
X145300000Y-88375736D01*
X145300000Y-88375736D02*
X145300000Y-88800000D01*
X136500000Y-77900000D02*
X138790000Y-77900000D01*
X146200000Y-79200000D02*
X147400000Y-79200000D01*
X145500000Y-79900000D02*
X146200000Y-79200000D01*
X142200000Y-79900000D02*
X145500000Y-79900000D01*
X137800000Y-75500000D02*
X142200000Y-79900000D01*
X138200000Y-70800000D02*
X137800000Y-71200000D01*
X137800000Y-71200000D02*
X137800000Y-75500000D01*
X144200000Y-78900000D02*
X144244976Y-78944976D01*
X142200000Y-78900000D02*
X144200000Y-78900000D01*
X138500000Y-75200000D02*
X142200000Y-78900000D01*
X138500000Y-71300000D02*
X138500000Y-75200000D01*
X139500000Y-64600000D02*
X139500000Y-70300000D01*
X139500000Y-70300000D02*
X138500000Y-71300000D01*
X164325000Y-96700000D02*
X164625000Y-97000000D01*
X162800000Y-96700000D02*
X164325000Y-96700000D01*
X157700000Y-101800000D02*
X162800000Y-96700000D01*
X151100000Y-101800000D02*
X157700000Y-101800000D01*
X147950000Y-113000000D02*
X147950000Y-104950000D01*
X147950000Y-104950000D02*
X151100000Y-101800000D01*
X169746231Y-101823233D02*
X169746231Y-101653769D01*
X170247999Y-102325001D02*
X169746231Y-101823233D01*
X170525001Y-102325001D02*
X170247999Y-102325001D01*
X171000000Y-104600000D02*
X171000000Y-102800000D01*
X167600000Y-105100000D02*
X170500000Y-105100000D01*
X163874999Y-108825001D02*
X167600000Y-105100000D01*
X170500000Y-105100000D02*
X171000000Y-104600000D01*
X154050000Y-103450000D02*
X154600000Y-102900000D01*
X154050000Y-106800000D02*
X154050000Y-103450000D01*
X159425001Y-108825001D02*
X163874999Y-108825001D01*
X154600000Y-102900000D02*
X157200000Y-102900000D01*
X157200000Y-102900000D02*
X158300000Y-104000000D01*
X171000000Y-102800000D02*
X170525001Y-102325001D01*
X158300000Y-104000000D02*
X158300000Y-107700000D01*
X158300000Y-107700000D02*
X159425001Y-108825001D01*
X148450000Y-118600000D02*
X148800000Y-118250000D01*
X147950000Y-118600000D02*
X148450000Y-118600000D01*
X148800000Y-118250000D02*
X148800000Y-105000000D01*
X148800000Y-105000000D02*
X151600000Y-102200000D01*
X151600000Y-102200000D02*
X157700000Y-102200000D01*
X157700000Y-102200000D02*
X157900000Y-102200000D01*
X162574999Y-97525001D02*
X165225001Y-97525001D01*
X157900000Y-102200000D02*
X162574999Y-97525001D01*
X165225001Y-97525001D02*
X165675000Y-97975000D01*
X165675000Y-97975000D02*
X165675000Y-98200000D01*
X174375752Y-103475736D02*
X174375752Y-103900000D01*
X177600000Y-98000000D02*
X174375752Y-101224248D01*
X174375752Y-101224248D02*
X174375752Y-103475736D01*
X162500000Y-100000000D02*
X162500000Y-98900000D01*
X162450000Y-106700000D02*
X162500000Y-106650000D01*
X162500000Y-106650000D02*
X162500000Y-100000000D01*
X182350000Y-117000000D02*
X182750000Y-117400000D01*
X179800000Y-117000000D02*
X182350000Y-117000000D01*
X182550000Y-115600000D02*
X182750000Y-115800000D01*
X179600000Y-115600000D02*
X182550000Y-115600000D01*
X169600000Y-114950000D02*
X168850000Y-115700000D01*
X169600000Y-114700000D02*
X169600000Y-114950000D01*
X163650001Y-98050001D02*
X162800000Y-98050001D01*
X171450000Y-101950000D02*
X170125001Y-100625001D01*
X171450000Y-106600000D02*
X171450000Y-101950000D01*
X170125001Y-100625001D02*
X165125001Y-100625001D01*
X165125001Y-100625001D02*
X164100000Y-99600000D01*
X164100000Y-99600000D02*
X164100000Y-98500000D01*
X164100000Y-98500000D02*
X163650001Y-98050001D01*
X180400000Y-114200000D02*
X179900000Y-113700000D01*
X182750000Y-114200000D02*
X180400000Y-114200000D01*
X156800000Y-117750000D02*
X156150000Y-117750000D01*
X156150000Y-117750000D02*
X156000000Y-117600000D01*
X157700000Y-118800000D02*
X157700000Y-119800000D01*
X159400000Y-117750000D02*
X158750000Y-117750000D01*
X158750000Y-117750000D02*
X157700000Y-118800000D01*
X170000000Y-98700000D02*
X168300000Y-98700000D01*
X173300000Y-102000000D02*
X170000000Y-98700000D01*
X168300000Y-98700000D02*
X168175000Y-98700000D01*
X173300000Y-102992462D02*
X173300000Y-102000000D01*
X173296231Y-102996231D02*
X173300000Y-102992462D01*
X180050000Y-106600000D02*
X180050000Y-106050000D01*
X174100000Y-105600000D02*
X173296231Y-104796231D01*
X179600000Y-105600000D02*
X174100000Y-105600000D01*
X173296231Y-104796231D02*
X173296231Y-102996231D01*
X180050000Y-106050000D02*
X179600000Y-105600000D01*
X160950000Y-117750000D02*
X162000000Y-117750000D01*
X160200000Y-118500000D02*
X160950000Y-117750000D01*
X159074999Y-118500000D02*
X160200000Y-118500000D01*
X158750002Y-118824997D02*
X159074999Y-118500000D01*
X158450003Y-119800000D02*
X158750002Y-119500001D01*
X158750002Y-119500001D02*
X158750002Y-118824997D01*
X163650000Y-117750000D02*
X164400000Y-117750000D01*
X162800000Y-118600000D02*
X163650000Y-117750000D01*
X160226910Y-119742303D02*
X161369213Y-118600000D01*
X161369213Y-118600000D02*
X162800000Y-118600000D01*
X169550000Y-117750000D02*
X169600000Y-117750000D01*
X168799999Y-118500001D02*
X169550000Y-117750000D01*
X168799999Y-119500001D02*
X168799999Y-118500001D01*
X168500000Y-119800000D02*
X168799999Y-119500001D01*
X162000000Y-113850000D02*
X162000000Y-116349960D01*
X167000000Y-115725000D02*
X167000000Y-113650000D01*
X172050000Y-113650000D02*
X172200000Y-113650000D01*
X171400000Y-113000000D02*
X172050000Y-113650000D01*
X168500000Y-113000000D02*
X171400000Y-113000000D01*
X167700000Y-113800000D02*
X168500000Y-113000000D01*
X167713539Y-115956003D02*
X167700000Y-115942464D01*
X167700000Y-115942464D02*
X167700000Y-113800000D01*
X168700000Y-77700000D02*
X166600000Y-79800000D01*
X168700000Y-76300000D02*
X168700000Y-77700000D01*
X166600000Y-79800000D02*
X166600000Y-80000000D01*
X155725001Y-88474999D02*
X155725001Y-80625001D01*
X157100000Y-91100000D02*
X155725001Y-89725001D01*
X155725001Y-89725001D02*
X155725001Y-88474999D01*
X144699999Y-90900001D02*
X144400000Y-91200000D01*
X144999999Y-90600001D02*
X144699999Y-90900001D01*
X144999999Y-89999999D02*
X144999999Y-90600001D01*
X143800000Y-88800000D02*
X144999999Y-89999999D01*
X143800000Y-88800000D02*
X143800000Y-84420000D01*
X155200001Y-80199999D02*
X155500000Y-79900000D01*
X155200001Y-82699999D02*
X155200001Y-80199999D01*
X154674999Y-83225001D02*
X155200001Y-82699999D01*
X155500000Y-91700000D02*
X154674999Y-90874999D01*
X154674999Y-90874999D02*
X154674999Y-83225001D01*
X162200000Y-57100000D02*
X162200000Y-55100000D01*
X161600000Y-57700000D02*
X162200000Y-57100000D01*
X161600000Y-60200000D02*
X161600000Y-57700000D01*
X165214805Y-87685195D02*
X165800000Y-87100000D01*
X164797039Y-87685195D02*
X165214805Y-87685195D01*
X165800000Y-87100000D02*
X165800000Y-85200000D01*
X165800000Y-85200000D02*
X163200000Y-82600000D01*
X163200000Y-82600000D02*
X163200000Y-61800000D01*
X163200000Y-61800000D02*
X161600000Y-60200000D01*
X161300000Y-56000000D02*
X161600000Y-55700000D01*
X161300000Y-63200000D02*
X161300000Y-56000000D01*
X162700000Y-64600000D02*
X161300000Y-63200000D01*
X164700000Y-85700000D02*
X162700000Y-83700000D01*
X162700000Y-83700000D02*
X162700000Y-64600000D01*
X161000000Y-71100000D02*
X161000000Y-55100000D01*
X161500000Y-71600000D02*
X161000000Y-71100000D01*
X161500000Y-83999999D02*
X161500000Y-71600000D01*
X164700000Y-86800000D02*
X164300000Y-86800000D01*
X164300000Y-86800000D02*
X161500000Y-83999999D01*
X160900000Y-72100000D02*
X160900000Y-81600000D01*
X160400000Y-55700000D02*
X160400000Y-71600000D01*
X160400000Y-71600000D02*
X160900000Y-72100000D01*
X158399999Y-86100001D02*
X158100000Y-86400000D01*
X160300000Y-84200000D02*
X158399999Y-86100001D01*
X160300000Y-72600000D02*
X160300000Y-84200000D01*
X159800000Y-55100000D02*
X159800000Y-72100000D01*
X159800000Y-72100000D02*
X160300000Y-72600000D01*
X159200000Y-55700000D02*
X159200000Y-72774990D01*
X159200000Y-72774990D02*
X159074990Y-72900000D01*
X159700000Y-88125000D02*
X159600000Y-88225000D01*
X159700000Y-86675000D02*
X159700000Y-88125000D01*
X167200000Y-104125000D02*
X163400000Y-100325000D01*
X163400000Y-100325000D02*
X163400000Y-98700000D01*
X165524264Y-98774990D02*
X165100000Y-98774990D01*
X166725000Y-98400000D02*
X166350010Y-98774990D01*
X166350010Y-98774990D02*
X165524264Y-98774990D01*
X173821232Y-103996968D02*
X173821232Y-104421232D01*
X174200000Y-98400000D02*
X173821232Y-98778768D01*
X173821232Y-98778768D02*
X173821232Y-103996968D01*
X167150000Y-90200000D02*
X167150000Y-89000000D01*
X168150000Y-90200000D02*
X168300000Y-90350000D01*
X167150000Y-90200000D02*
X168150000Y-90200000D01*
X135280000Y-59020000D02*
X135340000Y-59020000D01*
X133500000Y-60800000D02*
X135280000Y-59020000D01*
X155500000Y-61700000D02*
X153000000Y-61700000D01*
X153000000Y-61700000D02*
X152800000Y-61700000D01*
X150000000Y-61700000D02*
X153000000Y-61700000D01*
X145100000Y-56800000D02*
X150000000Y-61700000D01*
X135340000Y-59020000D02*
X137560000Y-56800000D01*
X137560000Y-56800000D02*
X145100000Y-56800000D01*
X140025001Y-97574999D02*
X140700000Y-96900000D01*
X139799999Y-97800001D02*
X140025001Y-97574999D01*
X136875737Y-97800001D02*
X139799999Y-97800001D01*
X136500000Y-97424264D02*
X136875737Y-97800001D01*
X136500000Y-97000000D02*
X136500000Y-97424264D01*
X187200000Y-115800000D02*
X187300000Y-115700000D01*
X184250000Y-115800000D02*
X187200000Y-115800000D01*
X187300000Y-113750000D02*
X187300000Y-113200000D01*
X186850000Y-114200000D02*
X187300000Y-113750000D01*
X184250000Y-114200000D02*
X186850000Y-114200000D01*
X208095000Y-121500000D02*
X208070000Y-121475000D01*
X208100000Y-121500000D02*
X208095000Y-121500000D01*
X215700000Y-126515000D02*
X215690000Y-126525000D01*
X215700000Y-125300000D02*
X215700000Y-126515000D01*
X218300000Y-121405000D02*
X218230000Y-121475000D01*
X218300000Y-121400000D02*
X218300000Y-121405000D01*
X220795000Y-121500000D02*
X220770000Y-121475000D01*
X220800000Y-121500000D02*
X220795000Y-121500000D01*
X220800000Y-126555000D02*
X220770000Y-126525000D01*
X220800000Y-127100000D02*
X220800000Y-126555000D01*
X223400000Y-126615000D02*
X223310000Y-126525000D01*
X223400000Y-126800000D02*
X223400000Y-126615000D01*
X224174999Y-121875735D02*
X224174999Y-120025001D01*
X224500000Y-122625000D02*
X224500000Y-122200736D01*
X224500000Y-122200736D02*
X224174999Y-121875735D01*
X224174999Y-120025001D02*
X225000000Y-119200000D01*
X228390000Y-120400000D02*
X228390000Y-121475000D01*
X227190000Y-119200000D02*
X228390000Y-120400000D01*
X225000000Y-119200000D02*
X227190000Y-119200000D01*
X230930000Y-122550000D02*
X230930000Y-121475000D01*
X230080000Y-123400000D02*
X230930000Y-122550000D01*
X224900000Y-123400000D02*
X230080000Y-123400000D01*
X192565000Y-120865000D02*
X192600000Y-120900000D01*
X195100000Y-118695000D02*
X195105000Y-118700000D01*
X195100000Y-118600000D02*
X195100000Y-118695000D01*
X195100000Y-121695000D02*
X195105000Y-121700000D01*
X195100000Y-118600000D02*
X195100000Y-121695000D01*
X193800000Y-118735000D02*
X193835000Y-118700000D01*
X193800000Y-120600000D02*
X193800000Y-118735000D01*
X196400000Y-118675000D02*
X196375000Y-118700000D01*
X196400000Y-118200000D02*
X196400000Y-118675000D01*
X155500000Y-106750000D02*
X155550000Y-106800000D01*
X155500000Y-104200000D02*
X155500000Y-106750000D01*
X152950000Y-107350000D02*
X153300000Y-107700000D01*
X152950000Y-106800000D02*
X152950000Y-107350000D01*
X153300000Y-107700000D02*
X155300000Y-107700000D01*
X155550000Y-107450000D02*
X155550000Y-106800000D01*
X155300000Y-107700000D02*
X155550000Y-107450000D01*
X173325001Y-117174999D02*
X173600000Y-116900000D01*
X156474999Y-117174999D02*
X173325001Y-117174999D01*
X155250000Y-115900000D02*
X155250000Y-115950000D01*
X155250000Y-115950000D02*
X156474999Y-117174999D01*
X172225012Y-116874988D02*
X172800000Y-116300000D01*
X159774988Y-116874988D02*
X172225012Y-116874988D01*
X158850000Y-115900000D02*
X158850000Y-115950000D01*
X158850000Y-115950000D02*
X159774988Y-116874988D01*
X163900000Y-106650000D02*
X163950000Y-106700000D01*
X163900000Y-104100000D02*
X163900000Y-106650000D01*
X161350000Y-107250000D02*
X161800000Y-107700000D01*
X161350000Y-106700000D02*
X161350000Y-107250000D01*
X161800000Y-107700000D02*
X163700000Y-107700000D01*
X163950000Y-107450000D02*
X163950000Y-106700000D01*
X163700000Y-107700000D02*
X163950000Y-107450000D01*
X172600000Y-115600000D02*
X172600000Y-115300000D01*
X171700000Y-116500000D02*
X172600000Y-115600000D01*
X164100000Y-116500000D02*
X171700000Y-116500000D01*
X163850000Y-115700000D02*
X163850000Y-116250000D01*
X163850000Y-116250000D02*
X164100000Y-116500000D01*
X172500000Y-104000000D02*
X172500000Y-105000000D01*
X172950000Y-105450000D02*
X172950000Y-106600000D01*
X172500000Y-105000000D02*
X172950000Y-105450000D01*
X170350000Y-107150000D02*
X170800000Y-107600000D01*
X170350000Y-106600000D02*
X170350000Y-107150000D01*
X170800000Y-107600000D02*
X172600000Y-107600000D01*
X172950000Y-107250000D02*
X172950000Y-106600000D01*
X172600000Y-107600000D02*
X172950000Y-107250000D01*
X172400000Y-114500000D02*
X172075000Y-114500000D01*
X172800000Y-114500000D02*
X172400000Y-114500000D01*
X174050000Y-115700000D02*
X174000000Y-115700000D01*
X174000000Y-115700000D02*
X172800000Y-114500000D01*
X181050000Y-106600000D02*
X181550000Y-106600000D01*
X180900000Y-106450000D02*
X181050000Y-106600000D01*
X180900000Y-104200000D02*
X180900000Y-106450000D01*
X178950000Y-107150000D02*
X179300000Y-107500000D01*
X178950000Y-106600000D02*
X178950000Y-107150000D01*
X179300000Y-107500000D02*
X181300000Y-107500000D01*
X181550000Y-107250000D02*
X181550000Y-106600000D01*
X181300000Y-107500000D02*
X181550000Y-107250000D01*
X131660000Y-120640000D02*
X131660000Y-117600000D01*
X128900000Y-124250000D02*
X128900000Y-123400000D01*
X128900000Y-123400000D02*
X131660000Y-120640000D01*
D44*
X116420000Y-117600000D02*
X116420000Y-125720000D01*
X117450000Y-126750000D02*
X119700000Y-126750000D01*
X116420000Y-125720000D02*
X117450000Y-126750000D01*
X119700000Y-121940000D02*
X124040000Y-117600000D01*
X119700000Y-123250000D02*
X119700000Y-121940000D01*
D40*
X128900000Y-125750000D02*
X130300000Y-125750000D01*
D45*
G36*
X171090000Y-53731001D02*
G01*
X171130624Y-53727000D01*
X179473000Y-53727000D01*
X179473000Y-57000000D01*
X179475440Y-57024776D01*
X179482667Y-57048601D01*
X179494403Y-57070557D01*
X179510197Y-57089803D01*
X179529443Y-57105597D01*
X179551399Y-57117333D01*
X179575224Y-57124560D01*
X179600000Y-57127000D01*
X182473000Y-57127000D01*
X182473000Y-67073000D01*
X169327000Y-67073000D01*
X169327000Y-63338246D01*
X172573000Y-63338246D01*
X172573000Y-63461754D01*
X172597095Y-63582889D01*
X172644360Y-63696996D01*
X172712977Y-63799689D01*
X172800311Y-63887023D01*
X172894563Y-63950000D01*
X172800311Y-64012977D01*
X172712977Y-64100311D01*
X172644360Y-64203004D01*
X172597095Y-64317111D01*
X172573000Y-64438246D01*
X172573000Y-64561754D01*
X172597095Y-64682889D01*
X172644360Y-64796996D01*
X172712977Y-64899689D01*
X172800311Y-64987023D01*
X172903004Y-65055640D01*
X173017111Y-65102905D01*
X173138246Y-65127000D01*
X173261754Y-65127000D01*
X173382889Y-65102905D01*
X173496996Y-65055640D01*
X173599689Y-64987023D01*
X173600000Y-64986712D01*
X173600311Y-64987023D01*
X173703004Y-65055640D01*
X173817111Y-65102905D01*
X173938246Y-65127000D01*
X174061754Y-65127000D01*
X174182889Y-65102905D01*
X174296996Y-65055640D01*
X174399689Y-64987023D01*
X174400000Y-64986712D01*
X174400311Y-64987023D01*
X174503004Y-65055640D01*
X174617111Y-65102905D01*
X174738246Y-65127000D01*
X174861754Y-65127000D01*
X174982889Y-65102905D01*
X175096996Y-65055640D01*
X175199689Y-64987023D01*
X175287023Y-64899689D01*
X175355640Y-64796996D01*
X175402905Y-64682889D01*
X175427000Y-64561754D01*
X175427000Y-64438246D01*
X175402905Y-64317111D01*
X175355640Y-64203004D01*
X175287023Y-64100311D01*
X175199689Y-64012977D01*
X175105437Y-63950000D01*
X175199689Y-63887023D01*
X175287023Y-63799689D01*
X175355640Y-63696996D01*
X175402905Y-63582889D01*
X175427000Y-63461754D01*
X175427000Y-63338246D01*
X175402905Y-63217111D01*
X175355640Y-63103004D01*
X175287023Y-63000311D01*
X175199689Y-62912977D01*
X175096996Y-62844360D01*
X174982889Y-62797095D01*
X174861754Y-62773000D01*
X174738246Y-62773000D01*
X174617111Y-62797095D01*
X174503004Y-62844360D01*
X174400311Y-62912977D01*
X174400000Y-62913288D01*
X174399689Y-62912977D01*
X174296996Y-62844360D01*
X174182889Y-62797095D01*
X174061754Y-62773000D01*
X173938246Y-62773000D01*
X173817111Y-62797095D01*
X173703004Y-62844360D01*
X173600311Y-62912977D01*
X173600000Y-62913288D01*
X173599689Y-62912977D01*
X173496996Y-62844360D01*
X173382889Y-62797095D01*
X173261754Y-62773000D01*
X173138246Y-62773000D01*
X173017111Y-62797095D01*
X172903004Y-62844360D01*
X172800311Y-62912977D01*
X172712977Y-63000311D01*
X172644360Y-63103004D01*
X172597095Y-63217111D01*
X172573000Y-63338246D01*
X169327000Y-63338246D01*
X169327000Y-62138246D01*
X175373000Y-62138246D01*
X175373000Y-62261754D01*
X175397095Y-62382889D01*
X175444360Y-62496996D01*
X175512977Y-62599689D01*
X175600311Y-62687023D01*
X175703004Y-62755640D01*
X175817111Y-62802905D01*
X175938246Y-62827000D01*
X176061754Y-62827000D01*
X176182889Y-62802905D01*
X176296996Y-62755640D01*
X176399689Y-62687023D01*
X176487023Y-62599689D01*
X176555640Y-62496996D01*
X176602905Y-62382889D01*
X176627000Y-62261754D01*
X176627000Y-62138246D01*
X176602905Y-62017111D01*
X176555640Y-61903004D01*
X176487023Y-61800311D01*
X176399689Y-61712977D01*
X176296996Y-61644360D01*
X176182889Y-61597095D01*
X176061754Y-61573000D01*
X175938246Y-61573000D01*
X175817111Y-61597095D01*
X175703004Y-61644360D01*
X175600311Y-61712977D01*
X175512977Y-61800311D01*
X175444360Y-61903004D01*
X175397095Y-62017111D01*
X175373000Y-62138246D01*
X169327000Y-62138246D01*
X169327000Y-61438246D01*
X170773000Y-61438246D01*
X170773000Y-61561754D01*
X170797095Y-61682889D01*
X170844360Y-61796996D01*
X170912977Y-61899689D01*
X171000311Y-61987023D01*
X171103004Y-62055640D01*
X171217111Y-62102905D01*
X171338246Y-62127000D01*
X171461754Y-62127000D01*
X171582889Y-62102905D01*
X171696996Y-62055640D01*
X171799689Y-61987023D01*
X171887023Y-61899689D01*
X171955640Y-61796996D01*
X172002905Y-61682889D01*
X172027000Y-61561754D01*
X172027000Y-61438246D01*
X172002905Y-61317111D01*
X171955640Y-61203004D01*
X171887023Y-61100311D01*
X171799689Y-61012977D01*
X171696996Y-60944360D01*
X171582889Y-60897095D01*
X171461754Y-60873000D01*
X171338246Y-60873000D01*
X171217111Y-60897095D01*
X171103004Y-60944360D01*
X171000311Y-61012977D01*
X170912977Y-61100311D01*
X170844360Y-61203004D01*
X170797095Y-61317111D01*
X170773000Y-61438246D01*
X169327000Y-61438246D01*
X169327000Y-60955086D01*
X169344360Y-60996996D01*
X169412977Y-61099689D01*
X169500311Y-61187023D01*
X169603004Y-61255640D01*
X169717111Y-61302905D01*
X169838246Y-61327000D01*
X169961754Y-61327000D01*
X170082889Y-61302905D01*
X170196996Y-61255640D01*
X170299689Y-61187023D01*
X170387023Y-61099689D01*
X170455640Y-60996996D01*
X170502905Y-60882889D01*
X170527000Y-60761754D01*
X170527000Y-60638246D01*
X170502905Y-60517111D01*
X170455640Y-60403004D01*
X170453979Y-60400518D01*
X170508838Y-60377795D01*
X170615626Y-60306442D01*
X170706442Y-60215626D01*
X170777795Y-60108838D01*
X170826944Y-59990181D01*
X170852000Y-59864216D01*
X170852000Y-59735784D01*
X170838968Y-59670269D01*
X170892119Y-59665034D01*
X171048009Y-59617745D01*
X171191678Y-59540952D01*
X171317606Y-59437606D01*
X171420952Y-59311679D01*
X171497745Y-59168010D01*
X171545034Y-59012120D01*
X171557000Y-58890624D01*
X171557000Y-58209376D01*
X171545034Y-58087880D01*
X171497745Y-57931990D01*
X171420952Y-57788321D01*
X171317606Y-57662394D01*
X171191679Y-57559048D01*
X171048010Y-57482255D01*
X170892120Y-57434966D01*
X170730000Y-57418999D01*
X170567881Y-57434966D01*
X170411991Y-57482255D01*
X170268322Y-57559048D01*
X170170639Y-57639215D01*
X170155640Y-57603004D01*
X170087023Y-57500311D01*
X169999689Y-57412977D01*
X169896996Y-57344360D01*
X169782889Y-57297095D01*
X169661754Y-57273000D01*
X169538246Y-57273000D01*
X169417111Y-57297095D01*
X169327000Y-57334420D01*
X169327000Y-53727000D01*
X171049376Y-53727000D01*
X171090000Y-53731001D01*
X171090000Y-53731001D01*
G37*
X171090000Y-53731001D02*
X171130624Y-53727000D01*
X179473000Y-53727000D01*
X179473000Y-57000000D01*
X179475440Y-57024776D01*
X179482667Y-57048601D01*
X179494403Y-57070557D01*
X179510197Y-57089803D01*
X179529443Y-57105597D01*
X179551399Y-57117333D01*
X179575224Y-57124560D01*
X179600000Y-57127000D01*
X182473000Y-57127000D01*
X182473000Y-67073000D01*
X169327000Y-67073000D01*
X169327000Y-63338246D01*
X172573000Y-63338246D01*
X172573000Y-63461754D01*
X172597095Y-63582889D01*
X172644360Y-63696996D01*
X172712977Y-63799689D01*
X172800311Y-63887023D01*
X172894563Y-63950000D01*
X172800311Y-64012977D01*
X172712977Y-64100311D01*
X172644360Y-64203004D01*
X172597095Y-64317111D01*
X172573000Y-64438246D01*
X172573000Y-64561754D01*
X172597095Y-64682889D01*
X172644360Y-64796996D01*
X172712977Y-64899689D01*
X172800311Y-64987023D01*
X172903004Y-65055640D01*
X173017111Y-65102905D01*
X173138246Y-65127000D01*
X173261754Y-65127000D01*
X173382889Y-65102905D01*
X173496996Y-65055640D01*
X173599689Y-64987023D01*
X173600000Y-64986712D01*
X173600311Y-64987023D01*
X173703004Y-65055640D01*
X173817111Y-65102905D01*
X173938246Y-65127000D01*
X174061754Y-65127000D01*
X174182889Y-65102905D01*
X174296996Y-65055640D01*
X174399689Y-64987023D01*
X174400000Y-64986712D01*
X174400311Y-64987023D01*
X174503004Y-65055640D01*
X174617111Y-65102905D01*
X174738246Y-65127000D01*
X174861754Y-65127000D01*
X174982889Y-65102905D01*
X175096996Y-65055640D01*
X175199689Y-64987023D01*
X175287023Y-64899689D01*
X175355640Y-64796996D01*
X175402905Y-64682889D01*
X175427000Y-64561754D01*
X175427000Y-64438246D01*
X175402905Y-64317111D01*
X175355640Y-64203004D01*
X175287023Y-64100311D01*
X175199689Y-64012977D01*
X175105437Y-63950000D01*
X175199689Y-63887023D01*
X175287023Y-63799689D01*
X175355640Y-63696996D01*
X175402905Y-63582889D01*
X175427000Y-63461754D01*
X175427000Y-63338246D01*
X175402905Y-63217111D01*
X175355640Y-63103004D01*
X175287023Y-63000311D01*
X175199689Y-62912977D01*
X175096996Y-62844360D01*
X174982889Y-62797095D01*
X174861754Y-62773000D01*
X174738246Y-62773000D01*
X174617111Y-62797095D01*
X174503004Y-62844360D01*
X174400311Y-62912977D01*
X174400000Y-62913288D01*
X174399689Y-62912977D01*
X174296996Y-62844360D01*
X174182889Y-62797095D01*
X174061754Y-62773000D01*
X173938246Y-62773000D01*
X173817111Y-62797095D01*
X173703004Y-62844360D01*
X173600311Y-62912977D01*
X173600000Y-62913288D01*
X173599689Y-62912977D01*
X173496996Y-62844360D01*
X173382889Y-62797095D01*
X173261754Y-62773000D01*
X173138246Y-62773000D01*
X173017111Y-62797095D01*
X172903004Y-62844360D01*
X172800311Y-62912977D01*
X172712977Y-63000311D01*
X172644360Y-63103004D01*
X172597095Y-63217111D01*
X172573000Y-63338246D01*
X169327000Y-63338246D01*
X169327000Y-62138246D01*
X175373000Y-62138246D01*
X175373000Y-62261754D01*
X175397095Y-62382889D01*
X175444360Y-62496996D01*
X175512977Y-62599689D01*
X175600311Y-62687023D01*
X175703004Y-62755640D01*
X175817111Y-62802905D01*
X175938246Y-62827000D01*
X176061754Y-62827000D01*
X176182889Y-62802905D01*
X176296996Y-62755640D01*
X176399689Y-62687023D01*
X176487023Y-62599689D01*
X176555640Y-62496996D01*
X176602905Y-62382889D01*
X176627000Y-62261754D01*
X176627000Y-62138246D01*
X176602905Y-62017111D01*
X176555640Y-61903004D01*
X176487023Y-61800311D01*
X176399689Y-61712977D01*
X176296996Y-61644360D01*
X176182889Y-61597095D01*
X176061754Y-61573000D01*
X175938246Y-61573000D01*
X175817111Y-61597095D01*
X175703004Y-61644360D01*
X175600311Y-61712977D01*
X175512977Y-61800311D01*
X175444360Y-61903004D01*
X175397095Y-62017111D01*
X175373000Y-62138246D01*
X169327000Y-62138246D01*
X169327000Y-61438246D01*
X170773000Y-61438246D01*
X170773000Y-61561754D01*
X170797095Y-61682889D01*
X170844360Y-61796996D01*
X170912977Y-61899689D01*
X171000311Y-61987023D01*
X171103004Y-62055640D01*
X171217111Y-62102905D01*
X171338246Y-62127000D01*
X171461754Y-62127000D01*
X171582889Y-62102905D01*
X171696996Y-62055640D01*
X171799689Y-61987023D01*
X171887023Y-61899689D01*
X171955640Y-61796996D01*
X172002905Y-61682889D01*
X172027000Y-61561754D01*
X172027000Y-61438246D01*
X172002905Y-61317111D01*
X171955640Y-61203004D01*
X171887023Y-61100311D01*
X171799689Y-61012977D01*
X171696996Y-60944360D01*
X171582889Y-60897095D01*
X171461754Y-60873000D01*
X171338246Y-60873000D01*
X171217111Y-60897095D01*
X171103004Y-60944360D01*
X171000311Y-61012977D01*
X170912977Y-61100311D01*
X170844360Y-61203004D01*
X170797095Y-61317111D01*
X170773000Y-61438246D01*
X169327000Y-61438246D01*
X169327000Y-60955086D01*
X169344360Y-60996996D01*
X169412977Y-61099689D01*
X169500311Y-61187023D01*
X169603004Y-61255640D01*
X169717111Y-61302905D01*
X169838246Y-61327000D01*
X169961754Y-61327000D01*
X170082889Y-61302905D01*
X170196996Y-61255640D01*
X170299689Y-61187023D01*
X170387023Y-61099689D01*
X170455640Y-60996996D01*
X170502905Y-60882889D01*
X170527000Y-60761754D01*
X170527000Y-60638246D01*
X170502905Y-60517111D01*
X170455640Y-60403004D01*
X170453979Y-60400518D01*
X170508838Y-60377795D01*
X170615626Y-60306442D01*
X170706442Y-60215626D01*
X170777795Y-60108838D01*
X170826944Y-59990181D01*
X170852000Y-59864216D01*
X170852000Y-59735784D01*
X170838968Y-59670269D01*
X170892119Y-59665034D01*
X171048009Y-59617745D01*
X171191678Y-59540952D01*
X171317606Y-59437606D01*
X171420952Y-59311679D01*
X171497745Y-59168010D01*
X171545034Y-59012120D01*
X171557000Y-58890624D01*
X171557000Y-58209376D01*
X171545034Y-58087880D01*
X171497745Y-57931990D01*
X171420952Y-57788321D01*
X171317606Y-57662394D01*
X171191679Y-57559048D01*
X171048010Y-57482255D01*
X170892120Y-57434966D01*
X170730000Y-57418999D01*
X170567881Y-57434966D01*
X170411991Y-57482255D01*
X170268322Y-57559048D01*
X170170639Y-57639215D01*
X170155640Y-57603004D01*
X170087023Y-57500311D01*
X169999689Y-57412977D01*
X169896996Y-57344360D01*
X169782889Y-57297095D01*
X169661754Y-57273000D01*
X169538246Y-57273000D01*
X169417111Y-57297095D01*
X169327000Y-57334420D01*
X169327000Y-53727000D01*
X171049376Y-53727000D01*
X171090000Y-53731001D01*
G36*
X230767657Y-51632343D02*
G01*
X230817450Y-51673206D01*
X230874257Y-51703570D01*
X230935897Y-51722268D01*
X231000000Y-51728582D01*
X231800000Y-51728582D01*
X231864103Y-51722268D01*
X231925743Y-51703570D01*
X231982550Y-51673206D01*
X232032343Y-51632343D01*
X232036728Y-51627000D01*
X233873000Y-51627000D01*
X233873000Y-52973000D01*
X232900000Y-52973000D01*
X232875224Y-52975440D01*
X232851399Y-52982667D01*
X232829443Y-52994403D01*
X232810197Y-53010197D01*
X231910197Y-53910197D01*
X231894403Y-53929443D01*
X231882667Y-53951399D01*
X231875440Y-53975224D01*
X231873000Y-54000000D01*
X231873000Y-54873000D01*
X228127000Y-54873000D01*
X228127000Y-51627000D01*
X230763272Y-51627000D01*
X230767657Y-51632343D01*
X230767657Y-51632343D01*
G37*
X230767657Y-51632343D02*
X230817450Y-51673206D01*
X230874257Y-51703570D01*
X230935897Y-51722268D01*
X231000000Y-51728582D01*
X231800000Y-51728582D01*
X231864103Y-51722268D01*
X231925743Y-51703570D01*
X231982550Y-51673206D01*
X232032343Y-51632343D01*
X232036728Y-51627000D01*
X233873000Y-51627000D01*
X233873000Y-52973000D01*
X232900000Y-52973000D01*
X232875224Y-52975440D01*
X232851399Y-52982667D01*
X232829443Y-52994403D01*
X232810197Y-53010197D01*
X231910197Y-53910197D01*
X231894403Y-53929443D01*
X231882667Y-53951399D01*
X231875440Y-53975224D01*
X231873000Y-54000000D01*
X231873000Y-54873000D01*
X228127000Y-54873000D01*
X228127000Y-51627000D01*
X230763272Y-51627000D01*
X230767657Y-51632343D01*
G36*
X214967657Y-51632343D02*
G01*
X215017450Y-51673206D01*
X215074257Y-51703570D01*
X215135897Y-51722268D01*
X215200000Y-51728582D01*
X216000000Y-51728582D01*
X216064103Y-51722268D01*
X216125743Y-51703570D01*
X216182550Y-51673206D01*
X216232343Y-51632343D01*
X216236728Y-51627000D01*
X218073000Y-51627000D01*
X218073000Y-52973000D01*
X217100000Y-52973000D01*
X217075224Y-52975440D01*
X217051399Y-52982667D01*
X217029443Y-52994403D01*
X217010197Y-53010197D01*
X216110197Y-53910197D01*
X216094403Y-53929443D01*
X216082667Y-53951399D01*
X216075440Y-53975224D01*
X216073000Y-54000000D01*
X216073000Y-54873000D01*
X212327000Y-54873000D01*
X212327000Y-51627000D01*
X214963272Y-51627000D01*
X214967657Y-51632343D01*
X214967657Y-51632343D01*
G37*
X214967657Y-51632343D02*
X215017450Y-51673206D01*
X215074257Y-51703570D01*
X215135897Y-51722268D01*
X215200000Y-51728582D01*
X216000000Y-51728582D01*
X216064103Y-51722268D01*
X216125743Y-51703570D01*
X216182550Y-51673206D01*
X216232343Y-51632343D01*
X216236728Y-51627000D01*
X218073000Y-51627000D01*
X218073000Y-52973000D01*
X217100000Y-52973000D01*
X217075224Y-52975440D01*
X217051399Y-52982667D01*
X217029443Y-52994403D01*
X217010197Y-53010197D01*
X216110197Y-53910197D01*
X216094403Y-53929443D01*
X216082667Y-53951399D01*
X216075440Y-53975224D01*
X216073000Y-54000000D01*
X216073000Y-54873000D01*
X212327000Y-54873000D01*
X212327000Y-51627000D01*
X214963272Y-51627000D01*
X214967657Y-51632343D01*
G36*
X198967657Y-51632343D02*
G01*
X199017450Y-51673206D01*
X199074257Y-51703570D01*
X199135897Y-51722268D01*
X199200000Y-51728582D01*
X200000000Y-51728582D01*
X200064103Y-51722268D01*
X200125743Y-51703570D01*
X200182550Y-51673206D01*
X200232343Y-51632343D01*
X200236728Y-51627000D01*
X202073000Y-51627000D01*
X202073000Y-52973000D01*
X201100000Y-52973000D01*
X201075224Y-52975440D01*
X201051399Y-52982667D01*
X201029443Y-52994403D01*
X201010197Y-53010197D01*
X200110197Y-53910197D01*
X200094403Y-53929443D01*
X200082667Y-53951399D01*
X200075440Y-53975224D01*
X200073000Y-54000000D01*
X200073000Y-54873000D01*
X196327000Y-54873000D01*
X196327000Y-51627000D01*
X198963272Y-51627000D01*
X198967657Y-51632343D01*
X198967657Y-51632343D01*
G37*
X198967657Y-51632343D02*
X199017450Y-51673206D01*
X199074257Y-51703570D01*
X199135897Y-51722268D01*
X199200000Y-51728582D01*
X200000000Y-51728582D01*
X200064103Y-51722268D01*
X200125743Y-51703570D01*
X200182550Y-51673206D01*
X200232343Y-51632343D01*
X200236728Y-51627000D01*
X202073000Y-51627000D01*
X202073000Y-52973000D01*
X201100000Y-52973000D01*
X201075224Y-52975440D01*
X201051399Y-52982667D01*
X201029443Y-52994403D01*
X201010197Y-53010197D01*
X200110197Y-53910197D01*
X200094403Y-53929443D01*
X200082667Y-53951399D01*
X200075440Y-53975224D01*
X200073000Y-54000000D01*
X200073000Y-54873000D01*
X196327000Y-54873000D01*
X196327000Y-51627000D01*
X198963272Y-51627000D01*
X198967657Y-51632343D01*
G36*
X230767657Y-72632343D02*
G01*
X230817450Y-72673206D01*
X230874257Y-72703570D01*
X230935897Y-72722268D01*
X231000000Y-72728582D01*
X231800000Y-72728582D01*
X231864103Y-72722268D01*
X231925743Y-72703570D01*
X231982550Y-72673206D01*
X232032343Y-72632343D01*
X232036728Y-72627000D01*
X233873000Y-72627000D01*
X233873000Y-73973000D01*
X232900000Y-73973000D01*
X232875224Y-73975440D01*
X232851399Y-73982667D01*
X232829443Y-73994403D01*
X232810197Y-74010197D01*
X231910197Y-74910197D01*
X231894403Y-74929443D01*
X231882667Y-74951399D01*
X231875440Y-74975224D01*
X231873000Y-75000000D01*
X231873000Y-75873000D01*
X228127000Y-75873000D01*
X228127000Y-72627000D01*
X230763272Y-72627000D01*
X230767657Y-72632343D01*
X230767657Y-72632343D01*
G37*
X230767657Y-72632343D02*
X230817450Y-72673206D01*
X230874257Y-72703570D01*
X230935897Y-72722268D01*
X231000000Y-72728582D01*
X231800000Y-72728582D01*
X231864103Y-72722268D01*
X231925743Y-72703570D01*
X231982550Y-72673206D01*
X232032343Y-72632343D01*
X232036728Y-72627000D01*
X233873000Y-72627000D01*
X233873000Y-73973000D01*
X232900000Y-73973000D01*
X232875224Y-73975440D01*
X232851399Y-73982667D01*
X232829443Y-73994403D01*
X232810197Y-74010197D01*
X231910197Y-74910197D01*
X231894403Y-74929443D01*
X231882667Y-74951399D01*
X231875440Y-74975224D01*
X231873000Y-75000000D01*
X231873000Y-75873000D01*
X228127000Y-75873000D01*
X228127000Y-72627000D01*
X230763272Y-72627000D01*
X230767657Y-72632343D01*
G36*
X230767657Y-93632343D02*
G01*
X230817450Y-93673206D01*
X230874257Y-93703570D01*
X230935897Y-93722268D01*
X231000000Y-93728582D01*
X231800000Y-93728582D01*
X231864103Y-93722268D01*
X231925743Y-93703570D01*
X231982550Y-93673206D01*
X232032343Y-93632343D01*
X232036728Y-93627000D01*
X233873000Y-93627000D01*
X233873000Y-94973000D01*
X232900000Y-94973000D01*
X232875224Y-94975440D01*
X232851399Y-94982667D01*
X232829443Y-94994403D01*
X232810197Y-95010197D01*
X231910197Y-95910197D01*
X231894403Y-95929443D01*
X231882667Y-95951399D01*
X231875440Y-95975224D01*
X231873000Y-96000000D01*
X231873000Y-97673000D01*
X228127000Y-97673000D01*
X228127000Y-94238246D01*
X228673000Y-94238246D01*
X228673000Y-94361754D01*
X228697095Y-94482889D01*
X228744360Y-94596996D01*
X228812977Y-94699689D01*
X228900311Y-94787023D01*
X229003004Y-94855640D01*
X229117111Y-94902905D01*
X229238246Y-94927000D01*
X229361754Y-94927000D01*
X229482889Y-94902905D01*
X229596996Y-94855640D01*
X229699689Y-94787023D01*
X229787023Y-94699689D01*
X229855640Y-94596996D01*
X229902905Y-94482889D01*
X229927000Y-94361754D01*
X229927000Y-94238246D01*
X229902905Y-94117111D01*
X229855640Y-94003004D01*
X229787023Y-93900311D01*
X229699689Y-93812977D01*
X229596996Y-93744360D01*
X229482889Y-93697095D01*
X229361754Y-93673000D01*
X229238246Y-93673000D01*
X229117111Y-93697095D01*
X229003004Y-93744360D01*
X228900311Y-93812977D01*
X228812977Y-93900311D01*
X228744360Y-94003004D01*
X228697095Y-94117111D01*
X228673000Y-94238246D01*
X228127000Y-94238246D01*
X228127000Y-93627000D01*
X230763272Y-93627000D01*
X230767657Y-93632343D01*
X230767657Y-93632343D01*
G37*
X230767657Y-93632343D02*
X230817450Y-93673206D01*
X230874257Y-93703570D01*
X230935897Y-93722268D01*
X231000000Y-93728582D01*
X231800000Y-93728582D01*
X231864103Y-93722268D01*
X231925743Y-93703570D01*
X231982550Y-93673206D01*
X232032343Y-93632343D01*
X232036728Y-93627000D01*
X233873000Y-93627000D01*
X233873000Y-94973000D01*
X232900000Y-94973000D01*
X232875224Y-94975440D01*
X232851399Y-94982667D01*
X232829443Y-94994403D01*
X232810197Y-95010197D01*
X231910197Y-95910197D01*
X231894403Y-95929443D01*
X231882667Y-95951399D01*
X231875440Y-95975224D01*
X231873000Y-96000000D01*
X231873000Y-97673000D01*
X228127000Y-97673000D01*
X228127000Y-94238246D01*
X228673000Y-94238246D01*
X228673000Y-94361754D01*
X228697095Y-94482889D01*
X228744360Y-94596996D01*
X228812977Y-94699689D01*
X228900311Y-94787023D01*
X229003004Y-94855640D01*
X229117111Y-94902905D01*
X229238246Y-94927000D01*
X229361754Y-94927000D01*
X229482889Y-94902905D01*
X229596996Y-94855640D01*
X229699689Y-94787023D01*
X229787023Y-94699689D01*
X229855640Y-94596996D01*
X229902905Y-94482889D01*
X229927000Y-94361754D01*
X229927000Y-94238246D01*
X229902905Y-94117111D01*
X229855640Y-94003004D01*
X229787023Y-93900311D01*
X229699689Y-93812977D01*
X229596996Y-93744360D01*
X229482889Y-93697095D01*
X229361754Y-93673000D01*
X229238246Y-93673000D01*
X229117111Y-93697095D01*
X229003004Y-93744360D01*
X228900311Y-93812977D01*
X228812977Y-93900311D01*
X228744360Y-94003004D01*
X228697095Y-94117111D01*
X228673000Y-94238246D01*
X228127000Y-94238246D01*
X228127000Y-93627000D01*
X230763272Y-93627000D01*
X230767657Y-93632343D01*
G36*
X226273000Y-97673000D02*
G01*
X223127000Y-97673000D01*
X223127000Y-95527000D01*
X226273000Y-95527000D01*
X226273000Y-97673000D01*
X226273000Y-97673000D01*
G37*
X226273000Y-97673000D02*
X223127000Y-97673000D01*
X223127000Y-95527000D01*
X226273000Y-95527000D01*
X226273000Y-97673000D01*
G36*
X226273000Y-76673000D02*
G01*
X223127000Y-76673000D01*
X223127000Y-74527000D01*
X226273000Y-74527000D01*
X226273000Y-76673000D01*
X226273000Y-76673000D01*
G37*
X226273000Y-76673000D02*
X223127000Y-76673000D01*
X223127000Y-74527000D01*
X226273000Y-74527000D01*
X226273000Y-76673000D01*
G36*
X226273000Y-54873000D02*
G01*
X223127000Y-54873000D01*
X223127000Y-52727000D01*
X226273000Y-52727000D01*
X226273000Y-54873000D01*
X226273000Y-54873000D01*
G37*
X226273000Y-54873000D02*
X223127000Y-54873000D01*
X223127000Y-52727000D01*
X226273000Y-52727000D01*
X226273000Y-54873000D01*
G36*
X210473000Y-54873000D02*
G01*
X207327000Y-54873000D01*
X207327000Y-52727000D01*
X210473000Y-52727000D01*
X210473000Y-54873000D01*
X210473000Y-54873000D01*
G37*
X210473000Y-54873000D02*
X207327000Y-54873000D01*
X207327000Y-52727000D01*
X210473000Y-52727000D01*
X210473000Y-54873000D01*
G36*
X194473000Y-54873000D02*
G01*
X191327000Y-54873000D01*
X191327000Y-52727000D01*
X194473000Y-52727000D01*
X194473000Y-54873000D01*
X194473000Y-54873000D01*
G37*
X194473000Y-54873000D02*
X191327000Y-54873000D01*
X191327000Y-52727000D01*
X194473000Y-52727000D01*
X194473000Y-54873000D01*
G36*
X186773000Y-58773000D02*
G01*
X183027000Y-58773000D01*
X183027000Y-56800000D01*
X183024560Y-56775224D01*
X183017333Y-56751399D01*
X183005597Y-56729443D01*
X182989803Y-56710197D01*
X182970557Y-56694403D01*
X182948601Y-56682667D01*
X182924776Y-56675440D01*
X182900000Y-56673000D01*
X180827000Y-56673000D01*
X180827000Y-53727000D01*
X186773000Y-53727000D01*
X186773000Y-58773000D01*
X186773000Y-58773000D01*
G37*
X186773000Y-58773000D02*
X183027000Y-58773000D01*
X183027000Y-56800000D01*
X183024560Y-56775224D01*
X183017333Y-56751399D01*
X183005597Y-56729443D01*
X182989803Y-56710197D01*
X182970557Y-56694403D01*
X182948601Y-56682667D01*
X182924776Y-56675440D01*
X182900000Y-56673000D01*
X180827000Y-56673000D01*
X180827000Y-53727000D01*
X186773000Y-53727000D01*
X186773000Y-58773000D01*
M02*
